<svg
	xmlns="http://www.w3.org/2000/svg" viewBox="0 0 449.15 87.47">
	<defs>
		<style>.cls-1,.cls-2{fill:none;}.cls-2{font-size:72px;font-family:SpaceMono-Bold, Space Mono;font-weight:700;}.cls-3,.cls-4,.cls-5{fill:#4E4E4D;}.cls-3{letter-spacing:-0.04em;}.cls-4{letter-spacing:-0.02em;}.cls-6{fill:#777777;}.cls-7{fill:#9D9D9C;}</style>
	</defs>
	<title>BAtivo 104M</title>
	<g id="Camada_2" data-name="Camada 2">
		<g id="Camada_1-2" data-name="Camada 1">
			<rect class="cls-1" width="449.15" height="75.65"/>
			<text class="cls-2" transform="translate(30.28 63.14)">VA
				<tspan class="cls-3" x="88.13" y="0">N</tspan>
				<tspan class="cls-4" x="129.67" y="0">T</tspan>
				<tspan class="cls-5" x="172.15" y="0">A</tspan>
				<tspan x="216.22" y="0">G</tspan>
				<tspan class="cls-5" x="260.28" y="0">EN</tspan>
				<tspan x="348.41" y="0">S</tspan>
			</text>
			<polygon class="cls-6" points="76.91 17.8 83.38 11.33 115.72 11.33 109.79 17.8 76.91 17.8"/>
			<polygon class="cls-6" points="83.43 37.82 89.9 31.35 108.61 31.35 104.08 37.82 83.43 37.82"/>
			<polygon class="cls-6" points="269.48 37.65 276.05 31.18 288.73 31.25 282.8 37.71 269.48 37.65"/>
			<polygon class="cls-6" points="249.59 17.54 256.06 11.07 288.4 11.07 282.47 17.54 249.59 17.54"/>
			<polygon class="cls-6" points="381.19 50.73 387.66 44.26 394.1 44.26 387.74 50.73 381.19 50.73"/>
			<polygon class="cls-6" points="387.63 37.72 393.78 31.32 420.05 31.2 414.12 37.71 387.63 37.72"/>
			<polygon class="cls-6" points="387.63 57.34 394.1 50.88 420.05 50.82 414.12 57.34 387.63 57.34"/>
			<polygon class="cls-6" points="381.19 17.92 387.57 11.4 413.52 11.35 407.59 17.86 381.19 17.92"/>
			<polygon class="cls-6" points="256.13 57.35 262.13 50.69 288.58 50.8 282.68 57.34 256.13 57.35"/>
			<polygon class="cls-5" points="249.68 64.03 256.15 64.03 256.15 64.06 282.8 64.06 282.8 37.64 276.11 37.64 269.46 37.64 269.63 44.11 275.95 44.11 276.1 57.25 256.42 57.24 256.22 24.32 276.06 24.29 276.05 31.38 282.77 31.39 282.77 31.39 282.56 17.52 249.71 17.52 249.68 64.03"/>
			<polygon class="cls-6" points="40.83 57.48 47.3 51.01 60.7 50.96 54.76 57.47 40.83 57.48"/>
			<path class="cls-5" d="M76.94,17.8h32.85v46h-6.47V44.22H83.38V64.3H76.91Zm6.49,6.83V37.82h19.93V24.63Z"/>
			<polygon class="cls-7" points="115.72 11.33 115.72 57.11 109.79 63.8 109.79 17.8 115.72 11.33"/>
			<polygon class="cls-7" points="288.73 31.25 288.61 57.37 282.8 64.06 282.62 37.55 288.73 31.25"/>
			<polygon class="cls-7" points="262.39 24.32 262.13 50.69 256.13 57.35 256.13 24.34 262.39 24.32"/>
			<polygon class="cls-7" points="288.4 11.07 288.58 24.88 282.77 31.39 282.47 17.54 288.4 11.07"/>
			<polygon class="cls-7" points="73.28 11.31 73.12 17.92 67.3 24.42 67.32 17.78 73.28 11.31"/>
			<polygon class="cls-7" points="89.8 44.19 89.8 57.83 83.33 64.3 83.33 44.19 89.8 44.19"/>
			<polygon class="cls-7" points="89.9 24.59 89.9 31.35 83.43 37.82 83.43 24.59 89.9 24.59"/>
			<polygon class="cls-7" points="420.05 31.2 420.22 58.05 414.16 63.78 414.16 37.37 420.05 31.2"/>
			<polygon class="cls-7" points="413.52 11.35 413.73 24.85 407.69 31.29 407.59 17.81 413.52 11.35"/>
			<polygon class="cls-7" points="393.57 17.81 393.78 31.32 387.71 37.67 387.63 24.28 393.57 17.81"/>
			<polygon class="cls-7" points="394.1 44.26 394.1 50.88 387.71 57.34 387.63 50.73 394.1 44.26"/>
			<polygon class="cls-5" points="407.6 17.81 407.6 24.3 407.69 31.29 401.2 31.29 401.2 24.3 387.78 24.3 387.78 37.4 414.16 37.4 414.16 63.78 381.28 63.78 381.28 57.26 381.22 50.73 387.7 50.73 387.7 57.26 407.43 57.26 407.43 44.12 381.19 44.12 381.19 17.92 407.6 17.81"/>
			<polygon class="cls-7" points="46.71 11.31 46.83 57.66 40.83 64.32 40.83 17.78 46.71 11.31"/>
			<polygon class="cls-7" points="67.32 17.78 67.32 57.48 60.53 64.32 61 18.13 67.32 17.78"/>
			<polygon class="cls-6" points="34.31 17.8 40.88 11.31 46.76 11.34 40.82 17.81 34.31 17.8"/>
			<polygon class="cls-6" points="54.31 17.81 60.88 11.32 73.28 11.31 67.32 17.78 54.31 17.81"/>
			<polyline class="cls-5" points="60.59 64.35 60.94 24.45 67.3 24.45 67.3 17.81 54.34 17.81 54.34 57.49 40.85 57.49 40.85 17.81 34.31 17.81 34.31 64.35 60.59 64.35"/>
		</g>
	</g>
</svg>