<svg xmlns="http://www.w3.org/2000/svg" viewBox="0 0 449.15 91.37"><defs><style>.cls-1,.cls-2{fill:none;}.cls-2{font-size:72px;font-family:SpaceMono-Bold, Space Mono;font-weight:700;letter-spacing:-0.04em;}.cls-3{fill:#4E4E4D;}.cls-4{fill:#777777;}.cls-5{fill:#9D9D9C;}</style></defs><title>BAtivo 102M</title><g id="Camada_2" data-name="Camada 2"><g id="Camada_1-2" data-name="Camada 1"><rect class="cls-1" y="3.46" width="449.15" height="75.65"/><text class="cls-2" transform="translate(37.67 67.03)">C<tspan class="cls-3" x="41.54" y="0">ONDIÇÕE</tspan><tspan x="332.35" y="0">S</tspan></text><polyline class="cls-3" points="45.28 48.1 45.2 28.51 65.03 28.48 65.03 34.93 71.46 34.93 71.46 34.93 71.31 21.78 38.75 21.78 38.72 67.86 45.14 67.86 45.14 67.9 71.55 67.9 71.55 61.15 71.55 54.94 65.15 55.01 65.03 61.15 45.41 61.14 45.33 48.1"/><polygon class="cls-4" points="38.72 21.78 45.13 15.37 77.19 15.37 71.31 21.78 38.72 21.78"/><polygon class="cls-4" points="45.41 61.14 51.35 54.55 77.34 54.71 71.47 61.12 45.41 61.14"/><polygon class="cls-4" points="372.66 54.68 379.07 48.27 385.46 48.27 379.15 54.68 372.66 54.68"/><polygon class="cls-4" points="379.05 41.79 385.13 35.45 411.17 35.33 405.29 41.78 379.05 41.79"/><polygon class="cls-4" points="379.05 61.23 385.46 54.82 411.17 54.77 405.29 61.23 379.05 61.23"/><polygon class="cls-4" points="372.66 22.16 378.98 15.7 404.7 15.65 398.82 22.1 372.66 22.16"/><polygon class="cls-5" points="51.35 28.5 51.35 54.55 45.41 61.14 45.2 28.51 51.35 28.5"/><polygon class="cls-5" points="77.19 15.37 77.19 28.51 71.46 34.93 71.31 21.78 77.19 15.37"/><polygon class="cls-5" points="77.19 54.81 77.19 61.09 71.46 67.5 71.31 61.22 77.19 54.81"/><polygon class="cls-5" points="77.19 54.78 77.19 61.05 71.46 67.47 71.31 61.19 77.19 54.78"/><polygon class="cls-5" points="411.17 35.33 411.34 61.93 405.33 67.62 405.33 41.44 411.17 35.33"/><polygon class="cls-5" points="404.7 15.65 404.91 29.04 398.92 35.41 398.82 22.06 404.7 15.65"/><polygon class="cls-5" points="384.92 22.06 385.13 35.45 379.12 41.74 379.05 28.47 384.92 22.06"/><polygon class="cls-5" points="385.46 48.27 385.46 54.82 379.12 61.23 379.05 54.68 385.46 48.27"/><polygon class="cls-3" points="398.83 22.06 398.83 28.49 398.92 35.41 392.49 35.41 392.49 28.49 379.19 28.49 379.19 41.47 405.33 41.47 405.33 67.62 372.75 67.62 372.75 61.15 372.68 54.68 379.11 54.68 379.11 61.15 398.66 61.15 398.66 48.13 372.66 48.13 372.66 22.16 398.83 22.06"/></g></g></svg>