<svg class="img_svg"
	xmlns="http://www.w3.org/2000/svg" viewBox="0 0 554.47 265.86">
<defs>


		<style>
		.cls-133{font-size:26px;font-family:SpaceMono-Bold, Space Mono;font-weight:700;}.cls-134,.cls-135{fill:none;}.cls-135{stroke:#002d35;stroke-miterlimit:10;stroke-width:5px;}</style>


	</defs>
		<g id="c60">
			
			<rect id="chao" class="cls-122" y="184.29" width="554.47" height="81.57"/>
            <g id="texto">
        <g class="st0">
			<path d="M119.7,98.1c0-2.4,0.6-4.2,1.8-5.5c1.2-1.3,2.8-2,4.9-2c2.1,0,3.7,0.7,4.9,2c1.2,1.3,1.8,3.1,1.8,5.5v4.1
				c0,2.4-0.6,4.3-1.8,5.5c-1.2,1.3-2.8,1.9-4.9,1.9c-2.1,0-3.7-0.6-4.9-1.9c-1.2-1.3-1.8-3.1-1.8-5.5V98.1z M126.4,106.4
				c0.6,0,1.1-0.1,1.6-0.3s0.8-0.5,1-0.8c0.3-0.4,0.4-0.8,0.5-1.3c0.1-0.5,0.2-1.1,0.2-1.7v-4.5c0-0.6-0.1-1.1-0.2-1.6
				c-0.1-0.5-0.3-0.9-0.6-1.3c-0.3-0.4-0.6-0.7-1-0.9s-0.9-0.3-1.5-0.3c-0.6,0-1.1,0.1-1.5,0.3c-0.4,0.2-0.8,0.5-1,0.9
				c-0.3,0.4-0.5,0.8-0.6,1.3c-0.1,0.5-0.2,1-0.2,1.6v4.5c0,0.6,0.1,1.2,0.2,1.7c0.1,0.5,0.3,0.9,0.5,1.3c0.3,0.4,0.6,0.6,1,0.8
				S125.8,106.4,126.4,106.4z"/>
			<path d="M144.8,107.5h0.5V91h3.4v18.2H142l-2.1-16.5h-0.5v16.5H136V91h6.7L144.8,107.5z"/>
			<path d="M151.5,91h6.6c2.3,0,3.9,0.5,5,1.6c1.1,1,1.6,2.7,1.6,4.9v5.3c0,2.2-0.5,3.8-1.6,4.9c-1.1,1-2.8,1.6-5,1.6h-6.6v-3.3h1.7
				V94.3h-1.7V91z M158.1,105.9c1.2,0,2-0.3,2.5-0.8c0.5-0.6,0.7-1.4,0.7-2.6v-5c0-1-0.2-1.8-0.7-2.4c-0.5-0.5-1.3-0.8-2.5-0.8h-1.5
				v11.6H158.1z"/>
			<path d="M168.1,91h12.2v3.3h-4.4v11.6h4.4v3.3h-12.2v-3.3h4.4V94.3h-4.4V91z"/>
			<path d="M190.1,106.4c0.7,0,1.2-0.1,1.6-0.3s0.8-0.5,1-0.8s0.4-0.7,0.5-1.2c0.1-0.4,0.1-0.9,0.1-1.4v-0.5h3.4v0.5
				c0,2-0.5,3.6-1.5,4.8c-1,1.2-2.4,1.8-4.3,2l-0.2,0.9h0.3c0.1-0.2,0.2-0.3,0.4-0.4c0.2-0.1,0.5-0.2,0.8-0.2c0.7,0,1.3,0.2,1.6,0.7
				c0.4,0.5,0.5,1,0.5,1.6c0,0.8-0.3,1.5-0.8,1.9c-0.5,0.5-1.2,0.7-2,0.7c-0.5,0-0.9,0-1.2-0.1c-0.3-0.1-0.6-0.2-0.9-0.4l0.7-1.8
				c0.4,0.2,0.8,0.4,1.3,0.4c0.3,0,0.5-0.1,0.6-0.2c0.2-0.1,0.2-0.3,0.2-0.5c0-0.2,0-0.3-0.1-0.4s-0.2-0.2-0.4-0.2
				c-0.3,0-0.5,0.1-0.5,0.4h-2.5v-0.3l0.4-2.1c-1.8-0.2-3.2-0.9-4.2-2.2c-1-1.2-1.5-3-1.5-5.2v-4.1c0-1.2,0.2-2.2,0.5-3.1
				c0.3-0.9,0.8-1.7,1.4-2.3s1.3-1.1,2.1-1.5s1.8-0.5,2.8-0.5c1.1,0,2,0.2,2.9,0.5c0.8,0.3,1.5,0.8,2.1,1.4c0.6,0.6,1,1.3,1.3,2.1
				c0.3,0.8,0.4,1.8,0.4,2.8v0.5h-3.4v-0.5c0-0.4-0.1-0.9-0.2-1.3c-0.1-0.4-0.3-0.8-0.5-1.2c-0.2-0.3-0.6-0.6-1-0.8
				s-0.9-0.3-1.6-0.3c-0.6,0-1.1,0.1-1.5,0.3s-0.8,0.5-1,0.9c-0.3,0.4-0.5,0.8-0.6,1.3c-0.1,0.5-0.2,1-0.2,1.5v4.6
				c0,0.6,0.1,1.1,0.2,1.6c0.1,0.5,0.3,0.9,0.6,1.3c0.3,0.4,0.6,0.6,1,0.8S189.5,106.4,190.1,106.4z"/>
			<path d="M199.3,98.1c0-2.4,0.6-4.2,1.8-5.5c1.2-1.3,2.8-2,4.9-2c2.1,0,3.7,0.7,4.9,2c1.2,1.3,1.8,3.1,1.8,5.5v4.1
				c0,2.4-0.6,4.3-1.8,5.5c-1.2,1.3-2.8,1.9-4.9,1.9c-2.1,0-3.7-0.6-4.9-1.9c-1.2-1.3-1.8-3.1-1.8-5.5V98.1z M206.4,86
				c0.1,0.2,0.3,0.3,0.4,0.4c0.1,0.1,0.3,0.2,0.6,0.2s0.4-0.1,0.6-0.2c0.1-0.1,0.3-0.3,0.4-0.5l0.8-1l2,1.6l-1.5,1.9
				c-0.3,0.4-0.7,0.7-1,0.9c-0.4,0.2-0.8,0.3-1.2,0.3c-0.3,0-0.7-0.1-1-0.2s-0.6-0.4-0.9-0.8c-0.1-0.2-0.3-0.3-0.4-0.4
				c-0.1-0.1-0.3-0.2-0.6-0.2s-0.4,0.1-0.6,0.2c-0.1,0.1-0.3,0.3-0.4,0.5l-0.8,1l-2-1.6l1.5-1.9c0.3-0.4,0.7-0.7,1-0.9
				c0.4-0.2,0.8-0.3,1.2-0.3c0.3,0,0.7,0.1,1,0.2C205.8,85.4,206.1,85.6,206.4,86z M206,106.4c0.6,0,1.1-0.1,1.6-0.3s0.8-0.5,1-0.8
				c0.3-0.4,0.4-0.8,0.5-1.3c0.1-0.5,0.2-1.1,0.2-1.7v-4.5c0-0.6-0.1-1.1-0.2-1.6c-0.1-0.5-0.3-0.9-0.6-1.3c-0.3-0.4-0.6-0.7-1-0.9
				s-0.9-0.3-1.5-0.3c-0.6,0-1.1,0.1-1.5,0.3c-0.4,0.2-0.8,0.5-1,0.9c-0.3,0.4-0.5,0.8-0.6,1.3c-0.1,0.5-0.2,1-0.2,1.6v4.5
				c0,0.6,0.1,1.2,0.2,1.7c0.1,0.5,0.3,0.9,0.5,1.3c0.3,0.4,0.6,0.6,1,0.8S205.4,106.4,206,106.4z"/>
		</g>
		<g class="st0">
			<path d="M240.9,96.5c0-0.7-0.3-1.4-0.8-1.9c-0.6-0.5-1.4-0.8-2.4-0.8c-0.9,0-1.6,0.2-2.1,0.5c-0.5,0.4-0.8,0.8-0.8,1.4
				c0,0.3,0.1,0.6,0.2,0.8c0.1,0.3,0.3,0.5,0.6,0.7s0.7,0.4,1.2,0.5c0.5,0.2,1.1,0.3,1.9,0.4c1.9,0.3,3.4,0.9,4.4,1.7
				c1,0.8,1.5,2,1.5,3.6v0.3c0,0.8-0.2,1.6-0.5,2.3c-0.3,0.7-0.7,1.3-1.3,1.8c-0.6,0.5-1.3,0.9-2.1,1.1c-0.8,0.3-1.7,0.4-2.8,0.4
				c-1.2,0-2.2-0.2-3.2-0.5c-0.9-0.3-1.7-0.8-2.3-1.4c-0.6-0.6-1.1-1.3-1.4-2.1c-0.3-0.8-0.5-1.7-0.5-2.6v-0.8h3.4v0.6
				c0,1.1,0.3,2,0.9,2.6s1.6,1,3,1c1,0,1.8-0.2,2.3-0.7c0.5-0.5,0.8-1,0.8-1.6c0-0.3-0.1-0.6-0.2-0.8c-0.1-0.3-0.3-0.5-0.5-0.7
				c-0.3-0.2-0.6-0.4-1.1-0.6c-0.5-0.2-1-0.3-1.7-0.4c-0.9-0.2-1.8-0.4-2.5-0.6c-0.8-0.3-1.4-0.6-2-1s-1-0.9-1.3-1.6
				s-0.5-1.4-0.5-2.3v-0.2c0-0.7,0.2-1.4,0.5-2.1c0.3-0.6,0.7-1.2,1.3-1.7s1.2-0.8,2-1.1c0.8-0.3,1.6-0.4,2.6-0.4
				c1.1,0,2,0.2,2.9,0.5c0.8,0.3,1.5,0.7,2.1,1.2c0.6,0.5,1,1.1,1.3,1.8s0.4,1.4,0.4,2.1v0.9h-3.4V96.5z"/>
		</g>
		<line class="st1" x1="90.8" y1="44.5" x2="90.8" y2="169.1"/>
		<polygon points="215.9,109.1 215.9,109.1 228.9,109.1 228.9,109.1 228.9,106.5 218.6,106.5 218.6,101.3 226.3,101.3 226.3,98.8 
			218.6,98.8 218.6,93.6 228.9,93.6 228.9,91 216,91 		"/>
		<polygon points="106.4,101.5 106.4,106.7 114.3,106.7 114.3,104.2 116.8,104.2 116.8,106.6 116.8,109.3 106.3,109.3 106.3,109.3 
			103.8,109.3 103.8,91 116.9,91 116.9,93.7 117,96.2 114.3,96.2 114.3,93.7 106.4,93.6 		"/>
            </g>
			
		</g>
</svg>