<svg class="img_svg"
	xmlns="http://www.w3.org/2000/svg" viewBox="0 0 554.47 265.86">

		<g id="c61">
			
			<rect id="chao" class="cls-2" y="184.29" width="554.47" height="81.57"/>
			<g id="lado">
				<polyline class="cls-3" points="362.74 233.19 380.51 216.07 380.51 123.1 362.55 105.07"/>
			</g>
			<g id="frente">
				<polyline class="cls-4" points="362.74 233.19 362.62 140.14 328.66 105.2 293.04 140.14 292.91 233.19"/>
			</g>
			<g id="cima">
				<polygon class="cls-5" points="328.66 105.2 362.62 140.14 380.51 123.1 345.68 88.02 328.66 105.2"/>
			</g>
			<g id="janela">
				<rect class="cls-6" x="327.55" y="161.72" width="24.54" height="12.45"/>
				<rect class="cls-6" x="308.97" y="193.24" width="19.69" height="39.77"/>
				<rect class="cls-6" x="333.68" y="149.91" width="12.27" height="12.45"/>
			</g>
			<g id="arvore">
				<polyline class="cls-7" points="396.21 200.43 391.56 202.82 389.18 204.6 388.35 203.97 393.59 197.46 391.56 196.86 386.2 203.97 383.7 204.6 377.14 203.97 380.36 200.31 384.41 196.86 385.96 194 393.95 193.31 398.95 189.11 397.4 187.68 393.11 191.97 385.61 192.33 390.25 188.4 394.42 185.3 392.87 183.75 389.95 186.67 385.61 188.76 382.63 194.48 378.69 199.24 377.74 191.02 382.39 177.79 380.36 177.79 377.02 188.76 376.01 178.58 377.38 174.57 375 173.86 373.98 178.27 375.24 191.97 374.76 193.88 372.26 189.71 370.71 182.08 369.28 182.08 369.28 190.19 373.09 196.26 373.45 202.33 368.68 200.43 363.92 193.31 363.92 182.44 362.25 183.27 362.25 191.97 353.91 186.37 353.07 188.16 362.01 193.31 364.15 197.69 357.72 199.12 353.07 196.62 353.07 199 357.99 200.99 364.99 199.36 367.85 201.75 372.5 204.72 373.33 207.35 372.26 234.16 377.02 234.16 375.59 215.33 376.07 206.75 383.25 206.08 388.5 206.87 391.2 206 394.3 207.47 394.3 207.47 395.14 206.39 395.14 206.39 392.4 204.6 396.09 202.33"/>
			</g>
			<g id="plantasV">
				<polygon class="cls-5" points="367.92 164.39 378.39 164.39 395.51 170.42 398.95 187.91 395.44 205.42 376.1 216.71 372.18 216.74 352.92 205.21 349.04 187.75 352.94 170.12 367.92 164.39"/>
			</g>
	</g>
</svg>