<svg class="grid"
	xmlns="http://www.w3.org/2000/svg" viewBox="0 0 557.48 186.17">
	
	<title>grid1</title>
			<g id="background2">

    <rect class="cls-1" id="ceu2" width="554.47" height="265.7"/>
	<g id="grid22">
	<polyline class="st0" points="554.5,79.2 0,79.2 0,69.3 554.5,69.3 		"/>
		<polyline class="st0" points="504.7,118.7 0,118.7 0,108.8 504.8,108.8 		"/>
		<polyline class="st0" points="524.5,128.6 464.5,128.6 0,128.6 0.3,128.7 138.7,267.1 158.6,265.7 158.6,0 168.5,0 168.5,265.7 
			198.1,265.7 198.1,0 208,0 208,265.7 227.8,267.2 494.9,0.1 494.8,0 494.8,265.7 494.8,267.1 227.8,0 227.8,265.7 237.7,265.7 
			237.7,0 247.6,0 247.6,265.7 277.3,265.7 277.3,0 287.1,0 287.1,265.7 297,265.7 297,0 30,267.1 30,265.7 30,0 297,267.1 
			316.8,265.7 316.8,0 326.7,0 326.7,265.7 356.4,265.7 356.4,0 366.3,0 366.3,265.7 376.2,265.7 376.2,0 109.2,267 109.1,265.7 
			109.1,0 109.1,0.1 376.1,267.1 395.9,265.7 395.9,0 405.8,0 405.8,265.7 415.7,265.7 415.7,0 415.8,0.1 148.8,267.1 148.7,265.7 
			148.7,0 148.6,0.1 415.7,267.2 435.5,265.7 435.5,0 445.4,0 445.4,265.7 455.3,267.1 188.2,0.1 188.2,0 188.2,265.7 188.4,267.1 
			455.3,0.1 455.3,0 455.3,265.7 465.2,265.7 465.2,0 465.2,0 554.4,89.2 554.5,89.1 0,89.1 0.3,89.1 178.4,267.1 178.4,265.7 
			178.4,0 178.4,0.1 0,178.4 0,178.1 554.5,178.1 554.5,197.8 0,197.8 0,188 554.5,188 554.3,187.8 475.1,267 475.1,265.7 475.1,0 
			485,0 485,265.7 504.7,265.7 504.7,0 504.7,0 554.3,49.6 554.5,49.5 0,49.5 0.2,49.4 217.9,267.1 217.9,265.7 217.9,0 217.9,0.1 
			0,218 0,217.6 554.5,217.6 554.5,237.4 0,237.4 0,247.3 554.5,247.3 554.2,247.3 306.9,0 306.9,265.7 306.9,267.1 554.4,19.7 
			554.5,19.8 0,19.8 0.1,20.2 20.2,0.1 20.1,0 20.1,265.7 39.9,265.7 39.9,0 49.8,0 49.8,265.7 		"/>
		<polyline class="st0" points="544.3,148.4 425.6,267.1 425.6,265.7 425.6,0 425.5,0.1 514.6,89.2 		"/>
		<polyline class="st0" points="514.7,128.5 554.5,168.2 0,168.2 0.3,168.2 99.2,267.1 119,265.7 119,0 128.9,0 128.9,265.7 
			138.8,265.7 138.8,0 138.8,0.1 0,138.9 0,138.5 534.4,138.5 514.6,138.5 		"/>
		<polyline class="st0" points="524.5,128.6 386,267 386,265.7 386,0 504.7,118.7 504.7,118.7 		"/>
		<polyline class="st0" points="554.5,59.4 0,59.4 0.1,59.7 59.7,0.1 59.7,0 59.7,265.7 69.6,265.7 69.6,0 336.6,267.1 336.6,265.7 
			336.6,0 336.6,0.1 69.6,267.1 79.5,265.7 79.5,0 89.3,0 89.3,265.7 99.2,265.7 99.2,0 99.2,0.1 0,99.3 0,98.9 504.8,98.9 		"/>
		<polyline class="st0" points="514.6,128.6 514.6,265.7 514.6,266.9 554.3,227.3 554.5,227.5 0,227.5 0,207.7 554.5,207.7 
			554.3,207.9 346.5,0 346.5,265.7 346.5,267.1 504.8,108.8 504.8,108.8 		"/>
		<polyline class="st0" points="524.5,89.1 524.5,0 514.6,0 514.6,89.2 		"/>
		<polyline class="st0" points="534.4,89.7 534.4,0 534.3,0 267.4,267 267.4,265.7 267.4,0 534.4,267.1 524.5,265.7 524.5,128.6 		
			"/>
		<polyline class="st0" points="544.3,148.4 544.3,265.7 534.4,265.7 534.4,138.5 		"/>
		<polyline class="st0" points="554.2,148.4 554.2,265.7 554.5,257.2 0,257.2 0,257.6 257.5,0.1 257.5,0 257.5,265.7 257.6,267.1 
			0.4,9.9 0,9.9 554.5,9.9 554.4,10.1 544.3,0 544.3,0 544.3,89.1 		"/>
		<polyline class="st0" points="10.2,0 10.2,265.7 0.3,265.7 0.3,0 0,0 554.5,0 554.2,0 554.2,89.1 		"/>
		<polyline class="st0" points="0,158.3 554.5,158.3 554.5,148.4 0,148.4 0,39.6 554.5,39.6 554.5,29.7 0,29.7 		"/>
	</g>
	<g id="grid23">
			<polyline class="st0" points="534.4,118.8 0,118.8 0,108.9 554.5,108.9 554.5,79.2 0,79.2 0,69.3 554.5,69.3 		"/>
		<polyline class="st0" points="554.5,197.9 0,197.9 0,188 534.4,188 554.3,187.8 475.1,267.1 475.1,265.8 475.1,0.1 485,0.1 
			485,265.8 504.7,265.8 504.7,0.1 504.7,0.1 554.3,49.7 554.5,49.5 0,49.5 0.2,49.4 217.9,267.1 217.9,265.8 217.9,0.1 217.9,0.1 
			0,218 0,217.7 554.5,217.7 554.5,237.5 0,237.5 0,247.4 554.5,247.4 554.2,247.4 306.9,0.1 306.9,265.8 306.9,267.2 554.4,19.8 
			554.5,19.9 0,19.9 0.1,20.2 20.2,0.1 20.1,0.1 20.1,265.8 39.9,265.8 39.9,0.1 49.8,0.1 49.8,265.8 		"/>
		<polyline class="st0" points="504.7,128.7 0,128.7 0.3,128.7 138.7,267.1 158.6,265.8 158.6,0.1 168.5,0.1 168.5,265.8 
			198.1,265.8 198.1,0.1 208,0.1 208,265.8 227.8,267.3 494.9,0.2 494.8,0.1 494.8,265.8 494.8,267.1 227.8,0.1 227.8,265.8 
			237.7,265.8 237.7,0.1 247.6,0.1 247.6,265.8 277.3,265.8 277.3,0.1 287.1,0.1 287.1,265.8 297,265.8 297,0.1 30,267.1 30,265.8 
			30,0.1 297,267.1 316.8,265.8 316.8,0.1 326.7,0.1 326.7,265.8 356.4,265.8 356.4,0.1 366.3,0.1 366.3,265.8 376.2,265.8 
			376.2,0.1 109.2,267.1 109.1,265.8 109.1,0.1 109.1,0.1 376.1,267.1 395.9,265.8 395.9,0.1 405.8,0.1 405.8,265.8 415.7,265.8 
			415.7,0.1 415.8,0.1 148.8,267.1 148.7,265.8 148.7,0.1 148.6,0.1 415.7,267.2 435.5,265.8 435.5,0.1 445.4,0.1 445.4,265.8 
			455.3,267.2 188.2,0.1 188.2,0.1 188.2,265.8 188.4,267.1 455.3,0.2 455.3,0.1 455.3,265.8 465.2,265.8 465.2,0.1 465.2,0.1 
			554.4,89.2 554.5,89.1 0,89.1 0.3,89.1 178.4,267.2 178.4,265.8 178.4,0.1 178.4,0.1 0,178.5 0,178.1 554.3,178.1 		"/>
		<path class="st0" d="M554.3,118.8"/>
		<polyline class="st0" points="524.5,168.2 425.6,267.1 425.6,265.8 425.6,0.1 425.5,0.2 539.3,113.9 		"/>
		<polyline class="st0" points="554.5,168.4 504.7,168.2 0,168.2 0.3,168.2 99.2,267.2 119,265.8 119,0.1 128.9,0.1 128.9,265.8 
			138.8,265.8 138.8,0.1 138.8,0.1 0,138.9 0,138.6 504.7,138.6 504.7,138.4 		"/>
		<polyline class="st0" points="504.7,148.5 386,267.1 386,265.8 386,0.1 505.1,119.2 		"/>
		<polyline class="st0" points="504.6,158.3 346.5,0.1 346.5,265.8 346.5,267.1 554.3,59.3 554.5,59.4 0,59.4 0.1,59.8 59.7,0.1 
			59.7,0.1 59.7,265.8 69.6,265.8 69.6,0.1 336.6,267.1 336.6,265.8 336.6,0.1 336.6,0.1 69.6,267.2 79.5,265.8 79.5,0.1 89.3,0.1 
			89.3,265.8 99.2,265.8 99.2,0.1 99.2,0.1 0,99.4 0,99 554.5,99 554.3,98.8 534.4,118.8 		"/>
		<line class="st0" x1="544.3" y1="197.9" x2="514.6" y2="168.2"/>
		<polyline class="st0" points="514.6,168.2 514.6,265.8 514.6,267 554.3,227.3 554.5,227.6 0,227.6 0,207.8 554.5,207.8 		"/>
		<polyline class="st0" points="524.5,118.8 524.5,0.1 514.6,0.1 514.6,118.8 		"/>
		<polyline class="st0" points="534.4,118.8 534.4,0.1 534.3,0 267.4,267 267.4,265.8 267.4,0.1 534.4,267.1 524.5,265.8 
			524.5,168.3 		"/>
		<polyline class="st0" points="544.3,168.2 544.3,265.8 534.4,265.8 534.4,168.3 		"/>
		<polyline class="st0" points="554.2,188 554.2,265.8 554.5,257.2 0,257.2 0,257.6 257.5,0.1 257.5,0.1 257.5,265.8 257.6,267.1 
			0.4,10 0,10 554.5,10 554.4,10.1 544.3,0.1 544.3,0.1 544.3,108.9 		"/>
		<polyline class="st0" points="10.2,0.1 10.2,265.8 0.3,265.8 0.3,0.1 0,0.1 554.5,0.1 554.2,0.1 554.2,108.9 		"/>
		<polyline class="st0" points="0,158.3 504.6,158.3 504.6,148.5 0,148.5 0,39.7 554.5,39.7 554.5,29.8 0,29.8 		"/></g>

	<g id="grid21">
		<polyline class="st0" points="504.7,69.3 0,69.3 0,79.2 504.7,79.2 504.7,79.3 425.5,0.2 425.6,0.1 425.6,265.8 425.6,267.1 
			554.3,138.4 554.5,138.6 0,138.6 0,138.9 138.8,0.1 138.8,0.1 138.8,265.8 128.9,265.8 128.9,0.1 119,0.1 119,265.8 99.2,267.2 
			0.3,168.2 0,168.2 554.5,168.2 554.3,168.4 386,0.1 386,265.8 386,267.1 544.3,108.9 544.3,265.8 534.4,265.8 534.4,108.9 
			554.5,108.9 0,108.9 0,118.8 554.5,118.8 		"/>
		<polyline class="st0" points="524.6,49.5 554.4,19.8 554.5,19.9 0,19.9 0.1,20.2 20.2,0.1 20.1,0.1 20.1,265.8 39.9,265.8 
			39.9,0.1 49.8,0.1 49.8,265.8 		"/>
		<polyline class="st0" points="524.5,49.5 524.5,0.1 514.6,0.1 514.6,49.5 504.7,59.4 0,59.4 0.1,59.8 59.7,0.1 59.7,0.1 
			59.7,265.8 69.6,265.8 69.6,0.1 336.6,267.1 336.6,265.8 336.6,0.1 336.6,0.1 69.6,267.2 79.5,265.8 79.5,0.1 89.3,0.1 
			89.3,265.8 99.2,265.8 99.2,0.1 99.2,0.1 0,99.4 0,99 524.5,99 514.6,99 514.6,265.8 514.6,267 554.3,227.3 554.5,227.6 0,227.6 
			0,207.8 554.5,207.8 554.3,207.9 346.5,0.1 346.5,265.8 346.5,267.1 514.6,98.9 514.5,89.1 509.5,89.1 504.7,89.1 0,89.1 
			0.3,89.1 178.4,267.2 178.4,265.8 178.4,0.1 178.4,0.1 0,178.5 0,178.1 554.5,178.1 554.5,197.9 0,197.9 0,188 554.5,188 
			554.3,187.8 475.1,267.1 475.1,265.8 475.1,0.1 485,0.1 485,265.8 504.7,265.8 504.7,0.1 504.7,0.1 554.3,49.7 554.5,49.5 0,49.5 
			0.2,49.4 217.9,267.1 217.9,265.8 217.9,0.1 217.9,0.1 0,218 0,217.7 554.5,217.7 554.5,237.5 0,237.5 0,247.4 554.5,247.4 
			554.2,247.4 306.9,0.1 306.9,265.8 306.9,267.2 504.8,69.4 		"/>
		<polyline class="st0" points="10.2,0.1 10.2,265.8 0.3,265.8 0.3,0.1 0,0.1 554.5,0.1 554.2,0.1 554.2,265.8 554.5,257.2 0,257.2 
			0,257.6 257.5,0.1 257.5,0.1 257.5,265.8 257.6,267.1 0.4,10 0,10 554.5,10 554.4,10.1 544.3,0.1 544.3,0.1 544.3,49.5 
			534.4,49.5 534.4,0.1 534.3,0 267.4,267 267.4,265.8 267.4,0.1 534.4,267.1 524.5,265.8 524.5,99.1 514.5,89.1 554.3,128.9 
			554.5,128.7 0,128.7 0.3,128.7 138.7,267.1 158.6,265.8 158.6,0.1 168.5,0.1 168.5,265.8 198.1,265.8 198.1,0.1 208,0.1 
			208,265.8 227.8,267.3 494.9,0.2 494.8,0.1 494.8,265.8 494.8,267.1 227.8,0.1 227.8,265.8 237.7,265.8 237.7,0.1 247.6,0.1 
			247.6,265.8 277.3,265.8 277.3,0.1 287.1,0.1 287.1,265.8 297,265.8 297,0.1 30,267.1 30,265.8 30,0.1 297,267.1 316.8,265.8 
			316.8,0.1 326.7,0.1 326.7,265.8 356.4,265.8 356.4,0.1 366.3,0.1 366.3,265.8 376.2,265.8 376.2,0.1 109.2,267.1 109.1,265.8 
			109.1,0.1 109.1,0.1 376.1,267.1 395.9,265.8 395.9,0.1 405.8,0.1 405.8,265.8 415.7,265.8 415.7,0.1 415.8,0.1 148.8,267.1 
			148.7,265.8 148.7,0.1 148.6,0.1 415.7,267.2 435.5,265.8 435.5,0.1 445.4,0.1 445.4,265.8 455.3,267.2 188.2,0.1 188.2,0.1 
			188.2,265.8 188.4,267.1 455.3,0.2 455.3,0.1 455.3,265.8 465.2,265.8 465.2,0.1 465.2,0.1 514.6,49.5 		"/>
		<polyline class="st0" points="0,158.3 554.5,158.3 554.5,148.5 0,148.5 0,39.7 554.5,39.7 554.5,29.8 0,29.8 		"/>
	</g></g>
</svg>