<svg class="grid"
	xmlns="http://www.w3.org/2000/svg" viewBox="0 0 557.48 186.17">
	
	<title>gridIM</title>
		<g id="backgroundI">
				<g id="ceu">
			<rect class="cls-1" width="554.47" height="265.7"/>
		</g>
			<g id="gridI">
	<polyline class="st0" points="554.4,69.2 0,69.2 0,79.1 554.4,79.1 554.4,108.8 0,108.8 0,118.7 554.4,118.7 		"/>
		<polyline class="st0" points="504.7,9.9 0,9.9 0.3,9.8 257.5,267 257.4,265.7 257.4,0 257.4,0 0,257.5 0,257.1 554.4,257.1 
			554.1,265.7 554.1,59.2 544.3,59.3 544.3,59.3 544.3,265.7 534.4,265.7 534.4,59.3 524.5,49.5 306.9,267.1 306.9,265.7 306.9,0 
			554.1,247.2 554.4,247.2 0,247.2 0,237.3 554.4,237.3 554.4,217.6 0,217.6 0,217.9 217.9,0 217.9,0 217.9,265.7 217.8,267 
			0.1,49.3 0,49.4 524.5,49.4 		"/>
		<polyline class="st0" points="10.2,0 10.2,265.7 0.3,265.7 0.3,0 0,0 504.7,0 504.7,0 504.7,49.4 504.7,265.7 484.9,265.7 
			484.9,0 475,0 475,265.7 475,266.9 554.3,187.7 554.4,187.9 0,187.9 0,197.8 554.4,197.8 554.4,178 0,178 0,178.4 178.3,0 
			178.3,0 178.3,265.7 178.3,267.1 0.3,89 0,89 554.4,89 554.3,89.1 465.2,0 465.1,0 465.1,265.7 455.2,265.7 455.2,0 455.3,0.1 
			188.4,267 188.2,265.7 188.2,0 188.2,0 455.2,267 445.4,265.7 445.4,0 435.5,0 435.5,265.7 415.7,267.1 148.6,0 148.7,0 
			148.7,265.7 148.7,267 415.7,0 415.7,0 415.7,265.7 405.8,265.7 405.8,0 395.9,0 395.9,265.7 376.1,267 109.1,0 109.1,0 
			109.1,265.7 109.1,267 376.1,0 376.1,265.7 366.2,265.7 366.2,0 356.3,0 356.3,265.7 326.7,265.7 326.7,0 316.8,0 316.8,265.7 
			297,267 30,0 30,265.7 30,267 297,0 297,265.7 287.1,265.7 287.1,0 277.2,0 277.2,265.7 247.6,265.7 247.6,0 237.7,0 237.7,265.7 
			227.8,265.7 227.8,0 494.8,267 494.8,265.7 494.8,0 494.9,0 227.8,267.1 208,265.7 208,0 198.1,0 198.1,265.7 168.4,265.7 
			168.4,0 158.5,0 158.5,265.7 138.7,267 0.3,128.6 0,128.6 554.4,128.6 554.2,128.8 425.5,0.1 425.6,0 425.6,265.7 425.6,267 
			554.3,138.3 554.4,138.4 0,138.4 0,138.8 138.8,0 138.8,0 138.8,265.7 128.9,265.7 128.9,0 119,0 119,265.7 99.2,267 0.3,168.1 
			0,168.1 554.4,168.1 554.3,168.3 386,0 386,265.7 386,267 554.3,98.7 554.4,98.9 0,98.9 0,99.2 99.2,0 99.2,0 99.2,265.7 
			89.3,265.7 89.3,0 79.4,0 79.4,265.7 69.5,267.1 336.6,0 336.6,0 336.6,265.7 336.6,267 69.5,0 69.5,265.7 59.6,265.7 59.6,0 
			59.7,0 0,59.7 0,59.3 554.4,59.3 554.3,59.2 346.5,267 346.5,265.7 346.5,0 554.3,207.8 554.4,207.7 0,207.7 0,227.5 554.4,227.5 
			554.2,227.2 514.6,266.9 514.6,265.7 514.6,49.3 524.5,49.3 524.5,49.5 524.5,265.7 534.4,267 267.3,0 267.3,265.7 267.3,266.9 
			504.7,29.7 504.7,19.8 0,19.8 0,20.1 20.2,0 20.1,0 20.1,265.7 39.9,265.7 39.9,0 49.8,0 49.8,265.7 		"/>
		<polyline class="st0" points="0,158.2 554.4,158.2 554.4,148.3 0,148.3 0,39.5 504.7,39.5 504.7,29.7 0,29.7 		"/>	</g>		</g>
</svg>