<svg class="img_svg"
	xmlns="http://www.w3.org/2000/svg"
	xmlns:xlink="http://www.w3.org/1999/xlink" viewBox="0 0 554.47 265.86">

		<g id="intro24">
		
    <rect id="chao" y="184.32" width="554.47" height="81.57" />
    <g id="lado">
     <polygon
      points="343.47 238.17 364.39 217.46 364.28 154.32 343.47 175.09 343.47 238.17"
     />
    </g>
    <g id="cima">
     <polygon
      points="301.85 133.22 343.47 175.09 364.28 154.32 322.59 112.13 301.85 133.22"
     />
    </g>
    <g id="frente">
     <polyline
      points="343.47 238.17 343.47 175.09 301.85 133.22 260.3 175.09 260.78 238"
     />
    </g>
    <g id="parede">
     <polygon
      points="337 232.06 337 176.97 302.08 141.67 266.71 176.98 267.06 232.02 267.06 232.02 337 232.06"
     />
    </g>
    <g id="piso">
     <polygon
      points="291.33 208.81 337 208.81 337 232.06 266.73 232.02 291.33 208.81"
     />
    </g>
    <g id="dentro">
     <polygon
      points="266.73 232.02 291.33 208.81 291.33 152.4 266.73 177 266.73 232.02 266.73 232.02"
     />
    </g>
    <rect id="janela" x="296" y="175.09" width="33.17" height="9.23" />
    <polygon
     id="plantasPO"
     points="106.31 204.3 84.14 182.13 84.14 146.59 107.88 122.84 131.66 146.62 131.66 183.31 110.05 204.3 106.31 204.3"
    />
    <g id="arvore">
     <polygon
      points="435.06 228.53 435.06 238.17 439.51 238.17 439.51 228.27 435.06 228.53"
     />
     <polyline
      points="432.57 154.66 427.3 157.99 424.59 160.49 423.65 159.6 429.6 150.48 427.3 149.65 421.21 159.6 418.37 160.49 410.93 159.6 414.58 154.49 419.18 149.65 420.94 145.65 430 144.68 435.68 138.81 433.92 136.8 429.06 142.81 420.54 143.31 425.81 137.81 430.54 133.47 428.78 131.3 425.47 135.39 420.54 138.31 417.15 146.31 412.69 152.99 411.61 141.47 416.88 122.96 414.58 122.96 410.8 138.31 409.65 124.06 411.2 118.45 408.5 117.45 407.35 123.62 408.77 142.81 408.23 145.48 405.39 139.64 403.63 128.96 402.01 128.96 402.01 140.31 406.34 148.82 406.74 157.31 401.33 154.66 395.92 144.68 395.92 129.46 394.03 130.63 394.03 142.81 384.56 134.97 383.62 137.47 393.76 144.68 396.19 150.82 388.89 152.82 383.62 149.32 383.62 152.65 389.2 155.43 397.14 153.15 400.39 156.49 405.66 160.66 406.61 164.33 405.39 201.87 410.8 201.87 409.18 175.51 409.72 163.5 417.86 162.56 423.83 163.66 426.89 162.44 430.41 164.5 430.41 164.5 431.35 163 431.35 163 428.24 160.49 432.44 157.31"
     />
     <polygon
      points="106.31 233.22 106.31 198.78 96.56 189.35 97.97 186.99 106.92 194.93 106.41 184.51 90.92 177.93 91.93 174.83 100.78 178.68 95.45 173.47 97.16 171.98 105.01 180.54 108.22 181.16 105.31 165.53 92.53 154.86 93.74 151.01 103.3 160.56 99.57 151.75 102.09 151.01 106.72 163.29 104.7 147.41 106.61 147.41 109.93 175.7 112.05 170.99 111.34 151.26 114.66 150.76 114.16 169.87 124.01 158.58 125.32 162.42 119.49 167.88 125.32 168.75 124.82 170.86 118.68 169.5 116.27 170.99 121.8 173.22 120.8 175.7 114.06 173.84 110.76 182.98 110.74 190.31 114.16 186.5 119.69 179.67 121.5 182.65 109.83 196.17 110.74 233.22 106.31 233.22"
     />
    </g>
    <g id="plantasV">
     <polygon
      points="83.64 144.18 102.95 122.82 113.63 122.94 131.43 143.78 131.43 187.19 110.55 203.93 105.9 203.97 83.64 186.88 83.64 144.18"
     />
     <polygon
      points="399.76 106.86 414.45 106.86 437.32 129.42 442.14 144.56 437.22 159.83 419.02 178.37 393.86 178.37 377.52 159.54 372.07 144.33 377.55 129 399.76 106.86"
     />
    </g>
    <g id="plantas">
     <polygon
      points="436.35 153.61 430.81 160.77 425.2 179.41 423.4 197.57 425.17 216.44 435.06 228.83 439.51 228.57 449.34 216.45 451.34 197.67 449.41 179.52 441.85 160.78 436.35 153.61"
     />
    </g>
		</g>
</svg>