<svg class="img_svg"
	xmlns="http://www.w3.org/2000/svg" viewBox="0 0 554.47 265.86">

		<g id="intro22">
    <rect
     id="chao"
     class="cls-1"
     x="0.5"
     y="184.29"
     width="554.47"
     height="81.57"
    />
    <g id="estrada">
     <rect class="cls-1" x="0.5" y="240.4" width="554.47" height="25.46" />
    </g>
    <g id="nfrente2">
     <polyline
      class="cls-1"
      points="254.38 196.48 254.38 116.34 243.59 112.63 230.83 116.22 230.83 196.54"
     />
     <polyline
      class="cls-1"
      points="292.2 196.48 292.21 116.34 280.88 112.63 268.66 116.22 268.66 196.54"
     />
     <polyline
      class="cls-1"
      points="367.15 196.48 367.16 116.34 355.38 113 343.61 116.22 343.61 196.54"
     />
    </g>
    <g id="nlado">
     <polygon
      class="cls-1"
      points="43.3 252.96 47.44 256.33 48.31 262.19 40.74 259.68 40.79 257.17 43.3 252.96"
     />
     <polygon
      class="cls-1"
      points="37.37 245.43 27.33 247.12 38.24 247.94 45.74 246.29 37.37 245.43"
     />
     <polygon
      class="cls-1"
      points="23.17 252.99 27.35 255.52 28.23 259.68 24.86 260.54 23.19 258 23.17 252.99"
     />
     <polygon
      class="cls-1"
      points="493.69 244.07 490.67 246.54 490.03 250.82 495.57 248.99 495.54 247.15 493.69 244.07"
     />
     <polygon
      class="cls-1"
      points="498.03 238.57 505.38 239.8 497.4 240.4 491.91 239.19 498.03 238.57"
     />
     <polygon
      class="cls-1"
      points="508.42 244.09 505.36 245.94 504.72 248.99 507.18 249.62 508.4 247.75 508.42 244.09"
     />
     <polyline
      class="cls-1"
      points="343.61 211.92 350.45 205.32 350.45 169.51 343.53 162.57"
     />
     <polyline
      class="cls-1"
      points="254.38 196.48 263.98 186.84 263.94 107.67 254.14 116.21"
     />
     <polyline
      class="cls-1"
      points="292.2 196.48 301.8 186.84 301.77 107.67 291.97 116.21"
     />
     <polygon
      class="cls-1"
      points="367.15 196.48 376.75 186.84 376.72 107.67 367.16 115.13 367.15 196.48"
     />
     <polyline
      class="cls-1"
      points="113.86 234.26 123.27 224.88 123.23 196.47 113.86 205.82"
     />
     <polyline
      class="cls-1"
      points="438.48 233.46 447.79 224.08 447.69 200.14 438.43 210.48"
     />
     <polyline
      class="cls-1"
      points="508.68 233.75 527.76 214.92 527.49 173.41 523.75 174.75 508.93 191.58"
     />
     <polygon
      class="cls-1"
      points="497.5 163.42 508.6 159.37 508.85 173.69 489.93 191.81 489.93 177.43 497.5 163.42"
     />
    </g>
    <g id="lado">
     <polyline
      class="cls-1"
      points="216.93 196.48 226.53 186.84 226.49 107.67 216.69 116.21"
     />
     <polyline
      class="cls-1"
      points="277.91 211.92 284.76 205.32 284.76 169.51 277.84 162.57"
     />
     <polyline
      class="cls-1"
      points="329.78 196.48 339.38 186.84 339.35 107.67 329.55 116.21"
     />
     <polyline
      id="saltoL"
      class="cls-1"
      points="155.8 234.28 165.22 224.9 165.17 196.47 155.8 205.82"
     />
    </g>
    <g id="ncima2">
     <polygon
      class="cls-1"
      points="95.23 186.97 113.97 205.82 123.34 196.47 104.57 177.47 95.23 186.97"
     />
    </g>
    <g id="frente">
     <polygon
      class="cls-1"
      points="17.35 239.39 19.18 238.83 19.31 237.78 15.73 237.5 15.66 238.44 17.45 238.58 17.35 239.39"
     />
     <polygon
      class="cls-1"
      points="16.86 240.12 19.08 240.29 20.52 241.98 20.35 244.19 18.66 245.63 16.45 245.46 15.01 243.78 15.18 241.56 16.86 240.12"
     />
     <polygon
      class="cls-1"
      points="7.12 240.37 9.33 240.54 10.77 242.23 10.6 244.44 8.91 245.88 6.7 245.71 5.26 244.02 5.43 241.81 7.12 240.37"
     />
     <polyline
      class="cls-1"
      points="13.83 244.03 15.72 241.62 17.9 243.09 18.36 242.51 16.23 241.09 17.35 239.39 17.45 238.58 15.46 241 11.12 239.03 11.12 239.03 11.12 239.03 11.14 237.85 12.84 237.85 12.84 237.08 11.15 237.09 10.39 237.08 10.39 237.08 10.12 237.08 10.1 237.85 10.45 237.85 8.06 242.54 8.74 242.88 10.18 239.91 13.07 243.98"
     />
     <polygon
      class="cls-1"
      points="69.62 239.39 71.45 238.83 71.57 237.78 68 237.5 67.93 238.44 69.72 238.58 69.62 239.39"
     />
     <polygon
      class="cls-1"
      points="69.13 240.12 71.34 240.29 72.79 241.98 72.61 244.19 70.93 245.63 68.72 245.46 67.27 243.78 67.44 241.56 69.13 240.12"
     />
     <polygon
      class="cls-1"
      points="59.38 240.37 61.59 240.54 63.04 242.23 62.87 244.44 61.18 245.88 58.97 245.71 57.52 244.02 57.7 241.81 59.38 240.37"
     />
     <polyline
      class="cls-1"
      points="66.09 244.03 67.99 241.62 70.17 243.09 70.63 242.51 68.49 241.09 69.62 239.39 69.72 238.58 67.73 241 63.39 239.03 63.39 239.03 63.39 239.03 63.41 237.85 65.11 237.85 65.11 237.08 63.42 237.09 62.66 237.08 62.66 237.08 62.39 237.08 62.37 237.85 62.72 237.85 60.33 242.54 61.01 242.88 62.44 239.91 65.34 243.98"
     />
     <polygon
      class="cls-1"
      points="352.08 251.97 349.55 251.33 349.31 249.9 354.16 249.28 354.32 250.55 351.9 250.86 352.08 251.97"
     />
     <polygon
      class="cls-1"
      points="352.8 252.93 349.8 253.31 347.95 255.7 348.33 258.7 350.72 260.55 353.72 260.17 355.57 257.77 355.19 254.78 352.8 252.93"
     />
     <polygon
      class="cls-1"
      points="366.08 252.6 363.08 252.99 361.23 255.38 361.61 258.38 364 260.23 367 259.85 368.85 257.45 368.47 254.45 366.08 252.6"
     />
     <polyline
      class="cls-1"
      points="357.19 258.03 354.45 254.89 351.58 257.04 350.92 256.27 353.73 254.21 352.08 251.97 351.9 250.86 354.76 254.03 360.53 251.05 360.53 251.05 360.53 251.05 360.43 249.46 358.12 249.57 358.07 248.52 360.36 248.42 361.39 248.35 361.39 248.35 361.76 248.34 361.84 249.38 361.36 249.41 364.94 255.62 364.03 256.13 361.88 252.19 358.21 257.92"
     />
     <polygon
      class="cls-1"
      points="393.25 251.97 390.72 251.33 390.48 249.9 395.33 249.28 395.49 250.55 393.07 250.86 393.25 251.97"
     />
     <polygon
      class="cls-1"
      points="393.97 252.93 390.97 253.31 389.12 255.7 389.5 258.7 391.89 260.55 394.89 260.17 396.74 257.77 396.36 254.78 393.97 252.93"
     />
     <polygon
      class="cls-1"
      points="407.25 252.6 404.25 252.99 402.4 255.38 402.78 258.38 405.17 260.23 408.17 259.85 410.02 257.45 409.64 254.45 407.25 252.6"
     />
     <polyline
      class="cls-1"
      points="398.36 258.03 395.63 254.89 392.75 257.04 392.09 256.27 394.9 254.21 393.25 251.97 393.07 250.86 395.93 254.03 401.7 251.05 401.7 251.05 401.7 251.05 401.6 249.46 399.29 249.57 399.24 248.52 401.53 248.42 402.56 248.35 402.56 248.35 402.93 248.34 403.01 249.38 402.53 249.41 406.11 255.62 405.2 256.13 403.05 252.19 399.38 257.92"
     />
     <polygon
      class="cls-1"
      points="322.82 246.78 326.23 248.67 334.6 250.35 335.42 258.74 330.44 261.25 325.43 262.08 324.56 256.21 320.43 252.84 317.91 257.05 317.86 259.56 305.35 259.56 304.47 255.4 300.29 252.87 302.76 248.7 304.45 247.01 315.36 247.82 322.82 246.78"
     />
     <polygon
      class="cls-1"
      points="104.06 246.89 107.47 248.78 115.84 250.45 116.66 258.84 111.68 261.36 106.67 262.18 105.8 256.32 101.67 252.95 99.15 257.16 99.1 259.67 86.58 259.67 85.71 255.51 81.53 252.98 84 248.81 85.69 247.12 97.46 246.46 104.06 246.89"
     />
     <polyline
      class="cls-1"
      points="216.93 196.48 216.94 116.34 206.25 113.75 193.38 116.22 193.38 196.54"
     />
     <polyline
      class="cls-1"
      points="329.78 196.48 329.79 116.34 320 112.63 306.24 116.22 306.24 196.54"
     />
     <polyline
      class="cls-1"
      points="277.91 211.92 277.87 176.08 274.19 165.71 264.79 162.62 251.07 176.08 251.02 211.92"
     />
     <polyline
      id="saltoF"
      class="cls-1"
      points="155.8 234.23 155.8 205.82 137.06 186.97 118.35 205.82 118.56 234.15"
     />
    </g>
    <g id="ncima">
     <polygon
      class="cls-1"
      points="230.83 116.22 254.38 116.34 263.94 107.67 240.11 107.54 230.83 116.22"
     />
     <polygon
      class="cls-1"
      points="268.66 116.22 292.21 116.34 301.77 107.67 277.94 107.54 268.66 116.22"
     />
     <polygon
      class="cls-1"
      points="343.61 116.22 367.16 116.34 376.72 107.67 352.88 107.54 343.61 116.22"
     />
     <polygon
      class="cls-1"
      points="238.19 162.62 251.27 176.08 258.16 169.51 244.74 156 238.19 162.62"
     />
     <polygon
      class="cls-1"
      points="303.88 162.62 316.96 176.08 323.85 169.51 310.44 156 303.88 162.62"
     />
     <polygon
      class="cls-1"
      points="330.48 162.62 343.56 176.08 343.56 176.08 350.45 169.51 337.04 156 330.48 162.62"
     />
    
     <polygon
      class="cls-1"
      points="419.35 191.55 438.43 210.48 452.45 194.79 433.74 177.78 419.35 191.55"
     />
     <polygon
      class="cls-1"
      points="489.93 191.77 508.93 191.58 527.49 173.41 507.25 173.71 489.93 191.77"
     />
     <polygon
      class="cls-1"
      points="447.67 191.42 466.43 191.42 470.51 173.41 466.43 173.41 466.43 173.41 447.67 191.42"
     />
     <polygon
      class="cls-1"
      points="489.93 177.36 508.6 159.37 485.18 159.38 466.27 177.47 489.93 177.36"
     />
    </g>
    <g id="nfrente">
     <polygon
      class="cls-1"
      points="491.94 239.64 489.45 241.02 483.33 242.25 482.73 248.38 486.37 250.22 490.03 250.82 490.67 246.54 493.69 244.07 495.54 247.15 495.57 248.99 504.72 248.99 505.36 245.94 508.42 244.09 506.61 241.04 505.38 239.8 496.77 239.32 491.94 239.64"
     />
     <polygon
      class="cls-1"
      points="45.7 246.9 49.11 248.79 57.48 250.46 58.3 258.85 53.32 261.37 48.31 262.19 47.44 256.33 43.3 252.96 40.79 257.17 40.74 259.68 28.23 259.68 27.35 255.52 23.17 252.99 25.64 248.82 27.33 247.12 39.1 246.46 45.7 246.9"
     />
     <polyline
      class="cls-1"
      points="251.31 211.92 251.27 176.08 238.19 162.62 224.47 176.08 224.42 211.92"
     />
     <polyline
      class="cls-1"
      points="317 211.92 316.96 176.08 303.88 162.62 290.16 176.08 290.11 211.92"
     />
     <polyline
      class="cls-1"
      points="343.61 211.92 343.56 176.08 337.76 170.11 330.48 162.62 316.76 176.08 316.71 211.92"
     />
     <polyline
      class="cls-1"
      points="114.01 234 114.01 205.82 95.27 186.97 76.64 205.76 76.64 233.92"
     />
     <polygon
      class="cls-1"
      points="438.48 233.46 438.43 210.48 419.35 191.55 400.68 210.46 400.68 233.84 400.68 233.84 438.48 233.46"
     />
     <polygon
      class="cls-1"
      points="508.68 233.75 508.93 191.58 508.93 191.58 447.67 191.42 447.6 233.76 444.9 233.76 508.68 233.75"
     />
     <polygon
      class="cls-1"
      points="489.93 192.01 466.43 191.92 466.27 177.54 478.32 177.47 490.03 177.47 489.93 192.01"
     />
    </g>
    <g id="cima">
     <polygon
      class="cls-1"
      points="320.43 252.84 324.56 256.21 325.43 262.08 317.86 259.56 317.91 257.05 320.43 252.84"
     />
     <polygon
      class="cls-1"
      points="314.49 245.32 304.45 247.01 315.36 247.82 322.87 246.17 314.49 245.32"
     />
     <polygon
      class="cls-1"
      points="300.29 252.87 304.47 255.4 305.35 259.56 301.98 260.43 300.31 257.88 300.29 252.87"
     />
     <polygon
      class="cls-1"
      points="101.67 252.95 105.8 256.32 106.67 262.18 99.1 259.67 99.15 257.16 101.67 252.95"
     />
     <polygon
      class="cls-1"
      points="95.73 245.43 85.69 247.12 96.6 247.93 104.11 246.28 95.73 245.43"
     />
     <polygon
      class="cls-1"
      points="81.53 252.98 85.71 255.51 86.58 259.67 83.22 260.54 81.55 257.99 81.53 252.98"
     />
     <polygon
      class="cls-1"
      points="193.38 116.22 216.94 116.34 226.49 107.67 202.66 107.54 193.38 116.22"
     />
     <polygon
      class="cls-1"
      points="306.24 116.22 329.79 116.34 339.35 107.67 315.52 107.54 306.24 116.22"
     />
     <polygon
      class="cls-1"
      points="264.79 162.62 264.79 162.62 277.87 176.08 284.76 169.51 271.34 156 264.79 162.62"
     />
     <polygon
      id="saltoC"
      class="cls-1"
      points="135.65 188.4 155.8 205.82 165.17 196.47 146.4 177.47 135.65 188.4"
     />
    </g>
    <g id="njanela">
     <polygon
      class="cls-1"
      points="38.24 247.94 36.57 250.49 25.64 248.82 27.33 247.12 38.24 247.94"
     />
     <polygon
      class="cls-1"
      points="57.48 250.46 52.45 252.97 53.32 261.37 58.3 258.85 57.48 250.46"
     />
     <polygon
      class="cls-1"
      points="38.24 247.94 45.74 246.29 49.11 248.79 40.78 250.52 38.24 247.94"
     />
     <polygon
      class="cls-1"
      points="497.4 240.4 498.62 242.26 506.61 241.04 505.38 239.8 497.4 240.4"
     />
     <polygon
      class="cls-1"
      points="483.33 242.25 487.01 244.08 486.37 250.22 482.73 248.38 483.33 242.25"
     />
     <polygon
      class="cls-1"
      points="497.4 240.4 491.91 239.19 489.45 241.02 495.54 242.29 497.4 240.4"
     />
     <rect class="cls-1" x="99.88" y="205.73" width="9.28" height="9.28" />
     <rect class="cls-1" x="81.04" y="215.17" width="9.28" height="18.74" />
     <rect class="cls-1" x="233.8" y="127.3" width="5.72" height="5.72" />
     <rect class="cls-1" x="246.67" y="127.3" width="5.72" height="5.72" />
     <rect class="cls-1" x="233.8" y="137.84" width="5.72" height="5.72" />
     <rect class="cls-1" x="246.67" y="137.84" width="5.72" height="5.72" />
     <rect class="cls-1" x="233.8" y="148.33" width="5.72" height="5.72" />
     <rect class="cls-1" x="246.67" y="148.33" width="5.72" height="5.72" />
     <polygon
      class="cls-1"
      points="236.1 164.54 233.8 164.54 233.8 158.81 239.52 158.81 239.52 161.28 236.1 164.54"
     />
     <polygon
      class="cls-1"
      points="252.39 163.75 252.39 163.75 247.53 158.81 252.39 158.81 252.39 163.75"
     />
     <rect class="cls-1" x="346.09" y="127.3" width="5.72" height="5.72" />
     <rect class="cls-1" x="358.96" y="127.3" width="5.72" height="5.72" />
     <rect class="cls-1" x="346.09" y="137.84" width="5.72" height="5.72" />
     <rect class="cls-1" x="358.96" y="137.84" width="5.72" height="5.72" />
     <rect class="cls-1" x="346.09" y="148.33" width="5.72" height="5.72" />
     <rect class="cls-1" x="346.09" y="158.81" width="5.72" height="5.72" />
     <rect class="cls-1" x="358.96" y="148.33" width="5.72" height="5.72" />
     <rect class="cls-1" x="358.96" y="158.76" width="5.72" height="5.72" />
     <rect class="cls-1" x="271.33" y="127.3" width="5.72" height="5.72" />
     <rect class="cls-1" x="284.2" y="127.3" width="5.72" height="5.72" />
     <rect class="cls-1" x="271.33" y="137.84" width="5.72" height="5.72" />
     <rect class="cls-1" x="284.2" y="137.84" width="5.72" height="5.72" />
     <rect class="cls-1" x="271.33" y="148.33" width="5.72" height="5.72" />
     <rect class="cls-1" x="284.2" y="148.33" width="5.72" height="5.72" />
     <rect class="cls-1" x="284.2" y="158.76" width="5.72" height="5.72" />
     <polyline
      class="cls-1"
      points="274.13 158.81 277.05 158.81 277.05 161.75"
     />
     <rect class="cls-1" x="350.45" y="177.76" width="9.28" height="18.74" />
     <rect class="cls-1" x="226.99" y="184.46" width="9.45" height="4.79" />
     <rect class="cls-1" x="236.01" y="196.59" width="7.58" height="15.32" />
     <rect class="cls-1" x="229.34" y="179.91" width="4.73" height="4.79" />
     <rect class="cls-1" x="292.67" y="184.46" width="9.45" height="4.79" />
     <rect class="cls-1" x="301.7" y="196.59" width="7.58" height="15.32" />
     <rect class="cls-1" x="295.03" y="179.91" width="4.73" height="4.79" />
     <rect class="cls-1" x="330.02" y="184.45" width="9.45" height="4.79" />
     <rect class="cls-1" x="322.87" y="196.6" width="7.58" height="15.32" />
     <rect class="cls-1" x="403.06" y="214.99" width="7.58" height="18.79" />
     <rect class="cls-1" x="332.39" y="179.91" width="4.73" height="4.79" />
     <rect class="cls-1" x="414.69" y="215.04" width="20.96" height="14.01" />
     <rect class="cls-1" x="473.5" y="182.12" width="9.65" height="9.65" />
     <rect class="cls-1" x="473.5" y="210.24" width="9.65" height="23.56" />
     <rect class="cls-1" x="452.25" y="200.91" width="7.01" height="23.44" />
     <rect class="cls-1" x="461.84" y="200.91" width="7.01" height="23.44" />
     <rect class="cls-1" x="487.28" y="200.91" width="7.01" height="23.44" />
     <rect class="cls-1" x="496.86" y="200.91" width="7.01" height="23.44" />
     <rect class="cls-1" x="473.5" y="200.91" width="9.65" height="4.64" />
    </g>
    <g id="janela">
     <polygon
      class="cls-1"
      points="315.36 247.81 313.69 250.35 302.76 248.69 304.45 246.99 315.36 247.81"
     />
     <polygon
      class="cls-1"
      points="334.6 250.33 329.57 252.84 330.44 261.24 335.42 258.72 334.6 250.33"
     />
     <polygon
      class="cls-1"
      points="315.36 247.81 322.87 246.16 326.23 248.66 317.9 250.39 315.36 247.81"
     />
     <polygon
      class="cls-1"
      points="96.6 247.92 94.93 250.46 84 248.79 85.69 247.1 96.6 247.92"
     />
     <polygon
      class="cls-1"
      points="115.84 250.44 110.81 252.95 111.68 261.34 116.66 258.83 115.84 250.44"
     />
     <polygon
      class="cls-1"
      points="96.6 247.92 104.11 246.27 107.47 248.77 99.14 250.49 96.6 247.92"
     />
     <rect
      id="saltoJ1"
      class="cls-1"
      x="142.25"
      y="205.86"
      width="9.28"
      height="9.28"
     />
     <rect class="cls-1" x="264.36" y="184.39" width="9.45" height="4.79" />
     <rect
      id="saltoJ2"
      class="cls-1"
      x="123.42"
      y="215.3"
      width="9.28"
      height="18.74"
     />
     <rect class="cls-1" x="196.23" y="127.23" width="5.72" height="5.72" />
     <rect class="cls-1" x="209.1" y="127.23" width="5.72" height="5.72" />
     <rect class="cls-1" x="196.23" y="137.77" width="5.72" height="5.72" />
     <rect class="cls-1" x="209.1" y="137.77" width="5.72" height="5.72" />
     <rect class="cls-1" x="196.23" y="148.26" width="5.72" height="5.72" />
     <rect class="cls-1" x="209.1" y="148.26" width="5.72" height="5.72" />
     <rect class="cls-1" x="196.23" y="158.74" width="5.72" height="5.72" />
     <rect class="cls-1" x="209.1" y="158.74" width="5.72" height="5.72" />
     <rect class="cls-1" x="308.56" y="127.23" width="5.72" height="5.72" />
     <rect class="cls-1" x="321.43" y="127.23" width="5.72" height="5.72" />
     <rect class="cls-1" x="308.56" y="137.77" width="5.72" height="5.72" />
     <rect class="cls-1" x="321.43" y="137.77" width="5.72" height="5.72" />
     <rect class="cls-1" x="308.56" y="148.26" width="5.72" height="5.72" />
     <rect class="cls-1" x="321.43" y="148.26" width="5.72" height="5.72" />
     <rect class="cls-1" x="321.43" y="158.74" width="5.72" height="5.72" />
     <rect class="cls-1" x="200.79" y="177.77" width="9.28" height="18.74" />
     <rect class="cls-1" x="257.2" y="196.53" width="7.58" height="15.32" />
     <rect class="cls-1" x="266.72" y="179.84" width="4.73" height="4.79" />
    </g>
   
    <g id="arvore">
     <polygon
      class="cls-1"
      points="220.42 205.46 222.25 203.61 222.25 212.73 220.42 212.73 220.42 205.46"
     />
     <polygon
      class="cls-1"
      points="181.49 227.98 181.49 230.63 183 230.63 183 227.91 181.49 227.98"
     />
     <polyline
      class="cls-1"
      points="180.65 206.28 178.86 207.2 177.94 207.89 177.62 207.64 179.64 205.13 178.86 204.9 176.79 207.64 175.83 207.89 173.31 207.64 174.54 206.23 176.1 204.9 176.7 203.8 179.78 203.54 181.71 201.92 181.11 201.37 179.46 203.02 176.56 203.16 178.35 201.65 179.96 200.45 179.36 199.85 178.24 200.98 176.56 201.78 175.42 203.99 173.9 205.82 173.53 202.65 175.32 197.56 174.54 197.56 173.26 201.78 172.87 197.86 173.4 196.32 172.48 196.04 172.09 197.74 172.57 203.02 172.39 203.76 171.42 202.15 170.83 199.21 170.28 199.21 170.28 202.33 171.75 204.67 171.88 207.01 170.05 206.28 168.21 203.54 168.21 199.35 167.57 199.67 167.57 203.02 164.35 200.86 164.03 201.55 167.48 203.54 168.3 205.22 165.82 205.78 164.03 204.81 164.03 205.73 165.93 206.49 168.62 205.87 169.72 206.78 171.51 207.93 171.84 208.94 171.42 219.27 173.26 219.27 172.71 212.02 172.89 208.71 175.66 208.45 177.68 208.76 178.72 208.42 179.91 208.99 179.91 208.99 180.24 208.57 180.24 208.57 179.18 207.89 180.6 207.01"
     />
     <polyline
      class="cls-1"
      points="290.81 199.3 289.02 200.22 288.1 200.91 287.78 200.66 289.8 198.15 289.02 197.92 286.95 200.66 285.99 200.91 283.46 200.66 284.7 199.25 286.26 197.92 286.86 196.82 289.94 196.56 291.86 194.94 291.27 194.39 289.61 196.04 286.72 196.18 288.51 194.66 290.12 193.47 289.52 192.88 288.4 194 286.72 194.8 285.57 197.01 284.06 198.84 283.69 195.68 285.48 190.58 284.7 190.58 283.42 194.8 283.03 190.88 283.56 189.34 282.64 189.06 282.25 190.76 282.73 196.04 282.55 196.78 281.58 195.17 280.99 192.23 280.43 192.23 280.43 195.35 281.9 197.69 282.04 200.03 280.2 199.3 278.37 196.56 278.37 192.37 277.73 192.69 277.73 196.04 274.51 193.88 274.19 194.57 277.63 196.56 278.46 198.25 275.98 198.8 274.19 197.83 274.19 198.75 276.09 199.51 278.78 198.89 279.88 199.81 281.67 200.95 282 201.96 281.58 212.29 283.42 212.29 282.87 205.04 283.05 201.73 285.81 201.47 287.84 201.78 288.88 201.44 290.07 202.01 290.07 202.01 290.39 201.6 290.39 201.6 289.34 200.91 290.76 200.03"
     />
     <polyline
      class="cls-1"
      points="16.94 169.17 19.22 170.33 20.38 171.21 20.79 170.9 18.23 167.71 19.22 167.42 21.84 170.9 23.06 171.21 26.27 170.9 24.69 169.11 22.71 167.42 21.95 166.02 18.05 165.69 15.6 163.63 16.36 162.94 18.46 165.03 22.13 165.21 19.86 163.28 17.82 161.77 18.57 161.01 20 162.44 22.13 163.46 23.59 166.26 25.51 168.59 25.97 164.57 23.7 158.1 24.69 158.1 26.32 163.46 26.82 158.49 26.15 156.53 27.31 156.18 27.81 158.33 27.2 165.03 27.43 165.97 28.65 163.93 29.41 160.2 30.11 160.2 30.11 164.16 28.25 167.13 28.07 170.1 30.4 169.17 32.73 165.69 32.73 160.37 33.55 160.78 33.55 165.03 37.63 162.29 38.03 163.17 33.66 165.69 32.62 167.83 35.76 168.53 38.03 167.31 38.03 168.47 35.63 169.44 32.21 168.65 30.81 169.81 28.54 171.27 28.13 172.55 28.65 185.66 26.32 185.66 27.02 176.45 26.79 172.26 23.28 171.93 20.71 172.31 19.39 171.89 17.88 172.61 17.88 172.61 17.47 172.08 17.47 172.08 18.81 171.21 17 170.1"
     />
     <polygon
      class="cls-1"
      points="69.91 227.9 69.91 218.42 66.6 215.82 67.08 215.18 70.12 217.36 69.95 214.49 64.69 212.69 65.03 211.83 68.04 212.89 66.23 211.46 66.81 211.05 69.47 213.4 70.56 213.57 69.57 209.27 65.24 206.34 65.65 205.28 68.89 207.91 67.63 205.48 68.48 205.28 70.05 208.66 69.37 204.29 70.02 204.29 71.14 212.07 71.86 210.77 71.62 205.35 72.75 205.21 72.58 210.47 75.92 207.36 76.36 208.42 74.39 209.92 76.36 210.16 76.19 210.74 74.11 210.36 73.29 210.77 75.17 211.39 74.83 212.07 72.54 211.56 71.42 214.07 71.42 216.09 72.58 215.04 74.45 213.16 75.07 213.98 71.11 217.7 71.42 227.9 69.91 227.9"
     />
     <polyline
      class="cls-1"
      points="45.73 170.21 48.63 166.55 48.63 165.38 44.75 169.07 44.55 173.92 43.77 172.51 42.47 165.53 41.25 165.38 42.99 172.17 39.35 168.8 38.87 169.95 41.02 171.58 38.87 171.84 39.06 172.47 41.32 172.06 42.21 172.51 37.38 173.99 37.75 174.73 43.03 173.36 44.24 176.09 44.25 178.29 42.99 177.15 40.95 175.1 40.28 176 44.59 180.04 44.25 191.12 45.88 191.12 45.88 180.82 49.48 178 48.96 177.29 45.66 179.67 45.85 176.55"
     />
     <polygon
      class="cls-1"
      points="346.24 210.31 346.24 212.97 347.75 212.97 347.75 210.24 346.24 210.31"
     />
    </g>
    <g id="plantasPO">
     <polygon
      class="cls-1"
      points="18.11 164.13 18.4 158.6 27.43 155.6 36.4 158.6 36.53 164.12 36.69 173.12 30.51 176.98 24.23 177.03 18.11 172.9 18.11 164.13"
     />
     <polygon
      class="cls-1"
      points="35.98 168.1 42.78 164.35 48.17 164.38 54.81 168.09 54.97 174.77 48.66 181.24 42.23 181.29 35.98 174.54 35.98 168.1"
     />
     <polygon
      class="cls-1"
      points="64.69 205.86 69.14 200.24 71.95 200.27 76.64 205.76 76.64 217.19 71.14 221.6 69.91 221.6 64.69 217.1 64.69 205.86"
     />
    </g>
    <g id="troncosPO">
     <polyline
      class="cls-1"
      points="31.14 169.21 33.21 165.52 32.78 162.61 33.56 162.61 33.6 164.48 37.63 162.29 38.03 163.17 34.06 165.46 32.78 167.56 35.97 168.27 38.03 167.28 38.03 168.47 35.93 169.42 32.79 168.37 31.16 170.02"
     />
     <polyline
      class="cls-1"
      points="25.74 164.64 24.1 158.08 24.95 158.08 26.59 163.81 27.39 160.5 27.37 157.22 28.22 157.23 28.22 160.51 27.39 165.46"
     />
     <polyline
      class="cls-1"
      points="23.07 168.54 20.97 166.81 20.54 165.19 18.62 166.15 15.6 163.52 16.43 162.66 18.89 165.19 19.73 164.34 19.44 163.3 17.8 161.65 18.63 160.79 20.28 162.46 20.87 163.89 21.77 165.61"
     />
     <polyline
      class="cls-1"
      points="47 174.29 53.49 170.12 52.62 169.22 48.04 172.88 48.67 171.35 51.75 168.3 51.75 167.38 49.07 170.12 47.6 171.47"
     />
     <polyline
      class="cls-1"
      points="49.87 177.95 48.12 178.8 45.01 181.09 45.87 181.29 50.71 178.15"
     />
     <polyline
      class="cls-1"
      points="45.39 171.06 44.59 166.97 43.73 166.97 44.61 171.11 41.29 166.16 40.47 166.97 42.94 170.25 39.21 171.06 39.65 171.91 42.12 171.06 43.74 171.88 38.01 172.72 38.78 173.54 44.24 172.45"
     />
     <polyline
      class="cls-1"
      points="45.65 181.63 47.76 176.78 46.62 176.45 44.54 181.3"
     />
     <polygon
      class="cls-1"
      points="16.94 169.17 17 170.1 18.59 171 17.47 172.08 17.88 172.61 19.64 171 23.59 172.82 23.85 172.09 16.94 169.17"
     />
     <polygon
      class="cls-1"
      points="69.91 227.9 69.91 218.42 66.6 215.82 67.08 215.18 70.12 217.36 69.95 214.49 64.69 212.69 65.03 211.83 68.04 212.89 66.23 211.46 66.81 211.05 69.47 213.4 70.56 213.57 69.57 209.27 65.24 206.34 65.65 205.28 68.89 207.91 67.63 205.48 68.48 205.28 70.05 208.66 69.37 204.29 70.02 204.29 71.14 212.07 71.86 210.77 71.62 205.35 72.75 205.21 72.58 210.47 75.92 207.36 76.36 208.42 74.39 209.92 76.36 210.16 76.19 210.74 74.11 210.36 73.29 210.77 75.17 211.39 74.83 212.07 72.54 211.56 71.42 214.07 71.42 216.09 72.58 215.04 74.45 213.16 75.07 213.98 71.11 217.7 71.42 227.9 69.91 227.9"
     />
    </g>
    <g id="plantasV">
     <polygon
      class="cls-1"
      points="15.6 160.16 27.39 155.44 38.6 160.16 38.76 174.3 30.55 178.62 24.13 178.66 15.6 174.08 15.6 160.16"
     />
     <polygon
      class="cls-1"
      points="35.98 167.28 42.96 163.66 48.13 163.69 54.79 166.98 54.95 175.63 47.86 182.14 42.43 182.18 35.98 175.71 35.98 167.28"
     />
     <polygon
      class="cls-1"
      points="64.05 205.76 69.14 200.13 71.95 200.16 76.64 205.65 76.64 217.08 71.14 221.49 69.91 221.5 64.05 217 64.05 205.76"
     />
     <polygon
      class="cls-1"
      points="279.91 185.42 283.94 185.42 290.54 187.74 291.86 194.48 290.51 201.22 283.06 205.57 281.55 205.58 274.13 201.14 272.64 194.41 274.14 187.63 279.91 185.42"
     />
     <polygon
      class="cls-1"
      points="169.94 194.88 173.81 194.88 180.14 199.58 181.41 203.57 180.12 207.59 172.75 212.4 171.69 212.41 164.4 207.51 162.97 203.51 164.41 199.47 169.94 194.88"
     />
    </g>
     <g id="plantas">
     <polygon
      class="cls-1"
      points="218.24 205.7 218.24 205.7 223.37 205.71 225.34 205.7 229.37 201.69 229.37 193.9 225.39 189.65 221.34 185.69 217.37 189.65 213.31 193.9 213.31 201.74 218.24 205.7 218.24 205.7"
     />
     <polygon
      class="cls-1"
      points="181.88 200.68 179.85 203.29 177.81 210.1 177.15 216.72 177.8 223.62 181.49 228.04 183 228.04 186.62 223.62 187.35 216.76 186.64 210.14 183.88 203.29 181.88 200.68"
     />
     <polyline
      class="cls-1"
      points="344.6 190.15 342.55 192.43 341.89 199.06 342.54 205.95 346.24 210.38 347.75 210.38 351.36 205.95 352.09 199.1 351.39 192.47 348.63 190.15"
     />
    </g>
		</g>
</svg>