<svg class="img_svg"
	xmlns="http://www.w3.org/2000/svg" viewBox="0 0 554.47 265.86">
	
		<g id="intro31">
     <polyline
     id="scan"
     points="0 184.29 260.38 184.29 260.3 175.06 322.59 112.1 364.28 154.29 364.28 184.29 554.47 184.29"
    />
		<rect id="chao" y="184.29" width="554.47" height="81.57" />
    <g id="lado">
     <polyline
      points="343.47 238.14 364.39 217.43 364.28 154.29 343.47 175.06"
     />
    </g>
    <g id="cima">
     <polygon
      points="301.85 133.19 343.47 175.06 364.28 154.29 322.59 112.1 301.85 133.19"
     />
    </g>
    <g id="frente">
     <polyline
      points="343.47 238.14 343.47 175.06 301.85 133.19 260.3 175.06 260.78 237.97"
     />
    </g>
    <g id="janela">
     <rect x="313.38" y="175.16" width="20.61" height="20.61" />
     <rect x="271.56" y="196.33" width="20.61" height="41.62" />
    </g>
   
    <polygon
     id="plantasPO"
     points="106.31 204.27 84.14 182.1 84.14 146.56 107.88 122.81 131.66 146.59 131.66 183.28 110.05 204.27 106.31 204.27"
    />
    <g id="arvore">
     <polygon
      points="435.06 228.5 435.06 238.14 439.51 238.14 439.51 228.24 435.06 228.5"
     />
     <polyline
      points="432.57 154.63 427.3 157.96 424.59 160.46 423.65 159.57 429.6 150.45 427.3 149.62 421.21 159.57 418.37 160.46 410.93 159.57 414.58 154.46 419.18 149.62 420.94 145.62 430 144.65 435.68 138.78 433.92 136.77 429.06 142.78 420.54 143.28 425.81 137.78 430.54 133.44 428.78 131.27 425.47 135.36 420.54 138.28 417.15 146.28 412.69 152.96 411.61 141.44 416.88 122.93 414.58 122.93 410.8 138.28 409.65 124.03 411.2 118.42 408.5 117.42 407.35 123.59 408.77 142.78 408.23 145.45 405.39 139.61 403.63 128.93 402.01 128.93 402.01 140.28 406.34 148.79 406.74 157.28 401.33 154.63 395.92 144.65 395.92 129.43 394.03 130.6 394.03 142.78 384.56 134.94 383.62 137.44 393.76 144.65 396.19 150.79 388.89 152.79 383.62 149.29 383.62 152.62 389.2 155.4 397.14 153.12 400.39 156.46 405.66 160.63 406.61 164.3 405.39 201.84 410.8 201.84 409.18 175.48 409.72 163.47 417.86 162.53 423.83 163.63 426.89 162.41 430.41 164.47 430.41 164.47 431.35 162.97 431.35 162.97 428.24 160.46 432.44 157.28"
     />
     <polygon
      points="106.31 233.19 106.31 198.75 96.56 189.32 97.97 186.96 106.92 194.9 106.41 184.48 90.92 177.9 91.93 174.8 100.78 178.65 95.45 173.44 97.16 171.95 105.01 180.51 108.22 181.13 105.31 165.5 92.53 154.83 93.74 150.98 103.3 160.53 99.57 151.72 102.09 150.98 106.72 163.26 104.7 147.38 106.61 147.38 109.93 175.67 112.05 170.96 111.34 151.23 114.66 150.73 114.16 169.84 124.01 158.55 125.32 162.39 119.49 167.85 125.32 168.72 124.82 170.83 118.68 169.47 116.27 170.96 121.8 173.19 120.8 175.67 114.06 173.81 110.76 182.95 110.74 190.28 114.16 186.47 119.69 179.64 121.5 182.62 109.83 196.14 110.74 233.19 106.31 233.19"
     />
    </g>
    <g id="plantasV">
     <polygon
      points="83.64 144.15 102.95 122.79 113.63 122.91 131.43 143.75 131.43 187.16 110.55 203.9 105.9 203.94 83.64 186.85 83.64 144.15"
     />
     <polygon
      points="399.76 106.83 414.45 106.83 437.32 129.39 442.14 144.53 437.22 159.8 419.02 178.34 393.86 178.34 377.52 159.51 372.07 144.3 377.55 128.97 399.76 106.83"
     />
    </g>
    <g id="plantas">
     <polygon
      points="436.35 153.58 430.81 160.74 425.2 179.38 423.4 197.54 425.17 216.41 435.06 228.8 439.51 228.54 449.34 216.42 451.34 197.64 449.41 179.49 441.85 160.75 436.35 153.58"
     />
    </g>
		</g>
</svg>