<svg class="img_svg"
	xmlns="http://www.w3.org/2000/svg"
	xmlns:xlink="http://www.w3.org/1999/xlink" viewBox="0 0 554.47 265.86">
	
		<g id="intro26">
		
			    <rect id="chao" y="184.32" width="554.47" height="81.57" />
    <g id="lado">
     <polygon
      points="343.47 238.17 364.39 217.46 364.28 154.32 343.47 175.09 343.47 238.17"
     />
    </g>
    <g id="cima">
     <polygon
      points="301.85 133.22 343.47 175.09 364.28 154.32 322.59 112.13 301.85 133.22"
     />
    </g>
    <g id="frente">
     <polyline
      points="343.44 238.17 343.44 175.09 301.82 133.22 260.27 175.09 260.74 238"
     />
    </g>
    <g id="parede">
     <polygon
      points="336.96 232.06 336.96 176.97 302.05 141.67 266.67 176.98 267.02 232.02 267.02 232.02 336.96 232.06"
     />
    </g>
    <g id="local3">
     <path
      d="M287.08,179.79s-3.15-2.64,2.26-7.8,7.8-6.29,7.42-4.66-4.89,4.53-5.28,6.42S290.72,179.41,287.08,179.79Z"
     />
     <path
      d="M300,164s-3,8.81-5.53,11.2-.88,5.28-4.53,7.8-3.9,3-4.78-2-.41-8.05,1-8.94S296.64,163,300,164Z"
     />
     <path
      d="M283.41,191.61s9.66-4.65,13.39-10.19,5.69-17.2,7-20.25c.87-2-16,3.9-19.5,7.67s-.54,10.44-.9,13.34S282.51,190.86,283.41,191.61Z"
     />
     <path
      d="M286.17,163.43s25.78-9.2,28.42-7.31-10.41,2.16-11.54,13.35,3.52,12.46.13,14.34-19.43,10.82-20.85,12.71"
     />
     <path d="M290.14,157.58s16.31-2.55,20.69-7.07" />
     <path d="M289.34,156.37s17.06-7.81,18.37-9" />
     <path d="M304.91,144.52c-1,.94-15.32,10.13-15.32,10.13" />
     <path
      d="M282.33,199.79s25.31-12.33,25.78-17.23-3.61-13.09,2.27-17.36a65.61,65.61,0,0,0,8.31-6.74"
     />
     <path
      d="M328.14,168a3.8,3.8,0,0,0-.81,3.48c1.09,3.55,2.64,4.24,2.26,6s4.83,5.56,6.19,3.42a3.79,3.79,0,0,0-1.1-3.71c-1.5-1.55-6.81-4.25-4-6.64"
     />
     <path
      d="M325.67,165.51s-2.28,2.17-2.24,3.75c.08,3.07,2.84,2.87,1.36,7.58s7.62,9.65,9.59,7.48a3.25,3.25,0,0,1,2.58-1.27"
     />
     <path
      d="M322.42,162.23s-3.56,3.92-3.52,5.86c.1,4.09,2.77,4.71,2.39,9.84s6.89,8.53,11.24,10,2.51,5.91,4.11,6.42"
     />
     <path
      d="M291.34,213.15s13.59-13.36,22.52-15.37,7.43-7.59,12.09-4.11,16.95,10.27,6.58,14.8-13,4.27-13,4.27"
     />
     <path
      d="M297.4,213s9.49-8.84,13-10.31,9.72-1,14.41-4.87c1.74-1.44,7.7.5,5.43,4s.63,5.29-6.16,7.55-10.69,3.4-10.69,3.4"
     />
     <path
      d="M303.56,212.74s4.27-6.49,8.17-7.71,11.4-2.47,13.06-3.86,4.55,2.22,1.16,3.86-13.59,3.06-16.23,7.71"
     />
     <path
      d="M284.06,212.75s25-14.39,29.18-20.2c1.83-2.55,6.79-7.23,13-2.45s10.12,9.58,10.72,9"
     />
     <path
      d="M282.33,204.44s34-11.82,31.53-20.38-6.74-13.86,1-19a37.18,37.18,0,0,0,5.69-4.71"
     />
    </g>
    <g id="piso">
     <polygon
      points="291.29 208.81 336.96 208.81 336.96 232.06 266.7 232.02 291.29 208.81"
     />
    </g>
    <g id="dentro">
     <polygon
      points="266.7 232.02 291.29 208.81 291.29 152.4 266.7 177 266.7 232.02 266.7 232.02"
     />
    </g>
    <rect id="janela" x="295.96" y="175.09" width="33.17" height="9.23" />
    <polygon
     id="plantasPO"
     points="106.31 204.3 84.14 182.13 84.14 146.59 107.88 122.84 131.66 146.62 131.66 183.31 110.05 204.3 106.31 204.3"
    />
    <g id="arvore">
     <polygon
      points="435.06 228.53 435.06 238.17 439.51 238.17 439.51 228.27 435.06 228.53"
     />
     <polyline
      points="432.57 154.66 427.3 157.99 424.59 160.49 423.65 159.6 429.6 150.48 427.3 149.65 421.21 159.6 418.37 160.49 410.93 159.6 414.58 154.49 419.18 149.65 420.94 145.65 430 144.68 435.68 138.81 433.92 136.8 429.06 142.81 420.54 143.31 425.81 137.81 430.54 133.47 428.78 131.3 425.47 135.39 420.54 138.31 417.15 146.31 412.69 152.99 411.61 141.47 416.88 122.96 414.58 122.96 410.8 138.31 409.65 124.06 411.2 118.45 408.5 117.45 407.35 123.62 408.77 142.81 408.23 145.48 405.39 139.64 403.63 128.96 402.01 128.96 402.01 140.31 406.34 148.82 406.74 157.31 401.33 154.66 395.92 144.68 395.92 129.46 394.03 130.63 394.03 142.81 384.56 134.97 383.62 137.47 393.76 144.68 396.19 150.82 388.89 152.82 383.62 149.32 383.62 152.65 389.2 155.43 397.14 153.15 400.39 156.49 405.66 160.66 406.61 164.33 405.39 201.87 410.8 201.87 409.18 175.51 409.72 163.5 417.86 162.56 423.83 163.66 426.89 162.44 430.41 164.5 430.41 164.5 431.35 163 431.35 163 428.24 160.49 432.44 157.31"
     />
     <polygon
      points="106.31 233.22 106.31 198.78 96.56 189.35 97.97 186.99 106.92 194.93 106.41 184.51 90.92 177.93 91.93 174.83 100.78 178.68 95.45 173.47 97.16 171.98 105.01 180.54 108.22 181.16 105.31 165.53 92.53 154.86 93.74 151.01 103.3 160.56 99.57 151.75 102.09 151.01 106.72 163.29 104.7 147.41 106.61 147.41 109.93 175.7 112.05 170.99 111.34 151.26 114.66 150.76 114.16 169.87 124.01 158.58 125.32 162.42 119.49 167.88 125.32 168.75 124.82 170.86 118.68 169.5 116.27 170.99 121.8 173.22 120.8 175.7 114.06 173.84 110.76 182.98 110.74 190.31 114.16 186.5 119.69 179.67 121.5 182.65 109.83 196.17 110.74 233.22 106.31 233.22"
     />
    </g>
    <g id="local1">
     <path
      d="M409.55,167.28l-2.94-3-.22,6.81s2.83,5.1,1.88,7.38-.86,5.13-.11,9.34-2.57,8.05-2.57,8.05l-.12,3.56c5.19,3.7,5.11-1.21,5.11-1.21Z"
     />
     <path
      d="M402,129s3.29,4,1.65,6.85.75,6.92,3,9.25.23,7.34,1.37,9.5-.43,6.7-1,7.92a3.07,3.07,0,0,0-.42,1.85l-1-3.67,1.08-3.35-.4-8.5L402,140.3Z"
     />
     <path
      d="M420.54,138.29s-3.15,11.58-5.15,13-2,2.3-5.74,4.84c-1.87,1.28-1.22,18.68-1.22,18.68s-.64-10.1,2.15-16.54c.59-1.37,8.61-8.64,8.61-8.64l1.75-4-.4-2.33Z"
     />
     <path
      d="M383.62,137.46a13.58,13.58,0,0,1,6.7,2.71c3.71,2.63,6.34,6.13,7,9.13s7.82,8.91,9.34,10.35-6.27-3.17-6.27-3.17l-3.25-3.34-.94-2.33-2.44-6.14Z"
     />
    </g>
    <g id="plantasV">
     <polygon
      points="83.64 144.18 102.95 122.82 113.63 122.94 131.43 143.78 131.43 187.19 110.55 203.93 105.9 203.97 83.64 186.88 83.64 144.18"
     />
     <polygon
      points="399.76 106.86 414.45 106.86 437.32 129.42 442.14 144.56 437.22 159.83 419.02 178.37 393.86 178.37 377.52 159.54 372.07 144.33 377.55 129 399.76 106.86"
     />
    </g>
    <g id="plantas">
     <polygon
      points="436.35 153.61 430.81 160.77 425.2 179.41 423.4 197.57 425.17 216.44 435.06 228.83 439.51 228.57 449.34 216.45 451.34 197.67 449.41 179.52 441.85 160.78 436.35 153.61"
     />
    </g>
    <g id="local6">
     <path d="M435.68,228.83s-.39,5.58,0,6.75a6.89,6.89,0,0,1,0,2.93" />
     <path d="M436.74,228.87s-.17,6.29,0,7.46a3.84,3.84,0,0,1-.42,2.18" />
     <path d="M437.37,228.83s1.78,4.42,1.37,6.83a13.24,13.24,0,0,1-.65,2.85" />
    </g>
    <g id="local4">
     <path
      d="M307.47,127.51s6.34,6.56,10.35,9.73c2.61,2.06,4.76,8.19,13.88,12.51s15.78,11.62,15.56,16.15c-.14,2.95,1.19,4.22,1.19,4.22"
     />
     <path
      d="M304,131s1.59,1.41,9.15,6.53c7.14,4.84,18.57,9.08,21,17.9,2.19,7.93,11.35,17.6,11.35,17.6"
     />
     <path
      d="M312.38,122.66s1.59,1.41,9.15,6.53c7.14,4.84,18.57,9.08,21,17.9,2.19,7.93,11.35,17.6,11.35,17.6"
     />
     <path
      d="M302.32,132.74s15,13.83,23.33,21c7.61,6.55,18.42,20.74,18.42,20.74"
     />
     <path
      d="M316.41,118.65s15,13.83,23.33,21c7.61,6.55,18.42,20.73,18.42,20.73"
     />
     <path
      d="M311,123.93s2.71,2.61,4.92,4.87c8.13,8.3,3.88,6.83,12.82,11.08s17.59,15.91,21.25,19.76c3.37,3.54,4.47,4.5,4.47,4.5"
     />
     <path
      d="M318.81,116.1s2.71,2.61,4.92,4.87c8.13,8.3,3.88,6.83,12.82,11.08S354.14,148,357.8,151.81c3.37,3.54,4.47,4.5,4.47,4.5"
     />
    </g>
    <g id="local5">
     <path d="M106.31,204.56h2.11c.85,0-.72,2.9.57,3h1.06" />
     <path
      d="M106.31,205.72a4,4,0,0,1,1.09.11c.47.49.21,2.11,1.5,2.73,1,.46.78,2.87-.78,4.16s-.34,2.67-1.81,2.67"
     />
     <path
      d="M106.31,207.43s.71-.09,1,.21c.54.55.88.61.81,1.5-.29,4-1.81,3.75-1.81,3.75"
     />
     <path d="M106.31,208.35s.89-.09.93,1.08c.07,1.76-.93,1.54-.93,1.54" />
     <path
      d="M110.6,231.47s-1.59,0-2.5-.05.76-3.07-.6-3.17c-.67-.05-1.12-.05-1.12-.05"
     />
     <path
      d="M110.6,230.24a4.82,4.82,0,0,1-1.42-.12c-.49-.51-.22-2.23-1.59-2.88-1-.49-1.11-6.72.53-8.08s.51-6.27,2.06-6.27"
     />
     <path
      d="M110.56,228.44s-1,.08-1.29-.24c-.56-.58-.77-.64-.85-1.58-.66-7,1.92-7.11,1.92-7.11"
     />
     <path
      d="M110.56,227.46a1.12,1.12,0,0,1-1.21-1v-.12c-.32-5.19,1-4.67,1-4.67"
     />
    </g>
		</g>
</svg>