<svg class="img_svg"
	xmlns="http://www.w3.org/2000/svg" viewBox="0 0 554.47 265.86">

		<g id="intro21">
		
 <rect
     id="chao"
     class="cls-1"
     x="0.5"
     y="184.2"
     width="554.47"
     height="81.57"
    />
    <g id="estrada">
     <rect class="cls-1" x="0.5" y="240.31" width="554.47" height="25.46" />
    </g>
    <g id="predios">
     <polyline
      class="cls-1"
      points="251.31 211.83 251.27 175.99 238.19 162.53 224.47 175.99 224.42 211.83"
     />
     <polyline
      class="cls-1"
      points="317 211.83 316.96 175.99 303.88 162.53 290.16 175.99 290.11 211.83"
     />
     <polyline
      class="cls-1"
      points="343.61 211.83 343.56 175.99 337.76 170.02 330.48 162.53 316.76 175.99 316.71 211.83"
     />
     <polyline
      class="cls-1"
      points="114.01 233.91 114.01 205.73 95.27 186.88 76.64 205.67 76.64 233.83"
     />
     <polygon
      class="cls-1"
      points="438.48 233.37 438.43 210.39 419.35 191.46 400.68 210.37 400.68 233.75 400.68 233.75 438.48 233.37"
     />
     <polygon
      class="cls-1"
      points="508.68 233.66 508.93 191.49 508.93 191.49 447.67 191.33 447.6 233.67 444.9 233.67 508.68 233.66"
     />
     <polygon
      class="cls-1"
      points="489.93 191.92 466.43 191.83 466.27 177.45 478.32 177.38 490.03 177.38 489.93 191.92"
     />
     <polyline
      class="cls-1"
      points="343.61 211.83 350.45 205.23 350.45 169.42 343.53 162.48"
     />
     <polyline
      class="cls-1"
      points="254.38 196.39 263.98 186.75 263.94 107.58 254.14 116.12"
     />
     <polyline
      class="cls-1"
      points="292.2 196.39 301.8 186.75 301.77 107.58 291.97 116.12"
     />
     <polygon
      class="cls-1"
      points="367.15 196.39 376.75 186.75 376.72 107.58 367.16 116.25 367.15 196.39"
     />
     <polyline
      class="cls-1"
      points="113.86 234.17 123.27 224.79 123.23 196.38 113.86 205.73"
     />
     <polyline
      class="cls-1"
      points="438.48 233.37 447.79 223.99 447.69 200.05 438.43 210.39"
     />
     <polyline
      class="cls-1"
      points="508.68 233.66 527.76 214.83 527.49 173.32 523.75 174.66 508.93 191.49"
     />
     <polygon
      class="cls-1"
      points="497.5 163.33 508.6 159.28 508.85 173.6 489.93 191.42 489.93 177.27 497.5 163.33"
     />
     <polygon
      class="cls-1"
      points="230.83 116.13 254.38 116.25 263.94 107.58 240.11 107.45 230.83 116.13"
     />
     <polygon
      class="cls-1"
      points="268.66 116.13 292.21 116.25 301.77 107.58 277.94 107.45 268.66 116.13"
     />
     <polygon
      class="cls-1"
      points="343.61 116.13 367.16 116.25 376.72 107.58 352.88 107.45 343.61 116.13"
     />
     <polygon
      class="cls-1"
      points="238.19 162.53 251.27 175.99 258.16 169.42 244.74 155.91 238.19 162.53"
     />
     <polygon
      class="cls-1"
      points="303.88 162.53 316.96 175.99 323.85 169.42 310.44 155.91 303.88 162.53"
     />
     <polygon
      class="cls-1"
      points="330.48 162.53 343.56 175.99 343.56 175.99 350.45 169.42 337.04 155.91 330.48 162.53"
     />
     <polygon
      class="cls-1"
      points="95.23 186.88 113.97 205.73 123.34 196.38 104.57 177.38 95.23 186.88"
     />
     <polygon
      class="cls-1"
      points="419.35 191.46 438.43 210.39 452.45 194.7 433.74 177.69 419.35 191.46"
     />
     <polygon
      class="cls-1"
      points="489.93 191.42 508.93 191.49 527.49 173.32 507.25 173.62 489.93 191.42"
     />
     <polygon
      class="cls-1"
      points="447.67 191.33 466.43 191.33 470.51 173.32 466.43 173.32 447.67 191.33"
     />
     <polygon
      class="cls-1"
      points="489.93 177.27 508.6 159.28 485.18 159.28 466.27 177.38 489.93 177.27"
     />
     <polyline
      class="cls-1"
      points="216.93 196.39 216.94 116.25 206.25 113.66 193.38 116.13 193.38 196.45"
     />
     <polyline
      class="cls-1"
      points="329.78 196.39 329.79 116.25 320 112.53 306.24 116.13 306.24 196.45"
     />
     <polyline
      class="cls-1"
      points="277.91 211.83 277.87 175.99 274.19 165.62 264.79 162.53 251.07 175.99 251.02 211.83"
     />
     <polyline
      class="cls-1"
      points="155.8 234.14 155.8 205.73 137.06 186.88 118.35 205.73 118.56 234.06"
     />
     <polygon
      class="cls-1"
      points="193.38 116.13 216.94 116.25 226.49 107.58 202.66 107.45 193.38 116.13"
     />
     <polygon
      class="cls-1"
      points="306.24 116.13 329.79 116.25 339.35 107.58 315.52 107.45 306.24 116.13"
     />
     <polygon
      class="cls-1"
      points="264.79 162.53 264.79 162.53 277.87 175.99 284.76 169.42 271.34 155.91 264.79 162.53"
     />
     <polygon
      class="cls-1"
      points="135.65 188.31 155.8 205.73 165.17 196.38 146.4 177.38 135.65 188.31"
     />
     <polyline
      class="cls-1"
      points="216.93 196.39 226.53 186.75 226.49 107.58 216.69 116.12"
     />
     <polyline
      class="cls-1"
      points="277.91 211.83 284.76 205.23 284.76 169.42 277.84 162.48"
     />
     <polyline
      class="cls-1"
      points="329.78 196.39 339.38 186.75 339.35 107.58 329.55 116.12"
     />
     <polyline
      class="cls-1"
      points="155.8 234.19 165.22 224.81 165.17 196.38 155.8 205.73"
     />
     <polyline
      class="cls-1"
      points="254.38 196.39 254.38 116.25 243.59 112.53 230.83 116.13 230.83 196.45"
     />
     <polyline
      class="cls-1"
      points="292.2 196.39 292.21 116.25 280.88 112.53 268.66 116.13 268.66 196.45"
     />
     <polyline
      class="cls-1"
      points="367.15 196.39 367.16 116.25 355.38 112.91 343.61 116.13 343.61 196.45"
     />
    </g>
    <g id="blackout">
     <rect class="cls-1" x="99.88" y="205.64" width="9.28" height="9.28" />
     <rect class="cls-1" x="81.04" y="215.08" width="9.28" height="18.74" />
     <rect class="cls-1" x="233.8" y="127.21" width="5.72" height="5.72" />
     <rect class="cls-1" x="233.8" y="148.24" width="5.72" height="5.72" />
     <polygon
      class="cls-1"
      points="236.1 164.45 233.8 164.45 233.8 158.72 239.52 158.72 239.52 161.19 236.1 164.45"
     />
     <polygon
      class="cls-1"
      points="252.39 163.66 252.39 163.66 247.53 158.72 252.39 158.72 252.39 163.66"
     />
     <rect class="cls-1" x="346.09" y="127.21" width="5.72" height="5.72" />
     <rect class="cls-1" x="358.96" y="127.21" width="5.72" height="5.72" />
     <rect class="cls-1" x="346.09" y="137.75" width="5.72" height="5.72" />
     <rect class="cls-1" x="358.96" y="137.75" width="5.72" height="5.72" />
     <rect class="cls-1" x="346.09" y="148.24" width="5.72" height="5.72" />
     <rect class="cls-1" x="346.09" y="158.72" width="5.72" height="5.72" />
     <rect class="cls-1" x="358.96" y="148.24" width="5.72" height="5.72" />
     <rect class="cls-1" x="358.96" y="158.67" width="5.72" height="5.72" />
     <rect class="cls-1" x="271.33" y="127.21" width="5.72" height="5.72" />
     <rect class="cls-1" x="284.2" y="127.21" width="5.72" height="5.72" />
     <rect class="cls-1" x="271.33" y="137.75" width="5.72" height="5.72" />
     <rect class="cls-1" x="271.33" y="148.24" width="5.72" height="5.72" />
     <rect class="cls-1" x="284.2" y="158.67" width="5.72" height="5.72" />
     <polyline
      class="cls-1"
      points="274.13 158.72 277.05 158.72 277.05 161.66"
     />
     <rect class="cls-1" x="350.45" y="177.67" width="9.28" height="18.74" />
     <rect class="cls-1" x="292.67" y="184.36" width="9.45" height="4.79" />
     <rect class="cls-1" x="301.69" y="196.51" width="7.58" height="15.32" />
     <rect class="cls-1" x="295.03" y="179.82" width="4.73" height="4.79" />
     <rect class="cls-1" x="403.06" y="214.9" width="7.58" height="18.79" />
     <rect class="cls-1" x="414.69" y="214.95" width="20.96" height="14.01" />
     <rect class="cls-1" x="452.25" y="200.82" width="7.01" height="23.44" />
     <rect class="cls-1" x="487.28" y="200.82" width="7.01" height="23.44" />
     <rect class="cls-1" x="264.36" y="184.3" width="9.45" height="4.79" />
     <rect class="cls-1" x="196.23" y="127.14" width="5.72" height="5.72" />
     <rect class="cls-1" x="196.23" y="137.68" width="5.72" height="5.72" />
     <rect class="cls-1" x="196.23" y="148.17" width="5.72" height="5.72" />
     <rect class="cls-1" x="209.1" y="148.17" width="5.72" height="5.72" />
     <rect class="cls-1" x="209.1" y="158.65" width="5.72" height="5.72" />
     <rect class="cls-1" x="308.56" y="127.14" width="5.72" height="5.72" />
     <rect class="cls-1" x="321.43" y="127.14" width="5.72" height="5.72" />
     <rect class="cls-1" x="308.56" y="137.68" width="5.72" height="5.72" />
     <rect class="cls-1" x="308.56" y="148.17" width="5.72" height="5.72" />
     <rect class="cls-1" x="321.43" y="148.17" width="5.72" height="5.72" />
     <rect class="cls-1" x="321.43" y="158.65" width="5.72" height="5.72" />
     <rect class="cls-1" x="200.79" y="177.68" width="9.28" height="18.74" />
     <rect class="cls-1" x="257.2" y="196.44" width="7.58" height="15.32" />
     <rect class="cls-1" x="266.72" y="179.75" width="4.73" height="4.79" />
    </g>
    <g id="luz">
     <rect class="cls-1" x="246.67" y="127.21" width="5.72" height="5.72" />
     <rect class="cls-1" x="233.8" y="137.75" width="5.72" height="5.72" />
     <rect class="cls-1" x="246.67" y="137.75" width="5.72" height="5.72" />
     <rect class="cls-1" x="246.67" y="148.24" width="5.72" height="5.72" />
     <rect class="cls-1" x="284.2" y="137.75" width="5.72" height="5.72" />
     <rect class="cls-1" x="284.2" y="148.24" width="5.72" height="5.72" />
     <rect class="cls-1" x="226.99" y="184.37" width="9.45" height="4.79" />
     <rect class="cls-1" x="236.01" y="196.5" width="7.58" height="15.32" />
     <rect class="cls-1" x="229.34" y="179.82" width="4.73" height="4.79" />
     <rect class="cls-1" x="330.02" y="184.36" width="9.45" height="4.79" />
     <rect class="cls-1" x="322.87" y="196.51" width="7.58" height="15.32" />
     <rect class="cls-1" x="332.39" y="179.82" width="4.73" height="4.79" />
     <rect class="cls-1" x="473.5" y="182.03" width="9.65" height="9.65" />
     <rect class="cls-1" x="473.5" y="210.15" width="9.65" height="23.56" />
     <rect class="cls-1" x="461.84" y="200.82" width="7.01" height="23.44" />
     <rect class="cls-1" x="496.86" y="200.82" width="7.01" height="23.44" />
     <rect class="cls-1" x="473.5" y="200.82" width="9.65" height="4.64" />
     <rect class="cls-1" x="142.25" y="205.77" width="9.28" height="9.28" />
     <rect class="cls-1" x="123.42" y="215.21" width="9.28" height="18.74" />
     <rect class="cls-1" x="209.1" y="127.14" width="5.72" height="5.72" />
     <rect class="cls-1" x="209.1" y="137.68" width="5.72" height="5.72" />
     <rect class="cls-1" x="196.23" y="158.65" width="5.72" height="5.72" />
     <rect class="cls-1" x="321.43" y="137.68" width="5.72" height="5.72" />
    </g>
    
    <g id="arvore">
     <polygon
      class="cls-1"
      points="220.42 205.37 222.25 203.52 222.25 212.64 220.42 212.64 220.42 205.37"
     />
     <polygon
      class="cls-1"
      points="181.49 227.89 181.49 230.54 183 230.54 183 227.82 181.49 227.89"
     />
     <polyline
      class="cls-1"
      points="180.65 206.19 178.86 207.11 177.94 207.8 177.62 207.55 179.64 205.04 178.86 204.81 176.79 207.55 175.83 207.8 173.31 207.55 174.54 206.14 176.1 204.81 176.7 203.71 179.78 203.45 181.71 201.83 181.11 201.28 179.46 202.93 176.56 203.07 178.35 201.56 179.96 200.36 179.36 199.76 178.24 200.89 176.56 201.69 175.42 203.9 173.9 205.73 173.53 202.56 175.32 197.47 174.54 197.47 173.26 201.69 172.87 197.77 173.4 196.23 172.48 195.95 172.09 197.65 172.57 202.93 172.39 203.67 171.42 202.06 170.83 199.12 170.28 199.12 170.28 202.24 171.75 204.58 171.88 206.92 170.05 206.19 168.21 203.45 168.21 199.26 167.57 199.58 167.57 202.93 164.35 200.77 164.03 201.46 167.48 203.45 168.3 205.13 165.82 205.69 164.03 204.72 164.03 205.64 165.93 206.4 168.62 205.78 169.72 206.69 171.51 207.84 171.84 208.85 171.42 219.18 173.26 219.18 172.71 211.93 172.89 208.62 175.66 208.36 177.68 208.67 178.72 208.33 179.91 208.9 179.91 208.9 180.24 208.48 180.24 208.48 179.18 207.8 180.6 206.92"
     />
     <polyline
      class="cls-1"
      points="290.81 199.21 289.02 200.13 288.1 200.82 287.78 200.57 289.8 198.06 289.02 197.83 286.95 200.57 285.99 200.82 283.46 200.57 284.7 199.16 286.26 197.83 286.86 196.73 289.94 196.47 291.86 194.85 291.27 194.3 289.61 195.95 286.72 196.09 288.51 194.57 290.12 193.38 289.52 192.79 288.4 193.91 286.72 194.71 285.57 196.92 284.06 198.75 283.69 195.59 285.48 190.49 284.7 190.49 283.42 194.71 283.03 190.79 283.56 189.25 282.64 188.97 282.25 190.67 282.73 195.95 282.55 196.69 281.58 195.08 280.99 192.14 280.43 192.14 280.43 195.26 281.9 197.6 282.04 199.94 280.2 199.21 278.37 196.47 278.37 192.28 277.73 192.6 277.73 195.95 274.51 193.79 274.19 194.48 277.63 196.47 278.46 198.16 275.98 198.71 274.19 197.74 274.19 198.66 276.09 199.42 278.78 198.8 279.88 199.72 281.67 200.86 282 201.87 281.58 212.2 283.42 212.2 282.87 204.95 283.05 201.64 285.81 201.38 287.84 201.69 288.88 201.35 290.07 201.92 290.07 201.92 290.39 201.51 290.39 201.51 289.34 200.82 290.76 199.94"
     />
     <polyline
      class="cls-1"
      points="16.94 169.08 19.22 170.24 20.38 171.12 20.79 170.81 18.23 167.62 19.22 167.33 21.84 170.81 23.06 171.12 26.27 170.81 24.69 169.02 22.71 167.33 21.95 165.93 18.05 165.6 15.6 163.54 16.36 162.85 18.46 164.94 22.13 165.12 19.86 163.19 17.82 161.68 18.57 160.92 20 162.35 22.13 163.37 23.59 166.17 25.51 168.5 25.97 164.48 23.7 158.01 24.69 158.01 26.32 163.37 26.82 158.4 26.15 156.44 27.31 156.09 27.81 158.24 27.2 164.94 27.43 165.88 28.65 163.84 29.41 160.11 30.11 160.11 30.11 164.07 28.25 167.04 28.07 170.01 30.4 169.08 32.73 165.6 32.73 160.28 33.55 160.69 33.55 164.94 37.63 162.2 38.03 163.08 33.66 165.6 32.62 167.74 35.76 168.44 38.03 167.22 38.03 168.38 35.63 169.35 32.21 168.56 30.81 169.72 28.54 171.18 28.13 172.46 28.65 185.57 26.32 185.57 27.02 176.36 26.79 172.17 23.28 171.84 20.71 172.22 19.39 171.8 17.88 172.52 17.88 172.52 17.47 171.99 17.47 171.99 18.81 171.12 17 170.01"
     />
     <polygon
      class="cls-1"
      points="69.91 227.81 69.91 218.33 66.6 215.73 67.08 215.09 70.12 217.27 69.95 214.4 64.69 212.6 65.03 211.74 68.04 212.8 66.23 211.37 66.81 210.96 69.47 213.31 70.56 213.48 69.57 209.18 65.24 206.25 65.65 205.19 68.89 207.82 67.63 205.39 68.48 205.19 70.05 208.57 69.37 204.2 70.02 204.2 71.14 211.98 71.86 210.68 71.62 205.26 72.75 205.12 72.58 210.38 75.92 207.27 76.36 208.33 74.39 209.83 76.36 210.07 76.19 210.65 74.11 210.27 73.29 210.68 75.17 211.3 74.83 211.98 72.54 211.47 71.42 213.98 71.42 216 72.58 214.95 74.45 213.07 75.07 213.89 71.11 217.61 71.42 227.81 69.91 227.81"
     />
     <polyline
      class="cls-1"
      points="45.73 170.12 48.63 166.46 48.63 165.29 44.75 168.98 44.55 173.83 43.77 172.42 42.47 165.44 41.25 165.29 42.99 172.08 39.35 168.71 38.87 169.86 41.02 171.49 38.87 171.75 39.06 172.38 41.32 171.97 42.21 172.42 37.38 173.9 37.75 174.64 43.03 173.27 44.24 176 44.25 178.2 42.99 177.06 40.95 175.01 40.28 175.91 44.59 179.95 44.25 191.03 45.88 191.03 45.88 180.73 49.48 177.91 48.96 177.2 45.66 179.58 45.85 176.46"
     />
     <polygon
      class="cls-1"
      points="346.24 210.22 346.24 212.88 347.75 212.88 347.75 210.15 346.24 210.22"
     />
     <polygon
      class="cls-1"
      points="220.42 205.29 222.25 203.44 222.25 212.56 220.42 212.56 220.42 205.29"
     />
     <polygon
      class="cls-1"
      points="181.49 227.81 181.49 230.46 183 230.46 183 227.74 181.49 227.81"
     />
     <polyline
      class="cls-1"
      points="180.65 206.11 178.86 207.03 177.94 207.72 177.62 207.47 179.64 204.97 178.86 204.74 176.79 207.47 175.83 207.72 173.31 207.47 174.54 206.07 176.1 204.74 176.7 203.63 179.78 203.37 181.71 201.75 181.11 201.2 179.46 202.85 176.56 202.99 178.35 201.48 179.96 200.28 179.36 199.69 178.24 200.81 176.56 201.62 175.42 203.82 173.9 205.65 173.53 202.49 175.32 197.39 174.54 197.39 173.26 201.62 172.87 197.7 173.4 196.15 172.48 195.88 172.09 197.58 172.57 202.85 172.39 203.59 171.42 201.98 170.83 199.04 170.28 199.04 170.28 202.17 171.75 204.51 171.88 206.84 170.05 206.11 168.21 203.37 168.21 199.18 167.57 199.5 167.57 202.85 164.35 200.7 164.03 201.39 167.48 203.37 168.3 205.06 165.82 205.61 164.03 204.64 164.03 205.56 165.93 206.33 168.62 205.7 169.72 206.62 171.51 207.76 171.84 208.78 171.42 219.1 173.26 219.1 172.71 211.85 172.89 208.55 175.66 208.29 177.68 208.59 178.72 208.25 179.91 208.82 179.91 208.82 180.24 208.41 180.24 208.41 179.18 207.72 180.6 206.84"
     />
     <polyline
      class="cls-1"
      points="290.81 199.13 289.02 200.05 288.1 200.74 287.78 200.5 289.8 197.99 289.02 197.76 286.95 200.5 285.99 200.74 283.46 200.5 284.7 199.09 286.26 197.76 286.86 196.66 289.94 196.39 291.86 194.77 291.27 194.22 289.61 195.88 286.72 196.01 288.51 194.5 290.12 193.3 289.52 192.71 288.4 193.83 286.72 194.63 285.57 196.84 284.06 198.67 283.69 195.51 285.48 190.41 284.7 190.41 283.42 194.63 283.03 190.72 283.56 189.17 282.64 188.9 282.25 190.6 282.73 195.88 282.55 196.61 281.58 195 280.99 192.07 280.43 192.07 280.43 195.19 281.9 197.53 282.04 199.86 280.2 199.13 278.37 196.39 278.37 192.2 277.73 192.52 277.73 195.88 274.51 193.72 274.19 194.41 277.63 196.39 278.46 198.08 275.98 198.63 274.19 197.66 274.19 198.58 276.09 199.35 278.78 198.72 279.88 199.64 281.67 200.79 282 201.8 281.58 212.12 283.42 212.12 282.87 204.87 283.05 201.57 285.81 201.31 287.84 201.61 288.88 201.28 290.07 201.84 290.07 201.84 290.39 201.43 290.39 201.43 289.34 200.74 290.76 199.86"
     />
     <polyline
      class="cls-1"
      points="17 169.93 18.81 171.04 17.47 171.91 17.47 171.91 17.88 172.44 17.88 172.44 19.39 171.72 20.71 172.15 23.28 171.76 26.79 172.09 27.02 176.28 26.32 185.49 28.65 185.49 28.13 172.38 28.54 171.1 30.81 169.64 32.21 168.48 35.63 169.27 38.03 168.3 38.03 167.14 35.76 168.36 32.62 167.66 33.66 165.52 38.03 163 37.63 162.13 33.55 164.87 33.55 160.61 32.73 160.2 32.73 165.52 30.4 169 28.07 169.93 28.25 166.96 30.11 163.99 30.11 160.03 29.41 160.03 28.65 163.76 27.43 165.8 27.2 164.87 27.81 158.16 27.31 156.01 26.15 156.36 26.82 158.32 26.32 163.29 24.69 157.93 23.7 157.93 25.97 164.4 25.51 168.42 23.59 166.09 22.13 163.29 20 162.27 18.57 160.85 17.82 161.6 19.86 163.12 22.13 165.04 18.46 164.87 16.36 162.77 15.6 163.47 18.05 165.52 21.95 165.86 22.71 167.25 24.69 168.94 26.27 170.73 23.06 171.04 21.84 170.73 19.22 167.25 18.23 167.54 20.79 170.73 20.38 171.04 19.22 170.17 16.94 169"
     />
     <polygon
      class="cls-1"
      points="69.91 227.73 69.91 218.25 66.6 215.66 67.08 215.01 70.12 217.19 69.95 214.33 64.69 212.52 65.03 211.66 68.04 212.72 66.23 211.29 66.81 210.88 69.47 213.23 70.56 213.41 69.57 209.1 65.24 206.17 65.65 205.11 68.89 207.74 67.63 205.32 68.48 205.11 70.05 208.49 69.37 204.12 70.02 204.12 71.14 211.9 71.86 210.61 71.62 205.18 72.75 205.04 72.58 210.3 75.92 207.19 76.36 208.25 74.39 209.75 76.36 209.99 76.19 210.57 74.11 210.2 73.29 210.61 75.17 211.22 74.83 211.9 72.54 211.39 71.42 213.91 71.42 215.92 72.58 214.87 74.45 213 75.07 213.82 71.11 217.54 71.42 227.73 69.91 227.73"
     />
     <polyline
      class="cls-1"
      points="45.73 170.04 48.63 166.38 48.63 165.21 44.75 168.9 44.55 173.75 43.77 172.34 42.47 165.36 41.25 165.21 42.99 172 39.35 168.63 38.87 169.78 41.02 171.41 38.87 171.67 39.06 172.3 41.32 171.89 42.21 172.34 37.38 173.82 37.75 174.56 43.03 173.19 44.24 175.93 44.25 178.12 42.99 176.98 40.95 174.94 40.28 175.83 44.59 179.87 44.25 190.95 45.88 190.95 45.88 180.65 49.48 177.83 48.96 177.13 45.66 179.5 45.85 176.38"
     />
     <polygon
      class="cls-1"
      points="346.24 210.15 346.24 212.8 347.75 212.8 347.75 210.07 346.24 210.15"
     />
    </g>
    <g id="nfrente">
     <polygon
      class="cls-1"
      points="45.72 246.8 49.13 248.69 57.5 250.36 58.32 258.75 53.34 261.27 48.33 262.09 47.46 256.23 43.32 252.86 40.81 257.07 40.76 259.58 28.24 259.58 27.37 255.42 23.19 252.88 25.66 248.72 27.35 247.02 39.12 246.36 45.72 246.8"
     />
     <polygon
      class="cls-1"
      points="104.08 246.79 107.49 248.68 115.86 250.35 116.68 258.74 111.7 261.26 106.69 262.08 105.82 256.22 101.68 252.85 99.17 257.06 99.12 259.57 86.6 259.57 85.73 255.41 81.55 252.88 84.02 248.71 85.71 247.01 97.48 246.35 104.08 246.79"
     />
     <polygon
      class="cls-1"
      points="322.84 246.68 326.25 248.57 334.62 250.24 335.44 258.64 330.46 261.15 325.45 261.97 324.58 256.11 320.44 252.74 317.93 256.95 317.88 259.46 305.36 259.46 304.49 255.3 300.31 252.77 302.78 248.6 304.47 246.91 316.24 246.25 322.84 246.68"
     />
     <polygon
      class="cls-1"
      points="415.89 247.6 419.3 249.5 427.68 251.17 428.5 259.56 423.52 262.07 418.51 262.9 417.63 257.04 413.5 253.67 410.99 257.88 410.93 260.39 398.42 260.39 397.55 256.23 393.37 253.69 395.84 249.53 397.53 247.83 409.29 247.17 415.89 247.6"
     />
     <polygon
      class="cls-1"
      points="491.96 239.54 489.47 240.92 483.35 242.14 482.74 248.28 486.39 250.12 490.05 250.72 490.69 246.44 493.71 243.97 495.55 247.05 495.59 248.88 504.74 248.89 505.38 245.84 508.44 243.99 506.63 240.94 505.39 239.7 496.79 239.22 491.96 239.54"
     />
     <polygon
      class="cls-1"
      points="208.11 239.78 205.62 241.17 199.49 242.39 198.89 248.53 202.53 250.37 206.2 250.97 206.84 246.68 209.86 244.22 211.7 247.29 211.74 249.13 220.89 249.13 221.53 246.09 224.59 244.24 222.78 241.19 221.54 239.95 212.94 239.47 208.11 239.78"
     />
     <polygon
      class="cls-1"
      points="142.96 240.27 140.46 241.65 134.34 242.87 133.74 249.01 137.38 250.85 141.04 251.45 141.68 247.17 144.7 244.7 146.54 247.78 146.58 249.62 155.73 249.62 156.37 246.57 159.43 244.72 157.62 241.67 156.38 240.43 147.78 239.95 142.96 240.27"
     />
    </g>
    <g id="njanela">
     <polygon
      class="cls-1"
      points="38.24 247.85 36.57 250.4 25.64 248.73 27.33 247.03 38.24 247.85"
     />
     <polygon
      class="cls-1"
      points="57.48 250.37 52.45 252.88 53.32 261.28 58.3 258.76 57.48 250.37"
     />
     <polygon
      class="cls-1"
      points="38.24 247.85 45.74 246.2 49.11 248.7 40.78 250.43 38.24 247.85"
     />
     <polygon
      class="cls-1"
      points="497.4 240.31 498.62 242.17 506.61 240.95 505.38 239.71 497.4 240.31"
     />
     <polygon
      class="cls-1"
      points="483.33 242.16 487.01 243.99 486.37 250.13 482.73 248.29 483.33 242.16"
     />
     <polygon
      class="cls-1"
      points="497.4 240.31 491.91 239.1 489.45 240.93 495.54 242.2 497.4 240.31"
     />
     <polygon
      class="cls-1"
      points="38.26 247.84 36.59 250.38 25.66 248.72 27.35 247.02 38.26 247.84"
     />
     <polygon
      class="cls-1"
      points="57.5 250.36 52.47 252.87 53.34 261.27 58.32 258.75 57.5 250.36"
     />
     <polygon
      class="cls-1"
      points="38.26 247.84 45.76 246.19 49.13 248.69 40.8 250.42 38.26 247.84"
     />
     <polygon
      class="cls-1"
      points="96.62 247.83 94.95 250.38 84.02 248.71 85.71 247.01 96.62 247.83"
     />
     <polygon
      class="cls-1"
      points="115.86 250.35 110.83 252.87 111.7 261.26 116.68 258.74 115.86 250.35"
     />
     <polygon
      class="cls-1"
      points="96.62 247.83 104.13 246.18 107.49 248.68 99.16 250.41 96.62 247.83"
     />
     <polygon
      class="cls-1"
      points="315.38 247.72 313.71 250.27 302.78 248.6 304.47 246.91 315.38 247.72"
     />
     <polygon
      class="cls-1"
      points="334.62 250.24 329.59 252.76 330.46 261.15 335.44 258.64 334.62 250.24"
     />
     <polygon
      class="cls-1"
      points="315.38 247.72 322.88 246.07 326.25 248.57 317.92 250.3 315.38 247.72"
     />
     <polygon
      class="cls-1"
      points="408.44 248.65 406.77 251.19 395.84 249.53 397.53 247.83 408.44 248.65"
     />
     <polygon
      class="cls-1"
      points="427.68 251.17 422.64 253.68 423.52 262.07 428.5 259.56 427.68 251.17"
     />
     <polygon
      class="cls-1"
      points="408.44 248.65 415.94 247 419.3 249.5 410.98 251.23 408.44 248.65"
     />
     <polygon
      class="cls-1"
      points="497.42 240.3 498.64 242.16 506.63 240.94 505.39 239.7 497.42 240.3"
     />
     <polygon
      class="cls-1"
      points="483.35 242.14 487.03 243.98 486.39 250.12 482.74 248.28 483.35 242.14"
     />
     <polygon
      class="cls-1"
      points="497.42 240.3 491.93 239.09 489.47 240.92 495.56 242.18 497.42 240.3"
     />
     <polygon
      class="cls-1"
      points="213.56 240.55 214.78 242.41 222.78 241.19 221.54 239.95 213.56 240.55"
     />
     <polygon
      class="cls-1"
      points="199.49 242.39 203.17 244.23 202.53 250.37 198.89 248.53 199.49 242.39"
     />
     <polygon
      class="cls-1"
      points="213.56 240.55 208.07 239.34 205.62 241.17 211.71 242.43 213.56 240.55"
     />
     <polygon
      class="cls-1"
      points="148.41 241.03 149.63 242.89 157.62 241.67 156.38 240.43 148.41 241.03"
     />
     <polygon
      class="cls-1"
      points="134.34 242.87 138.02 244.71 137.38 250.85 133.74 249.01 134.34 242.87"
     />
     <polygon
      class="cls-1"
      points="148.41 241.03 142.92 239.82 140.46 241.65 146.55 242.91 148.41 241.03"
     />
    </g>
    <g id="nlado">
     <polygon
      class="cls-1"
      points="43.3 252.87 47.44 256.24 48.31 262.1 40.74 259.59 40.79 257.08 43.3 252.87"
     />
     <polygon
      class="cls-1"
      points="37.37 245.34 27.33 247.03 38.24 247.85 45.74 246.2 37.37 245.34"
     />
     <polygon
      class="cls-1"
      points="23.17 252.9 27.35 255.43 28.23 259.59 24.86 260.45 23.19 257.91 23.17 252.9"
     />
     <polygon
      class="cls-1"
      points="493.69 243.98 490.67 246.45 490.03 250.73 495.57 248.9 495.54 247.06 493.69 243.98"
     />
     <polygon
      class="cls-1"
      points="498.03 238.48 505.38 239.71 497.4 240.31 491.91 239.1 498.03 238.48"
     />
     <polygon
      class="cls-1"
      points="508.42 244 505.36 245.85 504.72 248.9 507.18 249.53 508.4 247.66 508.42 244"
     />
     <polygon
      class="cls-1"
      points="43.32 252.86 47.46 256.23 48.33 262.09 40.76 259.58 40.81 257.07 43.32 252.86"
     />
     <polygon
      class="cls-1"
      points="37.39 245.33 27.35 247.02 38.26 247.84 45.76 246.19 37.39 245.33"
     />
     <polygon
      class="cls-1"
      points="23.19 252.88 27.37 255.42 28.24 259.58 24.88 260.44 23.21 257.89 23.19 252.88"
     />
     <polygon
      class="cls-1"
      points="101.68 252.85 105.82 256.22 106.69 262.08 99.12 259.57 99.17 257.06 101.68 252.85"
     />
     <polygon
      class="cls-1"
      points="95.75 245.32 85.71 247.01 96.62 247.83 104.13 246.18 95.75 245.32"
     />
     <polygon
      class="cls-1"
      points="81.55 252.88 85.73 255.41 86.6 259.57 83.24 260.43 81.57 257.89 81.55 252.88"
     />
     <polygon
      class="cls-1"
      points="320.44 252.74 324.58 256.11 325.45 261.97 317.88 259.46 317.93 256.95 320.44 252.74"
     />
     <polygon
      class="cls-1"
      points="314.51 245.22 304.47 246.91 315.38 247.72 322.88 246.07 314.51 245.22"
     />
     <polygon
      class="cls-1"
      points="300.31 252.77 304.49 255.3 305.36 259.46 302 260.33 300.33 257.78 300.31 252.77"
     />
     <polygon
      class="cls-1"
      points="413.5 253.67 417.63 257.04 418.51 262.9 410.93 260.39 410.99 257.88 413.5 253.67"
     />
     <polygon
      class="cls-1"
      points="407.57 246.14 397.53 247.83 408.44 248.65 415.94 247 407.57 246.14"
     />
     <polygon
      class="cls-1"
      points="393.37 253.69 397.55 256.23 398.42 260.39 395.06 261.25 393.39 258.7 393.37 253.69"
     />
     <polygon
      class="cls-1"
      points="493.71 243.97 490.69 246.44 490.05 250.72 495.59 248.88 495.55 247.05 493.71 243.97"
     />
     <polygon
      class="cls-1"
      points="498.05 238.47 505.39 239.7 497.42 240.3 491.93 239.09 498.05 238.47"
     />
     <polygon
      class="cls-1"
      points="508.44 243.99 505.38 245.84 504.74 248.89 507.2 249.52 508.42 247.65 508.44 243.99"
     />
     <polygon
      class="cls-1"
      points="209.86 244.22 206.84 246.68 206.2 250.97 211.74 249.13 211.7 247.29 209.86 244.22"
     />
     <polygon
      class="cls-1"
      points="214.2 238.71 221.54 239.95 213.56 240.55 208.07 239.34 214.2 238.71"
     />
     <polygon
      class="cls-1"
      points="224.59 244.24 221.53 246.09 220.89 249.13 223.35 249.76 224.57 247.9 224.59 244.24"
     />
     <polygon
      class="cls-1"
      points="144.7 244.7 141.68 247.17 141.04 251.45 146.58 249.62 146.54 247.78 144.7 244.7"
     />
     <polygon
      class="cls-1"
      points="149.04 239.2 156.38 240.43 148.41 241.03 142.92 239.82 149.04 239.2"
     />
     <polygon
      class="cls-1"
      points="159.43 244.72 156.37 246.57 155.73 249.62 158.19 250.25 159.41 248.38 159.43 244.72"
     />
    </g>
    <g id="plantasPO">
     <polygon
      class="cls-1"
      points="18.11 164.04 18.4 158.51 27.43 155.51 36.4 158.51 36.53 164.03 36.69 173.03 30.51 176.89 24.23 176.94 18.11 172.81 18.11 164.04"
     />
     <polygon
      class="cls-1"
      points="35.98 168.01 42.78 164.26 48.17 164.29 54.81 168 54.97 174.68 48.66 181.15 42.23 181.2 35.98 174.45 35.98 168.01"
     />
     <polygon
      class="cls-1"
      points="64.69 205.77 69.14 200.15 71.95 200.18 76.64 205.67 76.64 217.1 71.14 221.51 69.91 221.51 64.69 217.01 64.69 205.77"
     />
    </g>
    <g id="troncosPO">
     <polyline
      class="cls-1"
      points="31.14 169.12 33.21 165.43 32.78 162.52 33.56 162.52 33.6 164.39 37.63 162.2 38.03 163.08 34.06 165.37 32.78 167.47 35.97 168.18 38.03 167.19 38.03 168.38 35.93 169.33 32.79 168.28 31.16 169.93"
     />
     <polyline
      class="cls-1"
      points="25.74 164.55 24.1 157.99 24.95 157.99 26.59 163.72 27.39 160.41 27.37 157.13 28.22 157.14 28.22 160.42 27.39 165.37"
     />
     <polyline
      class="cls-1"
      points="23.07 168.45 20.97 166.72 20.54 165.1 18.62 166.06 15.6 163.43 16.43 162.57 18.89 165.1 19.73 164.25 19.44 163.21 17.8 161.56 18.63 160.7 20.28 162.37 20.87 163.8 21.77 165.52"
     />
     <polyline
      class="cls-1"
      points="47 174.2 53.49 170.03 52.62 169.13 48.04 172.79 48.67 171.26 51.75 168.21 51.75 167.29 49.07 170.03 47.6 171.38"
     />
     <polyline
      class="cls-1"
      points="49.87 177.86 48.12 178.71 45.01 181 45.87 181.2 50.71 178.06"
     />
     <polyline
      class="cls-1"
      points="45.39 170.97 44.59 166.88 43.73 166.88 44.61 171.02 41.29 166.07 40.47 166.88 42.94 170.16 39.21 170.97 39.65 171.82 42.12 170.97 43.74 171.79 38.01 172.63 38.78 173.45 44.24 172.36"
     />
     <polyline
      class="cls-1"
      points="45.65 181.54 47.76 176.69 46.62 176.36 44.54 181.21"
     />
     <polygon
      class="cls-1"
      points="16.94 169.08 17 170.01 18.59 170.91 17.47 171.99 17.88 172.52 19.64 170.91 23.59 172.73 23.85 172 16.94 169.08"
     />
     <polygon
      class="cls-1"
      points="69.91 227.81 69.91 218.33 66.6 215.73 67.08 215.09 70.12 217.27 69.95 214.4 64.69 212.6 65.03 211.74 68.04 212.8 66.23 211.37 66.81 210.96 69.47 213.31 70.56 213.48 69.57 209.18 65.24 206.25 65.65 205.19 68.89 207.82 67.63 205.39 68.48 205.19 70.05 208.57 69.37 204.2 70.02 204.2 71.14 211.98 71.86 210.68 71.62 205.26 72.75 205.12 72.58 210.38 75.92 207.27 76.36 208.33 74.39 209.83 76.36 210.07 76.19 210.65 74.11 210.27 73.29 210.68 75.17 211.3 74.83 211.98 72.54 211.47 71.42 213.98 71.42 216 72.58 214.95 74.45 213.07 75.07 213.89 71.11 217.61 71.42 227.81 69.91 227.81"
     />
    </g>
    <g id="plantasV">
     <polygon
      class="cls-1"
      points="15.6 160.18 27.39 155.46 38.6 160.18 38.76 174.32 30.55 178.63 24.13 178.68 15.6 174.09 15.6 160.18"
     />
     <polygon
      class="cls-1"
      points="35.98 167.3 42.96 163.68 48.13 163.71 54.79 167 54.95 175.65 47.86 182.16 42.43 182.2 35.98 175.72 35.98 167.3"
     />
     <polygon
      class="cls-1"
      points="64.05 205.77 69.14 200.15 71.95 200.18 76.64 205.67 76.64 217.1 71.14 221.51 69.91 221.51 64.05 217.01 64.05 205.77"
     />
     <polygon
      class="cls-1"
      points="279.91 185.44 283.94 185.44 290.54 187.76 291.86 194.49 290.51 201.24 283.06 205.59 281.55 205.6 274.13 201.16 272.64 194.43 274.14 187.64 279.91 185.44"
     />
     <polygon
      class="cls-1"
      points="169.94 194.89 173.81 194.89 180.14 199.6 181.41 203.58 180.12 207.61 172.75 212.42 171.69 212.43 164.4 207.53 162.97 203.52 164.41 199.49 169.94 194.89"
     />
    </g>
	<g id="plantas">
     <polygon
      class="cls-1"
      points="218.24 205.61 218.24 205.61 223.37 205.62 225.34 205.61 229.37 201.6 229.37 193.81 225.39 189.56 221.34 185.6 217.37 189.56 213.31 193.81 213.31 201.65 218.24 205.61 218.24 205.61"
     />
     <polygon
      class="cls-1"
      points="181.88 200.59 179.85 203.2 177.81 210.01 177.15 216.63 177.8 223.53 181.49 227.95 183 227.95 186.62 223.53 187.35 216.67 186.64 210.05 183.88 203.2 181.88 200.59"
     />
     <polyline
      class="cls-1"
      points="344.6 190.06 342.55 192.34 341.89 198.97 342.54 205.86 346.24 210.29 347.75 210.29 351.36 205.86 352.09 199.01 351.39 192.38 348.63 190.06"
     />
     <polygon
      class="cls-1"
      points="218.24 205.54 218.24 205.54 223.37 205.54 225.34 205.54 229.37 201.53 229.37 193.74 225.39 189.48 221.34 185.53 217.37 189.48 213.31 193.73 213.31 201.57 218.24 205.54 218.24 205.54"
     />
     <polygon
      class="cls-1"
      points="181.88 200.51 179.85 203.13 177.81 209.93 177.15 216.56 177.8 223.45 181.49 227.87 183 227.87 186.62 223.45 187.35 216.6 186.64 209.97 183.88 203.13 181.88 200.51"
     />
     <polyline
      class="cls-1"
      points="344.6 189.98 342.55 192.27 341.89 198.89 342.54 205.78 346.24 210.21 347.75 210.21 351.36 205.79 352.09 198.93 351.39 192.31 348.63 189.98"
     />
    </g>
		</g>
</svg>