<svg class="img_svg"
	xmlns="http://www.w3.org/2000/svg"
	xmlns:xlink="http://www.w3.org/1999/xlink" viewBox="0 0 554.47 265.86">
	
		<g id="intro25">
		
 <rect id="chao" y="184.32" width="554.47" height="81.57" />
    <g id="lado">
     <polygon
      points="343.47 238.17 364.39 217.46 364.28 154.32 343.47 175.09 343.47 238.17"
     />
    </g>
    <g id="cima">
     <polygon
      points="301.85 133.22 343.47 175.09 364.28 154.32 322.59 112.13 301.85 133.22"
     />
    </g>
    <g id="painel2">
     <polygon
      points="336.36 164.73 354.12 147.02 329.72 122.5 312.02 140.2 336.36 164.73"
     />
    </g>
    <g id="painel">
     <polygon
      points="328.62 155.4 331.39 152.64 324.08 145.3 321.32 148.06 328.62 155.4"
     />
     <polygon
      points="336.46 163.24 339.23 160.49 331.92 153.14 329.17 155.9 336.46 163.24"
     />
     <polygon
      points="320.78 147.56 323.55 144.81 316.24 137.46 313.49 140.22 320.78 147.56"
     />
     <polygon
      points="331.98 152.04 334.75 149.28 327.44 141.94 324.69 144.69 331.98 152.04"
     />
     <polygon
      points="339.82 159.88 342.6 157.12 335.29 149.78 332.53 152.53 339.82 159.88"
     />
     <polygon
      points="324.15 144.2 326.92 141.44 319.61 134.1 316.85 136.85 324.15 144.2"
     />
     <polygon
      points="335.34 148.68 338.11 145.92 330.8 138.58 328.05 141.33 335.34 148.68"
     />
     <polygon
      points="343.18 156.52 345.95 153.76 338.64 146.42 335.89 149.17 343.18 156.52"
     />
     <polygon
      points="327.5 140.84 330.28 138.08 322.97 130.74 320.21 133.5 327.5 140.84"
     />
     <polygon
      points="338.71 145.31 341.48 142.56 334.17 135.21 331.41 137.97 338.71 145.31"
     />
     <polygon
      points="346.55 153.15 349.32 150.4 342.01 143.05 339.25 145.81 346.55 153.15"
     />
     <polygon
      points="330.87 137.48 333.64 134.72 326.33 127.37 323.58 130.13 330.87 137.48"
     />
     <polygon
      points="342.09 141.93 344.86 139.18 337.55 131.83 334.79 134.59 342.09 141.93"
     />
     <polygon
      points="349.93 149.77 352.7 147.02 345.39 139.67 342.63 142.43 349.93 149.77"
     />
     <polygon
      points="334.25 134.1 337.02 131.34 329.71 124 326.96 126.75 334.25 134.1"
     />
    </g>
    <g id="frente">
     <polyline
      points="343.44 238.17 343.44 175.09 301.82 133.22 260.27 175.09 260.74 238"
     />
    </g>
    <g id="parede">
     <polygon
      points="336.96 232.06 336.96 176.97 302.05 141.67 266.67 176.98 267.02 232.02 267.02 232.02 336.96 232.06"
     />
    </g>
    <g id="piso">
     <polygon
      points="291.29 208.81 336.96 208.81 336.96 232.06 266.7 232.02 291.29 208.81"
     />
    </g>
    <g id="dentro">
     <polygon
      points="266.7 232.02 291.29 208.81 291.29 152.4 266.7 177 266.7 232.02 266.7 232.02"
     />
    </g>
    <rect id="janela" x="295.96" y="175.09" width="33.17" height="9.23" />
    <polygon
     id="plantasPO"
     points="106.31 204.3 84.14 182.13 84.14 146.59 107.88 122.84 131.66 146.62 131.66 183.31 110.05 204.3 106.31 204.3"
    />
    <g id="arvore">
     <polygon
      points="435.06 228.53 435.06 238.17 439.51 238.17 439.51 228.27 435.06 228.53"
     />
     <polyline
      points="432.57 154.66 427.3 157.99 424.59 160.49 423.65 159.6 429.6 150.48 427.3 149.65 421.21 159.6 418.37 160.49 410.93 159.6 414.58 154.49 419.18 149.65 420.94 145.65 430 144.68 435.68 138.81 433.92 136.8 429.06 142.81 420.54 143.31 425.81 137.81 430.54 133.47 428.78 131.3 425.47 135.39 420.54 138.31 417.15 146.31 412.69 152.99 411.61 141.47 416.88 122.96 414.58 122.96 410.8 138.31 409.65 124.06 411.2 118.45 408.5 117.45 407.35 123.62 408.77 142.81 408.23 145.48 405.39 139.64 403.63 128.96 402.01 128.96 402.01 140.31 406.34 148.82 406.74 157.31 401.33 154.66 395.92 144.68 395.92 129.46 394.03 130.63 394.03 142.81 384.56 134.97 383.62 137.47 393.76 144.68 396.19 150.82 388.89 152.82 383.62 149.32 383.62 152.65 389.2 155.43 397.14 153.15 400.39 156.49 405.66 160.66 406.61 164.33 405.39 201.87 410.8 201.87 409.18 175.51 409.72 163.5 417.86 162.56 423.83 163.66 426.89 162.44 430.41 164.5 430.41 164.5 431.35 163 431.35 163 428.24 160.49 432.44 157.31"
     />
     <polygon
      points="106.31 233.22 106.31 198.78 96.56 189.35 97.97 186.99 106.92 194.93 106.41 184.51 90.92 177.93 91.93 174.83 100.78 178.68 95.45 173.47 97.16 171.98 105.01 180.54 108.22 181.16 105.31 165.53 92.53 154.86 93.74 151.01 103.3 160.56 99.57 151.75 102.09 151.01 106.72 163.29 104.7 147.41 106.61 147.41 109.93 175.7 112.05 170.99 111.34 151.26 114.66 150.76 114.16 169.87 124.01 158.58 125.32 162.42 119.49 167.88 125.32 168.75 124.82 170.86 118.68 169.5 116.27 170.99 121.8 173.22 120.8 175.7 114.06 173.84 110.76 182.98 110.74 190.31 114.16 186.5 119.69 179.67 121.5 182.65 109.83 196.17 110.74 233.22 106.31 233.22"
     />
    </g>
    <g id="plantasV">
     <polygon
      points="83.64 144.18 102.95 122.82 113.63 122.94 131.43 143.78 131.43 187.19 110.55 203.93 105.9 203.97 83.64 186.88 83.64 144.18"
     />
     <polygon
      points="399.76 106.86 414.45 106.86 437.32 129.42 442.14 144.56 437.22 159.83 419.02 178.37 393.86 178.37 377.52 159.54 372.07 144.33 377.55 129 399.76 106.86"
     />
    </g>
    <g id="plantas">
     <polygon
      points="436.35 153.61 430.81 160.77 425.2 179.41 423.4 197.57 425.17 216.44 435.06 228.83 439.51 228.57 449.34 216.45 451.34 197.67 449.41 179.52 441.85 160.78 436.35 153.61"
     />
    </g>
    <g id="linha">
     <polyline
      points="314.89 154.83 314.89 224.34 319.55 224.34 319.55 165.95 324.47 165.95 324.47 224.34 329.15 224.34 329.15 177.79 334.46 177.79 334.46 209.63 336.96 209.63"
     />
    </g>
		</g>
</svg>