<svg class="img_svg"
	xmlns="http://www.w3.org/2000/svg" viewBox="0 0 554.47 265.86">

		<g id="intro12">
		
		<rect id="chao" y="184.29" width="554.47" height="81.57" />
    <polyline
     id="energia"
     points="325.14 211.64 357.31 211.64 357.25 214.87 345.99 214.87 345.99 218.17 358.96 218.17"
    />
    <g id="lado">
     <polygon
      points="299.58 251.64 322.65 229.43 322.65 158.21 297.33 182.33 299.58 251.64"
     />
     <rect x="176" y="149.99" width="3.43" height="49.56" />
     <g id="rotate1">
      <rect x="176.91" y="131.37" width="1.6" height="23.95" />
      <rect
       x="185.14"
       y="144.49"
       width="1.6"
       height="23.95"
       transform="translate(-56.18 177.31) rotate(-45)"
      />
      <rect
       x="157.92"
       y="155.66"
       width="23.95"
       height="1.6"
       transform="translate(-60.87 165.96) rotate(-45)"
      />
     </g>
     <rect x="111.51" y="135.04" width="6.28" height="67.69" />
     <g id="rotate2">
      <rect x="113.56" y="109.58" width="2.18" height="32.7" />
      <rect
       x="124.81"
       y="127.48"
       width="2.18"
       height="32.7"
       transform="translate(-64.83 131.15) rotate(-45)"
      />
      <rect
       x="87.62"
       y="142.74"
       width="32.7"
       height="2.18"
       transform="translate(-71.25 115.64) rotate(-45)"
      />
     </g>
     <polygon
      points="394.56 221.63 403.19 228.69 404.09 240.55 389.28 235.64 387.81 229.94 394.56 221.63"
     />
     <polygon
      points="382.69 207.77 363.06 211.07 384.4 212.67 399.07 209.44 382.69 207.77"
     />
     <polygon
      points="354.91 222.54 364.25 226.69 364.8 235.64 358.22 237.33 354.95 232.34 354.91 222.54"
     />
    </g>
    <g id="frente">
     <polygon
      id="border"
      points="299.58 251.64 299.43 180.33 255.37 134.99 209.14 180.33 208.98 251.64 299.58 251.64"
     />
     <polygon
      points="399.07 209.44 405.65 214.33 422.03 217.6 423.64 234.02 413.9 238.94 404.09 240.55 402.39 229.09 394.3 222.49 389.38 230.72 389.28 235.64 364.8 235.64 363.09 227.5 354.91 222.54 359.75 214.38 363.06 211.07 384.4 212.67 399.07 209.44"
     />
    </g>
    <g id="cima">
     <polygon
      points="255.37 134.99 299.43 180.33 322.65 158.21 277.45 112.7 255.37 134.99"
     />
    </g>
    <g id="arvore">
     <polygon
      points="292.04 167.28 309.71 149.66 285.44 125.26 267.82 142.87 292.04 167.28"
     />
     <rect x="319.66" y="201.79" width="5.48" height="18.94" />
     <polyline
      points="409.18 195.87 412.25 198.01 413.92 199.65 415.49 197.99 410.59 193.02 412.19 191.43 417.89 198.94 420.42 199.59 427.05 198 423.81 194.86 419.63 191.41 418.78 188.17 415.47 189.82 408.93 184.85 410.59 183.14 415.48 188.18 417.17 186.49 417.39 183.57 414.13 180.27 415.78 178.57 419.06 181.9 420.24 184.74 421.23 189.02 425.3 192.99 425.29 184.88 422.37 172.61 424.05 172.63 426.97 183.22 428.58 176.61 428.54 170.08 430.22 170.1 430.23 176.64 428.58 186.5 428.56 189.74 431.82 184.89 438.42 178.31 440.08 178.31 433.51 184.89 430.23 191.41 431.04 197.17 436.8 194.73 440.92 187.38 440.06 181.58 441.62 181.57 441.72 186.46 444.99 184.83 446.67 184.85 441.68 188.13 440.07 191.44 447.44 193.85 451.5 191.36 451.49 193.07 447.31 195.64 440.08 193.06 436.84 196.35 431.84 199.56 430.22 201.32 431.95 230.66 427.04 230.71 428.56 211.05 428.59 201.26 420.43 201.29 417.54 201.75 415.24 200.4 413.55 200.36 411.93 201.97 410.3 200.33 410.3 200.33 412.43 199.52 409.18 197.44"
     />
     <polyline
      points="480.98 173.38 489.2 166.78 487.51 165.15 479.34 171.77 478.97 183.97 477.71 179.9 476.1 171.74 474.4 171.74 476.14 179.99 469.53 170.13 467.9 171.74 472.82 178.29 465.38 179.9 466.26 181.6 471.18 179.9 474.41 181.53 462.99 183.21 464.54 184.84 475.42 182.67 478.25 189.06 477.73 194.55 475.33 191.51 469.54 186.45 469.51 188.21 477.72 196.27 477.74 224.14 482.65 224.17 482.63 191.39 490.82 184.93 489.22 183.26 482.66 188.15 482.67 186.45 487.62 181.57 487.62 179.86 482.66 184.92 480.95 175.1"
     />
     <polygon
      points="449.46 217.88 453.37 213.94 453.36 233.37 449.45 233.37 449.46 217.88"
     />
    </g>
    <g id="janela">
     <g id="casa_j">
      <rect x="265.42" y="182.33" width="24.44" height="24.44" />
      <rect x="216.45" y="210.97" width="37.78" height="40.67" />
     </g>
     <rect x="146.47" y="138.81" width="3.35" height="51.19" />
     <g id="rotate3">
      <rect x="147.77" y="121.4" width="1.51" height="22.67" />
     </g>
     <rect
      x="155.56"
      y="133.81"
      width="1.51"
      height="22.67"
      transform="translate(-56.85 153.04) rotate(-45)"
     />
     <rect
      x="129.78"
      y="144.39"
      width="22.67"
      height="1.51"
      transform="translate(-61.3 142.3) rotate(-45)"
     />
     <g id="carro_j">
      <polygon
       points="384.4 212.67 381.13 217.65 359.75 214.38 363.06 211.07 384.4 212.67"
      />
      <polygon
       points="422.03 217.6 412.19 222.52 413.9 238.94 423.64 234.02 422.03 217.6"
      />
      <polygon
       points="384.4 212.67 399.07 209.44 405.65 214.33 389.36 217.71 384.4 212.67"
      />
     </g>
    </g>
    <g id="painel">
     <polygon
      points="284.34 158 287.1 155.26 279.83 147.95 277.09 150.69 284.34 158"
     />
     <polygon
      points="292.14 165.8 294.9 163.06 287.63 155.75 284.89 158.49 292.14 165.8"
     />
     <polygon
      points="276.55 150.2 279.3 147.46 272.03 140.15 269.29 142.9 276.55 150.2"
     />
     <polygon
      points="287.69 154.66 290.45 151.91 283.18 144.6 280.43 147.35 287.69 154.66"
     />
     <polygon
      points="295.49 162.46 298.25 159.71 290.98 152.41 288.24 155.15 295.49 162.46"
     />
     <polygon
      points="279.89 146.86 282.65 144.11 275.38 136.81 272.64 139.55 279.89 146.86"
     />
     <polygon
      points="291.03 151.31 293.79 148.57 286.52 141.26 283.78 144 291.03 151.31"
     />
     <polygon
      points="298.83 159.11 301.59 156.37 294.32 149.06 291.58 151.8 298.83 159.11"
     />
     <polygon
      points="283.24 143.51 285.99 140.77 278.72 133.46 275.98 136.21 283.24 143.51"
     />
     <polygon
      points="294.38 147.97 297.14 145.22 289.87 137.91 287.12 140.66 294.38 147.97"
     />
     <polygon
      points="302.18 155.77 304.94 153.02 297.67 145.72 294.92 148.46 302.18 155.77"
     />
     <polygon
      points="286.58 140.17 289.34 137.42 282.07 130.12 279.33 132.86 286.58 140.17"
     />
     <polygon
      points="297.74 144.6 300.5 141.86 293.23 134.55 290.49 137.29 297.74 144.6"
     />
     <polygon
      points="305.54 152.4 308.3 149.66 301.03 142.35 298.29 145.09 305.54 152.4"
     />
     <polygon
      points="289.94 136.8 292.7 134.06 285.43 126.75 282.69 129.5 289.94 136.8"
     />
    </g>
    <g id="plantasPO">
     <polygon
      points="410 183.74 428.56 166.75 446.72 183.74 447.03 196.75 434.72 209.37 422.19 209.47 410 196.31 410 183.74"
     />
     <polygon
      points="464.05 172.32 475.39 166.07 484.36 166.12 495.43 172.31 495.7 183.43 485.18 194.22 474.46 194.31 464.05 183.06 464.05 172.32"
     />
    </g>
    <g id="troncosPO">
     <polyline
      points="435.97 193.88 440.1 186.52 439.24 180.72 440.8 180.72 440.9 185.61 444.17 183.97 445.85 184 440.86 187.28 439.25 190.59 446.63 193 450.69 190.51 450.67 192.22 446.5 194.79 439.26 192.21 436.02 195.5"
     />
     <polyline
      points="425.21 184.78 422.37 172.55 424.05 172.56 426.89 183.12 428.5 176.5 428.46 169.97 430.14 169.99 430.15 176.54 428.5 186.4"
     />
     <polyline
      points="423.73 194.76 419.55 191.31 418.7 188.07 415.39 189.72 408.85 184.75 410.5 183.04 415.4 188.08 417.09 186.39 416.55 182.39 414.05 180.19 415.71 178.49 418.22 180.72 418.27 182.72 421.15 188.92"
     />
     <polyline
      points="478.77 192.55 490.77 184.83 489.16 183.16 480.69 189.94 481.86 187.1 487.57 181.46 487.57 179.76 482.61 184.82 479.87 187.32"
     />
     <polyline
      points="477.66 179.79 476.04 171.63 474.34 171.63 476.08 179.89 469.47 170.02 467.84 171.63 472.76 178.19 465.32 179.8 466.2 181.5 471.12 179.79 474.35 181.43 462.93 183.11 464.48 184.74 475.36 182.57"
     />
     <polyline points="489.15 166.68 487.46 165.04 479.29 171.66" />
    </g>
    <g id="plantasV">
     <polygon
      points="408.89 184.61 429.91 165.37 450.46 184.6 450.82 199.33 436.88 213.62 422.69 213.73 408.89 198.83 408.89 184.61"
     />
     <polygon
      points="459.88 175.35 474.2 162.49 485.54 162.56 499.52 175.34 499.87 189.39 486.57 203.03 473.04 203.13 459.88 188.92 459.88 175.35"
     />
    </g>
    <g id="plantas">
     <polygon
      points="444.82 220.74 444.82 220.74 455.74 220.75 459.94 220.74 468.04 212.68 467.9 194.65 467.9 194.65 451.6 178.3 433.61 196.32 433.61 196.32 433.48 212.74 444.82 220.74 444.82 220.74"
     />
    </g>
		</g>
</svg>