
<svg class="img_svg"
	xmlns="http://www.w3.org/2000/svg" viewBox="0 0 554.81 265.86">

		<g id="intro11">
	
			<rect id="chao" class="cls-2" y="184.29" width="554.81" height="81.57"/>
			<path id="energia" class="cls-3" d="M14.3 160.1 108.37 160.1 108.05 167.31 60.65 167.31 60.83 174.4 129.25 174.4"/>
			<g id="frente">
<polygon
      points="230.47 165.16 249.34 179.2 296.34 188.58 300.97 235.69 273 249.81 244.86 254.45 239.97 221.54 216.76 202.62 202.64 226.24 202.34 240.34 132.09 240.35 127.19 216.97 103.72 202.76 117.6 179.35 127.09 169.84 188.34 174.43 230.47 165.16"
     />  </g>

    <g id="janela">
     <polygon
      id="j1"
      points="188.34 174.43 178.97 188.73 117.6 179.35 127.09 169.84 188.34 174.43"
     />
     <polygon
      points="296.34 188.58 268.09 202.7 273 249.81 300.97 235.69 296.34 188.58"
     />
     <polygon
      id="j2"
      points="188.34 174.43 230.47 165.16 249.34 179.2 202.58 188.9 188.34 174.43"
     />
    </g>
    <g id="lado">
     <polygon
      points="216.76 202.62 243.38 218.42 244.86 254.45 202.34 240.34 201.54 225.07 216.76 202.62"
     />
     <polygon
      points="183.46 160.36 127.09 169.84 188.34 174.43 230.47 165.16 183.46 160.36"
     />
     <polygon
      points="103.72 202.76 128.13 216.42 132.09 240.35 113.22 245.19 103.84 230.89 103.72 202.76"
     />
    </g>
    <g id="arvore">
     <polygon
      points="0 142.31 15.71 142.31 15.71 198.72 0.04 198.72 0 142.31"
     />
     <polyline
      points="258.01 123.93 268.26 132.35 273.06 137.06 277.58 132.29 263.51 118.02 268.09 113.47 284.47 135.01 291.71 136.9 310.75 132.32 301.44 123.32 289.44 113.41 287.01 104.11 277.51 108.85 258.76 94.59 263.5 89.69 277.55 104.14 282.39 99.28 280.29 88.09 273.85 81.56 278.59 76.67 285.08 83.29 285.77 88.76 294.04 106.54 305.72 117.94 305.68 94.67 296.31 59.52 301.13 59.56 310.52 89.9 315.13 70.94 315.01 52.21 319.84 52.26 319.87 71.03 315.14 99.31 315.09 108.63 324.43 94.71 343.38 75.81 348.14 75.81 329.3 94.71 319.89 113.42 322.19 129.96 338.72 122.94 350.54 101.84 348.09 85.2 352.56 85.18 352.85 99.22 362.23 94.52 367.05 94.6 352.72 104 348.1 113.51 369.28 120.43 380.93 113.28 380.88 118.19 368.9 125.55 348.14 118.14 338.85 127.59 324.5 136.79 319.84 141.84 324.8 226.05 310.71 226.2 315.09 169.79 315.18 141.69 291.76 141.76 277.38 144.08 272.18 140.89 268.09 141.56 266.01 143.72 261.33 139.02 264.45 139.2 268.84 138.22 258.01 128.43"
     />
     <polyline
      points="465.53 61.66 489.12 42.74 484.26 38.06 460.81 57.05 459.75 92.07 456.14 80.37 451.51 56.95 446.62 56.96 451.63 80.64 432.65 52.34 427.98 56.96 442.09 75.76 420.76 80.38 423.28 85.26 437.38 80.38 446.66 85.08 413.88 89.88 418.34 94.57 449.56 88.34 457.69 106.66 456.2 122.43 449.31 113.7 432.68 99.18 432.59 104.22 456.17 127.36 456.22 207.34 470.3 207.44 470.24 113.35 493.77 94.83 489.15 90.04 470.33 104.05 470.38 99.17 484.57 85.17 484.57 80.28 470.34 94.79 465.43 66.62"
     />
     <polygon
      points="375.05 189.39 386.27 178.07 386.24 233.83 375.02 233.83 375.05 189.39"
     />
    </g>
    <g id="plantasPO">
     <polygon
      points="266.71 91.96 315.31 43.7 361.97 89.85 362.88 135.51 332.98 165.97 297.02 166.24 266.71 136.17 266.71 91.96"
     />
     <polygon
      points="417.09 59.67 434.88 41.66 488 41.66 507.12 59.65 507.9 91.55 477.72 122.52 446.98 122.75 417.09 90.48 417.09 59.67"
     />
    </g>
    <g id="troncosPO">
     <polyline
      points="336.57 121.53 348.39 100.42 345.94 83.78 350.41 83.77 350.7 97.8 360.08 93.11 364.9 93.18 350.57 102.59 345.96 112.1 367.12 119.02 378.78 111.86 378.73 116.78 366.75 124.13 345.98 116.72 336.7 126.18"
     />
     <polyline
      points="305.68 95.42 296.31 59.52 301.13 60.58 310.52 90.65 315.13 71.69 315.01 52.95 319.84 53.01 319.87 71.78 315.14 100.06"
     />
     <polyline
      points="301.44 124.07 289.44 114.15 287.01 104.86 277.51 109.6 258.76 95.34 263.5 90.44 277.55 104.89 282.39 100.03 280.06 88.61 273.68 81.39 278.42 76.51 284.84 83.81 285.77 89.51 294.04 107.29"
     />
     <polyline
      points="459.34 117.72 493.77 95.58 489.15 90.79 464.84 110.22 468.19 102.08 484.57 85.91 484.57 81.03 470.34 95.54 462.5 102.72"
     />
     <polyline
      points="456.14 81.12 451.51 57.7 446.62 57.71 451.63 81.39 432.65 53.09 427.98 57.71 442.09 76.51 420.76 81.13 423.28 86.01 437.38 81.13 446.66 85.82 413.88 90.63 418.34 95.32 449.56 89.09"
     />
     <polyline points="460.81 57.8 489.12 43.49 484.26 38.8 460.81 57.8" />
    </g>
    <g id="plantasV">
     <polygon
      points="258.01 94.74 318.37 34.91 377.68 94.71 378.72 137.11 338.59 178.27 297.73 178.58 258.01 138.91 258.01 94.74"
     />
     <polygon
      points="404.77 69.46 441.86 32.28 482.33 32.53 519.24 69.43 520.23 109.99 481.85 149.36 442.76 149.65 404.77 111.81 404.77 69.46"
     />
    </g>
    <g id="plantas">
     <polygon
      points="361.74 197.59 361.74 197.59 393.07 197.61 405.14 197.59 428.37 174.45 427.97 122.72 427.97 122.72 381.21 75.78 329.56 127.51 329.56 127.51 329.19 174.63 361.74 197.59 361.74 197.59"
     />
    </g>
		</g>
</svg>