<svg class="img_svg"
	xmlns="http://www.w3.org/2000/svg" viewBox="0 0 554.47 265.86">

		<g id="intro28">
<rect id="chao" y="184.32" width="554.47" height="81.57" />
    <g id="lado">
     <polyline
      points="343.47 238.17 364.39 217.46 364.28 154.32 343.47 175.09"
     />
    </g>
    <g id="cima">
     <polygon
      points="301.85 133.22 343.47 175.09 364.28 154.32 322.59 112.13 301.85 133.22"
     />
    </g>
    <g id="frente">
     <polyline
      points="343.47 238.17 343.47 175.09 301.85 133.22 260.3 175.09 260.78 238"
     />
    </g>
    <g id="janela">
     <rect x="313.38" y="175.19" width="20.61" height="20.61" />
     <rect x="271.56" y="196.36" width="20.61" height="41.62" />
    </g>
    <polygon
     id="vertical"
     points="343.47 238.17 364.39 217.46 364.28 154.32 343.47 175.09 343.47 238.17"
    />
    <g id="caixafrente">
     <rect x="353.29" y="234.21" width="22.15" height="13.7" />
    </g>
    <polygon
     id="caixalado"
     points="384.38 225.27 384.38 238.97 375.44 247.91 375.44 234.21 384.38 225.27"
    />
    <g id="caixadentro">
     <polyline
      points="353.29 234.21 361.95 234.21 362.09 225.41 353.29 234.21"
     />
     <polygon
      points="384.38 225.27 362.09 225.27 362.09 234.21 375.44 234.21 384.38 225.27"
     />
    </g>
    <g id="caule">
     <polygon
      points="377.88 226.2 376.73 225.03 376.73 230.78 377.89 230.78 377.88 226.2"
     />
     <polygon
      points="377.61 227.46 377.86 226.72 378.87 225.95 379.63 225.91 377.61 227.46"
     />
     <polygon
      points="362.34 229.4 361.18 228.23 361.19 233.98 362.34 233.98 362.34 229.4"
     />
     <polygon
      points="357.69 228.41 359.17 229.66 361.29 230.31 361.51 229.59 357.69 228.41"
     />
     <polygon
      points="362.07 230.65 362.31 229.92 363.32 229.14 364.09 229.1 362.07 230.65"
     />
     <polygon
      points="368.74 229.4 367.58 228.23 367.59 233.98 368.74 233.98 368.74 229.4"
     />
     <polygon
      points="364.09 228.41 365.57 229.66 367.69 230.31 367.91 229.59 364.09 228.41"
     />
     <polygon
      points="368.47 230.65 368.71 229.92 369.73 229.14 370.49 229.1 368.47 230.65"
     />
     <polygon
      points="374.29 229.4 373.13 228.23 373.13 233.98 374.29 233.98 374.29 229.4"
     />
     <polygon
      points="374.02 230.65 374.26 229.92 375.27 229.14 376.04 229.1 374.02 230.65"
     />
    </g>
    <g id="plantas2">
     <polygon
      points="376 227.72 376 227.72 378.04 227.72 378.83 227.72 380.43 226.12 380.43 223.02 378.85 221.33 377.23 219.76 375.66 221.33 374.04 223.02 374.04 226.14 376 227.72 376 227.72"
     />
     <polygon
      points="370.05 227.72 370.05 227.72 372.09 227.72 372.88 227.72 374.48 226.12 374.48 223.02 372.9 221.33 371.28 219.76 369.71 221.33 368.09 223.02 368.09 226.14 370.05 227.72 370.05 227.72"
     />
     <polygon
      points="364.06 227.72 364.06 227.72 366.1 227.72 366.88 227.72 368.48 226.12 368.48 223.02 366.9 221.33 365.29 219.76 363.71 221.33 362.1 223.02 362.09 226.14 364.06 227.72 364.06 227.72"
     />
     <polygon
      points="360.46 230.91 360.46 230.91 362.5 230.91 363.28 230.91 364.88 229.32 364.88 226.22 363.3 224.53 361.69 222.95 360.11 224.53 358.5 226.22 358.5 229.34 360.46 230.91 360.46 230.91"
     />
     <polygon
      points="346.01 183.09 346.01 183.09 347.05 183.09 347.45 183.09 348.28 181.5 348.28 178.4 347.47 176.71 346.64 175.13 345.83 176.71 345 178.4 345 181.51 346.01 183.09 346.01 183.09"
     />
     <polygon
      points="350.59 178.37 350.59 178.37 351.64 178.37 352.04 178.37 352.86 176.78 352.86 173.68 352.05 171.99 351.22 170.41 350.41 171.99 349.58 173.68 349.58 176.8 350.59 178.37 350.59 178.37"
     />
     <polygon
      points="355.43 173.34 355.43 173.34 356.48 173.34 356.88 173.34 357.7 171.75 357.7 168.65 356.89 166.96 356.06 165.38 355.25 166.96 354.42 168.65 354.42 171.76 355.43 173.34 355.43 173.34"
     />
     <polygon
      points="360.23 168.07 360.23 168.07 361.28 168.07 361.68 168.07 362.5 166.48 362.5 163.38 361.69 161.69 360.87 160.11 360.06 161.69 359.23 163.38 359.23 166.5 360.23 168.07 360.23 168.07"
     />
     <polygon
      points="346.01 193.03 346.01 193.03 347.05 193.03 347.45 193.03 348.28 191.44 348.28 188.34 347.47 186.65 346.64 185.07 345.83 186.65 345 188.34 345 191.45 346.01 193.03 346.01 193.03"
     />
     <polygon
      points="350.59 188.31 350.59 188.31 351.64 188.31 352.04 188.31 352.86 186.72 352.86 183.62 352.05 181.93 351.22 180.35 350.41 181.93 349.58 183.62 349.58 186.74 350.59 188.31 350.59 188.31"
     />
     <polygon
      points="355.43 183.28 355.43 183.28 356.48 183.28 356.88 183.28 357.7 181.69 357.7 178.59 356.89 176.9 356.06 175.32 355.25 176.9 354.42 178.59 354.42 181.7 355.43 183.28 355.43 183.28"
     />
     <polygon
      points="360.23 178.01 360.23 178.01 361.28 178.01 361.68 178.01 362.5 176.42 362.5 173.32 361.69 171.63 360.87 170.06 360.06 171.63 359.23 173.32 359.23 176.44 360.23 178.01 360.23 178.01"
     />
     <polygon
      points="346.01 202.99 346.01 202.99 347.05 202.99 347.45 202.99 348.28 201.39 348.28 198.3 347.47 196.6 346.64 195.03 345.83 196.6 345 198.29 345 201.41 346.01 202.99 346.01 202.99"
     />
     <polygon
      points="350.59 198.27 350.59 198.27 351.64 198.27 352.04 198.27 352.86 196.68 352.86 193.58 352.05 191.89 351.22 190.31 350.41 191.89 349.58 193.58 349.58 196.69 350.59 198.27 350.59 198.27"
     />
     <polygon
      points="355.43 193.24 355.43 193.24 356.48 193.24 356.88 193.24 357.7 191.64 357.7 188.55 356.89 186.85 356.06 185.28 355.25 186.85 354.42 188.54 354.42 191.66 355.43 193.24 355.43 193.24"
     />
     <polygon
      points="360.23 187.97 360.23 187.97 361.28 187.97 361.68 187.97 362.5 186.38 362.5 183.28 361.69 181.59 360.87 180.01 360.06 181.59 359.23 183.28 359.23 186.39 360.23 187.97 360.23 187.97"
     />
     <polygon
      points="346.01 213.29 346.01 213.29 347.05 213.29 347.45 213.29 348.28 211.69 348.28 208.6 347.47 206.9 346.64 205.33 345.83 206.9 345 208.59 345 211.71 346.01 213.29 346.01 213.29"
     />
     <polygon
      points="350.59 208.57 350.59 208.57 351.64 208.57 352.04 208.57 352.86 206.98 352.86 203.88 352.05 202.19 351.22 200.61 350.41 202.19 349.58 203.88 349.58 206.99 350.59 208.57 350.59 208.57"
     />
     <polygon
      points="355.43 203.54 355.43 203.54 356.48 203.54 356.88 203.54 357.7 201.94 357.7 198.85 356.89 197.15 356.06 195.58 355.25 197.15 354.42 198.84 354.42 201.96 355.43 203.54 355.43 203.54"
     />
     <polygon
      points="360.23 198.27 360.23 198.27 361.28 198.27 361.68 198.27 362.5 196.68 362.5 193.58 361.69 191.89 360.87 190.31 360.06 191.89 359.23 193.58 359.23 196.69 360.23 198.27 360.23 198.27"
     />
     <polygon
      points="346.01 224.84 346.01 224.84 347.05 224.84 347.45 224.84 348.28 223.24 348.28 220.14 347.47 218.45 346.64 216.88 345.83 218.45 345 220.14 345 223.26 346.01 224.84 346.01 224.84"
     />
     <polygon
      points="350.59 220.12 350.59 220.12 351.64 220.12 352.04 220.12 352.86 218.52 352.86 215.43 352.05 213.73 351.22 212.16 350.41 213.73 349.58 215.42 349.58 218.54 350.59 220.12 350.59 220.12"
     />
     <polygon
      points="355.43 215.09 355.43 215.09 356.48 215.09 356.88 215.09 357.7 213.49 357.7 210.39 356.89 208.7 356.06 207.13 355.25 208.7 354.42 210.39 354.42 213.51 355.43 215.09 355.43 215.09"
     />
     <polygon
      points="360.23 209.82 360.23 209.82 361.28 209.82 361.68 209.82 362.5 208.22 362.5 205.12 361.69 203.43 360.87 201.86 360.06 203.43 359.23 205.12 359.23 208.24 360.23 209.82 360.23 209.82"
     />
    </g>
    <g id="plantas">
     <polygon
      points="366.86 230.91 366.86 230.91 368.9 230.91 369.68 230.91 371.28 229.32 371.28 226.22 369.7 224.53 368.09 222.95 366.51 224.53 364.9 226.22 364.9 229.34 366.86 230.91 366.86 230.91"
     />
     <polygon
      points="372.41 230.91 372.41 230.91 374.44 230.91 375.23 230.91 376.83 229.32 376.83 226.22 375.25 224.53 373.64 222.95 372.06 224.53 370.45 226.22 370.44 229.34 372.41 230.91 372.41 230.91"
     />
     <polygon
      points="348.52 180.35 348.52 180.35 349.56 180.35 349.97 180.35 350.79 178.76 350.79 175.66 349.98 173.97 349.15 172.4 348.34 173.97 347.51 175.66 347.51 178.78 348.52 180.35 348.52 180.35"
     />
     <polygon
      points="353.3 176.03 353.3 176.03 354.34 176.03 354.75 176.03 355.57 174.44 355.57 171.34 354.76 169.65 353.93 168.07 353.12 169.65 352.29 171.34 352.29 174.46 353.3 176.03 353.3 176.03"
     />
     <polygon
      points="357.87 172.05 357.87 172.05 358.91 172.05 359.31 172.05 360.13 170.46 360.13 167.36 359.32 165.67 358.5 164.09 357.69 165.67 356.86 167.36 356.86 170.47 357.87 172.05 357.87 172.05"
     />
     <polygon
      points="348.52 190.29 348.52 190.29 349.56 190.29 349.97 190.29 350.79 188.7 350.79 185.6 349.98 183.91 349.15 182.34 348.34 183.91 347.51 185.6 347.51 188.72 348.52 190.29 348.52 190.29"
     />
     <polygon
      points="353.3 185.97 353.3 185.97 354.34 185.97 354.75 185.97 355.57 184.38 355.57 181.28 354.76 179.59 353.93 178.01 353.12 179.59 352.29 181.28 352.29 184.4 353.3 185.97 353.3 185.97"
     />
     <polygon
      points="357.87 181.99 357.87 181.99 358.91 181.99 359.31 181.99 360.13 180.4 360.13 177.3 359.32 175.61 358.5 174.03 357.69 175.61 356.86 177.3 356.86 180.42 357.87 181.99 357.87 181.99"
     />
     <polygon
      points="348.52 200.25 348.52 200.25 349.56 200.25 349.97 200.25 350.79 198.66 350.79 195.56 349.98 193.87 349.15 192.29 348.34 193.87 347.51 195.56 347.51 198.68 348.52 200.25 348.52 200.25"
     />
     <polygon
      points="353.3 195.93 353.3 195.93 354.34 195.93 354.75 195.93 355.57 194.33 355.57 191.24 354.76 189.54 353.93 187.97 353.12 189.54 352.29 191.23 352.29 194.35 353.3 195.93 353.3 195.93"
     />
     <polygon
      points="357.87 191.95 357.87 191.95 358.91 191.95 359.31 191.95 360.13 190.35 360.13 187.26 359.32 185.56 358.5 183.99 357.69 185.56 356.86 187.25 356.86 190.37 357.87 191.95 357.87 191.95"
     />
     <polygon
      points="348.52 210.19 348.52 210.19 349.56 210.19 349.97 210.19 350.79 208.6 350.79 205.5 349.98 203.81 349.15 202.24 348.34 203.81 347.51 205.5 347.51 208.62 348.52 210.19 348.52 210.19"
     />
     <polygon
      points="353.3 205.87 353.3 205.87 354.34 205.87 354.75 205.87 355.57 204.27 355.57 201.18 354.76 199.48 353.93 197.91 353.12 199.48 352.29 201.17 352.29 204.29 353.3 205.87 353.3 205.87"
     />
     <polygon
      points="357.87 201.89 357.87 201.89 358.91 201.89 359.31 201.89 360.13 200.29 360.13 197.2 359.32 195.5 358.5 193.93 357.69 195.5 356.86 197.19 356.86 200.31 357.87 201.89 357.87 201.89"
     />
     <polygon
      points="348.52 220.85 348.52 220.85 349.56 220.85 349.97 220.85 350.79 219.26 350.79 216.16 349.98 214.47 349.15 212.9 348.34 214.47 347.51 216.16 347.51 219.28 348.52 220.85 348.52 220.85"
     />
     <polygon
      points="353.3 216.53 353.3 216.53 354.34 216.53 354.75 216.53 355.57 214.93 355.57 211.84 354.76 210.14 353.93 208.57 353.12 210.14 352.29 211.83 352.29 214.95 353.3 216.53 353.3 216.53"
     />
     <polygon
      points="357.87 212.55 357.87 212.55 358.91 212.55 359.31 212.55 360.13 210.96 360.13 207.86 359.32 206.16 358.5 204.59 357.69 206.16 356.86 207.85 356.86 210.97 357.87 212.55 357.87 212.55"
     />
    </g>
    <polygon
     id="plantasPO"
     points="106.31 204.3 84.14 182.13 84.14 146.59 107.88 122.84 131.66 146.62 131.66 183.31 110.05 204.3 106.31 204.3"
    />
    <g id="arvore">
     <polygon
      points="435.06 228.53 435.06 238.17 439.51 238.17 439.51 228.27 435.06 228.53"
     />
     <polyline
      points="432.57 154.66 427.3 157.99 424.59 160.49 423.65 159.6 429.6 150.48 427.3 149.65 421.21 159.6 418.37 160.49 410.93 159.6 414.58 154.49 419.18 149.65 420.94 145.65 430 144.68 435.68 138.81 433.92 136.8 429.06 142.81 420.54 143.31 425.81 137.81 430.54 133.47 428.78 131.3 425.47 135.39 420.54 138.31 417.15 146.31 412.69 152.99 411.61 141.47 416.88 122.96 414.58 122.96 410.8 138.31 409.65 124.06 411.2 118.45 408.5 117.45 407.35 123.62 408.77 142.81 408.23 145.48 405.39 139.64 403.63 128.96 402.01 128.96 402.01 140.31 406.34 148.82 406.74 157.31 401.33 154.66 395.92 144.68 395.92 129.46 394.03 130.63 394.03 142.81 384.56 134.97 383.62 137.47 393.76 144.68 396.19 150.82 388.89 152.82 383.62 149.32 383.62 152.65 389.2 155.43 397.14 153.15 400.39 156.49 405.66 160.66 406.61 164.33 405.39 201.87 410.8 201.87 409.18 175.51 409.72 163.5 417.86 162.56 423.83 163.66 426.89 162.44 430.41 164.5 430.41 164.5 431.35 163 431.35 163 428.24 160.49 432.44 157.31"
     />
     <polygon
      points="106.31 233.22 106.31 198.78 96.56 189.35 97.97 186.99 106.92 194.93 106.41 184.51 90.92 177.93 91.93 174.83 100.78 178.68 95.45 173.47 97.16 171.98 105.01 180.54 108.22 181.16 105.31 165.53 92.53 154.86 93.74 151.01 103.3 160.56 99.57 151.75 102.09 151.01 106.72 163.29 104.7 147.41 106.61 147.41 109.93 175.7 112.05 170.99 111.34 151.26 114.66 150.76 114.16 169.87 124.01 158.58 125.32 162.42 119.49 167.88 125.32 168.75 124.82 170.86 118.68 169.5 116.27 170.99 121.8 173.22 120.8 175.7 114.06 173.84 110.76 182.98 110.74 190.31 114.16 186.5 119.69 179.67 121.5 182.65 109.83 196.17 110.74 233.22 106.31 233.22"
     />
    </g>
    <g id="plantasV">
     <polygon
      points="83.64 144.18 102.95 122.82 113.63 122.94 131.43 143.78 131.43 187.19 110.55 203.93 105.9 203.97 83.64 186.88 83.64 144.18"
     />
     <polygon
      points="399.76 106.86 414.45 106.86 437.32 129.42 442.14 144.56 437.22 159.83 419.02 178.37 393.86 178.37 377.52 159.54 372.07 144.33 377.55 129 399.76 106.86"
     />
    </g>
    <g id="plantas-2">
     <polygon
      points="436.35 153.61 430.81 160.77 425.2 179.41 423.4 197.57 425.17 216.44 435.06 228.83 439.51 228.57 449.34 216.45 451.34 197.67 449.41 179.52 441.85 160.78 436.35 153.61"
     />
    </g>
    <g id="plantas2-2">
     <polygon
      points="436.35 153.61 430.81 160.77 425.2 179.41 423.4 197.57 425.17 216.44 435.06 228.83 439.51 228.57 449.34 216.45 451.34 197.67 449.41 179.52 441.85 160.78 436.35 153.61"
     />
    </g>
		</g>
</svg>