<svg class="img_svg"
	xmlns="http://www.w3.org/2000/svg" viewBox="0 0 554.47 265.86">
	
		<g id="m511">
			
			<rect id="chao" class="cls-2" y="184.29" width="554.47" height="81.57"/>
			<g id="nlado">
     <polyline
      class="cls-1"
      points="251.17 236.9 271.73 216.65 271.89 153.56 251.17 175.04"
     />
    </g>
    <g id="lado">
     <polyline
      class="cls-1"
      points="343.97 236.72 364.31 216.13 364.26 154.72 343.8 175.04"
     />
    </g>
    <g id="nfrente">
     <polyline
      class="cls-1"
      points="251.17 236.9 251.17 175.04 168.17 174.19 168.17 174.19 168.17 236.72"
     />
    </g>
    <g id="njanela">
     <rect class="cls-1" x="219.78" y="174.12" width="20.61" height="20.61" />
     <rect class="cls-1" x="177.95" y="195.08" width="20.61" height="41.62" />
    </g>
    <g id="frente">
     <polyline
      class="cls-1"
      points="343.97 236.79 343.8 175.04 260.8 175.04 260.8 175.04 261.28 236.62"
     />
    </g>
    <g id="janela">
     <rect class="cls-1" x="313.88" y="174.15" width="20.61" height="20.61" />
     <rect class="cls-1" x="272.06" y="195.32" width="20.61" height="41.62" />
    </g>
    <g id="piso">
     <polygon
      class="cls-1"
      points="271.89 153.56 271.63 92.13 251.17 112.9 251.17 175.04 271.89 153.56"
     />
     <polygon
      class="cls-1"
      points="364.26 154.72 364.26 128.52 343.8 149.3 343.8 175.04 364.26 154.72"
     />
    </g>
    <g id="escuro">
     <polygon
      class="cls-1"
      points="168.17 112.9 251.17 112.9 271.63 92.13 188.1 93.15 168.17 112.9"
     />
     <polygon
      class="cls-1"
      points="260.8 149.3 343.8 149.3 364.26 128.52 280.58 129.41 260.8 149.3"
     />
    </g>
    <g id="tabela">
     <line class="cls-1" x1="148.56" y1="81.5" x2="148.56" y2="236.8" />
	   <g id="textC" class="cls-2">
      <path
       class="cls-3"
       d="M118.76,74.43a2.16,2.16,0,0,0,.88-.17,1.74,1.74,0,0,0,.6-.47,2,2,0,0,0,.34-.67,2.63,2.63,0,0,0,.12-.8v-.14h1v.14a3.85,3.85,0,0,1-.19,1.19,2.81,2.81,0,0,1-.57,1,2.54,2.54,0,0,1-.92.64,3.16,3.16,0,0,1-1.27.24,2.75,2.75,0,0,1-2.18-.88,3.71,3.71,0,0,1-.78-2.55V70.06a3.75,3.75,0,0,1,.78-2.53,2.74,2.74,0,0,1,2.18-.9,3.16,3.16,0,0,1,1.27.24,2.54,2.54,0,0,1,.92.64,2.81,2.81,0,0,1,.57,1,3.85,3.85,0,0,1,.19,1.19v.14h-1v-.14a3,3,0,0,0-.13-.79,2,2,0,0,0-.34-.68,1.74,1.74,0,0,0-.6-.47,2.08,2.08,0,0,0-.87-.17,1.63,1.63,0,0,0-1.46.71,3.17,3.17,0,0,0-.49,1.86v1.72a3.17,3.17,0,0,0,.49,1.91A1.69,1.69,0,0,0,118.76,74.43Z"
      />
      <path
       class="cls-3"
       d="M127.67,69.25h.94v6h-.94V74.12h-.14a2.54,2.54,0,0,1-.76.91,2,2,0,0,1-1.19.34,2.57,2.57,0,0,1-.9-.16,1.85,1.85,0,0,1-.71-.49,2.24,2.24,0,0,1-.46-.8,3.48,3.48,0,0,1-.16-1.12V69.25h.94v3.43a2,2,0,0,0,.38,1.37,1.5,1.5,0,0,0,1.18.43,1.65,1.65,0,0,0,1.34-.58,2.38,2.38,0,0,0,.48-1.56Z"
      />
      <path
       class="cls-3"
       d="M132,70.78a.74.74,0,0,0,.37.66,3,3,0,0,0,1.34.3,3.14,3.14,0,0,1,1.59.5,1.44,1.44,0,0,1,.54,1.21v.07a1.59,1.59,0,0,1-.17.77,1.84,1.84,0,0,1-.48.59,2,2,0,0,1-.74.36,3.32,3.32,0,0,1-1,.13,3.27,3.27,0,0,1-1.19-.19,2.4,2.4,0,0,1-.83-.49,2,2,0,0,1-.5-.7,2.23,2.23,0,0,1-.19-.78l.89-.22a1.57,1.57,0,0,0,.53,1.1,1.77,1.77,0,0,0,1.24.41,2,2,0,0,0,1.07-.25.85.85,0,0,0,.4-.73.76.76,0,0,0-.4-.72,3.33,3.33,0,0,0-1.28-.28,2.88,2.88,0,0,1-1.59-.48,1.36,1.36,0,0,1-.55-1.18v-.08a1.44,1.44,0,0,1,.18-.73,1.58,1.58,0,0,1,.49-.54,2.19,2.19,0,0,1,.69-.32,3,3,0,0,1,.8-.11,2.93,2.93,0,0,1,1,.16,2.45,2.45,0,0,1,.75.42,1.79,1.79,0,0,1,.46.6,2.09,2.09,0,0,1,.21.67l-.89.21a1.28,1.28,0,0,0-.46-.9,1.66,1.66,0,0,0-1-.32,2.63,2.63,0,0,0-.49,0,1.36,1.36,0,0,0-.41.17.84.84,0,0,0-.29.27A.65.65,0,0,0,132,70.78Z"
      />
      <path
       class="cls-3"
       d="M137.29,69.25h1.88V66.8h.93v2.45h2.31v.86H140.1V74q0,.36.33.36h1.69v.86h-2a.89.89,0,0,1-.92-.94V70.11h-1.88Z"
      />
      <path
       class="cls-3"
       d="M149.85,72.3a3.36,3.36,0,0,1-.25,1.31,2.86,2.86,0,0,1-.65,1,2.71,2.71,0,0,1-1,.59,3.17,3.17,0,0,1-2.27,0,2.67,2.67,0,0,1-.95-.59,2.86,2.86,0,0,1-.65-1,3.19,3.19,0,0,1-.25-1.31v-.15a3.14,3.14,0,0,1,.25-1.3,2.88,2.88,0,0,1,.66-1,2.84,2.84,0,0,1,.95-.6,3.29,3.29,0,0,1,2.26,0,2.84,2.84,0,0,1,.95.6,2.88,2.88,0,0,1,.66,1,3.31,3.31,0,0,1,.25,1.3Zm-3,2.18a2.11,2.11,0,0,0,.8-.15,2,2,0,0,0,.64-.44,2,2,0,0,0,.43-.69,2.57,2.57,0,0,0,.16-.9v-.15a2.5,2.5,0,0,0-.16-.88,2,2,0,0,0-.43-.69,2.1,2.1,0,0,0-.65-.45,1.92,1.92,0,0,0-.79-.16,1.89,1.89,0,0,0-.79.16,2,2,0,0,0-.65.45,1.88,1.88,0,0,0-.43.69,2.3,2.3,0,0,0-.16.88v.15a2.36,2.36,0,0,0,.16.9,1.95,1.95,0,0,0,1.07,1.13A2.11,2.11,0,0,0,146.86,74.48Z"
      />
     </g>
    </g>
    <g id="lado-2">
     <polygon
      class="cls-1"
      points="168.17 174.19 168.17 112.9 251.17 112.9 251.17 175.04 168.17 174.19"
     />
     <polygon
      class="cls-1"
      points="260.8 175.04 260.8 149.3 343.8 149.3 343.8 175.04 260.8 175.04"
     />
    </g>
   
    <polygon
     id="plantaPO"
     class="cls-1"
     points="106.81 204.77 84.64 182.6 84.64 147.06 108.38 123.31 132.16 147.09 132.16 183.78 110.55 204.77 106.81 204.77"
    />
    <g id="arvore">
     <polygon
      class="cls-1"
      points="435.56 229 435.56 238.64 440.01 238.64 440.01 228.74 435.56 229"
     />
     <polyline
      class="cls-1"
      points="433.07 155.13 427.8 158.46 425.09 160.96 424.15 160.07 430.1 150.95 427.8 150.12 421.71 160.07 418.87 160.96 411.43 160.07 415.08 154.96 419.68 150.12 421.44 146.12 430.5 145.15 436.18 139.28 434.42 137.27 429.56 143.28 421.04 143.78 426.31 138.28 431.04 133.94 429.28 131.77 425.97 135.86 421.04 138.78 417.65 146.78 413.19 153.46 412.11 141.94 417.38 123.43 415.08 123.43 411.3 138.78 410.15 124.53 411.7 118.92 409 117.92 407.85 124.09 409.27 143.28 408.73 145.95 405.89 140.11 404.13 129.43 402.51 129.43 402.51 140.78 406.84 149.29 407.24 157.78 401.83 155.13 396.42 145.15 396.42 129.93 394.53 131.1 394.53 143.28 385.06 135.44 384.12 137.94 394.26 145.15 396.69 151.29 389.39 153.29 384.12 149.79 384.12 153.12 389.7 155.9 397.64 153.62 400.89 156.96 406.16 161.13 407.11 164.8 405.89 202.34 411.3 202.34 409.68 175.98 410.22 163.97 418.36 163.03 424.33 164.13 427.39 162.91 430.91 164.97 430.91 164.97 431.85 163.47 431.85 163.47 428.74 160.96 432.94 157.78"
     />
     <polygon
      class="cls-1"
      points="106.81 233.69 106.81 199.25 97.06 189.82 98.47 187.46 107.42 195.4 106.91 184.98 91.42 178.4 92.43 175.3 101.28 179.15 95.95 173.94 97.66 172.45 105.51 181.01 108.72 181.63 105.81 166 93.03 155.33 94.24 151.48 103.8 161.03 100.07 152.22 102.59 151.48 107.22 163.76 105.2 147.88 107.11 147.88 110.43 176.17 112.55 171.46 111.84 151.73 115.16 151.23 114.66 170.34 124.51 159.05 125.82 162.89 119.99 168.35 125.82 169.22 125.32 171.33 119.18 169.97 116.77 171.46 122.3 173.69 121.3 176.17 114.56 174.31 111.26 183.45 111.24 190.78 114.66 186.97 120.19 180.14 122 183.12 110.33 196.64 111.24 233.69 106.81 233.69"
     />
    </g>
    <g id="plantaV">
     <polygon
      class="cls-1"
      points="84.14 144.65 103.45 123.29 114.13 123.41 131.93 144.25 131.93 187.66 111.05 204.4 106.4 204.44 84.14 187.35 84.14 144.65"
     />
     <polygon
      class="cls-1"
      points="400.26 107.36 414.95 107.36 437.82 129.89 442.64 145.03 437.72 160.3 419.52 178.84 394.36 178.84 378.02 160.01 372.57 144.8 378.05 129.47 400.26 107.36"
     />
    </g>
    <g id="plantas">
     <polygon
      class="cls-1"
      points="436.85 154.08 431.31 161.24 425.7 179.88 423.9 198.04 425.67 216.91 435.56 229.3 440.01 229.04 449.84 216.92 451.84 198.14 449.91 179.99 442.35 161.25 436.85 154.08"
     />
    </g>
	</g>
</svg>