<svg class="img_svg"
	xmlns="http://www.w3.org/2000/svg" viewBox="0 0 554.47 265.86">
	
		<g id="m512">
			
			<rect id="chao" class="cls-2" y="184.29" width="554.47" height="81.57"/>
			    <g id="piso">
     <polygon
      class="cls-1"
      points="271.63 216.13 271.63 92.13 251.17 112.9 251.17 236.9 271.63 216.13"
     />
     <polygon
      class="cls-1"
      points="364.31 216.13 364.26 128.52 343.8 149.3 343.97 236.72 364.31 216.13"
     />
    </g>
    <g id="escuro">
     <polygon
      class="cls-1"
      points="168.17 112.9 251.17 112.9 271.63 92.13 188.1 93.15 168.17 112.9"
     />
     <polygon
      class="cls-1"
      points="260.8 149.3 343.8 149.3 364.26 128.52 280.58 129.41 260.8 149.3"
     />
    </g>
    <g id="tabela">
     <line class="cls-1" x1="148.56" y1="81.5" x2="148.56" y2="236.8" />
     <g id="textC" class="cls-2">
      <path
       class="cls-3"
       d="M282.08,101.25a3.09,3.09,0,0,1-.33.91,2.6,2.6,0,0,1-1.43,1.2,3.08,3.08,0,0,1-1.07.17,3.52,3.52,0,0,1-1.18-.2,2.86,2.86,0,0,1-1.65-1.55,3.31,3.31,0,0,1-.24-1.3v-.14a3.38,3.38,0,0,1,.24-1.3,3.06,3.06,0,0,1,.67-1,2.9,2.9,0,0,1,1-.61,3.3,3.3,0,0,1,1.18-.22,3.19,3.19,0,0,1,1,.17,2.66,2.66,0,0,1,1.45,1.2,3.18,3.18,0,0,1,.32.91l-.94.22a1.71,1.71,0,0,0-.18-.61,1.67,1.67,0,0,0-.37-.51,1.64,1.64,0,0,0-.57-.36,2.27,2.27,0,0,0-.78-.13,2.25,2.25,0,0,0-.81.16,2,2,0,0,0-.66.46,2.05,2.05,0,0,0-.45.7,2.35,2.35,0,0,0-.16.89v.14a2.38,2.38,0,0,0,.16.91,1.88,1.88,0,0,0,.45.68,2,2,0,0,0,.67.42,2.27,2.27,0,0,0,.83.15,2,2,0,0,0,.77-.13,2.31,2.31,0,0,0,.57-.36,2.08,2.08,0,0,0,.37-.51,2.29,2.29,0,0,0,.18-.6Z"
      />
      <path
       class="cls-3"
       d="M288.1,97.41H289v6h-.94v-1.08H288a2.38,2.38,0,0,1-.76.92,2,2,0,0,1-1.18.33,2.45,2.45,0,0,1-.91-.16,1.85,1.85,0,0,1-.71-.49,2.16,2.16,0,0,1-.46-.8,3.73,3.73,0,0,1-.16-1.12V97.41h.94v3.43a2.06,2.06,0,0,0,.38,1.37,1.5,1.5,0,0,0,1.18.43,1.65,1.65,0,0,0,1.34-.58,2.35,2.35,0,0,0,.48-1.55Z"
      />
      <path
       class="cls-3"
       d="M292.44,99a.73.73,0,0,0,.36.66,3.3,3.3,0,0,0,1.34.3,2.93,2.93,0,0,1,1.59.5,1.41,1.41,0,0,1,.55,1.2v.07a1.66,1.66,0,0,1-.18.78,1.8,1.8,0,0,1-.48.58,2.23,2.23,0,0,1-.74.37,3.66,3.66,0,0,1-1,.12,3.51,3.51,0,0,1-1.19-.18,2.52,2.52,0,0,1-.83-.5,2.1,2.1,0,0,1-.5-.69,2.47,2.47,0,0,1-.19-.79l.89-.21a1.58,1.58,0,0,0,.53,1.09,1.8,1.8,0,0,0,1.25.42,2,2,0,0,0,1.06-.26.83.83,0,0,0,.4-.73.76.76,0,0,0-.4-.72,3.37,3.37,0,0,0-1.28-.27,3.06,3.06,0,0,1-1.59-.48,1.41,1.41,0,0,1-.55-1.19V99a1.47,1.47,0,0,1,.18-.74,1.55,1.55,0,0,1,.49-.53,2,2,0,0,1,.69-.33,3.13,3.13,0,0,1,1.84.06,2.14,2.14,0,0,1,.74.42,1.85,1.85,0,0,1,.46.59,2.17,2.17,0,0,1,.21.67l-.89.22a1.24,1.24,0,0,0-.46-.9,1.61,1.61,0,0,0-1-.33,2,2,0,0,0-.49.06,1.35,1.35,0,0,0-.41.16.84.84,0,0,0-.29.27A.67.67,0,0,0,292.44,99Z"
      />
      <path
       class="cls-3"
       d="M298.21,97.41h1.87V95H301v2.45h2.3v.87H301v3.86c0,.24.1.36.32.36H303v.86h-2a.86.86,0,0,1-.66-.26.9.9,0,0,1-.26-.67V98.28h-1.87Z"
      />
      <path
       class="cls-3"
       d="M311.24,100.46a3.16,3.16,0,0,1-.25,1.31,2.79,2.79,0,0,1-1.6,1.56,3.42,3.42,0,0,1-1.14.2,3.33,3.33,0,0,1-1.14-.2,3,3,0,0,1-.95-.6,2.86,2.86,0,0,1-.65-1,3.33,3.33,0,0,1-.25-1.31v-.14a3.36,3.36,0,0,1,.25-1.31,2.74,2.74,0,0,1,.66-1,2.56,2.56,0,0,1,.95-.6,3.15,3.15,0,0,1,2.26,0,2.56,2.56,0,0,1,.95.6,2.74,2.74,0,0,1,.66,1,3.19,3.19,0,0,1,.25,1.31Zm-3,2.18a2.07,2.07,0,0,0,.8-.15,1.85,1.85,0,0,0,.64-.43,2.23,2.23,0,0,0,.43-.69,2.38,2.38,0,0,0,.16-.91v-.14a2.35,2.35,0,0,0-.16-.89,2.23,2.23,0,0,0-.43-.69,2,2,0,0,0-.65-.45,2,2,0,0,0-1.58,0,2,2,0,0,0-.65.45,2.23,2.23,0,0,0-.43.69,2.56,2.56,0,0,0-.16.89v.14a2.59,2.59,0,0,0,.16.91,2.23,2.23,0,0,0,.43.69,1.85,1.85,0,0,0,.64.43A2.11,2.11,0,0,0,308.25,102.64Z"
      />
      <path
       class="cls-3"
       d="M324.79,102.45h-.15a1.44,1.44,0,0,1-.36.48,2.21,2.21,0,0,1-.48.34,2.79,2.79,0,0,1-.55.2,2.72,2.72,0,0,1-.55.06,3.18,3.18,0,0,1-1.12-.2,2.7,2.7,0,0,1-.9-.59,2.59,2.59,0,0,1-.61-.95,3.56,3.56,0,0,1-.23-1.31v-.19a3.49,3.49,0,0,1,.23-1.29,2.92,2.92,0,0,1,.61-1,2.56,2.56,0,0,1,.9-.59,2.91,2.91,0,0,1,1.1-.21,2.49,2.49,0,0,1,1.14.27,1.81,1.81,0,0,1,.82.84h.15V95h.93v8.4h-.93Zm-2,.19a2,2,0,0,0,.77-.15,1.69,1.69,0,0,0,.63-.45,1.88,1.88,0,0,0,.43-.69,2.48,2.48,0,0,0,.16-.89v-.14a2.56,2.56,0,0,0-.16-.89,2.06,2.06,0,0,0-.43-.69,1.91,1.91,0,0,0-.63-.45,2,2,0,0,0-.77-.16,2,2,0,0,0-1.43.6,2,2,0,0,0-.42.69,2.41,2.41,0,0,0-.15.87v.19a2.5,2.5,0,0,0,.15.9,2,2,0,0,0,.42.68,1.81,1.81,0,0,0,.63.43A2.07,2.07,0,0,0,322.8,102.64Z"
      />
      <path
       class="cls-3"
       d="M333.14,100.46a3.16,3.16,0,0,1-.25,1.31,2.86,2.86,0,0,1-.65,1,2.79,2.79,0,0,1-1,.6,3.32,3.32,0,0,1-2.27,0,2.79,2.79,0,0,1-1.6-1.56,3.16,3.16,0,0,1-.25-1.31v-.14a3.19,3.19,0,0,1,.25-1.31,2.74,2.74,0,0,1,.66-1,2.64,2.64,0,0,1,.95-.6,3.15,3.15,0,0,1,2.26,0,2.56,2.56,0,0,1,1,.6,2.74,2.74,0,0,1,.66,1,3.19,3.19,0,0,1,.25,1.31Zm-3,2.18a2.11,2.11,0,0,0,.8-.15,1.85,1.85,0,0,0,.64-.43,2.06,2.06,0,0,0,.43-.69,2.38,2.38,0,0,0,.16-.91v-.14a2.35,2.35,0,0,0-.16-.89,2.06,2.06,0,0,0-.43-.69,2,2,0,0,0-.65-.45,2,2,0,0,0-2.23.45,2.23,2.23,0,0,0-.43.69,2.35,2.35,0,0,0-.16.89v.14a2.38,2.38,0,0,0,.16.91,2.23,2.23,0,0,0,.43.69,2,2,0,0,0,.64.43A2.11,2.11,0,0,0,330.15,102.64Z"
      />
      <path
       class="cls-3"
       d="M347.78,101.25a2.83,2.83,0,0,1-.33.91,2.51,2.51,0,0,1-1.43,1.2,3.08,3.08,0,0,1-1.07.17,3.52,3.52,0,0,1-1.18-.2,2.88,2.88,0,0,1-1-.6,2.72,2.72,0,0,1-.67-1,3.31,3.31,0,0,1-.24-1.3v-.14a3.38,3.38,0,0,1,.24-1.3,2.87,2.87,0,0,1,1.65-1.58,3.3,3.3,0,0,1,1.18-.22,3.19,3.19,0,0,1,1,.17,2.66,2.66,0,0,1,1.45,1.2,3.18,3.18,0,0,1,.32.91l-.94.22a1.92,1.92,0,0,0-.17-.61,1.89,1.89,0,0,0-.38-.51,1.64,1.64,0,0,0-.57-.36,2.27,2.27,0,0,0-.78-.13,2.25,2.25,0,0,0-.81.16,2,2,0,0,0-.66.46,2.21,2.21,0,0,0-.45.7,2.35,2.35,0,0,0-.16.89v.14a2.38,2.38,0,0,0,.16.91,1.9,1.9,0,0,0,1.12,1.1,2.27,2.27,0,0,0,.83.15,2,2,0,0,0,.77-.13,2.31,2.31,0,0,0,.57-.36,1.85,1.85,0,0,0,.37-.51,2.29,2.29,0,0,0,.18-.6Z"
      />
      <path
       class="cls-3"
       d="M349.7,102.5h2.09V98.28h-1.88v-.87h2.81v5.09h1.95v.86h-5Zm1.7-6.86a.84.84,0,0,1,.84-.84.82.82,0,0,1,.84.84.81.81,0,0,1-.24.59.84.84,0,0,1-.6.25.82.82,0,0,1-.59-.25A.78.78,0,0,1,351.4,95.64Z"
      />
      <path
       class="cls-3"
       d="M362.47,101.25a3.4,3.4,0,0,1-.33.91,2.57,2.57,0,0,1-1.44,1.2,3,3,0,0,1-1.07.17,3.57,3.57,0,0,1-1.18-.2,2.83,2.83,0,0,1-1-.6,2.6,2.6,0,0,1-.67-1,3.31,3.31,0,0,1-.25-1.3v-.14a3.38,3.38,0,0,1,.25-1.3,2.76,2.76,0,0,1,.67-1,2.86,2.86,0,0,1,1-.61,3.34,3.34,0,0,1,1.18-.22,3.21,3.21,0,0,1,1.05.17,2.64,2.64,0,0,1,.85.48,2.42,2.42,0,0,1,.59.72,2.67,2.67,0,0,1,.32.91l-.93.22a2.24,2.24,0,0,0-.18-.61,1.67,1.67,0,0,0-.37-.51,1.73,1.73,0,0,0-.57-.36,2.27,2.27,0,0,0-.78-.13,2,2,0,0,0-1.48.62,2,2,0,0,0-.44.7,2.35,2.35,0,0,0-.17.89v.14a2.38,2.38,0,0,0,.17.91,1.86,1.86,0,0,0,.44.68,2.16,2.16,0,0,0,.68.42,2.21,2.21,0,0,0,.82.15,1.81,1.81,0,0,0,1.34-.49,1.89,1.89,0,0,0,.38-.51,2.29,2.29,0,0,0,.18-.6Z"
      />
      <path
       class="cls-3"
       d="M364.24,102.5h2.16V95.83h-2.08V95h3v7.54h2.16v.86h-5.26Z"
      />
      <path
       class="cls-3"
       d="M377.2,100.46a3.33,3.33,0,0,1-.24,1.31,3,3,0,0,1-.66,1,2.84,2.84,0,0,1-.95.6,3.32,3.32,0,0,1-2.27,0,2.84,2.84,0,0,1-.95-.6,3,3,0,0,1-.66-1,3.33,3.33,0,0,1-.24-1.31v-.14a3.36,3.36,0,0,1,.24-1.31,3,3,0,0,1,.66-1,2.68,2.68,0,0,1,1-.6,3.12,3.12,0,0,1,2.25,0,2.68,2.68,0,0,1,1,.6,3,3,0,0,1,.66,1,3.36,3.36,0,0,1,.24,1.31Zm-3,2.18a2.06,2.06,0,0,0,.79-.15,1.76,1.76,0,0,0,.64-.43,2.26,2.26,0,0,0,.44-.69,2.59,2.59,0,0,0,.15-.91v-.14a2.56,2.56,0,0,0-.15-.89,2.26,2.26,0,0,0-.44-.69,2,2,0,0,0-.64-.45,2.1,2.1,0,0,0-.79-.16,2.15,2.15,0,0,0-.8.16,2.06,2.06,0,0,0-.64.45,2.26,2.26,0,0,0-.44.69,2.56,2.56,0,0,0-.15.89v.14a2.59,2.59,0,0,0,.15.91,2.26,2.26,0,0,0,.44.69,1.76,1.76,0,0,0,.64.43A2.07,2.07,0,0,0,374.22,102.64Z"
      />
      <path
       class="cls-3"
       d="M281.12,116.85H281a1.62,1.62,0,0,1-.37.48,2.21,2.21,0,0,1-.48.34,2.39,2.39,0,0,1-.55.2,2.64,2.64,0,0,1-.55.06,3.08,3.08,0,0,1-1.11-.2,2.65,2.65,0,0,1-.91-.59,2.73,2.73,0,0,1-.61-1,3.56,3.56,0,0,1-.22-1.31v-.19a3.49,3.49,0,0,1,.22-1.29,2.94,2.94,0,0,1,.62-1,2.39,2.39,0,0,1,.9-.59,2.82,2.82,0,0,1,1.09-.21,2.35,2.35,0,0,1,1.14.28,1.8,1.8,0,0,1,.83.83h.14v-3.39h.94v8.4h-.94Zm-2,.19a2,2,0,0,0,.78-.15,1.74,1.74,0,0,0,.63-.45,2,2,0,0,0,.42-.69,2.28,2.28,0,0,0,.16-.89v-.14a2.35,2.35,0,0,0-.16-.89,2.2,2.2,0,0,0-.42-.69,2,2,0,0,0-.64-.45,2,2,0,0,0-.77-.16,1.92,1.92,0,0,0-.79.16,2,2,0,0,0-.64.44,2.36,2.36,0,0,0-.42.69,2.65,2.65,0,0,0-.14.87v.19a2.74,2.74,0,0,0,.14.9,2.3,2.3,0,0,0,.42.68,2,2,0,0,0,.64.43A1.83,1.83,0,0,0,279.13,117Z"
      />
      <path
       class="cls-3"
       d="M284.54,115.08a2.09,2.09,0,0,0,.55,1.42,1.9,1.9,0,0,0,1.44.54,2.65,2.65,0,0,0,.73-.09,1.71,1.71,0,0,0,.54-.27,1.48,1.48,0,0,0,.36-.39,2.26,2.26,0,0,0,.22-.47l.89.24a2.67,2.67,0,0,1-.93,1.35,3.38,3.38,0,0,1-3,.3,2.6,2.6,0,0,1-.92-.63,2.83,2.83,0,0,1-.6-1,3.35,3.35,0,0,1-.22-1.25v-.29a3.19,3.19,0,0,1,.22-1.16,2.79,2.79,0,0,1,1.55-1.54,3,3,0,0,1,1.16-.23,2.67,2.67,0,0,1,1.27.28,2.78,2.78,0,0,1,.87.66,2.61,2.61,0,0,1,.51.86,2.93,2.93,0,0,1,.16.87v.77Zm2-2.55a2,2,0,0,0-.74.13,1.89,1.89,0,0,0-.6.35,2,2,0,0,0-.42.54,1.83,1.83,0,0,0-.21.66h3.84a1.69,1.69,0,0,0-.6-1.22,1.93,1.93,0,0,0-.59-.34A2,2,0,0,0,286.53,112.53Z"
      />
      <path
       class="cls-3"
       d="M302.08,117.76h-1.85l-2.07-6h1.1l1.83,5.52h.14l1.83-5.52h1.1Z"
      />
      <path
       class="cls-3"
       d="M306,116.9h2.09v-4.22h-1.87v-.87h2.81v5.09H311v.86h-5Zm1.7-6.86a.84.84,0,0,1,.25-.6.82.82,0,0,1,.59-.24.81.81,0,0,1,.6.24.83.83,0,0,1,.24.6.81.81,0,0,1-.24.59.82.82,0,0,1-.6.25.83.83,0,0,1-.59-.25A.82.82,0,0,1,307.73,110Z"
      />
      <path
       class="cls-3"
       d="M317.84,116.85h-.15a1.44,1.44,0,0,1-.36.48,2.21,2.21,0,0,1-.48.34,2.58,2.58,0,0,1-.55.2,2.64,2.64,0,0,1-.55.06,3.08,3.08,0,0,1-1.11-.2,2.65,2.65,0,0,1-.91-.59,2.73,2.73,0,0,1-.61-1,3.56,3.56,0,0,1-.22-1.31v-.19a3.49,3.49,0,0,1,.22-1.29,3.1,3.1,0,0,1,.61-1,2.51,2.51,0,0,1,.91-.59,2.82,2.82,0,0,1,1.09-.21,2.35,2.35,0,0,1,1.14.28,1.74,1.74,0,0,1,.82.83h.15v-3.39h.94v8.4h-.94Zm-2,.19a2,2,0,0,0,.78-.15,1.74,1.74,0,0,0,.63-.45,2,2,0,0,0,.42-.69,2.28,2.28,0,0,0,.16-.89v-.14a2.35,2.35,0,0,0-.16-.89,2.2,2.2,0,0,0-.42-.69,2.06,2.06,0,0,0-.64-.45,2,2,0,0,0-.77-.16,1.92,1.92,0,0,0-.79.16,2,2,0,0,0-.64.44,2.16,2.16,0,0,0-.42.69,2.41,2.41,0,0,0-.14.87v.19a2.5,2.5,0,0,0,.14.9,2.11,2.11,0,0,0,.42.68,2,2,0,0,0,.64.43A1.83,1.83,0,0,0,315.85,117Z"
      />
      <path
       class="cls-3"
       d="M324.9,116.76h-.15a1.91,1.91,0,0,1-.8.88,2.05,2.05,0,0,1-1.07.29,2.78,2.78,0,0,1-1.09-.2,2.49,2.49,0,0,1-.89-.58,2.73,2.73,0,0,1-.59-1,3.71,3.71,0,0,1-.21-1.31v-.19a3.67,3.67,0,0,1,.21-1.29,2.73,2.73,0,0,1,.59-1,2.52,2.52,0,0,1,.89-.59,2.72,2.72,0,0,1,1.07-.21,2.23,2.23,0,0,1,1.11.28,1.8,1.8,0,0,1,.78.83h.15v-.94h.93v4.73c0,.24.11.36.32.36h.3v.86h-.63a.88.88,0,0,1-.67-.26.91.91,0,0,1-.25-.67ZM323,117a2,2,0,0,0,.77-.15,1.67,1.67,0,0,0,.61-.45,2.3,2.3,0,0,0,.39-.69,2.48,2.48,0,0,0,.15-.89v-.14a2.56,2.56,0,0,0-.15-.89,2.36,2.36,0,0,0-.4-.69,1.81,1.81,0,0,0-1.37-.61,1.74,1.74,0,0,0-.77.16,1.76,1.76,0,0,0-.61.44,2,2,0,0,0-.4.68,2.5,2.5,0,0,0-.14.88v.19a2.22,2.22,0,0,0,.53,1.59A1.81,1.81,0,0,0,323,117Z"
      />
      <path
       class="cls-3"
       d="M339.87,116.85h-.14a1.62,1.62,0,0,1-.37.48,2.21,2.21,0,0,1-.48.34,2.49,2.49,0,0,1-.54.2,2.81,2.81,0,0,1-.56.06,3.08,3.08,0,0,1-1.11-.2,2.65,2.65,0,0,1-.91-.59,2.73,2.73,0,0,1-.61-1,3.56,3.56,0,0,1-.22-1.31v-.19a3.49,3.49,0,0,1,.22-1.29,2.94,2.94,0,0,1,.62-1,2.39,2.39,0,0,1,.9-.59,2.82,2.82,0,0,1,1.09-.21,2.35,2.35,0,0,1,1.14.28,1.8,1.8,0,0,1,.83.83h.14v-3.39h.94v8.4h-.94Zm-2,.19a2,2,0,0,0,.78-.15,1.74,1.74,0,0,0,.63-.45,2.18,2.18,0,0,0,.43-.69,2.48,2.48,0,0,0,.15-.89v-.14a2.56,2.56,0,0,0-.15-.89,2.43,2.43,0,0,0-.43-.69,2,2,0,0,0-.64-.45,2,2,0,0,0-.77-.16,1.92,1.92,0,0,0-.79.16,1.84,1.84,0,0,0-.63.44,2,2,0,0,0-.42.69,2.41,2.41,0,0,0-.15.87v.19a2.5,2.5,0,0,0,.15.9,2,2,0,0,0,.42.68,1.81,1.81,0,0,0,.63.43A1.86,1.86,0,0,0,337.88,117Z"
      />
      <path
       class="cls-3"
       d="M346.93,116.76h-.15a1.91,1.91,0,0,1-.8.88,2,2,0,0,1-1.07.29,2.78,2.78,0,0,1-1.09-.2,2.37,2.37,0,0,1-.88-.58,2.9,2.9,0,0,1-.6-1,3.71,3.71,0,0,1-.21-1.31v-.19a3.67,3.67,0,0,1,.21-1.29,2.9,2.9,0,0,1,.6-1,2.4,2.4,0,0,1,.88-.59,2.72,2.72,0,0,1,1.07-.21,2.23,2.23,0,0,1,1.11.28,1.8,1.8,0,0,1,.78.83h.15v-.94h.93v4.73q0,.36.33.36h.3v.86h-.64a.86.86,0,0,1-.66-.26.88.88,0,0,1-.26-.67ZM345,117a2,2,0,0,0,.77-.15,1.59,1.59,0,0,0,.61-.45,1.94,1.94,0,0,0,.39-.69,2.48,2.48,0,0,0,.15-.89v-.14a2.56,2.56,0,0,0-.15-.89,2.15,2.15,0,0,0-.4-.69,1.81,1.81,0,0,0-1.37-.61,1.85,1.85,0,0,0-1.38.6,2,2,0,0,0-.4.68,2.5,2.5,0,0,0-.14.88v.19a2.26,2.26,0,0,0,.53,1.59A1.82,1.82,0,0,0,345,117Z"
      />
      <path
       class="cls-3"
       d="M362.86,115.65a2.75,2.75,0,0,1-.33.91,2.51,2.51,0,0,1-1.43,1.2,3,3,0,0,1-1.07.17,3.52,3.52,0,0,1-1.18-.2,3,3,0,0,1-1-.6,2.7,2.7,0,0,1-.66-.95,3.14,3.14,0,0,1-.25-1.3v-.14a3.21,3.21,0,0,1,.25-1.3,2.88,2.88,0,0,1,.66-1,3,3,0,0,1,1-.61,3.3,3.3,0,0,1,1.18-.22,3.21,3.21,0,0,1,1.05.17,2.49,2.49,0,0,1,.84.48,2.46,2.46,0,0,1,.6.72,2.9,2.9,0,0,1,.32.91l-.94.22a1.92,1.92,0,0,0-.17-.61,1.85,1.85,0,0,0-.37-.51,1.65,1.65,0,0,0-.57-.35,2.13,2.13,0,0,0-.78-.14,2.17,2.17,0,0,0-.81.16,2.1,2.1,0,0,0-.67.46,2.21,2.21,0,0,0-.45.7,2.35,2.35,0,0,0-.16.89v.14a2.38,2.38,0,0,0,.16.91,1.92,1.92,0,0,0,.45.68,2.11,2.11,0,0,0,.67.42,2.39,2.39,0,0,0,1.61,0,2.25,2.25,0,0,0,.56-.36,1.67,1.67,0,0,0,.37-.51,2.32,2.32,0,0,0,.19-.6Z"
      />
      <path
       class="cls-3"
       d="M369,116.76h-.14a2,2,0,0,1-.8.88,2.09,2.09,0,0,1-1.08.29,2.82,2.82,0,0,1-1.09-.2,2.46,2.46,0,0,1-.88-.58,2.9,2.9,0,0,1-.6-1,3.71,3.71,0,0,1-.21-1.31v-.19a3.67,3.67,0,0,1,.21-1.29,2.9,2.9,0,0,1,.6-1,2.48,2.48,0,0,1,.88-.59,2.76,2.76,0,0,1,1.07-.21,2.18,2.18,0,0,1,1.11.28,1.87,1.87,0,0,1,.79.83H369v-.94h.94v4.73c0,.24.1.36.32.36h.3v.86h-.64a.86.86,0,0,1-.66-.26.88.88,0,0,1-.26-.67ZM367,117a1.92,1.92,0,0,0,.77-.15,1.59,1.59,0,0,0,.61-.45,2.12,2.12,0,0,0,.4-.69,2.72,2.72,0,0,0,.14-.89v-.14a2.81,2.81,0,0,0-.14-.89,2.38,2.38,0,0,0-.41-.69,1.83,1.83,0,0,0-.61-.45,1.91,1.91,0,0,0-.76-.16,1.77,1.77,0,0,0-.77.16,1.86,1.86,0,0,0-.61.44,2,2,0,0,0-.4.68,2.75,2.75,0,0,0-.14.88v.19a2.26,2.26,0,0,0,.53,1.59A1.82,1.82,0,0,0,367,117Z"
      />
      <path
       class="cls-3"
       d="M373.22,113.35a.73.73,0,0,0,.36.66,3.34,3.34,0,0,0,1.34.3,2.91,2.91,0,0,1,1.59.5,1.39,1.39,0,0,1,.55,1.2v.07a1.66,1.66,0,0,1-.18.78,1.58,1.58,0,0,1-.48.58,2.23,2.23,0,0,1-.74.37,3.58,3.58,0,0,1-1,.12,3.53,3.53,0,0,1-1.2-.18,2.37,2.37,0,0,1-.82-.5,1.85,1.85,0,0,1-.5-.69,2.25,2.25,0,0,1-.2-.79l.89-.21a1.58,1.58,0,0,0,.53,1.09,1.8,1.8,0,0,0,1.25.42,2,2,0,0,0,1.06-.26.81.81,0,0,0,.4-.73.77.77,0,0,0-.39-.72,3.48,3.48,0,0,0-1.29-.27,3,3,0,0,1-1.58-.48,1.38,1.38,0,0,1-.55-1.19v-.07a1.47,1.47,0,0,1,.18-.74,1.62,1.62,0,0,1,.48-.53,2.2,2.2,0,0,1,.69-.33,3.1,3.1,0,0,1,.81-.11,3,3,0,0,1,1,.17,2.31,2.31,0,0,1,.74.42,1.72,1.72,0,0,1,.46.59,2.17,2.17,0,0,1,.21.67l-.88.22a1.28,1.28,0,0,0-.46-.9,1.61,1.61,0,0,0-1.05-.33,2,2,0,0,0-.49.06,1.31,1.31,0,0,0-.42.16.81.81,0,0,0-.28.27A.63.63,0,0,0,373.22,113.35Z"
      />
      <path
       class="cls-3"
       d="M383.65,116.76h-.15a1.91,1.91,0,0,1-.8.88,2.05,2.05,0,0,1-1.07.29,2.78,2.78,0,0,1-1.09-.2,2.37,2.37,0,0,1-.88-.58,2.75,2.75,0,0,1-.6-1,3.71,3.71,0,0,1-.21-1.31v-.19a3.67,3.67,0,0,1,.21-1.29,2.75,2.75,0,0,1,.6-1,2.4,2.4,0,0,1,.88-.59,2.72,2.72,0,0,1,1.07-.21,2.18,2.18,0,0,1,1.11.28,1.8,1.8,0,0,1,.78.83h.15v-.94h.93v4.73q0,.36.33.36h.3v.86h-.64a.9.9,0,0,1-.67-.26.91.91,0,0,1-.25-.67Zm-1.92.28a1.92,1.92,0,0,0,.77-.15,1.59,1.59,0,0,0,.61-.45,1.94,1.94,0,0,0,.39-.69,2.48,2.48,0,0,0,.15-.89v-.14a2.56,2.56,0,0,0-.15-.89,2.15,2.15,0,0,0-.4-.69,1.83,1.83,0,0,0-.61-.45,2,2,0,0,0-.76-.16,1.77,1.77,0,0,0-.77.16,1.86,1.86,0,0,0-.61.44,2,2,0,0,0-.4.68,2.75,2.75,0,0,0-.14.88v.19a2.22,2.22,0,0,0,.53,1.59A1.82,1.82,0,0,0,381.73,117Z"
      />
     </g>
    </g>
    <g id="lado">
     <polygon
      class="cls-1"
      points="168.17 237.3 168.17 112.9 251.17 112.9 251.17 236.9 168.17 237.3"
     />
     <polygon
      class="cls-1"
      points="260.8 237.06 260.8 149.3 343.8 149.3 343.97 236.72 260.8 237.06"
     />
    </g>
    <g id="linha">
     <line
      id="linha1"
      class="cls-1"
      x1="149.45"
      y1="149.3"
      x2="156.12"
      y2="149.3"
     />
     <line
      id="linha2"
      class="cls-1"
      x1="148.36"
      y1="112.9"
      x2="156.12"
      y2="112.9"
     />
    </g>
    <polygon
     id="plantaPO"
     class="cls-1"
     points="106.81 204.77 84.64 182.6 84.64 147.06 108.38 123.31 132.16 147.09 132.16 183.78 110.55 204.77 106.81 204.77"
    />
    <g id="arvore">
     <polygon
      class="cls-1"
      points="435.56 229 435.56 238.64 440.01 238.64 440.01 228.74 435.56 229"
     />
     <polyline
      class="cls-1"
      points="433.07 155.13 427.8 158.46 425.09 160.96 424.15 160.07 430.1 150.95 427.8 150.12 421.71 160.07 418.87 160.96 411.43 160.07 415.08 154.96 419.68 150.12 421.44 146.12 430.5 145.15 436.18 139.28 434.42 137.27 429.56 143.28 421.04 143.78 426.31 138.28 431.04 133.94 429.28 131.77 425.97 135.86 421.04 138.78 417.65 146.78 413.19 153.46 412.11 141.94 417.38 123.43 415.08 123.43 411.3 138.78 410.15 124.53 411.7 118.92 409 117.92 407.85 124.09 409.27 143.28 408.73 145.95 405.89 140.11 404.13 129.43 402.51 129.43 402.51 140.78 406.84 149.29 407.24 157.78 401.83 155.13 396.42 145.15 396.42 129.93 394.53 131.1 394.53 143.28 385.06 135.44 384.12 137.94 394.26 145.15 396.69 151.29 389.39 153.29 384.12 149.79 384.12 153.12 389.7 155.9 397.64 153.62 400.89 156.96 406.16 161.13 407.11 164.8 405.89 202.34 411.3 202.34 409.68 175.98 410.22 163.97 418.36 163.03 424.33 164.13 427.39 162.91 430.91 164.97 430.91 164.97 431.85 163.47 431.85 163.47 428.74 160.96 432.94 157.78"
     />
     <polygon
      class="cls-1"
      points="106.81 233.69 106.81 199.25 97.06 189.82 98.47 187.46 107.42 195.4 106.91 184.98 91.42 178.4 92.43 175.3 101.28 179.15 95.95 173.94 97.66 172.45 105.51 181.01 108.72 181.63 105.81 166 93.03 155.33 94.24 151.48 103.8 161.03 100.07 152.22 102.59 151.48 107.22 163.76 105.2 147.88 107.11 147.88 110.43 176.17 112.55 171.46 111.84 151.73 115.16 151.23 114.66 170.34 124.51 159.05 125.82 162.89 119.99 168.35 125.82 169.22 125.32 171.33 119.18 169.97 116.77 171.46 122.3 173.69 121.3 176.17 114.56 174.31 111.26 183.45 111.24 190.78 114.66 186.97 120.19 180.14 122 183.12 110.33 196.64 111.24 233.69 106.81 233.69"
     />
    </g>
    <g id="plantaV">
     <polygon
      class="cls-1"
      points="84.14 144.65 103.45 123.29 114.13 123.41 131.93 144.25 131.93 187.66 111.05 204.4 106.4 204.44 84.14 187.35 84.14 144.65"
     />
     <polygon
      class="cls-1"
      points="400.26 107.36 414.95 107.36 437.82 129.89 442.64 145.03 437.72 160.3 419.52 178.84 394.36 178.84 378.02 160.01 372.57 144.8 378.05 129.47 400.26 107.36"
     />
    </g>
    <g id="plantas">
     <polygon
      class="cls-1"
      points="436.85 154.08 431.31 161.24 425.7 179.88 423.9 198.04 425.67 216.91 435.56 229.3 440.01 229.04 449.84 216.92 451.84 198.14 449.91 179.99 442.35 161.25 436.85 154.08"
     />
    </g>
    <polygon
     id="nfrente"
     class="cls-1"
     points="168.17 237.3 168.17 204.44 251.17 204.44 251.17 236.9 168.17 237.3"
    />
    <polyline
     id="nlado"
     class="cls-1"
     points="251.17 236.9 260.8 227.12 260.8 193.18 251.17 204.44"
    />
    <polygon
     id="frente"
     class="cls-1"
     points="260.88 237.3 260.88 175.1 343.8 175.04 343.89 236.59 260.88 237.3"
    />
    <polyline
     id="lado-2"
     class="cls-1"
     points="343.97 236.72 364.31 216.13 364.26 154.83 343.8 175.04"
    />
	</g>
</svg>