<svg class="img_svg"
	xmlns="http://www.w3.org/2000/svg" viewBox="0 0 554.47 265.86">
	
		<g id="m513">
		
			<rect id="chao" class="cls-2" y="184.29" width="554.47" height="81.57"/>
<polygon
     id="nlado"
     class="cls-1"
     points="271.63 216.13 271.63 92.13 251.17 112.9 251.17 236.9 271.63 216.13"
    />
    <polygon
     id="lado"
     class="cls-1"
     points="364.31 216.13 364.26 128.52 343.8 149.3 343.97 236.72 364.31 216.13"
    />
    <g id="escuro">
     <polygon
      class="cls-1"
      points="168.17 112.9 251.17 112.9 271.63 92.13 188.1 93.15 168.17 112.9"
     />
     <polygon
      class="cls-1"
      points="260.8 149.3 343.8 149.3 364.26 128.52 280.58 129.41 260.8 149.3"
     />
    </g>
    <g id="tabela">
     <line class="cls-1" x1="148.56" y1="81.5" x2="148.56" y2="236.8" />
     <g id="textC" class="cls-2">
      <path
       class="cls-3"
       d="M281.81,101.42a3.4,3.4,0,0,1-.33.91,2.82,2.82,0,0,1-.6.73,2.65,2.65,0,0,1-.84.47,3.25,3.25,0,0,1-1.07.17,3.61,3.61,0,0,1-1.18-.2,2.88,2.88,0,0,1-1.64-1.55,3.31,3.31,0,0,1-.25-1.3v-.14a3.38,3.38,0,0,1,.25-1.3,2.81,2.81,0,0,1,.67-1,2.86,2.86,0,0,1,1-.61,3.17,3.17,0,0,1,1.18-.22,3.21,3.21,0,0,1,1,.17,2.81,2.81,0,0,1,.85.47,2.8,2.8,0,0,1,.91,1.64l-.93.22a2.24,2.24,0,0,0-.18-.61,1.55,1.55,0,0,0-.37-.51,1.64,1.64,0,0,0-.57-.36,2.06,2.06,0,0,0-.78-.13,2,2,0,0,0-.81.16,2.17,2.17,0,0,0-.67.46,1.94,1.94,0,0,0-.44.7,2.35,2.35,0,0,0-.17.89v.14a2.38,2.38,0,0,0,.17.91,1.86,1.86,0,0,0,.44.68,2.16,2.16,0,0,0,.68.42,2.21,2.21,0,0,0,.82.15,1.87,1.87,0,0,0,.78-.14,1.69,1.69,0,0,0,.56-.36,1.62,1.62,0,0,0,.38-.51,2.08,2.08,0,0,0,.18-.6Z"
      />
      <path
       class="cls-3"
       d="M287.83,97.58h.94v6h-.94v-1.08h-.14a2.37,2.37,0,0,1-.76.91,2,2,0,0,1-1.19.34,2.4,2.4,0,0,1-.9-.16,1.85,1.85,0,0,1-.71-.49,2.16,2.16,0,0,1-.46-.8,3.44,3.44,0,0,1-.16-1.12V97.58h.94V101a2,2,0,0,0,.38,1.37,1.5,1.5,0,0,0,1.18.43,1.62,1.62,0,0,0,1.33-.58,2.32,2.32,0,0,0,.49-1.55Z"
      />
      <path
       class="cls-3"
       d="M292.16,99.12a.76.76,0,0,0,.37.66,3.25,3.25,0,0,0,1.34.3,3.05,3.05,0,0,1,1.59.49,1.44,1.44,0,0,1,.54,1.21v.07a1.66,1.66,0,0,1-.17.78,1.91,1.91,0,0,1-.48.58,2,2,0,0,1-.74.36,3.72,3.72,0,0,1-2.15-.06,2.26,2.26,0,0,1-.83-.49,2,2,0,0,1-.5-.69,2.53,2.53,0,0,1-.19-.79l.89-.22a1.55,1.55,0,0,0,.53,1.1,1.77,1.77,0,0,0,1.24.42,2,2,0,0,0,1.07-.26.84.84,0,0,0,.4-.73.78.78,0,0,0-.4-.72,3.37,3.37,0,0,0-1.28-.27,3.06,3.06,0,0,1-1.59-.48,1.39,1.39,0,0,1-.55-1.19v-.07a1.47,1.47,0,0,1,.18-.74,1.68,1.68,0,0,1,.49-.54,2.19,2.19,0,0,1,.69-.32,3,3,0,0,1,.8-.11,3.18,3.18,0,0,1,1,.16,2.45,2.45,0,0,1,.75.42,1.89,1.89,0,0,1,.46.6,2.17,2.17,0,0,1,.21.67l-.89.22a1.24,1.24,0,0,0-.46-.9,1.61,1.61,0,0,0-1.05-.33,2,2,0,0,0-.49.06,1.35,1.35,0,0,0-.41.16.84.84,0,0,0-.29.27A.68.68,0,0,0,292.16,99.12Z"
      />
      <path
       class="cls-3"
       d="M298.07,97.58h1.87V95.13h.93v2.45h2.31v.86h-2.31v3.87q0,.36.33.36h1.69v.86h-2a.9.9,0,0,1-.66-.26.94.94,0,0,1-.26-.67V98.44h-1.87Z"
      />
      <path
       class="cls-3"
       d="M311.23,100.63a3.36,3.36,0,0,1-.24,1.31,3,3,0,0,1-.66,1,2.84,2.84,0,0,1-.95.6,3.42,3.42,0,0,1-1.14.2,3.33,3.33,0,0,1-1.14-.2,2.8,2.8,0,0,1-.94-.6,2.88,2.88,0,0,1-.66-1,3.36,3.36,0,0,1-.25-1.31v-.15a3.35,3.35,0,0,1,.25-1.3,2.88,2.88,0,0,1,.66-1,2.6,2.6,0,0,1,1-.6,3,3,0,0,1,1.12-.21,3.1,3.1,0,0,1,1.13.21,2.68,2.68,0,0,1,1,.6,3,3,0,0,1,.66,1,3.35,3.35,0,0,1,.24,1.3Zm-3,2.18a2.07,2.07,0,0,0,.8-.15,1.67,1.67,0,0,0,.64-.44,2,2,0,0,0,.44-.69,2.54,2.54,0,0,0,.15-.9v-.15a2.5,2.5,0,0,0-.15-.88A2.06,2.06,0,0,0,309,98.46a2,2,0,0,0-.8-.16,1.92,1.92,0,0,0-.79.16,2.1,2.1,0,0,0-.65.45,2,2,0,0,0-.43.69,2.5,2.5,0,0,0-.16.88v.15a2.53,2.53,0,0,0,.16.9,2,2,0,0,0,.43.69,1.79,1.79,0,0,0,.65.44A2.06,2.06,0,0,0,308.24,102.81Z"
      />
      <path
       class="cls-3"
       d="M314.19,99.12a.76.76,0,0,0,.37.66,3.25,3.25,0,0,0,1.34.3,3.05,3.05,0,0,1,1.59.49,1.44,1.44,0,0,1,.55,1.21v.07a1.66,1.66,0,0,1-.18.78,1.78,1.78,0,0,1-.48.58,2,2,0,0,1-.74.36,3.72,3.72,0,0,1-2.15-.06,2.34,2.34,0,0,1-.83-.49,2,2,0,0,1-.5-.69,2.53,2.53,0,0,1-.19-.79l.89-.22a1.59,1.59,0,0,0,.53,1.1,1.77,1.77,0,0,0,1.24.42,2,2,0,0,0,1.07-.26.84.84,0,0,0,.4-.73.76.76,0,0,0-.4-.72,3.37,3.37,0,0,0-1.28-.27,3.06,3.06,0,0,1-1.59-.48,1.42,1.42,0,0,1-.55-1.19v-.07a1.47,1.47,0,0,1,.18-.74,1.8,1.8,0,0,1,.49-.54,2.19,2.19,0,0,1,.69-.32,3,3,0,0,1,.8-.11,3.18,3.18,0,0,1,1,.16,2.45,2.45,0,0,1,.75.42,1.89,1.89,0,0,1,.46.6,2.17,2.17,0,0,1,.21.67l-.89.22a1.24,1.24,0,0,0-.46-.9,1.61,1.61,0,0,0-1.05-.33,2,2,0,0,0-.49.06,1.35,1.35,0,0,0-.41.16.84.84,0,0,0-.29.27A.68.68,0,0,0,314.19,99.12Z"
      />
      <path
       class="cls-3"
       d="M327.79,102.67h2.09V98.44H328v-.86h2.81v5.09h1.94v.86h-5Zm1.71-6.87a.81.81,0,0,1,.24-.59.83.83,0,0,1,.59-.25.82.82,0,0,1,.6.25.81.81,0,0,1,.24.59.83.83,0,0,1-.24.6.81.81,0,0,1-.6.24.82.82,0,0,1-.83-.84Z"
      />
      <path
       class="cls-3"
       d="M335.93,103.53H335v-6h.94v1h.14A2,2,0,0,1,338,97.41a2.17,2.17,0,0,1,1.64.64,2.7,2.7,0,0,1,.62,1.93v3.55h-.94v-3.36a2,2,0,0,0-.42-1.4,1.46,1.46,0,0,0-1.14-.47,1.65,1.65,0,0,0-1.34.58,2.38,2.38,0,0,0-.48,1.56Z"
      />
      <path
       class="cls-3"
       d="M342.48,102.67h2.09V98.44h-1.88v-.86h2.81v5.09h1.95v.86h-5Zm1.7-6.87a.78.78,0,0,1,.25-.59A.82.82,0,0,1,345,95a.86.86,0,0,1,.6.25.81.81,0,0,1,.24.59.83.83,0,0,1-.24.6.85.85,0,0,1-.6.24.84.84,0,0,1-.84-.84Z"
      />
      <path
       class="cls-3"
       d="M355.25,101.42a3.4,3.4,0,0,1-.33.91,2.82,2.82,0,0,1-.6.73,2.65,2.65,0,0,1-.84.47,3.23,3.23,0,0,1-1.06.17,3.62,3.62,0,0,1-1.19-.2,3.08,3.08,0,0,1-1-.6,2.79,2.79,0,0,1-.66-1,3.14,3.14,0,0,1-.25-1.3v-.14a3.21,3.21,0,0,1,.25-1.3,2.78,2.78,0,0,1,.66-1,3.11,3.11,0,0,1,1-.61,3.3,3.3,0,0,1,2.23,0,2.64,2.64,0,0,1,1.45,1.2,2.8,2.8,0,0,1,.31.91l-.93.22a1.94,1.94,0,0,0-.18-.61,1.55,1.55,0,0,0-.37-.51,1.85,1.85,0,0,0-.57-.36,2.06,2.06,0,0,0-.78-.13,2,2,0,0,0-.81.16,2,2,0,0,0-.66.46,2,2,0,0,0-.46.7,2.56,2.56,0,0,0-.16.89v.14a2.59,2.59,0,0,0,.16.91,1.9,1.9,0,0,0,.46.68,2,2,0,0,0,.67.42,2.23,2.23,0,0,0,.83.15,1.86,1.86,0,0,0,.77-.14,1.69,1.69,0,0,0,.56-.36,1.46,1.46,0,0,0,.37-.51,1.83,1.83,0,0,0,.19-.6Z"
      />
      <path
       class="cls-3"
       d="M357.17,102.67h2.08V98.44h-1.87v-.86h2.81v5.09h1.94v.86h-5Zm1.7-6.87a.78.78,0,0,1,.25-.59.82.82,0,0,1,.59-.25.86.86,0,0,1,.6.25.81.81,0,0,1,.24.59.83.83,0,0,1-.24.6.85.85,0,0,1-.6.24.84.84,0,0,1-.84-.84Z"
      />
      <path
       class="cls-3"
       d="M368.69,102.52h-.15a2,2,0,0,1-.79.89,2.19,2.19,0,0,1-1.08.29,3,3,0,0,1-1.09-.2,2.4,2.4,0,0,1-.88-.59,2.86,2.86,0,0,1-.6-1,3.75,3.75,0,0,1-.21-1.31v-.19a3.73,3.73,0,0,1,.21-1.3,3,3,0,0,1,.6-1,2.4,2.4,0,0,1,.88-.59,2.76,2.76,0,0,1,1.07-.21,2.34,2.34,0,0,1,1.11.27,1.88,1.88,0,0,1,.78.84h.15v-.94h.93v4.73q0,.36.33.36h.3v.86h-.64a.89.89,0,0,1-.92-.93Zm-1.92.29a2,2,0,0,0,.77-.15,1.83,1.83,0,0,0,.61-.45,1.94,1.94,0,0,0,.39-.69,2.52,2.52,0,0,0,.15-.89v-.15a2.5,2.5,0,0,0-.15-.88,2,2,0,0,0-.4-.69,1.93,1.93,0,0,0-.61-.45,1.91,1.91,0,0,0-1.53,0,1.88,1.88,0,0,0-.61.43,2.12,2.12,0,0,0-.4.69,2.5,2.5,0,0,0-.14.88v.19a2.26,2.26,0,0,0,.53,1.59A1.82,1.82,0,0,0,366.77,102.81Z"
      />
      <path
       class="cls-3"
       d="M371.85,102.67h2.09V98.44h-1.87v-.86h2.81v5.09h1.94v.86h-5Zm1.71-6.87a.81.81,0,0,1,.24-.59.86.86,0,0,1,.6-.25.82.82,0,0,1,.59.25.78.78,0,0,1,.25.59.84.84,0,0,1-.84.84.85.85,0,0,1-.6-.24A.83.83,0,0,1,373.56,95.8Z"
      />
      <path
       class="cls-3"
       d="M380.29,99.12a.74.74,0,0,0,.37.66,3.25,3.25,0,0,0,1.34.3,3,3,0,0,1,1.58.49,1.42,1.42,0,0,1,.55,1.21v.07a1.79,1.79,0,0,1-.17.78,1.91,1.91,0,0,1-.48.58,2.09,2.09,0,0,1-.75.36,3.21,3.21,0,0,1-1,.13,3.32,3.32,0,0,1-1.2-.19,2.3,2.3,0,0,1-.82-.49,2,2,0,0,1-.5-.69,2.28,2.28,0,0,1-.19-.79l.89-.22a1.58,1.58,0,0,0,.52,1.1,1.8,1.8,0,0,0,1.25.42,2,2,0,0,0,1.06-.26.83.83,0,0,0,.41-.73.78.78,0,0,0-.4-.72,3.38,3.38,0,0,0-1.29-.27,3,3,0,0,1-1.58-.48,1.39,1.39,0,0,1-.55-1.19v-.07a1.47,1.47,0,0,1,.18-.74,1.76,1.76,0,0,1,.48-.54,2.35,2.35,0,0,1,.7-.32,3,3,0,0,1,.8-.11,3.18,3.18,0,0,1,1,.16,2.45,2.45,0,0,1,.75.42,2,2,0,0,1,.46.6,2.47,2.47,0,0,1,.21.67l-.89.22a1.24,1.24,0,0,0-.46-.9,1.61,1.61,0,0,0-1.05-.33,2,2,0,0,0-.49.06,1.35,1.35,0,0,0-.41.16.84.84,0,0,0-.29.27A.68.68,0,0,0,380.29,99.12Z"
      />
     </g>
    </g>
    <polygon
     id="nfrente"
     class="cls-1"
     points="168.17 237.3 168.17 112.9 251.17 112.9 251.17 236.9 168.17 237.3"
    />
    <polygon
     id="frente"
     class="cls-1"
     points="260.8 237.06 260.8 149.3 343.8 149.3 343.97 236.72 260.8 237.06"
    />
    <g id="linha">
    	<line id="linha1" class="st0" x1="148.9" y1="175" x2="155.6" y2="175"/>
		<line id="linha2" class="st0" x1="148.4" y1="204.4" x2="156.1" y2="204.4"/>
    </g>
    <polygon
     id="plantaPO"
     class="cls-1"
     points="106.81 204.77 84.64 182.6 84.64 147.06 108.38 123.31 132.16 147.09 132.16 183.78 110.55 204.77 106.81 204.77"
    />
    <g id="arvore">
     <polygon
      class="cls-1"
      points="435.56 229 435.56 238.64 440.01 238.64 440.01 228.74 435.56 229"
     />
     <polyline
      class="cls-1"
      points="433.07 155.13 427.8 158.46 425.09 160.96 424.15 160.07 430.1 150.95 427.8 150.12 421.71 160.07 418.87 160.96 411.43 160.07 415.08 154.96 419.68 150.12 421.44 146.12 430.5 145.15 436.18 139.28 434.42 137.27 429.56 143.28 421.04 143.78 426.31 138.28 431.04 133.94 429.28 131.77 425.97 135.86 421.04 138.78 417.65 146.78 413.19 153.46 412.11 141.94 417.38 123.43 415.08 123.43 411.3 138.78 410.15 124.53 411.7 118.92 409 117.92 407.85 124.09 409.27 143.28 408.73 145.95 405.89 140.11 404.13 129.43 402.51 129.43 402.51 140.78 406.84 149.29 407.24 157.78 401.83 155.13 396.42 145.15 396.42 129.93 394.53 131.1 394.53 143.28 385.06 135.44 384.12 137.94 394.26 145.15 396.69 151.29 389.39 153.29 384.12 149.79 384.12 153.12 389.7 155.9 397.64 153.62 400.89 156.96 406.16 161.13 407.11 164.8 405.89 202.34 411.3 202.34 409.68 175.98 410.22 163.97 418.36 163.03 424.33 164.13 427.39 162.91 430.91 164.97 430.91 164.97 431.85 163.47 431.85 163.47 428.74 160.96 432.94 157.78"
     />
     <polygon
      class="cls-1"
      points="106.81 233.69 106.81 199.25 97.06 189.82 98.47 187.46 107.42 195.4 106.91 184.98 91.42 178.4 92.43 175.3 101.28 179.15 95.95 173.94 97.66 172.45 105.51 181.01 108.72 181.63 105.81 166 93.03 155.33 94.24 151.48 103.8 161.03 100.07 152.22 102.59 151.48 107.22 163.76 105.2 147.88 107.11 147.88 110.43 176.17 112.55 171.46 111.84 151.73 115.16 151.23 114.66 170.34 124.51 159.05 125.82 162.89 119.99 168.35 125.82 169.22 125.32 171.33 119.18 169.97 116.77 171.46 122.3 173.69 121.3 176.17 114.56 174.31 111.26 183.45 111.24 190.78 114.66 186.97 120.19 180.14 122 183.12 110.33 196.64 111.24 233.69 106.81 233.69"
     />
    </g>
    <g id="plantaV">
     <polygon
      class="cls-1"
      points="84.14 144.65 103.45 123.29 114.13 123.41 131.93 144.25 131.93 187.66 111.05 204.4 106.4 204.44 84.14 187.35 84.14 144.65"
     />
     <polygon
      class="cls-1"
      points="400.26 107.36 414.95 107.36 437.82 129.89 442.64 145.03 437.72 160.3 419.52 178.84 394.36 178.84 378.02 160.01 372.57 144.8 378.05 129.47 400.26 107.36"
     />
    </g>
    <g id="plantas">
     <polygon
      class="cls-1"
      points="436.85 154.08 431.31 161.24 425.7 179.88 423.9 198.04 425.67 216.91 435.56 229.3 440.01 229.04 449.84 216.92 451.84 198.14 449.91 179.99 442.35 161.25 436.85 154.08"
     />
    </g>
    <g id="nlado-2">
     <polygon
      class="cls-1"
      points="168.17 237.3 168.17 204.44 251.17 204.44 251.17 236.9 168.17 237.3"
     />
     <polygon
      class="cls-1"
      points="260.88 237.3 260.88 175.1 343.85 175 343.89 236.59 260.88 237.3"
     />
    </g>
    <g id="npiso">
     <polyline
      class="cls-1"
      points="251.17 236.9 260.8 227.12 260.8 193.18 251.17 204.44"
     />
     <polyline
      class="cls-1"
      points="343.97 236.72 364.31 216.13 364.26 155 343.85 175"
     />
    </g>
		</g>
</svg>