<svg class="img_svg"
	xmlns="http://www.w3.org/2000/svg" viewBox="0 0 554.47 265.86">

		<g id="m515">
			<polyline id="linha" class="cls-3" points="0 184.29 167.67 184.29 167.67 173.69 229.7 110.87 271.39 153.06 271.23 184.29"/>
			<rect id="chao" class="cls-2" y="184.29" width="554.47" height="81.57"/>
			
			<g id="nlado">
				<polyline class="cls-4" points="250.67 236.4 271.23 216.15 271.13 153.06 250.32 173.83"/>
			</g>
			<g id="lado">
				<polyline class="cls-4" points="343.47 236.2 364.39 215.49 364.28 152.35 343.47 173.13"/>
			</g>
			<g id="ncima">
				<polygon class="cls-5" points="208.96 131.96 250.58 173.83 271.39 153.06 229.7 110.87 208.96 131.96"/>
			</g>
			<g id="nfrente">
				<polyline class="cls-6" points="250.67 236.4 250.67 173.83 209.05 131.96 167.67 173.69 167.67 236.22"/>
			</g>
			<g id="cima">
				<polygon class="cls-5" points="301.85 131.25 343.47 173.13 364.28 152.35 322.59 110.16 301.85 131.25"/>
			</g>
			<g id="njanela">
				<rect class="cls-7" x="219.28" y="173.62" width="20.61" height="20.61"/>
				<rect class="cls-7" x="177.45" y="194.58" width="20.61" height="41.62"/>
			</g>
			<g id="frente">
				<polyline class="cls-6" points="343.47 236.2 343.47 173.13 301.85 131.25 260.3 173.13 260.78 236.03"/>
			</g>
			<g id="janela">
				<rect class="cls-7" x="313.38" y="173.22" width="20.61" height="20.61"/>
				<rect class="cls-7" x="271.56" y="194.4" width="20.61" height="41.62"/>
			</g>
			
	<polygon id="plantaPO" class="st0" points="106.8,204.9 84.6,182.7 84.6,147.2 108.4,123.4 132.2,147.2 132.2,183.9 
		110.6,204.9 	"/>
	<g id="arvore">
		<polygon class="st0" points="435.6,229.1 435.6,238.8 440,238.8 440,228.9 		"/>
		<polyline class="st0" points="433.1,155.3 427.8,158.6 425.1,161.1 424.1,160.2 430.1,151.1 427.8,150.3 421.7,160.2 418.9,161.1 
			411.4,160.2 415.1,155.1 419.7,150.3 421.4,146.3 430.5,145.3 436.2,139.4 434.4,137.4 429.6,143.4 421,143.9 426.3,138.4 
			431,134.1 429.3,131.9 426,136 421,138.9 417.6,146.9 413.2,153.6 412.1,142.1 417.4,123.6 415.1,123.6 411.3,138.9 410.1,124.7 
			411.7,119.1 409,118.1 407.9,124.2 409.3,143.4 408.7,146.1 405.9,140.2 404.1,129.6 402.5,129.6 402.5,140.9 406.8,149.4 
			407.2,157.9 401.8,155.3 396.4,145.3 396.4,130.1 394.5,131.2 394.5,143.4 385.1,135.6 384.1,138.1 394.3,145.3 396.7,151.4 
			389.4,153.4 384.1,149.9 384.1,153.3 389.7,156 397.6,153.8 400.9,157.1 406.2,161.3 407.1,164.9 405.9,202.5 411.3,202.5 
			409.7,176.1 410.2,164.1 418.4,163.2 424.3,164.3 427.4,163 430.9,165.1 430.9,165.1 431.9,163.6 431.9,163.6 428.7,161.1 
			432.9,157.9 		"/>
		<polygon class="st0" points="106.8,233.8 106.8,199.4 97.1,190 98.5,187.6 107.4,195.5 106.9,185.1 91.4,178.5 92.4,175.4 
			101.3,179.3 95.9,174.1 97.7,172.6 105.5,181.1 108.7,181.8 105.8,166.1 93,155.5 94.2,151.6 103.8,161.2 100.1,152.4 
			102.6,151.6 107.2,163.9 105.2,148 107.1,148 110.4,176.3 112.6,171.6 111.8,151.9 115.2,151.4 114.7,170.5 124.5,159.2 
			125.8,163 120,168.5 125.8,169.4 125.3,171.5 119.2,170.1 116.8,171.6 122.3,173.8 121.3,176.3 114.6,174.4 111.3,183.6 
			111.2,190.9 114.7,187.1 120.2,180.3 122,183.3 110.3,196.8 111.2,233.8 		"/>
	</g>
	<g id="plantaV">
		<polygon class="st0" points="84.1,144.8 103.4,123.4 114.1,123.5 131.9,144.4 131.9,187.8 111.1,204.5 106.4,204.6 84.1,187.5 		
			"/>
		<polygon class="st0" points="400.3,107.5 415,107.5 437.8,130 442.6,145.2 437.7,160.4 419.5,179 394.4,179 378,160.1 
			372.6,144.9 378,129.6 		"/>
	</g>
	<g id="plantas">
		<polygon class="st0" points="436.9,154.2 431.3,161.4 425.7,180 423.9,198.2 425.7,217 435.6,229.4 440,229.2 449.8,217.1 
			451.8,198.3 449.9,180.1 442.4,161.4 		"/>
	</g>
		</g>
</svg>