<svg class="img_svg"
	xmlns="http://www.w3.org/2000/svg" viewBox="0 0 554.47 265.86">

		<g id="m52">
          <polyline
     id="scan"
     class="cls-1"
     points="0.5 184.79 193.38 184.79 193.38 116.72 202.66 108.02 226.49 108.14 226.98 184.96 231.71 185.13 230.83 116.72 240.11 108.02 263.94 108.14 264.36 184.89 268.66 185.22 268.66 116.72 277.94 108.02 301.77 108.14 302.12 184.96 306.24 185.22 306.24 116.72 315.52 108.02 339.35 108.14 339.47 184.96 343.61 185.13 343.61 116.72 352.88 108.02 376.72 108.14 376.75 185.22 554.97 184.79"
    />
			 <rect
     id="chao"
     class="cls-1"
     x="0.5"
     y="184.79"
     width="554.47"
     height="81.57"
    />
    <g id="estrada">
     <rect class="cls-1" x="0.5" y="240.9" width="554.47" height="25.46" />
    </g>
  
    <g id="nfrente2">
     <polyline
      class="cls-1"
      points="254.38 196.98 254.38 116.84 243.24 116.72 230.83 116.72 230.83 197.04"
     />
     <polyline
      class="cls-1"
      points="292.2 196.98 292.21 116.84 281.07 116.72 268.66 116.72 268.66 197.04"
     />
     <polyline
      class="cls-1"
      points="367.15 196.98 367.16 116.84 356.02 116.72 343.61 116.72 343.61 197.04"
     />
    </g>
    <g id="nlado">
     <polygon
      class="cls-1"
      points="43.3 253.46 47.44 256.83 48.31 262.69 40.74 260.18 40.79 257.67 43.3 253.46"
     />
     <polygon
      class="cls-1"
      points="37.37 245.93 27.33 247.62 38.24 248.44 45.74 246.79 37.37 245.93"
     />
     <polygon
      class="cls-1"
      points="23.17 253.49 27.35 256.02 28.23 260.18 24.86 261.04 23.19 258.5 23.17 253.49"
     />
     <g id="nlado-2">
      <g id="nlado-3">
       <polygon
        class="cls-1"
        points="493.69 244.57 490.67 247.04 490.03 251.32 495.57 249.49 495.54 247.65 493.69 244.57"
       />
       <polygon
        class="cls-1"
        points="498.03 239.07 505.38 240.3 497.4 240.9 491.91 239.69 498.03 239.07"
       />
       <polygon
        class="cls-1"
        points="508.42 244.59 505.36 246.44 504.72 249.49 507.18 250.12 508.4 248.25 508.42 244.59"
       />
      </g>
     </g>
     <polyline
      class="cls-1"
      points="343.61 212.42 350.45 205.82 350.45 170.01 343.53 163.07"
     />
     <polyline
      class="cls-1"
      points="254.38 196.98 264.37 187.08 263.94 108.14 254.14 116.71"
     />
     <polyline
      class="cls-1"
      points="292.2 196.98 302.19 187.08 301.77 108.14 291.97 116.71"
     />
     <polyline
      class="cls-1"
      points="367.15 196.98 377.13 187.08 376.72 108.14 366.92 116.71"
     />
     <polyline
      class="cls-1"
      points="113.86 234.76 123.27 225.38 123.23 196.97 113.86 206.32"
     />
     <polyline
      class="cls-1"
      points="438.48 233.96 447.79 225.1 447.69 200.98 438.43 210.98"
     />
     <polyline
      class="cls-1"
      points="508.68 234.25 527.76 215.58 527.49 173.54 508.93 192.08"
     />
     <polygon
      class="cls-1"
      points="508.6 159.5 508.85 173.82 489.93 192.01 489.93 177.86 508.6 159.5"
     />
    </g>
    <g id="lado">
     <polyline
      class="cls-1"
      points="216.93 196.98 226.91 187.08 226.49 108.14 216.69 116.71"
     />
     <polyline
      class="cls-1"
      points="277.91 212.42 284.76 205.82 284.76 170.01 277.84 163.07"
     />
     <polyline
      class="cls-1"
      points="329.78 196.98 339.76 187.08 339.35 108.14 329.55 116.71"
     />
     <polyline
      class="cls-1"
      points="155.8 234.78 165.22 225.4 165.17 196.97 155.8 206.32"
     />
    </g>
    <g id="frente">
     <polygon
      class="cls-1"
      points="17.35 239.89 19.18 239.33 19.31 238.28 15.73 238 15.66 238.94 17.45 239.08 17.35 239.89"
     />
     <polygon
      class="cls-1"
      points="16.86 240.62 19.08 240.79 20.52 242.48 20.35 244.69 18.66 246.13 16.45 245.96 15.01 244.28 15.18 242.06 16.86 240.62"
     />
     <polygon
      class="cls-1"
      points="7.12 240.87 9.33 241.04 10.77 242.73 10.6 244.94 8.91 246.38 6.7 246.21 5.26 244.52 5.43 242.31 7.12 240.87"
     />
     <polyline
      class="cls-1"
      points="13.83 244.53 15.72 242.12 17.9 243.59 18.36 243.01 16.23 241.59 17.35 239.89 17.45 239.08 15.46 241.5 11.12 239.53 11.12 239.53 11.12 239.53 11.14 238.35 12.84 238.35 12.84 237.58 11.15 237.59 10.39 237.58 10.39 237.58 10.12 237.58 10.1 238.35 10.45 238.35 8.06 243.04 8.74 243.38 10.18 240.41 13.07 244.48"
     />
     <polygon
      class="cls-1"
      points="69.62 239.89 71.45 239.33 71.57 238.28 68 238 67.93 238.94 69.72 239.08 69.62 239.89"
     />
     <polygon
      class="cls-1"
      points="69.13 240.62 71.34 240.79 72.79 242.48 72.61 244.69 70.93 246.13 68.72 245.96 67.27 244.28 67.44 242.06 69.13 240.62"
     />
     <polygon
      class="cls-1"
      points="59.38 240.87 61.59 241.04 63.04 242.73 62.87 244.94 61.18 246.38 58.97 246.21 57.52 244.52 57.7 242.31 59.38 240.87"
     />
     <polyline
      class="cls-1"
      points="66.09 244.53 67.99 242.12 70.17 243.59 70.63 243.01 68.49 241.59 69.62 239.89 69.72 239.08 67.73 241.5 63.39 239.53 63.39 239.53 63.39 239.53 63.41 238.35 65.11 238.35 65.11 237.58 63.42 237.59 62.66 237.58 62.66 237.58 62.39 237.58 62.37 238.35 62.72 238.35 60.33 243.04 61.01 243.38 62.44 240.41 65.34 244.48"
     />
     <polygon
      class="cls-1"
      points="352.08 252.47 349.55 251.83 349.31 250.4 354.16 249.78 354.32 251.05 351.9 251.36 352.08 252.47"
     />
     <polygon
      class="cls-1"
      points="352.8 253.43 349.8 253.81 347.95 256.2 348.33 259.2 350.72 261.05 353.72 260.67 355.57 258.27 355.19 255.28 352.8 253.43"
     />
     <polygon
      class="cls-1"
      points="366.08 253.1 363.08 253.49 361.23 255.88 361.61 258.88 364 260.73 367 260.35 368.85 257.95 368.47 254.95 366.08 253.1"
     />
     <polyline
      class="cls-1"
      points="357.19 258.53 354.45 255.39 351.58 257.54 350.92 256.77 353.73 254.71 352.08 252.47 351.9 251.36 354.76 254.53 360.53 251.55 360.53 251.55 360.53 251.55 360.43 249.96 358.12 250.07 358.07 249.02 360.36 248.92 361.39 248.85 361.39 248.85 361.76 248.84 361.84 249.88 361.36 249.91 364.94 256.12 364.03 256.63 361.88 252.69 358.21 258.42"
     />
     <polygon
      class="cls-1"
      points="393.25 252.47 390.72 251.83 390.48 250.4 395.33 249.78 395.49 251.05 393.07 251.36 393.25 252.47"
     />
     <polygon
      class="cls-1"
      points="393.97 253.43 390.97 253.81 389.12 256.2 389.5 259.2 391.89 261.05 394.89 260.67 396.74 258.27 396.36 255.28 393.97 253.43"
     />
     <polygon
      class="cls-1"
      points="407.25 253.1 404.25 253.49 402.4 255.88 402.78 258.88 405.17 260.73 408.17 260.35 410.02 257.95 409.64 254.95 407.25 253.1"
     />
     <polyline
      class="cls-1"
      points="398.36 258.53 395.63 255.39 392.75 257.54 392.09 256.77 394.9 254.71 393.25 252.47 393.07 251.36 395.93 254.53 401.7 251.55 401.7 251.55 401.7 251.55 401.6 249.96 399.29 250.07 399.24 249.02 401.53 248.92 402.56 248.85 402.56 248.85 402.93 248.84 403.01 249.88 402.53 249.91 406.11 256.12 405.2 256.63 403.05 252.69 399.38 258.42"
     />
     <g id="nfrente">
      <polygon
       class="cls-1"
       points="322.82 247.28 326.23 249.17 334.6 250.85 335.42 259.24 330.44 261.75 325.43 262.58 324.56 256.71 320.43 253.34 317.91 257.55 317.86 260.06 305.35 260.06 304.47 255.9 300.29 253.37 302.76 249.2 304.45 247.51 315.36 248.32 322.82 247.28"
      />
     </g>
     <g id="nfrente-2">
      <polygon
       class="cls-1"
       points="104.06 247.39 107.47 249.28 115.84 250.95 116.66 259.34 111.68 261.86 106.67 262.68 105.8 256.82 101.67 253.45 99.15 257.66 99.1 260.17 86.58 260.17 85.71 256.01 81.53 253.48 84 249.31 85.69 247.62 97.46 246.96 104.06 247.39"
      />
     </g>
     <polyline
      class="cls-1"
      points="216.93 196.98 216.94 116.84 205.79 116.72 193.38 116.72 193.38 197.04"
     />
     <polyline
      class="cls-1"
      points="329.78 196.98 329.79 116.84 318.65 116.72 306.24 116.72 306.24 197.04"
     />
     <polyline
      class="cls-1"
      points="277.91 212.42 277.87 176.58 264.79 163.12 251.07 176.58 251.02 212.42"
     />
     <polyline
      class="cls-1"
      points="155.8 234.73 155.8 206.32 137.06 187.47 118.35 206.32 118.56 234.65"
     />
    </g>
    <g id="ncima">
     <polygon
      class="cls-1"
      points="230.83 116.72 254.38 116.84 263.94 108.14 240.11 108.02 230.83 116.72"
     />
     <polygon
      class="cls-1"
      points="268.66 116.72 292.21 116.84 301.77 108.14 277.94 108.02 268.66 116.72"
     />
     <polygon
      class="cls-1"
      points="343.61 116.72 367.16 116.84 376.72 108.14 352.88 108.02 343.61 116.72"
     />
     <polygon
      class="cls-1"
      points="238.19 163.12 251.27 176.58 258.16 170.01 244.74 156.5 238.19 163.12"
     />
     <polygon
      class="cls-1"
      points="303.88 163.12 316.96 176.58 323.85 170.01 310.44 156.5 303.88 163.12"
     />
     <polygon
      class="cls-1"
      points="330.48 163.12 343.56 176.58 350.45 170.01 337.04 156.5 330.48 163.12"
     />
     <polygon
      class="cls-1"
      points="95.23 187.47 113.97 206.32 123.34 196.97 104.57 177.97 95.23 187.47"
     />
     <polygon
      class="cls-1"
      points="419.85 192.05 438.43 210.98 452.95 195.25 434.21 178.25 419.85 192.05"
     />
     <polygon
      class="cls-1"
      points="489.93 192.01 508.93 192.08 527.49 173.54 508.85 173.82 489.93 192.01"
     />
     <polygon
      class="cls-1"
      points="447.67 191.92 466.43 191.92 466.27 177.97 470.03 174.3 466.27 174.3 447.67 191.92"
     />
     <polygon
      class="cls-1"
      points="489.93 177.86 508.6 159.5 485.18 159.51 466.27 177.97 489.93 177.86"
     />
    </g>
    <g id="nfrente-3">
     <polygon
      class="cls-1"
      points="491.94 240.14 489.45 241.52 483.33 242.75 482.73 248.88 486.37 250.72 490.03 251.32 490.67 247.04 493.69 244.57 495.54 247.65 495.57 249.49 504.72 249.49 505.36 246.44 508.42 244.59 506.61 241.54 505.38 240.3 496.77 239.82 491.94 240.14"
     />
     <polygon
      class="cls-1"
      points="45.7 247.4 49.11 249.29 57.48 250.96 58.3 259.35 53.32 261.87 48.31 262.69 47.44 256.83 43.3 253.46 40.79 257.67 40.74 260.18 28.23 260.18 27.35 256.02 23.17 253.49 25.64 249.32 27.33 247.62 39.1 246.96 45.7 247.4"
     />
     <polyline
      class="cls-1"
      points="251.31 212.42 251.27 176.58 238.19 163.12 224.47 176.58 224.42 212.42"
     />
     <polyline
      class="cls-1"
      points="317 212.42 316.96 176.58 303.88 163.12 290.16 176.58 290.11 212.42"
     />
     <polyline
      class="cls-1"
      points="343.61 212.42 343.56 176.58 330.48 163.12 316.76 176.58 316.71 212.42"
     />
     <polyline
      class="cls-1"
      points="114.01 234.5 114.01 206.32 95.27 187.47 76.64 206.26 76.64 234.42"
     />
     <polygon
      class="cls-1"
      points="438.48 233.96 438.43 210.98 419.85 192.05 400.68 210.96 400.68 234.34 400.68 234.34 438.48 233.96"
     />
     <polygon
      class="cls-1"
      points="508.68 234.25 508.93 192.08 508.93 192.08 447.67 191.92 447.6 234.26 447.79 234.26 508.68 234.25"
     />
     <polygon
      class="cls-1"
      points="489.93 192.51 466.43 192.42 466.27 178.04 489.93 177.93 489.93 192.51"
     />
    </g>
    <g id="cima">
     <polygon
      class="cls-1"
      points="320.43 253.34 324.56 256.71 325.43 262.58 317.86 260.06 317.91 257.55 320.43 253.34"
     />
     <polygon
      class="cls-1"
      points="314.49 245.82 304.45 247.51 315.36 248.32 322.87 246.67 314.49 245.82"
     />
     <polygon
      class="cls-1"
      points="300.29 253.37 304.47 255.9 305.35 260.06 301.98 260.93 300.31 258.38 300.29 253.37"
     />
     <polygon
      class="cls-1"
      points="101.67 253.45 105.8 256.82 106.67 262.68 99.1 260.17 99.15 257.66 101.67 253.45"
     />
     <polygon
      class="cls-1"
      points="95.73 245.93 85.69 247.62 96.6 248.43 104.11 246.78 95.73 245.93"
     />
     <polygon
      class="cls-1"
      points="81.53 253.48 85.71 256.01 86.58 260.17 83.22 261.04 81.55 258.49 81.53 253.48"
     />
     <polygon
      class="cls-1"
      points="193.38 116.72 216.94 116.84 226.49 108.14 202.66 108.02 193.38 116.72"
     />
     <polygon
      class="cls-1"
      points="306.24 116.72 329.79 116.84 339.35 108.14 315.52 108.02 306.24 116.72"
     />
     <polygon
      class="cls-1"
      points="264.79 163.12 277.87 176.58 284.76 170.01 271.34 156.5 264.79 163.12"
     />
     <polygon
      class="cls-1"
      points="137.06 187.47 155.8 206.32 165.17 196.97 146.4 177.97 137.06 187.47"
     />
    </g>
    <g id="njanela">
     <polygon
      class="cls-1"
      points="38.24 248.44 36.57 250.99 25.64 249.32 27.33 247.62 38.24 248.44"
     />
     <polygon
      class="cls-1"
      points="57.48 250.96 52.45 253.47 53.32 261.87 58.3 259.35 57.48 250.96"
     />
     <polygon
      class="cls-1"
      points="38.24 248.44 45.74 246.79 49.11 249.29 40.78 251.02 38.24 248.44"
     />
     <g id="njanela-2">
      <g id="njanela-3">
       <polygon
        class="cls-1"
        points="497.4 240.9 498.62 242.76 506.61 241.54 505.38 240.3 497.4 240.9"
       />
       <polygon
        class="cls-1"
        points="483.33 242.75 487.01 244.58 486.37 250.72 482.73 248.88 483.33 242.75"
       />
       <polygon
        class="cls-1"
        points="497.4 240.9 491.91 239.69 489.45 241.52 495.54 242.79 497.4 240.9"
       />
      </g>
     </g>
     <rect class="cls-1" x="99.88" y="206.23" width="9.28" height="9.28" />
     <rect class="cls-1" x="81.04" y="215.67" width="9.28" height="18.74" />
     <rect class="cls-1" x="233.8" y="127.8" width="5.72" height="5.72" />
     <rect class="cls-1" x="246.67" y="127.8" width="5.72" height="5.72" />
     <rect class="cls-1" x="233.8" y="138.34" width="5.72" height="5.72" />
     <rect class="cls-1" x="246.67" y="138.34" width="5.72" height="5.72" />
     <rect class="cls-1" x="233.8" y="148.83" width="5.72" height="5.72" />
     <rect class="cls-1" x="246.67" y="148.83" width="5.72" height="5.72" />
     <polygon
      class="cls-1"
      points="236.1 165.04 233.8 165.04 233.8 159.31 239.52 159.31 239.52 161.78 236.1 165.04"
     />
     <polygon
      class="cls-1"
      points="252.39 164.25 252.39 164.25 247.53 159.31 252.39 159.31 252.39 164.25"
     />
     <rect class="cls-1" x="346.09" y="127.8" width="5.72" height="5.72" />
     <rect class="cls-1" x="358.96" y="127.8" width="5.72" height="5.72" />
     <rect class="cls-1" x="346.09" y="138.34" width="5.72" height="5.72" />
     <rect class="cls-1" x="358.96" y="138.34" width="5.72" height="5.72" />
     <rect class="cls-1" x="346.09" y="148.83" width="5.72" height="5.72" />
     <rect class="cls-1" x="346.09" y="159.31" width="5.72" height="5.72" />
     <rect class="cls-1" x="358.96" y="148.83" width="5.72" height="5.72" />
     <rect class="cls-1" x="358.96" y="159.26" width="5.72" height="5.72" />
     <rect class="cls-1" x="271.33" y="127.8" width="5.72" height="5.72" />
     <rect class="cls-1" x="284.2" y="127.8" width="5.72" height="5.72" />
     <rect class="cls-1" x="271.33" y="138.34" width="5.72" height="5.72" />
     <rect class="cls-1" x="284.2" y="138.34" width="5.72" height="5.72" />
     <rect class="cls-1" x="271.33" y="148.83" width="5.72" height="5.72" />
     <rect class="cls-1" x="284.2" y="148.83" width="5.72" height="5.72" />
     <rect class="cls-1" x="284.2" y="159.26" width="5.72" height="5.72" />
     <polyline
      class="cls-1"
      points="274.13 159.31 277.05 159.31 277.05 162.25"
     />
     <rect class="cls-1" x="350.45" y="178.26" width="9.28" height="18.74" />
     <rect class="cls-1" x="226.99" y="184.96" width="9.45" height="4.79" />
     <rect class="cls-1" x="236.01" y="197.09" width="7.58" height="15.32" />
     <rect class="cls-1" x="229.34" y="180.41" width="4.73" height="4.79" />
     <rect class="cls-1" x="292.67" y="184.96" width="9.45" height="4.79" />
     <rect class="cls-1" x="301.7" y="197.09" width="7.58" height="15.32" />
     <rect class="cls-1" x="295.03" y="180.41" width="4.73" height="4.79" />
     <rect class="cls-1" x="330.02" y="184.95" width="9.45" height="4.79" />
     <rect class="cls-1" x="322.87" y="197.1" width="7.58" height="15.32" />
     <rect class="cls-1" x="403.06" y="215.49" width="7.58" height="18.79" />
     <rect class="cls-1" x="332.39" y="180.41" width="4.73" height="4.79" />
     <rect class="cls-1" x="414.69" y="215.54" width="20.96" height="14.01" />
     <rect class="cls-1" x="473.5" y="182.62" width="9.65" height="9.65" />
     <rect class="cls-1" x="473.5" y="210.74" width="9.65" height="23.56" />
     <rect class="cls-1" x="452.25" y="201.41" width="7.01" height="23.44" />
     <rect class="cls-1" x="461.84" y="201.41" width="7.01" height="23.44" />
     <rect class="cls-1" x="487.28" y="201.41" width="7.01" height="23.44" />
     <rect class="cls-1" x="496.86" y="201.41" width="7.01" height="23.44" />
     <rect class="cls-1" x="473.5" y="201.41" width="9.65" height="4.64" />
    </g>
    <g id="janela">
     <polygon
      class="cls-1"
      points="315.36 248.31 313.69 250.85 302.76 249.19 304.45 247.49 315.36 248.31"
     />
     <polygon
      class="cls-1"
      points="334.6 250.83 329.57 253.34 330.44 261.74 335.42 259.22 334.6 250.83"
     />
     <polygon
      class="cls-1"
      points="315.36 248.31 322.87 246.66 326.23 249.16 317.9 250.89 315.36 248.31"
     />
     <polygon
      class="cls-1"
      points="96.6 248.42 94.93 250.96 84 249.29 85.69 247.6 96.6 248.42"
     />
     <polygon
      class="cls-1"
      points="115.84 250.94 110.81 253.45 111.68 261.84 116.66 259.33 115.84 250.94"
     />
     <polygon
      class="cls-1"
      points="96.6 248.42 104.11 246.77 107.47 249.27 99.14 250.99 96.6 248.42"
     />
     <rect class="cls-1" x="142.25" y="206.36" width="9.28" height="9.28" />
     <rect class="cls-1" x="264.36" y="184.89" width="9.45" height="4.79" />
     <rect class="cls-1" x="123.42" y="215.8" width="9.28" height="18.74" />
     <rect class="cls-1" x="196.23" y="127.73" width="5.72" height="5.72" />
     <rect class="cls-1" x="209.1" y="127.73" width="5.72" height="5.72" />
     <rect class="cls-1" x="196.23" y="138.27" width="5.72" height="5.72" />
     <rect class="cls-1" x="209.1" y="138.27" width="5.72" height="5.72" />
     <rect class="cls-1" x="196.23" y="148.76" width="5.72" height="5.72" />
     <rect class="cls-1" x="209.1" y="148.76" width="5.72" height="5.72" />
     <rect class="cls-1" x="196.23" y="159.24" width="5.72" height="5.72" />
     <rect class="cls-1" x="209.1" y="159.24" width="5.72" height="5.72" />
     <rect class="cls-1" x="308.56" y="127.73" width="5.72" height="5.72" />
     <rect class="cls-1" x="321.43" y="127.73" width="5.72" height="5.72" />
     <rect class="cls-1" x="308.56" y="138.27" width="5.72" height="5.72" />
     <rect class="cls-1" x="321.43" y="138.27" width="5.72" height="5.72" />
     <rect class="cls-1" x="308.56" y="148.76" width="5.72" height="5.72" />
     <rect class="cls-1" x="321.43" y="148.76" width="5.72" height="5.72" />
     <rect class="cls-1" x="321.43" y="159.24" width="5.72" height="5.72" />
     <rect class="cls-1" x="200.79" y="178.27" width="9.28" height="18.74" />
     <rect class="cls-1" x="257.2" y="197.03" width="7.58" height="15.32" />
     <rect class="cls-1" x="266.72" y="180.34" width="4.73" height="4.79" />
    </g>

    <g id="arvore">
     <polygon
      class="cls-1"
      points="220.42 205.96 222.25 204.11 222.25 213.23 220.42 213.23 220.42 205.96"
     />
     <polygon
      class="cls-1"
      points="181.49 228.48 181.49 231.13 183 231.13 183 228.41 181.49 228.48"
     />
     <polyline
      class="cls-1"
      points="180.65 206.78 178.86 207.7 177.94 208.39 177.62 208.14 179.64 205.63 178.86 205.4 176.79 208.14 175.83 208.39 173.31 208.14 174.54 206.73 176.1 205.4 176.7 204.3 179.78 204.04 181.71 202.42 181.11 201.87 179.46 203.52 176.56 203.66 178.35 202.15 179.96 200.95 179.36 200.35 178.24 201.48 176.56 202.28 175.42 204.49 173.9 206.32 173.53 203.15 175.32 198.06 174.54 198.06 173.26 202.28 172.87 198.36 173.4 196.82 172.48 196.54 172.09 198.24 172.57 203.52 172.39 204.26 171.42 202.65 170.83 199.71 170.28 199.71 170.28 202.83 171.75 205.17 171.88 207.51 170.05 206.78 168.21 204.04 168.21 199.85 167.57 200.17 167.57 203.52 164.35 201.36 164.03 202.05 167.48 204.04 168.3 205.72 165.82 206.28 164.03 205.31 164.03 206.23 165.93 206.99 168.62 206.37 169.72 207.28 171.51 208.43 171.84 209.44 171.42 219.77 173.26 219.77 172.71 212.52 172.89 209.21 175.66 208.95 177.68 209.26 178.72 208.92 179.91 209.49 179.91 209.49 180.24 209.07 180.24 209.07 179.18 208.39 180.6 207.51"
     />
     <polyline
      class="cls-1"
      points="290.81 199.8 289.02 200.72 288.1 201.41 287.78 201.16 289.8 198.65 289.02 198.42 286.95 201.16 285.99 201.41 283.46 201.16 284.7 199.75 286.26 198.42 286.86 197.32 289.94 197.06 291.86 195.44 291.27 194.89 289.61 196.54 286.72 196.68 288.51 195.16 290.12 193.97 289.52 193.38 288.4 194.5 286.72 195.3 285.57 197.51 284.06 199.34 283.69 196.18 285.48 191.08 284.7 191.08 283.42 195.3 283.03 191.38 283.56 189.84 282.64 189.56 282.25 191.26 282.73 196.54 282.55 197.28 281.58 195.67 280.99 192.73 280.43 192.73 280.43 195.85 281.9 198.19 282.04 200.53 280.2 199.8 278.37 197.06 278.37 192.87 277.73 193.19 277.73 196.54 274.51 194.38 274.19 195.07 277.63 197.06 278.46 198.75 275.98 199.3 274.19 198.33 274.19 199.25 276.09 200.01 278.78 199.39 279.88 200.31 281.67 201.45 282 202.46 281.58 212.79 283.42 212.79 282.87 205.54 283.05 202.23 285.81 201.97 287.84 202.28 288.88 201.94 290.07 202.51 290.07 202.51 290.39 202.1 290.39 202.1 289.34 201.41 290.76 200.53"
     />
     <polyline
      class="cls-1"
      points="16.94 169.67 19.22 170.83 20.38 171.71 20.79 171.4 18.23 168.21 19.22 167.92 21.84 171.4 23.06 171.71 26.27 171.4 24.69 169.61 22.71 167.92 21.95 166.52 18.05 166.19 15.6 164.13 16.36 163.44 18.46 165.53 22.13 165.71 19.86 163.78 17.82 162.27 18.57 161.51 20 162.94 22.13 163.96 23.59 166.76 25.51 169.09 25.97 165.07 23.7 158.6 24.69 158.6 26.32 163.96 26.82 158.99 26.15 157.03 27.31 156.68 27.81 158.83 27.2 165.53 27.43 166.47 28.65 164.43 29.41 160.7 30.11 160.7 30.11 164.66 28.25 167.63 28.07 170.6 30.4 169.67 32.73 166.19 32.73 160.87 33.55 161.28 33.55 165.53 37.63 162.79 38.03 163.67 33.66 166.19 32.62 168.33 35.76 169.03 38.03 167.81 38.03 168.97 35.63 169.94 32.21 169.15 30.81 170.31 28.54 171.77 28.13 173.05 28.65 186.16 26.32 186.16 27.02 176.95 26.79 172.76 23.28 172.43 20.71 172.81 19.39 172.39 17.88 173.11 17.88 173.11 17.47 172.58 17.47 172.58 18.81 171.71 17 170.6"
     />
     <polygon
      class="cls-1"
      points="69.91 228.4 69.91 218.92 66.6 216.32 67.08 215.68 70.12 217.86 69.95 214.99 64.69 213.19 65.03 212.33 68.04 213.39 66.23 211.96 66.81 211.55 69.47 213.9 70.56 214.07 69.57 209.77 65.24 206.84 65.65 205.78 68.89 208.41 67.63 205.98 68.48 205.78 70.05 209.16 69.37 204.79 70.02 204.79 71.14 212.57 71.86 211.27 71.62 205.85 72.75 205.71 72.58 210.97 75.92 207.86 76.36 208.92 74.39 210.42 76.36 210.66 76.19 211.24 74.11 210.86 73.29 211.27 75.17 211.89 74.83 212.57 72.54 212.06 71.42 214.57 71.42 216.59 72.58 215.54 74.45 213.66 75.07 214.48 71.11 218.2 71.42 228.4 69.91 228.4"
     />
     <polyline
      class="cls-1"
      points="45.73 170.71 48.63 167.05 48.63 165.88 44.75 169.57 44.55 174.42 43.77 173.01 42.47 166.03 41.25 165.88 42.99 172.67 39.35 169.3 38.87 170.45 41.02 172.08 38.87 172.34 39.06 172.97 41.32 172.56 42.21 173.01 37.38 174.49 37.75 175.23 43.03 173.86 44.24 176.59 44.25 178.79 42.99 177.65 40.95 175.6 40.28 176.5 44.59 180.54 44.25 191.62 45.88 191.62 45.88 181.32 49.48 178.5 48.96 177.79 45.66 180.17 45.85 177.05"
     />
     <polygon
      class="cls-1"
      points="346.24 210.81 346.24 213.47 347.75 213.47 347.75 210.74 346.24 210.81"
     />
    </g>
    <g id="plantasPO">
     <polygon
      class="cls-1"
      points="18.11 164.63 18.4 159.1 27.43 156.1 36.4 159.1 36.53 164.62 36.69 173.62 30.51 177.48 24.23 177.53 18.11 173.4 18.11 164.63"
     />
     <polygon
      class="cls-1"
      points="35.98 168.6 42.78 164.85 48.17 164.88 54.81 168.59 54.97 175.27 48.66 181.74 42.23 181.79 35.98 175.04 35.98 168.6"
     />
     <polygon
      class="cls-1"
      points="64.69 206.36 69.14 200.74 71.95 200.77 76.64 206.26 76.64 217.69 71.14 222.1 69.91 222.1 64.69 217.6 64.69 206.36"
     />
    </g>
    <g id="troncosPO">
     <polyline
      class="cls-1"
      points="31.14 169.71 33.21 166.02 32.78 163.11 33.56 163.11 33.6 164.98 37.63 162.79 38.03 163.67 34.06 165.96 32.78 168.06 35.97 168.77 38.03 167.78 38.03 168.97 35.93 169.92 32.79 168.87 31.16 170.52"
     />
     <polyline
      class="cls-1"
      points="25.74 165.14 24.1 158.58 24.95 158.58 26.59 164.31 27.39 161 27.37 157.72 28.22 157.73 28.22 161.01 27.39 165.96"
     />
     <polyline
      class="cls-1"
      points="23.07 169.04 20.97 167.31 20.54 165.69 18.62 166.65 15.6 164.02 16.43 163.16 18.89 165.69 19.73 164.84 19.44 163.8 17.8 162.15 18.63 161.29 20.28 162.96 20.87 164.39 21.77 166.11"
     />
     <polyline
      class="cls-1"
      points="47 174.79 53.49 170.62 52.62 169.72 48.04 173.38 48.67 171.85 51.75 168.8 51.75 167.88 49.07 170.62 47.6 171.97"
     />
     <polyline
      class="cls-1"
      points="49.87 178.45 48.12 179.3 45.01 181.59 45.87 181.79 50.71 178.65"
     />
     <polyline
      class="cls-1"
      points="45.39 171.56 44.59 167.47 43.73 167.47 44.61 171.61 41.29 166.66 40.47 167.47 42.94 170.75 39.21 171.56 39.65 172.41 42.12 171.56 43.74 172.38 38.01 173.22 38.78 174.04 44.24 172.95"
     />
     <polyline
      class="cls-1"
      points="45.65 182.13 47.76 177.28 46.62 176.95 44.54 181.8"
     />
     <polygon
      class="cls-1"
      points="16.94 169.67 17 170.6 18.59 171.5 17.47 172.58 17.88 173.11 19.64 171.5 23.59 173.32 23.85 172.59 16.94 169.67"
     />
     <polygon
      class="cls-1"
      points="69.91 228.4 69.91 218.92 66.6 216.32 67.08 215.68 70.12 217.86 69.95 214.99 64.69 213.19 65.03 212.33 68.04 213.39 66.23 211.96 66.81 211.55 69.47 213.9 70.56 214.07 69.57 209.77 65.24 206.84 65.65 205.78 68.89 208.41 67.63 205.98 68.48 205.78 70.05 209.16 69.37 204.79 70.02 204.79 71.14 212.57 71.86 211.27 71.62 205.85 72.75 205.71 72.58 210.97 75.92 207.86 76.36 208.92 74.39 210.42 76.36 210.66 76.19 211.24 74.11 210.86 73.29 211.27 75.17 211.89 74.83 212.57 72.54 212.06 71.42 214.57 71.42 216.59 72.58 215.54 74.45 213.66 75.07 214.48 71.11 218.2 71.42 228.4 69.91 228.4"
     />
    </g>
    <g id="plantasV">
     <polygon
      class="cls-1"
      points="15.6 160.66 27.39 155.94 38.6 160.66 38.76 174.8 30.55 179.12 24.13 179.16 15.6 174.58 15.6 160.66"
     />
     <polygon
      class="cls-1"
      points="35.98 167.78 42.96 164.16 48.13 164.19 54.79 167.48 54.95 176.13 47.86 182.64 42.43 182.68 35.98 176.21 35.98 167.78"
     />
     <polygon
      class="cls-1"
      points="64.05 206.26 69.14 200.63 71.95 200.66 76.64 206.15 76.64 217.58 71.14 221.99 69.91 222 64.05 217.5 64.05 206.26"
     />
     <polygon
      class="cls-1"
      points="279.91 185.92 283.94 185.92 290.54 188.24 291.86 194.98 290.51 201.72 283.06 206.07 281.55 206.08 274.13 201.64 272.64 194.91 274.14 188.13 279.91 185.92"
     />
     <polygon
      class="cls-1"
      points="169.94 195.38 173.81 195.38 180.14 200.08 181.41 204.07 180.12 208.09 172.75 212.9 171.69 212.91 164.4 208.01 162.97 204.01 164.41 199.97 169.94 195.38"
     />
    </g>
	    <g id="plantas">
     <g id="phjanelas">
      <polygon
       class="cls-1"
       points="218.24 206.2 218.24 206.2 223.37 206.21 225.34 206.2 229.37 202.19 229.37 194.4 225.39 190.15 221.34 186.19 217.37 190.15 213.31 194.4 213.31 202.24 218.24 206.2 218.24 206.2"
      />
     </g>
     <polygon
      class="cls-1"
      points="181.88 201.18 179.85 203.79 177.81 210.6 177.15 217.22 177.8 224.12 181.49 228.54 183 228.54 186.62 224.12 187.35 217.26 186.64 210.64 183.88 203.79 181.88 201.18"
     />
     <polyline
      class="cls-1"
      points="344.6 190.65 342.55 192.93 341.89 199.56 342.54 206.45 346.24 210.88 347.75 210.88 351.36 206.45 352.09 199.6 351.39 192.97 348.63 190.65"
     />
    </g>
	</g>
</svg>