<svg class="img_svg"
	xmlns="http://www.w3.org/2000/svg" viewBox="0 0 554.47 265.86">
	
		<g id="m54">
		
			<rect id="chao" class="cls-2" y="184.29" width="554.47" height="81.57"/>
			<g id="estrada">
				<rect class="cls-3" y="240.4" width="554.47" height="25.46"/>
			</g>
			<g id="nlado">
				<polygon class="cls-3" points="42.8 252.96 46.94 256.33 47.81 262.19 40.24 259.68 40.29 257.17 42.8 252.96"/>
				<polygon class="cls-3" points="36.87 245.43 26.83 247.12 37.74 247.94 45.24 246.29 36.87 245.43"/>
				<polygon class="cls-3" points="22.67 252.99 26.85 255.52 27.73 259.68 24.36 260.54 22.69 258 22.67 252.99"/>
				<g id="nlado-2" data-name="nlado">
					<g id="nlado-3" data-name="nlado">
						<polygon class="cls-3" points="493.19 244.07 490.17 246.54 489.53 250.82 495.07 248.99 495.04 247.15 493.19 244.07"/>
						<polygon class="cls-3" points="497.53 238.57 504.88 239.8 496.9 240.4 491.41 239.19 497.53 238.57"/>
						<polygon class="cls-3" points="507.92 244.09 504.86 245.94 504.22 248.99 506.68 249.62 507.9 247.75 507.92 244.09"/>
					</g>
				</g>
			</g>
			<g id="lado">
				<polyline class="cls-4" points="437.98 233.46 447.29 227.09 447.19 204.83 437.93 210.48"/>
				<polyline class="cls-4" points="508.18 233.75 527.26 224 526.99 181.99 508.43 191.58"/>
				<polygon class="cls-4" points="508.1 167.95 508.35 182.27 489.43 191.51 489.43 177.36 508.1 167.95"/>
			</g>
			<g id="frente">
				<polygon class="cls-5" points="16.85 239.39 18.68 238.83 18.81 237.78 15.23 237.5 15.16 238.44 16.95 238.58 16.85 239.39"/>
				<polygon class="cls-5" points="16.36 240.12 18.58 240.29 20.02 241.98 19.85 244.19 18.16 245.63 15.95 245.46 14.51 243.78 14.68 241.56 16.36 240.12"/>
				<polygon class="cls-5" points="6.62 240.37 8.83 240.54 10.27 242.23 10.1 244.44 8.41 245.88 6.2 245.71 4.76 244.02 4.93 241.81 6.62 240.37"/>
				<polyline class="cls-5" points="13.33 244.03 15.22 241.62 17.4 243.09 17.86 242.51 15.73 241.09 16.85 239.39 16.95 238.58 14.96 241 10.62 239.03 10.62 239.03 10.62 239.03 10.64 237.85 12.34 237.85 12.34 237.08 10.65 237.09 9.89 237.08 9.89 237.08 9.62 237.08 9.6 237.85 9.95 237.85 7.56 242.54 8.24 242.88 9.68 239.91 12.57 243.98"/>
				<polygon class="cls-5" points="69.12 239.39 70.95 238.83 71.07 237.78 67.5 237.5 67.43 238.44 69.22 238.58 69.12 239.39"/>
				<polygon class="cls-5" points="68.63 240.12 70.84 240.29 72.29 241.98 72.11 244.19 70.43 245.63 68.22 245.46 66.77 243.78 66.94 241.56 68.63 240.12"/>
				<polygon class="cls-5" points="58.88 240.37 61.09 240.54 62.54 242.23 62.37 244.44 60.68 245.88 58.47 245.71 57.02 244.02 57.2 241.81 58.88 240.37"/>
				<polyline class="cls-5" points="65.59 244.03 67.49 241.62 69.67 243.09 70.13 242.51 67.99 241.09 69.12 239.39 69.22 238.58 67.23 241 62.89 239.03 62.89 239.03 62.89 239.03 62.91 237.85 64.61 237.85 64.61 237.08 62.92 237.09 62.16 237.08 62.16 237.08 61.89 237.08 61.87 237.85 62.22 237.85 59.83 242.54 60.51 242.88 61.94 239.91 64.84 243.98"/>
				<polygon class="cls-5" points="351.58 251.97 349.05 251.33 348.81 249.9 353.66 249.28 353.82 250.55 351.4 250.86 351.58 251.97"/>
				<polygon class="cls-5" points="352.3 252.93 349.3 253.31 347.45 255.7 347.83 258.7 350.22 260.55 353.22 260.17 355.07 257.77 354.69 254.78 352.3 252.93"/>
				<polygon class="cls-5" points="365.58 252.6 362.58 252.99 360.73 255.38 361.11 258.38 363.5 260.23 366.5 259.85 368.35 257.45 367.97 254.45 365.58 252.6"/>
				<polyline class="cls-5" points="356.69 258.03 353.95 254.89 351.08 257.04 350.42 256.27 353.23 254.21 351.58 251.97 351.4 250.86 354.26 254.03 360.03 251.05 360.03 251.05 360.03 251.05 359.93 249.46 357.62 249.57 357.57 248.52 359.86 248.42 360.89 248.35 360.89 248.35 361.26 248.34 361.34 249.38 360.86 249.41 364.44 255.62 363.53 256.13 361.38 252.19 357.71 257.92"/>
				<polygon class="cls-5" points="392.75 251.97 390.22 251.33 389.98 249.9 394.83 249.28 394.99 250.55 392.57 250.86 392.75 251.97"/>
				<polygon class="cls-5" points="393.47 252.93 390.47 253.31 388.62 255.7 389 258.7 391.39 260.55 394.39 260.17 396.24 257.77 395.86 254.78 393.47 252.93"/>
				<polygon class="cls-5" points="406.75 252.6 403.75 252.99 401.9 255.38 402.28 258.38 404.67 260.23 407.67 259.85 409.52 257.45 409.14 254.45 406.75 252.6"/>
				<polyline class="cls-5" points="397.86 258.03 395.13 254.89 392.25 257.04 391.59 256.27 394.4 254.21 392.75 251.97 392.57 250.86 395.43 254.03 401.2 251.05 401.2 251.05 401.2 251.05 401.1 249.46 398.79 249.57 398.74 248.52 401.03 248.42 402.06 248.35 402.06 248.35 402.43 248.34 402.51 249.38 402.03 249.41 405.61 255.62 404.7 256.13 402.55 252.19 398.88 257.92"/>
				<g id="nfrente">
					<polygon class="cls-5" points="322.32 246.78 325.73 248.67 334.1 250.35 334.92 258.74 329.94 261.25 324.93 262.08 324.06 256.21 319.93 252.84 317.41 257.05 317.36 259.56 304.85 259.56 303.97 255.4 299.79 252.87 302.26 248.7 303.95 247.01 314.86 247.82 322.32 246.78"/>
				</g>
				<g id="nfrente-2" data-name="nfrente">
					<polygon class="cls-5" points="103.56 246.89 106.97 248.78 115.34 250.45 116.16 258.84 111.18 261.36 106.17 262.18 105.3 256.32 101.17 252.95 98.65 257.16 98.6 259.67 86.08 259.67 85.21 255.51 81.03 252.98 83.5 248.81 85.19 247.12 96.96 246.46 103.56 246.89"/>
				</g>
				<polygon class="cls-5" points="437.98 233.46 437.93 210.48 418.85 201.02 400.18 210.46 400.18 233.84 400.18 233.84 437.98 233.46"/>
				<polygon class="cls-5" points="508.18 233.75 508.43 191.58 508.43 191.58 447.17 191.42 447.1 233.76 444.4 233.76 508.18 233.75"/>
				<polygon class="cls-5" points="489.43 192.01 465.93 191.92 465.77 177.54 489.43 177.43 489.43 192.01"/>
			</g>
			<g id="nfrente-3" data-name="nfrente">
				<polygon class="cls-6" points="491.44 239.64 488.95 241.02 482.83 242.25 482.23 248.38 485.87 250.22 489.53 250.82 490.17 246.54 493.19 244.07 495.04 247.15 495.07 248.99 504.22 248.99 504.86 245.94 507.92 244.09 506.11 241.04 504.88 239.8 496.27 239.32 491.44 239.64"/>
				<polygon class="cls-6" points="45.2 246.9 48.61 248.79 56.98 250.46 57.8 258.85 52.82 261.37 47.81 262.19 46.94 256.33 42.8 252.96 40.29 257.17 40.24 259.68 27.73 259.68 26.85 255.52 22.67 252.99 25.14 248.82 26.83 247.12 38.6 246.46 45.2 246.9"/>
			</g>
			<g id="cima">
				<polygon class="cls-7" points="319.93 252.84 324.06 256.21 324.93 262.08 317.36 259.56 317.41 257.05 319.93 252.84"/>
				<polygon class="cls-7" points="313.99 245.32 303.95 247.01 314.86 247.82 322.37 246.17 313.99 245.32"/>
				<polygon class="cls-7" points="299.79 252.87 303.97 255.4 304.85 259.56 301.48 260.43 299.81 257.88 299.79 252.87"/>
				<polygon class="cls-7" points="101.17 252.95 105.3 256.32 106.17 262.18 98.6 259.67 98.65 257.16 101.17 252.95"/>
				<polygon class="cls-7" points="95.23 245.43 85.19 247.12 96.1 247.93 103.61 246.28 95.23 245.43"/>
				<polygon class="cls-7" points="81.03 252.98 85.21 255.51 86.08 259.67 82.72 260.54 81.05 257.99 81.03 252.98"/>
				<polygon class="cls-7" points="418.85 201.02 437.93 210.48 456.51 199.35 437.8 191.81 418.85 201.02"/>
				<polygon class="cls-7" points="489.43 191.51 508.43 191.58 526.99 181.99 508.35 182.27 489.43 191.51"/>
				<polygon class="cls-7" points="447.17 191.42 465.93 191.42 465.77 182.12 465.77 182.12 447.17 191.42"/>
				<polygon class="cls-7" points="489.43 177.36 508.1 167.95 484.68 167.96 465.77 177.47 489.43 177.36"/>
			</g>
			<g id="njanela">
				<polygon class="cls-8" points="37.74 247.94 36.07 250.49 25.14 248.82 26.83 247.12 37.74 247.94"/>
				<polygon class="cls-8" points="56.98 250.46 51.95 252.97 52.82 261.37 57.8 258.85 56.98 250.46"/>
				<polygon class="cls-8" points="37.74 247.94 45.24 246.29 48.61 248.79 40.28 250.52 37.74 247.94"/>
				<g id="njanela-2" data-name="njanela">
					<g id="njanela-3" data-name="njanela">
						<polygon class="cls-8" points="496.9 240.4 498.12 242.26 506.11 241.04 504.88 239.8 496.9 240.4"/>
						<polygon class="cls-8" points="482.83 242.25 486.51 244.08 485.87 250.22 482.23 248.38 482.83 242.25"/>
						<polygon class="cls-8" points="496.9 240.4 491.41 239.19 488.95 241.02 495.04 242.29 496.9 240.4"/>
					</g>
				</g>
			</g>
			<g id="janela">
				<polygon class="cls-9" points="314.86 247.81 313.19 250.35 302.26 248.69 303.95 246.99 314.86 247.81"/>
				<polygon class="cls-9" points="334.1 250.33 329.07 252.84 329.94 261.24 334.92 258.72 334.1 250.33"/>
				<polygon class="cls-9" points="314.86 247.81 322.37 246.16 325.73 248.66 317.4 250.39 314.86 247.81"/>
				<polygon class="cls-9" points="96.1 247.92 94.43 250.46 83.5 248.79 85.19 247.1 96.1 247.92"/>
				<polygon class="cls-9" points="115.34 250.44 110.31 252.95 111.18 261.34 116.16 258.83 115.34 250.44"/>
				<polygon class="cls-9" points="96.1 247.92 103.61 246.27 106.97 248.77 98.64 250.49 96.1 247.92"/>
				<rect class="cls-9" x="402.56" y="214.99" width="7.58" height="18.79"/>
				<rect class="cls-9" x="414.19" y="215.04" width="20.96" height="14.01"/>
				<rect class="cls-9" x="473" y="182.12" width="9.65" height="9.65"/>
				<rect class="cls-9" x="473" y="210.24" width="9.65" height="23.56"/>
				<rect class="cls-9" x="451.75" y="200.91" width="7.01" height="23.44"/>
				<rect class="cls-9" x="461.34" y="200.91" width="7.01" height="23.44"/>
				<rect class="cls-9" x="486.78" y="200.91" width="7.01" height="23.44"/>
				<rect class="cls-9" x="496.36" y="200.91" width="7.01" height="23.44"/>
				<rect class="cls-9" x="473" y="200.91" width="9.65" height="4.64"/>
			</g>
			<g id="plantas">
				<g id="phjanelas">
					<polygon class="cls-9" points="217.74 205.7 217.74 205.7 222.87 205.71 224.84 205.7 228.87 201.69 228.87 193.9 224.89 189.65 220.84 185.69 216.87 189.65 212.81 193.9 212.81 201.74 217.74 205.7 217.74 205.7"/>
				</g>
				<polygon class="cls-9" points="181.38 200.68 179.35 203.29 177.31 210.1 176.65 216.72 177.3 223.62 180.99 228.04 182.5 228.04 186.12 223.62 186.85 216.76 186.14 210.14 183.38 203.29 181.38 200.68"/>
				<polyline class="cls-9" points="344.1 190.15 342.05 192.43 341.39 199.06 342.04 205.95 345.74 210.38 347.25 210.38 350.86 205.95 351.59 199.1 350.89 192.47 348.13 190.15"/>
			</g>
			<g id="arvore">
				<polygon class="cls-10" points="219.92 205.46 221.75 203.61 221.75 212.73 219.92 212.73 219.92 205.46"/>
				<polygon class="cls-10" points="180.99 227.98 180.99 230.63 182.5 230.63 182.5 227.91 180.99 227.98"/>
				<polyline class="cls-10" points="180.15 206.28 178.36 207.2 177.44 207.89 177.12 207.64 179.14 205.13 178.36 204.9 176.29 207.64 175.33 207.89 172.81 207.64 174.04 206.23 175.6 204.9 176.2 203.8 179.28 203.54 181.21 201.92 180.61 201.37 178.96 203.02 176.06 203.16 177.85 201.65 179.46 200.45 178.86 199.85 177.74 200.98 176.06 201.78 174.92 203.99 173.4 205.82 173.03 202.65 174.82 197.56 174.04 197.56 172.76 201.78 172.37 197.86 172.9 196.32 171.98 196.04 171.59 197.74 172.07 203.02 171.89 203.76 170.92 202.15 170.33 199.21 169.78 199.21 169.78 202.33 171.25 204.67 171.38 207.01 169.55 206.28 167.71 203.54 167.71 199.35 167.07 199.67 167.07 203.02 163.85 200.86 163.53 201.55 166.98 203.54 167.8 205.22 165.32 205.78 163.53 204.81 163.53 205.73 165.43 206.49 168.12 205.87 169.22 206.78 171.01 207.93 171.34 208.94 170.92 219.27 172.76 219.27 172.21 212.02 172.39 208.71 175.16 208.45 177.18 208.76 178.22 208.42 179.41 208.99 179.41 208.99 179.74 208.57 179.74 208.57 178.68 207.89 180.1 207.01"/>
				<polyline class="cls-10" points="290.31 199.3 288.52 200.22 287.6 200.91 287.28 200.66 289.3 198.15 288.52 197.92 286.45 200.66 285.49 200.91 282.96 200.66 284.2 199.25 285.76 197.92 286.36 196.82 289.44 196.56 291.36 194.94 290.77 194.39 289.11 196.04 286.22 196.18 288.01 194.66 289.62 193.47 289.02 192.88 287.9 194 286.22 194.8 285.07 197.01 283.56 198.84 283.19 195.68 284.98 190.58 284.2 190.58 282.92 194.8 282.53 190.88 283.06 189.34 282.14 189.06 281.75 190.76 282.23 196.04 282.05 196.78 281.08 195.17 280.49 192.23 279.93 192.23 279.93 195.35 281.4 197.69 281.54 200.03 279.7 199.3 277.87 196.56 277.87 192.37 277.23 192.69 277.23 196.04 274.01 193.88 273.69 194.57 277.13 196.56 277.96 198.25 275.48 198.8 273.69 197.83 273.69 198.75 275.59 199.51 278.28 198.89 279.38 199.81 281.17 200.95 281.5 201.96 281.08 212.29 282.92 212.29 282.37 205.04 282.55 201.73 285.31 201.47 287.34 201.78 288.38 201.44 289.57 202.01 289.57 202.01 289.89 201.6 289.89 201.6 288.84 200.91 290.26 200.03"/>
				<polyline class="cls-10" points="16.44 169.17 18.72 170.33 19.88 171.21 20.29 170.9 17.73 167.71 18.72 167.42 21.34 170.9 22.56 171.21 25.77 170.9 24.19 169.11 22.21 167.42 21.45 166.02 17.55 165.69 15.1 163.63 15.86 162.94 17.96 165.03 21.63 165.21 19.36 163.28 17.32 161.77 18.07 161.01 19.5 162.44 21.63 163.46 23.09 166.26 25.01 168.59 25.47 164.57 23.2 158.1 24.19 158.1 25.82 163.46 26.32 158.49 25.65 156.53 26.81 156.18 27.31 158.33 26.7 165.03 26.93 165.97 28.15 163.93 28.91 160.2 29.61 160.2 29.61 164.16 27.75 167.13 27.57 170.1 29.9 169.17 32.23 165.69 32.23 160.37 33.05 160.78 33.05 165.03 37.13 162.29 37.53 163.17 33.16 165.69 32.12 167.83 35.26 168.53 37.53 167.31 37.53 168.47 35.13 169.44 31.71 168.65 30.31 169.81 28.04 171.27 27.63 172.55 28.15 185.66 25.82 185.66 26.52 176.45 26.29 172.26 22.78 171.93 20.21 172.31 18.89 171.89 17.38 172.61 17.38 172.61 16.97 172.08 16.97 172.08 18.31 171.21 16.5 170.1"/>
				<polygon class="cls-10" points="69.41 227.9 69.41 218.42 66.1 215.82 66.58 215.18 69.62 217.36 69.45 214.49 64.19 212.69 64.53 211.83 67.54 212.89 65.73 211.46 66.31 211.05 68.97 213.4 70.06 213.57 69.07 209.27 64.74 206.34 65.15 205.28 68.39 207.91 67.13 205.48 67.98 205.28 69.55 208.66 68.87 204.29 69.52 204.29 70.64 212.07 71.36 210.77 71.12 205.35 72.25 205.21 72.08 210.47 75.42 207.36 75.86 208.42 73.89 209.92 75.86 210.16 75.69 210.74 73.61 210.36 72.79 210.77 74.67 211.39 74.33 212.07 72.04 211.56 70.92 214.07 70.92 216.09 72.08 215.04 73.95 213.16 74.57 213.98 70.61 217.7 70.92 227.9 69.41 227.9"/>
				<polyline class="cls-10" points="45.23 170.21 48.13 166.55 48.13 165.38 44.25 169.07 44.05 173.92 43.27 172.51 41.97 165.53 40.75 165.38 42.49 172.17 38.85 168.8 38.37 169.95 40.52 171.58 38.37 171.84 38.56 172.47 40.82 172.06 41.71 172.51 36.88 173.99 37.25 174.73 42.53 173.36 43.74 176.09 43.75 178.29 42.49 177.15 40.45 175.1 39.78 176 44.09 180.04 43.75 191.12 45.38 191.12 45.38 180.82 48.98 178 48.46 177.29 45.16 179.67 45.35 176.55"/>
				<polygon class="cls-10" points="345.74 210.31 345.74 212.97 347.25 212.97 347.25 210.24 345.74 210.31"/>
			</g>
			<g id="plantasPO">
				<polygon class="cls-9" points="17.61 164.13 17.9 158.6 26.93 155.6 35.9 158.6 36.03 164.12 36.19 173.12 30.01 176.98 23.73 177.03 17.61 172.9 17.61 164.13"/>
				<polygon class="cls-9" points="35.48 168.1 42.28 164.35 47.67 164.38 54.31 168.09 54.47 174.77 48.16 181.24 41.73 181.29 35.48 174.54 35.48 168.1"/>
				<polygon class="cls-9" points="64.19 205.86 68.64 200.24 71.45 200.27 76.14 205.76 76.14 217.19 70.64 221.6 69.41 221.6 64.19 217.1 64.19 205.86"/>
			</g>
			<g id="troncosPO">
				<polyline class="cls-10" points="30.64 169.21 32.71 165.52 32.28 162.61 33.06 162.61 33.1 164.48 37.13 162.29 37.53 163.17 33.56 165.46 32.28 167.56 35.47 168.27 37.53 167.28 37.53 168.47 35.43 169.42 32.29 168.37 30.66 170.02"/>
				<polyline class="cls-10" points="25.24 164.64 23.6 158.08 24.45 158.08 26.09 163.81 26.89 160.5 26.87 157.22 27.72 157.23 27.72 160.51 26.89 165.46"/>
				<polyline class="cls-10" points="22.57 168.54 20.47 166.81 20.04 165.19 18.12 166.15 15.1 163.52 15.93 162.66 18.39 165.19 19.23 164.34 18.94 163.3 17.3 161.65 18.13 160.79 19.78 162.46 20.37 163.89 21.27 165.61"/>
				<polyline class="cls-10" points="46.5 174.29 52.99 170.12 52.12 169.22 47.54 172.88 48.17 171.35 51.25 168.3 51.25 167.38 48.57 170.12 47.1 171.47"/>
				<polyline class="cls-10" points="49.37 177.95 47.62 178.8 44.51 181.09 45.37 181.29 50.21 178.15"/>
				<polyline class="cls-10" points="44.89 171.06 44.09 166.97 43.23 166.97 44.11 171.11 40.79 166.16 39.97 166.97 42.44 170.25 38.71 171.06 39.15 171.91 41.62 171.06 43.24 171.88 37.51 172.72 38.28 173.54 43.74 172.45"/>
				<polyline class="cls-10" points="45.15 181.63 47.26 176.78 46.12 176.45 44.04 181.3"/>
				<polygon class="cls-10" points="16.44 169.17 16.5 170.1 18.09 171 16.97 172.08 17.38 172.61 19.14 171 23.09 172.82 23.35 172.09 16.44 169.17"/>
				<polygon class="cls-10" points="69.41 227.9 69.41 218.42 66.1 215.82 66.58 215.18 69.62 217.36 69.45 214.49 64.19 212.69 64.53 211.83 67.54 212.89 65.73 211.46 66.31 211.05 68.97 213.4 70.06 213.57 69.07 209.27 64.74 206.34 65.15 205.28 68.39 207.91 67.13 205.48 67.98 205.28 69.55 208.66 68.87 204.29 69.52 204.29 70.64 212.07 71.36 210.77 71.12 205.35 72.25 205.21 72.08 210.47 75.42 207.36 75.86 208.42 73.89 209.92 75.86 210.16 75.69 210.74 73.61 210.36 72.79 210.77 74.67 211.39 74.33 212.07 72.04 211.56 70.92 214.07 70.92 216.09 72.08 215.04 73.95 213.16 74.57 213.98 70.61 217.7 70.92 227.9 69.41 227.9"/>
			</g>
			<g id="plantasV">
				<polygon class="cls-9" points="15.1 160.16 26.89 155.44 38.1 160.16 38.26 174.3 30.05 178.62 23.63 178.66 15.1 174.08 15.1 160.16"/>
				<polygon class="cls-7" points="35.48 167.28 42.46 163.66 47.63 163.69 54.29 166.98 54.45 175.63 47.36 182.14 41.93 182.18 35.48 175.71 35.48 167.28"/>
				<polygon class="cls-7" points="63.55 205.76 68.64 200.13 71.45 200.16 76.14 205.65 76.14 217.08 70.64 221.49 69.41 221.5 63.55 217 63.55 205.76"/>
				<polygon class="cls-7" points="279.41 185.42 283.44 185.42 290.04 187.74 291.36 194.48 290.01 201.22 282.56 205.57 281.05 205.58 273.63 201.14 272.14 194.41 273.64 187.63 279.41 185.42"/>
				<polygon class="cls-7" points="169.44 194.88 173.31 194.88 179.64 199.58 180.91 203.57 179.62 207.59 172.25 212.4 171.19 212.41 163.9 207.51 162.47 203.51 163.91 199.47 169.44 194.88"/>
			</g>
		</g>
</svg>