<svg class="img_svg"
	xmlns="http://www.w3.org/2000/svg" viewBox="0 0 554.47 265.86">
	
	<g id="m55">
		
			<rect id="chao" class="cls-2" y="184.29" width="554.47" height="81.57"/>
			<g id="lado">
		<polyline class="st0" points="116.6,235.6 135.3,217.8 135.1,169.4 116.5,189.5 		"/>
		<polyline class="st0" points="257.7,236.2 296,198.7 295.5,114.2 258.2,151.5 		"/>
		<polygon class="st0" points="257.5,86 258,114.8 220,151.3 220,122.9 		"/>
		<polygon class="st1" points="449.6,128.3 463.6,114.3 463.6,193.6 449.6,207.8 		"/>
		<polygon class="st1" points="415,146.6 415,162.1 424,146.5 432.3,137.4 432.3,128.3 		"/>
		<polygon class="st1" points="432.3,162.1 432.3,146.6 440.6,137.8 440.6,162.1 		"/>
	</g>
	<g id="cima">
		<polygon class="st0" points="79.2,151.4 116.5,189.5 145.7,157.8 108,123.7 		"/>
		<polygon class="st0" points="220,151.3 258.2,151.5 295.5,114.2 258,114.8 		"/>
		<polygon class="st0" points="135.1,151.2 172.8,151.2 172.5,123.1 180,115.7 172.5,115.7 		"/>
		<polygon class="st0" points="220,122.9 257.5,86 210.5,86 172.5,123.1 		"/>
		<polygon class="st1" points="440.6,128.3 454.7,114.2 463.6,114.2 449.6,128.3 		"/>
		<polygon class="st1" points="379.7,162.2 393.1,146.6 406.4,146.6 390.9,162.1 		"/>
		<polygon class="st1" points="406.4,146.6 424,128.3 432.3,128.3 415,146.6 		"/>
		<polygon class="st1" points="424,146.5 440.6,128.3 440.6,137.8 432.3,146.6 		"/>
	</g>
	<g id="frente">
		<polygon class="st0" points="116.6,235.6 116.5,189.5 79.2,151.4 40.7,189.4 40.7,236.4 40.7,236.4 		"/>
		<polygon class="st0" points="257.7,236.2 258.2,151.5 258.2,151.5 135.1,151.2 135,236.2 135.3,236.2 		"/>
		<polygon class="st0" points="220,152.3 172.8,152.2 172.5,123.3 220,123 		"/>
		<polygon class="st2" points="379.7,162.2 379.7,207.8 449.6,207.8 449.6,162.8 449.6,128.3 440.6,128.3 440.6,162.1 432.3,162.1 
			432.3,146.6 424,146.5 415,162.1 415,146.6 406.4,146.6 390.9,162.1 		"/>
	</g>
	<g id="janela">
		<rect x="45.4" y="198.5" class="st0" width="15.2" height="37.8"/>
		<rect x="68.8" y="198.6" class="st0" width="42.1" height="28.2"/>
		<rect x="187" y="132.5" class="st0" width="19.4" height="19.4"/>
		<rect x="187" y="189" class="st0" width="19.4" height="47.3"/>
		<rect x="144.3" y="170.2" class="st0" width="14.1" height="47.1"/>
		<rect x="163.6" y="170.2" class="st0" width="14.1" height="47.1"/>
		<rect x="214.7" y="170.2" class="st0" width="14.1" height="47.1"/>
		<rect x="390.9" y="176.6" class="st3" width="15.1" height="31.2"/>
		<rect x="233.9" y="170.2" class="st0" width="14.1" height="47.1"/>
		<rect x="187" y="170.2" class="st0" width="19.4" height="9.3"/>
		<rect x="415" y="175.6" class="st4" width="17.3" height="6.7"/>
		<rect x="415" y="185.7" class="st4" width="17.3" height="6.7"/>
		<rect x="415" y="195.9" class="st4" width="17.3" height="6.7"/>
	</g>
		</g>
</svg>