<svg class="img_svg"
	xmlns="http://www.w3.org/2000/svg" viewBox="0 0 554.47 265.86">

	<g id="m56">
			
		<rect id="chao" y="184.3" class="st0" width="554.5" height="81.6"/>
	<g id="mapa">
		<polygon class="st0" points="140.9,49.8 126.7,55.9 112.7,70 126.4,83.9 136.5,74.5 149.1,105.7 140.8,126.9 140.1,140.4 
			161.5,161.4 174.2,162.4 173.9,180.5 186.6,193.4 186.4,242.9 192.6,249.3 192.6,229.3 197.3,219.7 224.9,189.9 225.5,168.9 
			210.8,161.8 204.4,155.2 182.7,149.6 174,143.3 186.6,135.7 197.1,140.7 205,124.6 224.2,112.1 218,92.3 205.2,93.3 199.1,106.7 
			186.4,93.1 198.9,68.4 		"/>
		<polygon class="st0" points="211.7,74.6 230.4,49.8 255.2,62.1 243.1,93.8 230.2,99.5 		"/>
		<polygon class="st0" points="249.1,125.8 260.2,120.8 268.1,105.3 264.5,100.8 281.9,83.9 292.7,87.3 348.6,55.6 358.7,64.5 
			442.1,55.9 442.7,74.4 405,105.9 409.9,113 380.5,181.2 361.4,168.4 348.8,186.9 342.3,168.2 323.8,155.6 305.5,136.7 
			298.7,130.8 273.8,130.5 254,130.8 		"/>
		<polygon class="st0" points="248.8,162 255.4,143.4 267.4,137 299,137 317.3,161.8 324.7,169 322.2,176.7 317.8,193.3 286.5,219 
			280.4,168.4 255.9,168.6 		"/>
		<polygon class="st0" points="330.4,193.2 329.8,211.8 318.1,218.4 317.3,212.4 		"/>
		<polygon class="st0" points="380.5,198.1 404.7,186.5 436.3,185 437.1,211.6 411.3,225.3 402.1,218.4 382,211.6 		"/>
		<polygon class="st0" points="423.5,113 411.1,126.9 415.1,133.4 405.1,150.2 411.7,156 423.5,149.3 		"/>
		<polygon class="st0" points="373.6,180.8 386.1,186.9 392.2,180.8 398.5,181.3 386.1,192.9 		"/>
		<polygon class="st0" points="423.8,233.4 434.3,221.9 442.3,220.7 429.8,233.5 		"/>
	</g>
	<g id="lado">
		<polyline class="st0" points="295.8,109.4 298.1,107.1 298.1,94.8 295.8,92.4 		"/>
		<polyline class="st0" points="330.6,109.6 333.8,108 333.8,81.2 330.5,82.7 		"/>
		<polyline class="st0" points="317.7,113.2 321,111.6 320.9,84.8 317.7,86.3 		"/>
		<polyline class="st0" points="348,95.4 351.2,93.8 351.2,67 347.9,68.4 		"/>
		<polyline class="st0" points="361.7,94 364.1,91.6 364.1,84.4 361.7,86.8 		"/>
		<polyline class="st0" points="409.4,94.3 416.5,89.1 416.4,73.5 409.5,78.7 		"/>
		<polygon class="st0" points="409.4,68.3 409.5,73.6 402.5,78.7 402.5,73.5 		"/>
		<polyline class="st0" points="214,112.4 216.4,110.1 216.4,102.9 214,105.2 		"/>
		<polygon class="st0" points="175.7,72.5 175.8,77.8 168.8,82.9 168.8,77.7 		"/>
	</g>
	<g id="cima">
		<polygon class="st0" points="291.3,92.4 295.8,97.1 298.1,94.8 293.5,90.2 		"/>
		<polygon class="st0" points="282.1,92.4 286.6,97.1 289,94.8 284.4,90.2 		"/>
		<polygon class="st0" points="322.7,82.7 330.6,82.7 333.8,81.2 325.8,81.1 		"/>
		<polygon class="st0" points="309.8,86.3 317.7,86.3 320.9,84.8 312.9,84.8 		"/>
		<polygon class="st0" points="340.1,68.4 348,68.5 351.2,67 343.2,66.9 		"/>
		<polygon class="st0" points="402.5,78.7 409.5,78.7 416.4,73.5 409.5,73.6 		"/>
		<polygon class="st0" points="386.8,78.7 393.8,78.7 393.7,73.5 393.7,73.5 		"/>
		<polygon class="st0" points="402.5,73.5 409.4,68.3 400.7,68.3 393.7,73.5 		"/>
		<polygon class="st0" points="357,82 361.7,86.8 364.1,84.4 359.3,79.6 		"/>
		<polygon class="st0" points="209.3,100.4 214,105.2 216.4,102.9 211.6,98.1 		"/>
		<polyline class="st0" points="175.8,98.5 182.8,93.3 182.7,77.7 175.9,82.9 		"/>
		<polygon class="st0" points="168.8,82.9 175.9,82.9 182.7,77.7 175.8,77.8 		"/>
		<polygon class="st0" points="153.2,82.9 160.1,82.9 160.1,77.7 160.1,77.7 		"/>
		<polygon class="st0" points="168.8,77.7 175.7,72.5 167.1,72.5 160.1,77.7 		"/>
	</g>
	<g id="frente">
		<polyline class="st0" points="286.6,109.4 286.6,97.1 282.1,92.4 277.4,97.1 277.4,109.4 		"/>
		<polyline class="st0" points="295.8,109.4 295.8,97.1 291.3,92.4 286.5,97.1 286.5,109.4 		"/>
		<polyline class="st0" points="330.6,109.6 330.6,82.7 326.8,82.7 322.7,82.7 322.7,109.6 		"/>
		<polyline class="st0" points="317.7,113.2 317.7,86.3 314,86.3 309.8,86.3 309.8,113.3 		"/>
		<polyline class="st0" points="348,95.4 348,68.5 344.3,68.4 340.1,68.4 340.1,95.4 		"/>
		<polygon class="st0" points="409.4,94.3 409.5,78.7 409.5,78.7 386.8,78.7 386.8,94.3 385.8,94.3 		"/>
		<polygon class="st0" points="402.5,78.9 393.8,78.8 393.7,73.5 402.5,73.5 		"/>
		<polyline class="st0" points="361.7,94 361.7,86.8 357,82 352.2,86.8 352.3,93.9 		"/>
		<polyline class="st0" points="214,112.4 214,105.2 209.3,100.4 204.5,105.2 204.6,112.4 		"/>
		<polygon class="st0" points="175.8,98.5 175.9,82.9 175.9,82.9 153.2,82.9 153.2,98.6 152.2,98.6 		"/>
		<polygon class="st0" points="168.8,83.1 160.1,83.1 160.1,77.7 168.8,77.7 		"/>
	</g>
	<g id="janela">
		<rect x="291.1" y="99.9" class="st0" width="3.3" height="1.7"/>
		<rect x="288.6" y="104.1" class="st0" width="2.6" height="5.3"/>
		<rect x="291.9" y="98.4" class="st0" width="1.6" height="1.7"/>
		<rect x="278.3" y="100" class="st0" width="3.3" height="1.7"/>
		<rect x="281.4" y="104.1" class="st0" width="2.6" height="5.3"/>
		<rect x="279.1" y="98.4" class="st0" width="1.6" height="1.7"/>
		<rect x="323.6" y="86.3" class="st0" width="1.9" height="1.9"/>
		<rect x="327.9" y="86.3" class="st0" width="1.9" height="1.9"/>
		<rect x="323.6" y="89.9" class="st0" width="1.9" height="1.9"/>
		<rect x="327.9" y="89.9" class="st0" width="1.9" height="1.9"/>
		<rect x="323.6" y="93.4" class="st0" width="1.9" height="1.9"/>
		<rect x="327.9" y="93.4" class="st0" width="1.9" height="1.9"/>
		<rect x="323.6" y="96.9" class="st0" width="1.9" height="1.9"/>
		<rect x="327.9" y="96.9" class="st0" width="1.9" height="1.9"/>
		<rect x="325.2" y="103.3" class="st0" width="3.1" height="6.3"/>
		<rect x="310.8" y="90" class="st0" width="1.9" height="1.9"/>
		<rect x="315.1" y="90" class="st0" width="1.9" height="1.9"/>
		<rect x="310.8" y="93.5" class="st0" width="1.9" height="1.9"/>
		<rect x="315.1" y="93.5" class="st0" width="1.9" height="1.9"/>
		<rect x="310.8" y="97.1" class="st0" width="1.9" height="1.9"/>
		<rect x="315.1" y="97.1" class="st0" width="1.9" height="1.9"/>
		<rect x="310.8" y="100.6" class="st0" width="1.9" height="1.9"/>
		<rect x="315.1" y="100.6" class="st0" width="1.9" height="1.9"/>
		<rect x="312.3" y="107" class="st0" width="3.1" height="6.3"/>
		<rect x="341.1" y="72.1" class="st0" width="1.9" height="1.9"/>
		<rect x="345.4" y="72.1" class="st0" width="1.9" height="1.9"/>
		<rect x="341.1" y="75.7" class="st0" width="1.9" height="1.9"/>
		<rect x="345.4" y="75.7" class="st0" width="1.9" height="1.9"/>
		<rect x="341.1" y="79.2" class="st0" width="1.9" height="1.9"/>
		<rect x="345.4" y="79.2" class="st0" width="1.9" height="1.9"/>
		<rect x="341.1" y="82.7" class="st0" width="1.9" height="1.9"/>
		<rect x="345.4" y="82.7" class="st0" width="1.9" height="1.9"/>
		<rect x="342.6" y="89.1" class="st0" width="3.1" height="6.3"/>
		<rect x="396.4" y="75.2" class="st0" width="3.6" height="3.6"/>
		<rect x="396.4" y="85.6" class="st0" width="3.6" height="8.7"/>
		<rect x="388.5" y="82.2" class="st0" width="2.6" height="8.7"/>
		<rect x="392.1" y="82.2" class="st0" width="2.6" height="8.7"/>
		<rect x="401.5" y="82.2" class="st0" width="2.6" height="8.7"/>
		<rect x="405" y="82.2" class="st0" width="2.6" height="8.7"/>
		<rect x="396.4" y="82.2" class="st0" width="3.6" height="1.7"/>
		<rect x="358.3" y="86.8" class="st0" width="2.4" height="2.3"/>
		<rect x="353.5" y="89.2" class="st0" width="2.4" height="4.7"/>
		<rect x="210.6" y="105.2" class="st0" width="2.4" height="2.3"/>
		<rect x="205.8" y="107.7" class="st0" width="2.4" height="4.7"/>
		<rect x="162.8" y="79.4" class="st0" width="3.6" height="3.6"/>
		<rect x="162.8" y="89.8" class="st0" width="3.6" height="8.7"/>
		<rect x="154.9" y="86.4" class="st0" width="2.6" height="8.7"/>
		<rect x="158.4" y="86.4" class="st0" width="2.6" height="8.7"/>
		<rect x="167.9" y="86.4" class="st0" width="2.6" height="8.7"/>
		<rect x="171.4" y="86.4" class="st0" width="2.6" height="8.7"/>
		<rect x="162.8" y="86.4" class="st0" width="3.6" height="1.7"/>
	</g>
		</g>
</svg>