<svg class="img_svg"
	xmlns="http://www.w3.org/2000/svg" viewBox="0 0 554.47 265.86">

		<g id="m57">
			
			<rect id="chao" class="cls-2" y="184.29" width="554.47" height="81.57"/>
<g id="mapa">
     <polygon
      class="cls-2"
      points="140.93 49.76 126.65 55.92 112.71 69.98 126.43 83.91 136.51 74.53 149.06 105.67 140.82 126.91 140.15 140.41 161.47 161.36 174.22 162.39 173.95 180.49 186.62 193.36 186.44 242.9 192.6 249.34 192.65 229.31 197.26 219.72 224.91 189.87 225.46 168.86 210.83 161.81 204.35 155.18 182.7 149.55 174.01 143.29 186.56 135.72 197.06 140.74 205.03 124.56 224.2 112.07 218.01 92.33 205.2 93.35 199.05 106.72 186.44 93.11 198.92 68.39 140.93 49.76"
     />
     <polygon
      class="cls-2"
      points="211.7 74.64 230.44 49.76 255.2 62.1 243.05 93.79 230.21 99.46 211.7 74.64"
     />
     <polygon
      class="cls-2"
      points="249.09 125.83 260.16 120.75 268.06 105.33 264.52 100.75 281.9 83.87 292.69 87.34 348.64 55.61 358.69 64.5 442.11 55.9 442.66 74.41 405.05 105.87 409.85 112.97 380.48 181.21 361.44 168.37 348.84 186.94 342.28 168.21 323.79 155.57 305.46 136.73 298.73 130.75 273.79 130.54 253.96 130.78 249.09 125.83"
     />
     <polygon
      class="cls-2"
      points="248.82 161.98 255.44 143.38 267.42 137.02 299.03 137.02 317.33 161.82 324.73 169.04 322.2 176.72 317.82 193.32 286.51 218.96 280.44 168.37 255.88 168.59 248.82 161.98"
     />
     <polygon
      class="cls-2"
      points="330.36 193.16 329.8 211.78 318.07 218.39 317.33 212.39 330.36 193.16"
     />
     <polygon
      class="cls-2"
      points="380.48 198.14 404.68 186.53 436.28 184.99 437.14 211.55 411.31 225.25 402.06 218.39 381.98 211.55 380.48 198.14"
     />
     <polygon
      class="cls-2"
      points="423.52 112.98 411.14 126.91 415.12 133.43 405.14 150.23 411.69 155.98 423.49 149.31 423.52 112.98"
     />
     <polygon
      class="cls-2"
      points="373.59 180.81 386.07 186.93 392.19 180.81 398.54 181.3 386.06 192.89 373.59 180.81"
     />
     <polygon
      class="cls-2"
      points="423.78 233.43 434.32 221.9 442.29 220.73 429.82 233.54 423.78 233.43"
     />
    </g>
<g id="lado">
		<polyline class="st0" points="402.2,211.6 405.6,209.2 405.6,200.9 402.1,203.1 		"/>
		<polyline class="st0" points="428.1,211.7 435.2,205.9 435.1,190.3 428.2,196.1 		"/>
		<polygon class="st0" points="428.1,185.1 428.2,190.3 421.2,196 421.2,190.8 		"/>
		<polyline class="st0" points="327.4,139.8 329.8,137.5 329.8,130.3 327.4,132.6 		"/>
		<polyline class="st0" points="209.2,193.6 211.7,191.1 211.7,183.7 209.2,186.2 		"/>
		<polyline class="st0" points="295.8,109.4 298.1,107.1 298.1,94.8 295.8,92.4 		"/>
		<polyline class="st0" points="330.6,109.6 333.8,108 333.8,81.2 330.5,82.7 		"/>
		<polyline class="st0" points="317.7,113.2 321,111.6 320.9,84.8 317.7,86.3 		"/>
		<polyline class="st0" points="348,95.4 351.2,93.8 351.2,67 347.9,68.4 		"/>
		<polyline class="st0" points="361.7,94 364.1,91.6 364.1,84.4 361.7,86.8 		"/>
		<polyline class="st0" points="271.3,128.7 276.2,125.4 276.2,119.6 271.3,122.6 		"/>
		<polyline class="st0" points="161.5,131.3 167.6,127.3 167.5,120.2 161.5,123.8 		"/>
		<polyline class="st0" points="176.6,131.3 182.6,127.3 182.6,120.2 176.6,123.8 		"/>
		<polyline class="st0" points="409.4,94.3 416.5,89.1 416.4,73.5 409.5,78.7 		"/>
		<polygon class="st0" points="409.4,68.3 409.5,73.6 402.5,78.7 402.5,73.5 		"/>
		<polyline class="st0" points="264.9,161.8 267.3,159.5 267.3,152.3 264.9,154.6 		"/>
		<polyline class="st0" points="294.7,187.5 297.9,185.8 297.9,159 294.6,160.5 		"/>
		<polyline class="st0" points="194.4,186.5 197.6,184.9 197.6,158 194.3,159.5 		"/>
		<polyline class="st0" points="380.8,162.4 383.2,160.1 383.2,147.8 380.8,145.4 		"/>
		<polyline class="st0" points="214,112.4 216.4,110.1 216.4,102.9 214,105.2 		"/>
		<polyline class="st0" points="389.6,139.8 392,137.5 392,130.3 389.6,132.6 		"/>
		<polyline class="st0" points="311.5,188 313.8,185.6 313.8,178.4 311.5,180.8 		"/>
		<polyline class="st0" points="358.5,130.9 360.8,128.6 360.8,116.3 358.5,113.9 		"/>
		<polyline class="st0" points="343.6,157 348.5,153.8 348.5,148 343.6,150.9 		"/>
		<polygon class="st0" points="175.7,72.5 175.8,77.8 168.8,82.9 168.8,77.7 		"/>
	</g>
	<g id="cima">
		<polygon class="st0" points="395.1,196.2 402.1,203.1 409,198.9 402.1,190.3 		"/>
		<polygon class="st0" points="421.2,196 428.2,196.1 435.1,190.3 428.2,190.3 		"/>
		<polygon class="st0" points="405.6,196 412.5,196 412.4,190.3 412.4,190.3 		"/>
		<polygon class="st0" points="421.2,190.8 428.1,185.1 419.5,185.1 412.5,190.8 		"/>
		<polygon class="st0" points="322.6,127.9 327.4,132.6 329.8,130.3 325,125.4 		"/>
		<polygon class="st0" points="291.3,92.4 295.8,97.1 298.1,94.8 293.5,90.2 		"/>
		<polygon class="st0" points="204.4,181.3 209.2,186.2 211.7,183.7 206.8,178.8 		"/>
		<polygon class="st0" points="282.1,92.4 286.6,97.1 289,94.8 284.4,90.2 		"/>
		<polygon class="st0" points="322.7,82.7 330.6,82.7 333.8,81.2 325.8,81.1 		"/>
		<polygon class="st0" points="309.8,86.3 317.7,86.3 320.9,84.8 312.9,84.8 		"/>
		<polygon class="st0" points="340.1,68.4 348,68.5 351.2,67 343.2,66.9 		"/>
		<polygon class="st0" points="266.2,120.1 271.3,122.6 276.2,119.6 271.2,117.6 		"/>
		<polygon class="st0" points="155.3,120.7 161.5,123.8 167.5,120.2 161.4,117.7 		"/>
		<polygon class="st0" points="170.3,120.7 176.6,123.8 182.6,120.2 176.5,117.7 		"/>
		<polygon class="st0" points="402.5,78.7 409.5,78.7 416.4,73.5 409.5,73.6 		"/>
		<polygon class="st0" points="386.8,78.7 393.8,78.7 393.7,73.5 393.7,73.5 		"/>
		<polygon class="st0" points="402.5,73.5 409.4,68.3 400.7,68.3 393.7,73.5 		"/>
		<polygon class="st0" points="357,82 361.7,86.8 364.1,84.4 359.3,79.6 		"/>
		<polygon class="st0" points="260.2,149.9 264.9,154.6 267.3,152.3 262.5,147.5 		"/>
		<polygon class="st0" points="286.8,160.5 294.7,160.6 297.9,159 289.9,159 		"/>
		<polygon class="st0" points="186.4,159.5 194.4,159.5 197.6,158 189.6,158 		"/>
		<polygon class="st0" points="376.3,145.4 380.8,150 383.2,147.8 378.6,143.1 		"/>
		<polygon class="st0" points="367.1,145.4 371.6,150 374,147.8 369.4,143.1 		"/>
		<polygon class="st0" points="209.3,100.4 214,105.2 216.4,102.9 211.6,98.1 		"/>
		<polygon class="st0" points="384.9,127.9 389.6,132.6 392,130.3 387.2,125.5 		"/>
		<polygon class="st0" points="306.7,176 311.5,180.8 313.8,178.4 309.1,173.6 		"/>
		<polygon class="st0" points="354,113.9 358.5,118.6 360.8,116.3 356.2,111.7 		"/>
		<polygon class="st0" points="344.8,113.9 349.3,118.6 351.7,116.3 347.1,111.7 		"/>
		<polygon class="st0" points="338.5,148.4 343.6,150.9 348.5,148 343.6,146 		"/>
		<polyline class="st0" points="175.8,98.5 182.8,93.3 182.7,77.7 175.9,82.9 		"/>
		<polygon class="st0" points="168.8,82.9 175.9,82.9 182.7,77.7 175.8,77.8 		"/>
		<polygon class="st0" points="153.2,82.9 160.1,82.9 160.1,77.7 160.1,77.7 		"/>
		<polygon class="st0" points="168.8,77.7 175.7,72.5 167.1,72.5 160.1,77.7 		"/>
	</g>
	<g id="frente">
		<polygon class="st0" points="402.2,211.6 402.1,203.1 395.1,196.2 388.2,203 388.2,211.7 388.2,211.7 		"/>
		<polygon class="st0" points="428.1,211.7 428.2,196.1 428.2,196.1 405.6,196 405.5,211.7 404.5,211.7 		"/>
		<polygon class="st0" points="421.2,196.2 412.5,196.2 412.5,190.9 421.2,190.8 		"/>
		<polyline class="st0" points="327.4,139.8 327.4,132.6 322.6,127.9 317.9,132.6 318,139.8 		"/>
		<polyline class="st0" points="209.2,193.6 209.2,186.2 204.4,181.3 199.5,186.2 199.5,193.6 		"/>
		<polyline class="st0" points="286.6,109.4 286.6,97.1 282.1,92.4 277.4,97.1 277.4,109.4 		"/>
		<polyline class="st0" points="295.8,109.4 295.8,97.1 291.3,92.4 286.5,97.1 286.5,109.4 		"/>
		<polyline class="st0" points="330.6,109.6 330.6,82.7 326.8,82.7 322.7,82.7 322.7,109.6 		"/>
		<polyline class="st0" points="317.7,113.2 317.7,86.3 314,86.3 309.8,86.3 309.8,113.3 		"/>
		<polyline class="st0" points="348,95.4 348,68.5 344.3,68.4 340.1,68.4 340.1,95.4 		"/>
		<polygon class="st0" points="271.3,128.7 271.3,122.6 266.2,120.1 261.2,122.6 261.2,128.8 261.2,128.8 		"/>
		<polygon class="st0" points="161.5,131.3 161.5,123.8 155.3,120.7 149.2,123.8 149.2,131.4 149.2,131.4 		"/>
		<polygon class="st0" points="176.6,131.3 176.6,123.8 170.3,120.7 164.2,123.8 164.2,131.4 164.2,131.4 		"/>
		<polygon class="st0" points="409.4,94.3 409.5,78.7 409.5,78.7 386.8,78.7 386.8,94.3 385.8,94.3 		"/>
		<polygon class="st0" points="402.5,78.9 393.8,78.8 393.7,73.5 402.5,73.5 		"/>
		<polyline class="st0" points="361.7,94 361.7,86.8 357,82 352.2,86.8 352.3,93.9 		"/>
		<polyline class="st0" points="264.9,161.8 264.9,154.6 260.2,149.9 255.4,154.6 255.5,161.8 		"/>
		<polyline class="st0" points="294.7,187.5 294.7,160.6 291,160.5 286.8,160.5 286.8,187.5 		"/>
		<polyline class="st0" points="194.4,186.5 194.4,159.5 190.6,159.5 186.4,159.5 186.4,186.5 		"/>
		<polyline class="st0" points="371.7,162.4 371.6,150 367.1,145.4 362.4,150 362.4,162.4 		"/>
		<polyline class="st0" points="380.8,162.4 380.8,150 376.3,145.4 371.6,150 371.6,162.4 		"/>
		<polyline class="st0" points="214,112.4 214,105.2 209.3,100.4 204.5,105.2 204.6,112.4 		"/>
		<polyline class="st0" points="389.6,139.8 389.6,132.6 384.9,127.9 380.1,132.6 380.2,139.8 		"/>
		<polyline class="st0" points="311.5,188 311.5,180.8 306.7,176 302,180.8 302,188 		"/>
		<polyline class="st0" points="349.3,130.9 349.3,118.6 344.8,113.9 340.1,118.6 340.1,130.9 		"/>
		<polyline class="st0" points="358.5,130.9 358.5,118.6 354,113.9 349.3,118.6 349.2,130.9 		"/>
		<polygon class="st0" points="343.6,157 343.6,150.9 338.5,148.4 333.6,150.9 333.6,157.2 333.6,157.2 		"/>
		<polygon class="st0" points="175.8,98.5 175.9,82.9 175.9,82.9 153.2,82.9 153.2,98.6 152.2,98.6 		"/>
		<polygon class="st0" points="168.8,83.1 160.1,83.1 160.1,77.7 168.8,77.7 		"/>
	</g>
	<g id="janela">
		<rect x="389.1" y="204.7" class="st0" width="2.8" height="7"/>
		<rect x="393.4" y="204.7" class="st0" width="7.8" height="5.2"/>
		<rect x="415.1" y="192.6" class="st0" width="3.6" height="3.6"/>
		<rect x="415.1" y="203" class="st0" width="3.6" height="8.7"/>
		<rect x="407.3" y="199.5" class="st0" width="2.6" height="8.7"/>
		<rect x="410.8" y="199.5" class="st0" width="2.6" height="8.7"/>
		<rect x="420.2" y="199.5" class="st0" width="2.6" height="8.7"/>
		<rect x="423.8" y="199.5" class="st0" width="2.6" height="8.7"/>
		<rect x="415.1" y="199.5" class="st0" width="3.6" height="1.7"/>
		<rect x="324" y="132.6" class="st0" width="2.4" height="2.4"/>
		<rect x="319.2" y="135" class="st0" width="2.4" height="4.7"/>
		<rect x="205.7" y="186.2" class="st0" width="2.4" height="2.4"/>
		<rect x="200.8" y="188.7" class="st0" width="2.4" height="4.9"/>
		<rect x="291.1" y="99.9" class="st0" width="3.3" height="1.7"/>
		<rect x="288.6" y="104.1" class="st0" width="2.6" height="5.3"/>
		<rect x="291.9" y="98.4" class="st0" width="1.6" height="1.7"/>
		<rect x="278.3" y="100" class="st0" width="3.3" height="1.7"/>
		<rect x="281.4" y="104.1" class="st0" width="2.6" height="5.3"/>
		<rect x="279.1" y="98.4" class="st0" width="1.6" height="1.7"/>
		<rect x="323.6" y="86.3" class="st0" width="1.9" height="1.9"/>
		<rect x="327.9" y="86.3" class="st0" width="1.9" height="1.9"/>
		<rect x="323.6" y="89.9" class="st0" width="1.9" height="1.9"/>
		<rect x="327.9" y="89.9" class="st0" width="1.9" height="1.9"/>
		<rect x="323.6" y="93.4" class="st0" width="1.9" height="1.9"/>
		<rect x="327.9" y="93.4" class="st0" width="1.9" height="1.9"/>
		<rect x="323.6" y="96.9" class="st0" width="1.9" height="1.9"/>
		<rect x="327.9" y="96.9" class="st0" width="1.9" height="1.9"/>
		<rect x="325.2" y="103.3" class="st0" width="3.1" height="6.3"/>
		<rect x="310.8" y="90" class="st0" width="1.9" height="1.9"/>
		<rect x="315.1" y="90" class="st0" width="1.9" height="1.9"/>
		<rect x="310.8" y="93.5" class="st0" width="1.9" height="1.9"/>
		<rect x="315.1" y="93.5" class="st0" width="1.9" height="1.9"/>
		<rect x="310.8" y="97.1" class="st0" width="1.9" height="1.9"/>
		<rect x="315.1" y="97.1" class="st0" width="1.9" height="1.9"/>
		<rect x="310.8" y="100.6" class="st0" width="1.9" height="1.9"/>
		<rect x="315.1" y="100.6" class="st0" width="1.9" height="1.9"/>
		<rect x="312.3" y="107" class="st0" width="3.1" height="6.3"/>
		<rect x="341.1" y="72.1" class="st0" width="1.9" height="1.9"/>
		<rect x="345.4" y="72.1" class="st0" width="1.9" height="1.9"/>
		<rect x="341.1" y="75.7" class="st0" width="1.9" height="1.9"/>
		<rect x="345.4" y="75.7" class="st0" width="1.9" height="1.9"/>
		<rect x="341.1" y="79.2" class="st0" width="1.9" height="1.9"/>
		<rect x="345.4" y="79.2" class="st0" width="1.9" height="1.9"/>
		<rect x="341.1" y="82.7" class="st0" width="1.9" height="1.9"/>
		<rect x="345.4" y="82.7" class="st0" width="1.9" height="1.9"/>
		<rect x="342.6" y="89.1" class="st0" width="3.1" height="6.3"/>
		<rect x="261.9" y="123.8" class="st0" width="2" height="5"/>
		<rect x="265" y="123.8" class="st0" width="5.6" height="3.7"/>
		<rect x="149.9" y="125.3" class="st0" width="2.5" height="6.1"/>
		<rect x="153.7" y="125.3" class="st0" width="6.8" height="4.6"/>
		<rect x="165" y="125.3" class="st0" width="2.5" height="6.1"/>
		<rect x="168.8" y="125.3" class="st0" width="6.8" height="4.6"/>
		<rect x="396.4" y="75.2" class="st0" width="3.6" height="3.6"/>
		<rect x="396.4" y="85.6" class="st0" width="3.6" height="8.7"/>
		<rect x="388.5" y="82.2" class="st0" width="2.6" height="8.7"/>
		<rect x="392.1" y="82.2" class="st0" width="2.6" height="8.7"/>
		<rect x="401.5" y="82.2" class="st0" width="2.6" height="8.7"/>
		<rect x="405" y="82.2" class="st0" width="2.6" height="8.7"/>
		<rect x="396.4" y="82.2" class="st0" width="3.6" height="1.7"/>
		<rect x="358.3" y="86.8" class="st0" width="2.4" height="2.3"/>
		<rect x="353.5" y="89.2" class="st0" width="2.4" height="4.7"/>
		<rect x="256.7" y="157.1" class="st0" width="2.4" height="4.7"/>
		<rect x="287.8" y="164.2" class="st0" width="1.9" height="1.9"/>
		<rect x="292.1" y="164.2" class="st0" width="1.9" height="1.9"/>
		<rect x="287.8" y="167.8" class="st0" width="1.9" height="1.9"/>
		<rect x="292.1" y="167.8" class="st0" width="1.9" height="1.9"/>
		<rect x="287.8" y="171.3" class="st0" width="1.9" height="1.9"/>
		<rect x="292.1" y="171.3" class="st0" width="1.9" height="1.9"/>
		<rect x="287.8" y="174.8" class="st0" width="1.9" height="1.9"/>
		<rect x="292.1" y="174.8" class="st0" width="1.9" height="1.9"/>
		<rect x="289.3" y="181.2" class="st0" width="3.1" height="6.3"/>
		<rect x="187.4" y="163.2" class="st0" width="1.9" height="1.9"/>
		<rect x="191.7" y="163.2" class="st0" width="1.9" height="1.9"/>
		<rect x="187.4" y="166.7" class="st0" width="1.9" height="1.9"/>
		<rect x="191.7" y="166.7" class="st0" width="1.9" height="1.9"/>
		<rect x="187.4" y="170.3" class="st0" width="1.9" height="1.9"/>
		<rect x="191.7" y="170.3" class="st0" width="1.9" height="1.9"/>
		<rect x="187.4" y="173.8" class="st0" width="1.9" height="1.9"/>
		<rect x="191.7" y="173.8" class="st0" width="1.9" height="1.9"/>
		<rect x="188.9" y="180.2" class="st0" width="3.1" height="6.3"/>
		<rect x="376.1" y="152.9" class="st0" width="3.3" height="1.6"/>
		<rect x="373.7" y="157.1" class="st0" width="2.6" height="5.3"/>
		<rect x="377" y="151.3" class="st0" width="1.6" height="1.6"/>
		<rect x="363.3" y="152.9" class="st0" width="3.3" height="1.6"/>
		<rect x="366.4" y="157.1" class="st0" width="2.6" height="5.3"/>
		<rect x="261.6" y="154.7" class="st0" width="2.4" height="2.4"/>
		<rect x="364.1" y="151.4" class="st0" width="1.6" height="1.6"/>
		<rect x="210.6" y="105.2" class="st0" width="2.4" height="2.3"/>
		<rect x="205.8" y="107.7" class="st0" width="2.4" height="4.7"/>
		<rect x="386.2" y="132.6" class="st0" width="2.4" height="2.4"/>
		<rect x="381.4" y="135.1" class="st0" width="2.4" height="4.7"/>
		<rect x="308" y="180.8" class="st0" width="2.4" height="2.4"/>
		<rect x="303.3" y="183.2" class="st0" width="2.4" height="4.7"/>
		<rect x="353.8" y="121.4" class="st0" width="3.3" height="1.6"/>
		<rect x="351.3" y="125.6" class="st0" width="2.6" height="5.3"/>
		<rect x="354.6" y="119.9" class="st0" width="1.6" height="1.6"/>
		<rect x="341" y="121.5" class="st0" width="3.3" height="1.6"/>
		<rect x="344.1" y="125.6" class="st0" width="2.6" height="5.3"/>
		<rect x="341.8" y="119.9" class="st0" width="1.6" height="1.6"/>
		<rect x="334.2" y="152.1" class="st0" width="2" height="5"/>
		<rect x="337.3" y="152.2" class="st0" width="5.6" height="3.7"/>
		<rect x="162.8" y="79.4" class="st0" width="3.6" height="3.6"/>
		<rect x="162.8" y="89.8" class="st0" width="3.6" height="8.7"/>
		<rect x="154.9" y="86.4" class="st0" width="2.6" height="8.7"/>
		<rect x="158.4" y="86.4" class="st0" width="2.6" height="8.7"/>
		<rect x="167.9" y="86.4" class="st0" width="2.6" height="8.7"/>
		<rect x="171.4" y="86.4" class="st0" width="2.6" height="8.7"/>
		<rect x="162.8" y="86.4" class="st0" width="3.6" height="1.7"/>
	</g>
		</g>
</svg>