<svg class="img_svg"
	xmlns="http://www.w3.org/2000/svg" viewBox="0 0 554.47 265.86">
<defs>


		<style>.cls-113{font-size:26px;font-family:SpaceMono-Bold, Space Mono;font-weight:700;}.cls-114,.cls-115{fill:none;}.cls-115{stroke:#002d35;stroke-miterlimit:10;stroke-width:5px;}</style>


	</defs>
		<g id="v40">
		
			<rect id="chao" class="cls-122" y="184.29" width="554.47" height="81.57"/>
            <g id="texto">
		<g class="st1">
			<path d="M135,59.4h3.5l3.6,16.5h0.5l3.6-16.5h3.5l-4.1,18.2h-6.4L135,59.4z"/>
		</g>
		<g class="st1">
			<path d="M176.6,75.9h0.5V59.4h3.4v18.2h-6.7l-2.1-16.5h-0.5v16.5h-3.4V59.4h6.7L176.6,75.9z"/>
			<path d="M183.5,59.4h13.1v3.3h-4.8v14.9h-3.4V62.7h-4.8V59.4z"/>
		</g>
		<g class="st1">
			<path d="M220.7,68.4h7.8v9.2h-3.1v-2h-0.5c-0.2,0.7-0.6,1.2-1.2,1.7s-1.5,0.7-2.7,0.7c-0.8,0-1.6-0.2-2.3-0.5
				c-0.7-0.3-1.4-0.8-1.9-1.4c-0.5-0.6-1-1.4-1.3-2.3s-0.5-2-0.5-3.2v-4.3c0-1.2,0.2-2.2,0.5-3.1s0.8-1.7,1.4-2.3
				c0.6-0.6,1.3-1.1,2.1-1.4c0.8-0.3,1.8-0.5,2.8-0.5c1,0,2,0.2,2.8,0.5s1.5,0.8,2.1,1.4c0.6,0.6,1,1.3,1.3,2.1
				c0.3,0.8,0.4,1.7,0.4,2.6V66h-3.4v-0.3c0-1.1-0.3-1.9-0.8-2.5c-0.6-0.6-1.4-0.8-2.4-0.8c-1,0-1.8,0.3-2.4,1
				c-0.6,0.7-0.9,1.8-0.9,3.3v3.8c0,2.8,1.1,4.2,3.4,4.2c1,0,1.8-0.3,2.3-0.8c0.5-0.5,0.8-1.3,0.8-2.2h-4.4V68.4z"/>
			<path d="M232,59.4h11.5v3.3h-8.1v4.2h7.7v3.3h-7.7v4.2h8.4v3.3H232V59.4z"/>
			<path d="M256.2,75.9h0.5V59.4h3.4v18.2h-6.7l-2.1-16.5h-0.5v16.5h-3.4V59.4h6.7L256.2,75.9z"/>
			<path d="M272.7,65c0-0.7-0.3-1.4-0.8-1.9c-0.6-0.5-1.4-0.8-2.4-0.8c-0.9,0-1.6,0.2-2.1,0.5c-0.5,0.4-0.8,0.8-0.8,1.4
				c0,0.3,0.1,0.6,0.2,0.8c0.1,0.3,0.3,0.5,0.6,0.7s0.7,0.4,1.2,0.5c0.5,0.2,1.1,0.3,1.9,0.4c1.9,0.3,3.4,0.9,4.4,1.7
				c1,0.8,1.5,2,1.5,3.6v0.3c0,0.8-0.2,1.6-0.5,2.3c-0.3,0.7-0.7,1.3-1.3,1.8c-0.6,0.5-1.3,0.9-2.1,1.1c-0.8,0.3-1.7,0.4-2.8,0.4
				c-1.2,0-2.2-0.2-3.2-0.5c-0.9-0.3-1.7-0.8-2.3-1.4c-0.6-0.6-1.1-1.3-1.4-2.1c-0.3-0.8-0.5-1.7-0.5-2.6v-0.8h3.4v0.6
				c0,1.1,0.3,2,0.9,2.6s1.6,1,3,1c1,0,1.8-0.2,2.3-0.7c0.5-0.5,0.8-1,0.8-1.6c0-0.3-0.1-0.6-0.2-0.8c-0.1-0.3-0.3-0.5-0.5-0.7
				c-0.3-0.2-0.6-0.4-1.1-0.6c-0.5-0.2-1-0.3-1.7-0.4c-0.9-0.2-1.8-0.4-2.5-0.6c-0.8-0.3-1.4-0.6-2-1s-1-0.9-1.3-1.6
				s-0.5-1.4-0.5-2.3v-0.2c0-0.7,0.2-1.4,0.5-2.1c0.3-0.6,0.7-1.2,1.3-1.7s1.2-0.8,2-1.1c0.8-0.3,1.6-0.4,2.6-0.4
				c1.1,0,2,0.2,2.9,0.5c0.8,0.3,1.5,0.7,2.1,1.2c0.6,0.5,1,1.1,1.3,1.8s0.4,1.4,0.4,2.1v0.9h-3.4V65z"/>
			<path d="M294.7,59.4h6.6c2.3,0,3.9,0.5,5,1.6c1.1,1,1.6,2.7,1.6,4.9v5.3c0,2.2-0.5,3.8-1.6,4.9c-1.1,1-2.8,1.6-5,1.6h-6.6v-3.3
				h1.7V62.7h-1.7V59.4z M301.3,74.3c1.2,0,2-0.3,2.5-0.8c0.5-0.6,0.7-1.4,0.7-2.6v-5c0-1-0.2-1.8-0.7-2.4c-0.5-0.5-1.3-0.8-2.5-0.8
				h-1.5v11.6H301.3z"/>
			<path d="M320.5,73.7h-6.2l-0.9,3.9h-3.6l4.3-18.2h6.4l4.3,18.2h-3.6L320.5,73.7z M315,70.4h4.7l-2.1-9.3h-0.5L315,70.4z"/>
			<path d="M346.5,70.7v6.9h-3.4V59.4h7.1c0.9,0,1.8,0.2,2.4,0.5c0.7,0.3,1.3,0.7,1.7,1.2s0.8,1.1,1,1.7c0.2,0.6,0.4,1.3,0.4,1.9
				v0.6c0,0.7-0.1,1.3-0.4,2c-0.2,0.6-0.6,1.2-1,1.7c-0.5,0.5-1,0.9-1.7,1.2c-0.7,0.3-1.5,0.5-2.4,0.5H346.5z M346.5,67.5h3.4
				c0.8,0,1.4-0.2,1.8-0.6c0.4-0.4,0.7-1,0.7-1.6v-0.3c0-0.7-0.2-1.2-0.7-1.6c-0.4-0.4-1-0.6-1.8-0.6h-3.4V67.5z"/>
			<path d="M368.2,73.7H362l-0.9,3.9h-3.6l4.3-18.2h6.4l4.3,18.2h-3.6L368.2,73.7z M362.7,70.4h4.7l-2.1-9.3h-0.5L362.7,70.4z"/>
			<path d="M384.1,65c0-0.7-0.3-1.4-0.8-1.9c-0.6-0.5-1.4-0.8-2.4-0.8c-0.9,0-1.6,0.2-2.1,0.5s-0.8,0.8-0.8,1.4
				c0,0.3,0.1,0.6,0.2,0.8c0.1,0.3,0.3,0.5,0.6,0.7c0.3,0.2,0.7,0.4,1.2,0.5c0.5,0.2,1.1,0.3,1.9,0.4c1.9,0.3,3.4,0.9,4.4,1.7
				c1,0.8,1.5,2,1.5,3.6v0.3c0,0.8-0.2,1.6-0.5,2.3c-0.3,0.7-0.7,1.3-1.3,1.8c-0.6,0.5-1.3,0.9-2.1,1.1c-0.8,0.3-1.7,0.4-2.8,0.4
				c-1.2,0-2.2-0.2-3.2-0.5c-0.9-0.3-1.7-0.8-2.3-1.4s-1.1-1.3-1.4-2.1c-0.3-0.8-0.5-1.7-0.5-2.6v-0.8h3.4v0.6c0,1.1,0.3,2,0.9,2.6
				s1.6,1,3,1c1,0,1.8-0.2,2.3-0.7c0.5-0.5,0.8-1,0.8-1.6c0-0.3-0.1-0.6-0.2-0.8c-0.1-0.3-0.3-0.5-0.5-0.7c-0.3-0.2-0.6-0.4-1.1-0.6
				c-0.5-0.2-1-0.3-1.7-0.4c-0.9-0.2-1.8-0.4-2.5-0.6c-0.8-0.3-1.4-0.6-2-1s-1-0.9-1.3-1.6c-0.3-0.6-0.5-1.4-0.5-2.3v-0.2
				c0-0.7,0.2-1.4,0.5-2.1c0.3-0.6,0.7-1.2,1.3-1.7s1.2-0.8,2-1.1c0.8-0.3,1.6-0.4,2.6-0.4c1.1,0,2,0.2,2.9,0.5
				c0.8,0.3,1.5,0.7,2.1,1.2c0.6,0.5,1,1.1,1.3,1.8s0.4,1.4,0.4,2.1v0.9h-3.4V65z"/>
			<path d="M400,65c0-0.7-0.3-1.4-0.8-1.9c-0.6-0.5-1.4-0.8-2.4-0.8c-0.9,0-1.6,0.2-2.1,0.5c-0.5,0.4-0.8,0.8-0.8,1.4
				c0,0.3,0.1,0.6,0.2,0.8c0.1,0.3,0.3,0.5,0.6,0.7c0.3,0.2,0.7,0.4,1.2,0.5c0.5,0.2,1.1,0.3,1.9,0.4c1.9,0.3,3.4,0.9,4.4,1.7
				s1.5,2,1.5,3.6v0.3c0,0.8-0.2,1.6-0.5,2.3c-0.3,0.7-0.7,1.3-1.3,1.8s-1.3,0.9-2.1,1.1c-0.8,0.3-1.7,0.4-2.8,0.4
				c-1.2,0-2.2-0.2-3.2-0.5c-0.9-0.3-1.7-0.8-2.3-1.4c-0.6-0.6-1.1-1.3-1.4-2.1c-0.3-0.8-0.5-1.7-0.5-2.6v-0.8h3.4v0.6
				c0,1.1,0.3,2,0.9,2.6s1.6,1,3,1c1,0,1.8-0.2,2.3-0.7c0.5-0.5,0.8-1,0.8-1.6c0-0.3-0.1-0.6-0.2-0.8c-0.1-0.3-0.3-0.5-0.5-0.7
				s-0.6-0.4-1.1-0.6c-0.5-0.2-1-0.3-1.7-0.4c-0.9-0.2-1.8-0.4-2.5-0.6c-0.8-0.3-1.4-0.6-2-1s-1-0.9-1.3-1.6
				c-0.3-0.6-0.5-1.4-0.5-2.3v-0.2c0-0.7,0.2-1.4,0.5-2.1c0.3-0.6,0.7-1.2,1.3-1.7s1.2-0.8,2-1.1s1.6-0.4,2.6-0.4
				c1.1,0,2,0.2,2.9,0.5c0.8,0.3,1.5,0.7,2.1,1.2c0.6,0.5,1,1.1,1.3,1.8s0.4,1.4,0.4,2.1v0.9H400V65z"/>
			<path d="M406.7,59.4h12.2v3.3h-4.4v11.6h4.4v3.3h-12.2v-3.3h4.4V62.7h-4.4V59.4z"/>
		</g>
		<g class="st1">
			<path d="M438.8,59.4h11.5v3.3h-8.1v4.2h7.7v3.3h-7.7v4.2h8.4v3.3h-11.8V59.4z"/>
		</g>
		<g class="st1">
			<path d="M104.1,90.6h3.4V98h5.9v-7.4h3.4v18.2h-3.4v-7.5h-5.9v7.5h-3.4V90.6z"/>
			<path d="M119.7,97.7c0-2.4,0.6-4.2,1.8-5.5c1.2-1.3,2.8-2,4.9-2c2.1,0,3.7,0.7,4.9,2c1.2,1.3,1.8,3.1,1.8,5.5v4.1
				c0,2.4-0.6,4.3-1.8,5.5c-1.2,1.3-2.8,1.9-4.9,1.9c-2.1,0-3.7-0.6-4.9-1.9c-1.2-1.3-1.8-3.1-1.8-5.5V97.7z M126.4,106
				c0.6,0,1.1-0.1,1.6-0.3s0.8-0.5,1-0.8c0.3-0.4,0.4-0.8,0.5-1.3c0.1-0.5,0.2-1.1,0.2-1.7v-4.5c0-0.6-0.1-1.1-0.2-1.6
				c-0.1-0.5-0.3-0.9-0.6-1.3c-0.3-0.4-0.6-0.7-1-0.9s-0.9-0.3-1.5-0.3c-0.6,0-1.1,0.1-1.5,0.3c-0.4,0.2-0.8,0.5-1,0.9
				c-0.3,0.4-0.5,0.8-0.6,1.3c-0.1,0.5-0.2,1-0.2,1.6v4.5c0,0.6,0.1,1.2,0.2,1.7c0.1,0.5,0.3,0.9,0.5,1.3c0.3,0.4,0.6,0.6,1,0.8
				S125.8,106,126.4,106z"/>
			<path d="M148.9,90.6v11.9c0,2.1-0.6,3.7-1.7,4.9c-1.1,1.2-2.7,1.8-4.9,1.8c-2.2,0-3.8-0.6-4.9-1.8c-1.1-1.2-1.7-2.8-1.7-4.9V90.6
				h3.4v11.9c0,1.1,0.3,1.9,0.8,2.5c0.5,0.6,1.3,0.9,2.4,0.9c1.1,0,1.9-0.3,2.4-0.9c0.5-0.6,0.8-1.4,0.8-2.5V90.6H148.9z"/>
			<path d="M161.4,96.2c0-0.7-0.3-1.4-0.8-1.9c-0.6-0.5-1.4-0.8-2.4-0.8c-0.9,0-1.6,0.2-2.1,0.5c-0.5,0.4-0.8,0.8-0.8,1.4
				c0,0.3,0.1,0.6,0.2,0.8c0.1,0.3,0.3,0.5,0.6,0.7s0.7,0.4,1.2,0.5c0.5,0.2,1.1,0.3,1.9,0.4c1.9,0.3,3.4,0.9,4.4,1.7
				c1,0.8,1.5,2,1.5,3.6v0.3c0,0.8-0.2,1.6-0.5,2.3c-0.3,0.7-0.7,1.3-1.3,1.8c-0.6,0.5-1.3,0.9-2.1,1.1c-0.8,0.3-1.7,0.4-2.8,0.4
				c-1.2,0-2.2-0.2-3.2-0.5c-0.9-0.3-1.7-0.8-2.3-1.4c-0.6-0.6-1.1-1.3-1.4-2.1c-0.3-0.8-0.5-1.7-0.5-2.6v-0.8h3.4v0.6
				c0,1.1,0.3,2,0.9,2.6s1.6,1,3,1c1,0,1.8-0.2,2.3-0.7c0.5-0.5,0.8-1,0.8-1.6c0-0.3-0.1-0.6-0.2-0.8c-0.1-0.3-0.3-0.5-0.5-0.7
				c-0.3-0.2-0.6-0.4-1.1-0.6c-0.5-0.2-1-0.3-1.7-0.4c-0.9-0.2-1.8-0.4-2.5-0.6c-0.8-0.3-1.4-0.6-2-1s-1-0.9-1.3-1.6
				s-0.5-1.4-0.5-2.3v-0.2c0-0.7,0.2-1.4,0.5-2.1c0.3-0.6,0.7-1.2,1.3-1.7s1.2-0.8,2-1.1c0.8-0.3,1.6-0.4,2.6-0.4
				c1.1,0,2,0.2,2.9,0.5c0.8,0.3,1.5,0.7,2.1,1.2c0.6,0.5,1,1.1,1.3,1.8s0.4,1.4,0.4,2.1v0.9h-3.4V96.2z"/>
			<path d="M168.3,90.6h11.5v3.3h-8.1V98h7.7v3.3h-7.7v4.2h8.4v3.3h-11.8V90.6z"/>
			<path d="M200.2,90.6h11.5v3.3h-8.1V98h7.7v3.3h-7.7v4.2h8.4v3.3h-11.8V90.6z"/>
			<path d="M231,90.6h6.6c2.3,0,3.9,0.5,5,1.6c1.1,1,1.6,2.7,1.6,4.9v5.3c0,2.2-0.5,3.8-1.6,4.9c-1.1,1-2.8,1.6-5,1.6H231v-3.3h1.7
				V93.9H231V90.6z M237.6,105.5c1.2,0,2-0.3,2.5-0.8c0.5-0.6,0.7-1.4,0.7-2.6v-5c0-1-0.2-1.8-0.7-2.4c-0.5-0.5-1.3-0.8-2.5-0.8
				h-1.5v11.6H237.6z"/>
		</g>
		<g class="st1">
			<path d="M288.6,104.9h-6.2l-0.9,3.9H278l4.3-18.2h6.4l4.3,18.2h-3.6L288.6,104.9z M283.2,101.6h4.7l-2.1-9.3h-0.5L283.2,101.6z"
				/>
			<path d="M307.6,108.8h-3.4v-5.5c0-0.4-0.1-0.8-0.3-1c-0.2-0.3-0.6-0.4-1.1-0.4h-4v6.9h-3.4V90.6h7c0.9,0,1.8,0.1,2.5,0.4
				c0.7,0.3,1.3,0.6,1.8,1.1c0.5,0.5,0.8,1,1.1,1.6s0.4,1.3,0.4,2v0.6c0,0.7-0.2,1.4-0.6,2.1c-0.4,0.6-1,1.1-1.8,1.5v0.5
				c0.6,0.1,1.1,0.3,1.4,0.7s0.5,0.9,0.5,1.5V108.8z M298.8,98.7h3.3c0.8,0,1.5-0.2,1.9-0.6c0.4-0.4,0.7-0.9,0.7-1.7v-0.3
				c0-0.6-0.2-1.1-0.7-1.6c-0.4-0.4-1.1-0.7-1.9-0.7h-3.3V98.7z"/>
			<path d="M315.7,109c-1.6-0.3-2.9-1.1-3.7-2.3c-0.9-1.2-1.3-2.9-1.3-5v-4.1c0-2.4,0.6-4.2,1.8-5.5s2.8-2,4.9-2
				c2.1,0,3.7,0.7,4.9,2c1.2,1.3,1.8,3.1,1.8,5.5v4.1c0,2.1-0.4,3.8-1.3,5c-0.9,1.2-2.1,2-3.7,2.3v0.5c0,0.5,0.2,0.7,0.7,0.7h1.6
				v3.1h-3.1c-0.7,0-1.3-0.2-1.8-0.7s-0.7-1.1-0.7-1.8V109z M317.4,106c0.6,0,1.1-0.1,1.6-0.3s0.8-0.5,1-0.9
				c0.3-0.4,0.4-0.8,0.5-1.3c0.1-0.5,0.2-1.1,0.2-1.7v-4.4c0-0.6-0.1-1.1-0.2-1.6c-0.1-0.5-0.3-0.9-0.6-1.3c-0.3-0.4-0.6-0.7-1-0.9
				s-0.9-0.3-1.5-0.3c-0.6,0-1.1,0.1-1.5,0.3c-0.4,0.2-0.8,0.5-1,0.9c-0.3,0.4-0.5,0.8-0.6,1.3c-0.1,0.5-0.2,1-0.2,1.6v4.4
				c0,0.6,0.1,1.2,0.2,1.7c0.1,0.5,0.3,0.9,0.5,1.3s0.6,0.6,1,0.9S316.7,106,317.4,106z"/>
			<path d="M339.8,90.6v11.9c0,2.1-0.6,3.7-1.7,4.9c-1.1,1.2-2.7,1.8-4.9,1.8c-2.2,0-3.8-0.6-4.9-1.8c-1.1-1.2-1.7-2.8-1.7-4.9V90.6
				h3.4v11.9c0,1.1,0.3,1.9,0.8,2.5c0.5,0.6,1.3,0.9,2.4,0.9c1.1,0,1.9-0.3,2.4-0.9c0.5-0.6,0.8-1.4,0.8-2.5V90.6H339.8z"/>
			<path d="M343.1,90.6h12.2v3.3h-4.4v11.6h4.4v3.3h-12.2v-3.3h4.4V93.9h-4.4V90.6z"/>
			<path d="M358.5,90.6h13.1v3.3h-4.8v14.9h-3.4V93.9h-4.8V90.6z"/>
			<path d="M375.2,90.6h11.5v3.3h-8.1V98h7.7v3.3h-7.7v4.2h8.4v3.3h-11.8V90.6z"/>
			<path d="M390.4,90.6h13.1v3.3h-4.8v14.9h-3.4V93.9h-4.8V90.6z"/>
			<path d="M419.4,90.6v11.9c0,2.1-0.5,3.7-1.7,4.9c-1.1,1.2-2.7,1.8-4.9,1.8s-3.8-0.6-4.9-1.8c-1.1-1.2-1.7-2.8-1.7-4.9V90.6h3.4
				v11.9c0,1.1,0.3,1.9,0.8,2.5c0.5,0.6,1.3,0.9,2.4,0.9s1.9-0.3,2.4-0.9c0.5-0.6,0.8-1.4,0.8-2.5V90.6H419.4z"/>
		</g>
		<g class="st1">
			<path d="M447.8,104.9h-6.2l-0.9,3.9h-3.6l4.3-18.2h6.4l4.3,18.2h-3.6L447.8,104.9z M442.3,101.6h4.7l-2.1-9.3h-0.5L442.3,101.6z"
				/>
		</g>
		<g class="st1">
			<path d="M104.7,121.8h11.5v3.3h-8.1v4.2h7.7v3.3h-7.7v4.2h8.4v3.3h-11.8V121.8z"/>
			<path d="M126.5,137.2c0.7,0,1.2-0.1,1.6-0.3s0.8-0.5,1-0.8s0.4-0.7,0.5-1.2c0.1-0.4,0.1-0.9,0.1-1.4v-0.5h3.4v0.5
				c0,2.2-0.6,3.8-1.7,5s-2.8,1.8-5,1.8c-2.1,0-3.7-0.6-4.9-1.9c-1.2-1.3-1.8-3.1-1.8-5.5v-4.1c0-1.2,0.2-2.2,0.5-3.1
				c0.3-0.9,0.8-1.7,1.4-2.3s1.3-1.1,2.1-1.5s1.8-0.5,2.8-0.5c1.1,0,2,0.2,2.9,0.5c0.8,0.3,1.5,0.8,2.1,1.4c0.6,0.6,1,1.3,1.3,2.1
				c0.3,0.8,0.4,1.8,0.4,2.8v0.5h-3.4v-0.5c0-0.4-0.1-0.9-0.2-1.3c-0.1-0.4-0.3-0.8-0.5-1.2c-0.2-0.3-0.6-0.6-1-0.8
				s-0.9-0.3-1.6-0.3c-0.6,0-1.1,0.1-1.5,0.3s-0.8,0.5-1,0.9c-0.3,0.4-0.5,0.8-0.6,1.3c-0.1,0.5-0.2,1-0.2,1.5v4.6
				c0,0.6,0.1,1.1,0.2,1.6c0.1,0.5,0.3,0.9,0.6,1.3c0.3,0.4,0.6,0.6,1,0.8S125.9,137.2,126.5,137.2z"/>
			<path d="M135.6,128.9c0-2.4,0.6-4.2,1.8-5.5c1.2-1.3,2.8-2,4.9-2c2.1,0,3.7,0.7,4.9,2c1.2,1.3,1.8,3.1,1.8,5.5v4.1
				c0,2.4-0.6,4.3-1.8,5.5c-1.2,1.3-2.8,1.9-4.9,1.9c-2.1,0-3.7-0.6-4.9-1.9c-1.2-1.3-1.8-3.1-1.8-5.5V128.9z M142.3,137.2
				c0.6,0,1.1-0.1,1.6-0.3s0.8-0.5,1-0.8c0.3-0.4,0.4-0.8,0.5-1.3c0.1-0.5,0.2-1.1,0.2-1.7v-4.5c0-0.6-0.1-1.1-0.2-1.6
				c-0.1-0.5-0.3-0.9-0.6-1.3c-0.3-0.4-0.6-0.7-1-0.9s-0.9-0.3-1.5-0.3c-0.6,0-1.1,0.1-1.5,0.3c-0.4,0.2-0.8,0.5-1,0.9
				c-0.3,0.4-0.5,0.8-0.6,1.3c-0.1,0.5-0.2,1-0.2,1.6v4.5c0,0.6,0.1,1.2,0.2,1.7c0.1,0.5,0.3,0.9,0.5,1.3c0.3,0.4,0.6,0.6,1,0.8
				S141.7,137.2,142.3,137.2z"/>
		</g>
		<g class="st1">
			<path d="M168.5,121.8h11.6v3.3h-8.2v4.2h8.1v3.3h-8.1v7.5h-3.4V121.8z"/>
			<path d="M184,121.8h12.2v3.3h-4.4v11.6h4.4v3.3H184v-3.3h4.4v-11.6H184V121.8z"/>
			<path d="M206,137.2c0.7,0,1.2-0.1,1.6-0.3s0.8-0.5,1-0.8s0.4-0.7,0.5-1.2c0.1-0.4,0.1-0.9,0.1-1.4v-0.5h3.4v0.5
				c0,2.2-0.6,3.8-1.7,5s-2.8,1.8-5,1.8c-2.1,0-3.7-0.6-4.9-1.9c-1.2-1.3-1.8-3.1-1.8-5.5v-4.1c0-1.2,0.2-2.2,0.5-3.1
				c0.3-0.9,0.8-1.7,1.4-2.3s1.3-1.1,2.1-1.5s1.8-0.5,2.8-0.5c1.1,0,2,0.2,2.9,0.5c0.8,0.3,1.5,0.8,2.1,1.4c0.6,0.6,1,1.3,1.3,2.1
				c0.3,0.8,0.4,1.8,0.4,2.8v0.5h-3.4v-0.5c0-0.4-0.1-0.9-0.2-1.3c-0.1-0.4-0.3-0.8-0.5-1.2c-0.2-0.3-0.6-0.6-1-0.8
				s-0.9-0.3-1.6-0.3c-0.6,0-1.1,0.1-1.5,0.3s-0.8,0.5-1,0.9c-0.3,0.4-0.5,0.8-0.6,1.3c-0.1,0.5-0.2,1-0.2,1.5v4.6
				c0,0.6,0.1,1.1,0.2,1.6c0.1,0.5,0.3,0.9,0.6,1.3c0.3,0.4,0.6,0.6,1,0.8S205.4,137.2,206,137.2z"/>
			<path d="M215.8,121.8H228v3.3h-4.4v11.6h4.4v3.3h-12.2v-3.3h4.4v-11.6h-4.4V121.8z"/>
			<path d="M232,121.8h11.5v3.3h-8.1v4.2h7.7v3.3h-7.7v4.2h8.4v3.3H232V121.8z"/>
			<path d="M256.2,138.3h0.5v-16.5h3.4V140h-6.7l-2.1-16.5h-0.5V140h-3.4v-18.2h6.7L256.2,138.3z"/>
			<path d="M263.1,121.8h13.1v3.3h-4.8V140h-3.4v-14.9h-4.8V121.8z"/>
		</g>
		<line class="st2" x1="90.8" y1="44.5" x2="90.8" y2="169.1"/>
		<path d="M114.3,62.1v5.3h-8v-5.3L114.3,62.1z M103.8,59.4v10.5h10.5v5.3h-8v-2.5h-2.6v2.5v2.7h13.1V59.4H103.8z"/>
		<path d="M151.7,59.4h13.1v18.4h-2.6v-5.3h-7.8v5.3h-2.7L151.7,59.4z M154.4,62.1v7.8h7.8v-7.8L154.4,62.1z"/>
		<path d="M199.4,59.4h13.1v18.4h-2.6V67.3h-7.8v10.4h-2.7L199.4,59.4z M202,62.1v2.6h7.8v-2.6L202,62.1z"/>
		<polygon points="433.6,62 436.2,62.1 436.2,59.4 431.1,59.4 431.1,75.1 425.8,75.1 425.9,59.4 423.2,59.4 423.2,77.8 433.6,77.8 
					"/>
		<path d="M433,90.5h2.8v7.8v2.7h-2.5v7.9h-2.6v-7.9h-5.2v7.9h-2.5V90.5H433 M425.4,93.2v5.2h7.9v-5.2L425.4,93.2z"/>
		<polygon points="152.3,140 152.3,140 152.3,140 165.2,140 165.2,137.3 154.9,137.3 154.9,132.1 160.1,132.2 160.1,129.6 
			154.9,129.6 154.9,124.5 165.2,124.5 165.2,121.9 152.3,121.9 		"/>
		<polygon points="279.6,140.1 279.6,140.1 292.5,140.1 292.5,140.1 292.5,137.4 282.2,137.4 282.1,132.2 292.5,132.3 292.5,129.7 
			282.2,129.7 282.2,124.5 292.5,124.5 292.5,121.9 279.5,121.9 		"/>
		<path d="M247.2,90.4h13v18.2h-2.6v-7.8h-7.7v7.8h-2.7V90.4z M249.8,93.1v5.2h7.7v-5.1L249.8,93.1z"/>
            </g>
			
		</g>
</svg>