<svg class="img_svg"
	xmlns="http://www.w3.org/2000/svg"
	xmlns:xlink="http://www.w3.org/1999/xlink" viewBox="0 0 554.47 265.86">

	<title>v43M</title>
		<g id="v43">
		
			<rect id="nchao" class="cls-3" y="184.29" width="554.47" height="81.57"/>
			<g id="nlado">
				<polyline class="cls-4" points="250.54 238.14 271.46 217.43 271.35 154.29 250.54 175.06"/>
			</g>
			<g id="ncima">
				<polygon class="cls-5" points="208.92 133.19 250.54 175.06 271.35 154.29 229.66 112.1 208.92 133.19"/>
			</g>
			<g id="nborda">
				<polyline class="cls-6" points="250.51 238.14 250.51 175.06 208.89 133.19 167.34 175.06 167.81 237.97"/>
			</g>
			<polygon id="piso2" class="cls-7" points="197.35 210.62 247.56 210.62 247.56 236.18 170.31 236.14 197.35 210.62"/>
			<g id="nfrente">
				<polygon class="cls-8" points="211.56 213.18 212.15 215.53 214.32 215.53 214.65 213.17 211.56 213.18"/>
				<polygon class="cls-8" points="247.56 210.62 247.56 175.62 209.18 136.81 197.35 148.61 197.35 210.62 247.56 210.62 247.56 210.62"/>
				<rect class="cls-8" x="224.48" y="213.08" width="9.91" height="1.18"/>
			</g>
			<g id="ndentro">
				<polygon class="cls-9" points="170.31 236.14 197.35 210.62 197.35 148.61 170.31 175.65 170.31 236.14 170.31 236.14"/>
				<rect class="cls-9" x="225.75" y="214.35" width="9.91" height="1.18"/>
				<rect class="cls-9" x="225.71" y="211.86" width="9.91" height="1.18"/>
				<path class="cls-9" d="M237.34,188.08h2.31l3.06,4.66h-8.45S237.51,187.91,237.34,188.08Z"/>
			</g>
			<g id="nfrente2">
				<path class="cls-8" d="M179.32,176.56l10.9-10.4.06,6.35-10.65,10.15S179.35,176.59,179.32,176.56Z"/>
				<path class="cls-8" d="M179.32,187.3l10.9-10.4v40.45l-10.64,10S179.35,187.33,179.32,187.3Z"/>
			</g>
			<g id="piso">
				<path class="cls-7" d="M183.44,176.4l5.56-5,.06,1.34-5.52,5S183.47,176.43,183.44,176.4Z"/>
				<path class="cls-7" d="M180.63,178.91l.78-.78.05,1.35-.73.77S180.66,178.94,180.63,178.91Z"/>
				<path class="cls-7" d="M181.7,177.84l.78-.78.05,1.35-.73.77S181.73,177.87,181.7,177.84Z"/>
				<path class="cls-7" d="M182.16,197.86l2.79-2.64v1.2l-2.79,2.63S182.19,197.89,182.16,197.86Z"/>
				<path class="cls-7" d="M186.32,202.75l2.8-2.64v1.2l-2.8,2.63S186.35,202.78,186.32,202.75Z"/>
				<path class="cls-7" d="M182.33,196.37l2.79-2.64v1.2l-2.79,2.63S182.36,196.39,182.33,196.37Z"/>
				<path class="cls-7" d="M186.39,201.38l1.9-1.82v1.2l-1.9,1.81S186.41,201.4,186.39,201.38Z"/>
				<path class="cls-7" d="M186.84,199.56l2.16-2v1.2l-2.16,2S186.87,199.59,186.84,199.56Z"/>
				<polygon class="cls-7" points="179.32 187.3 180.17 186.45 180.17 192.41 179.34 193.24 179.32 187.3"/>
				<polygon class="cls-7" points="180.25 188.06 181.1 187.21 181.1 191.49 180.26 192.32 180.25 188.06"/>
				<polygon class="cls-7" points="181.19 187.11 182.04 186.26 182.04 190.54 181.21 191.37 181.19 187.11"/>
				<polygon class="cls-7" points="181.25 212.51 182.1 211.66 182.1 216.71 181.26 217.54 181.25 212.51"/>
				<polygon class="cls-7" points="180.21 212.2 181.06 211.35 181.06 217.74 180.23 218.57 180.21 212.2"/>
				<polygon class="cls-7" points="188.29 181.43 189.14 180.58 189.14 183.67 188.31 184.5 188.29 181.43"/>
				<polygon class="cls-7" points="189.24 179.3 190.09 178.45 190.09 182.72 189.25 183.56 189.24 179.3"/>
				<polygon class="cls-7" points="180.25 196.66 181.1 195.81 181.1 200.09 180.26 200.92 180.25 196.66"/>
				<polygon class="cls-7" points="181.19 195.83 182.04 194.98 182.04 199.25 181.21 200.09 181.19 195.83"/>
				<polygon class="cls-7" points="185.35 200.6 186.2 199.75 186.2 204.03 185.37 204.86 185.35 200.6"/>
				<polygon class="cls-7" points="185.35 191.81 186.2 190.97 186.2 195.24 185.37 196.07 185.35 191.81"/>
				<polygon class="cls-7" points="189.24 188.14 190.09 187.29 190.09 191.57 189.25 192.4 189.24 188.14"/>
				<polygon class="cls-7" points="189.24 205.71 190.09 204.86 190.09 209.14 189.25 209.97 189.24 205.71"/>
				<polygon class="cls-7" points="189.24 196.92 190.09 196.07 190.09 200.35 189.25 201.18 189.24 196.92"/>
				<polygon class="cls-7" points="205.26 201.11 205.26 195.76 205.99 194.98 232.79 194.98 233.51 195.73 233.51 201.08 232.77 201.08 232 201.84 232 204.14 206.77 204.14 206.77 201.86 206.01 201.09 205.26 201.11"/>
			</g>
  <rect
   id="janela"
   x="203.03"
   y="175.09"
   width="33.17"
   height="9.23"
  />
			
			<g id="escuro">
				<rect class="cls-13" x="238.12" y="192.74" width="0.71" height="18.3"/>
				<polyline class="cls-13" points="203.75 206.49 203.75 208 204.46 208.76 234.34 208.76 235.09 208.02 235.09 206.43 235.09 206.43 235.09 202.6 235.09 202.6 235.09 201.86 234.31 201.09 232.77 201.09 232.01 201.85 232.01 204.93 206.81 204.93 206.8 201.9 206.01 201.09 204.45 201.09 203.71 201.87 203.71 203.39"/>
				<polygon class="cls-13" points="232.81 208.72 232.81 211.03 232.01 211.03 232.01 208.74 232.81 208.72"/>
				<polygon class="cls-13" points="206.81 208.74 206.81 211.04 206 211.04 206 208.75 206.81 208.74"/>
				<polygon class="cls-13" points="213.4 216.91 213.4 222.13 211.83 222.13 211.83 216.95 213.4 216.91"/>
				<polygon class="cls-13" points="237.95 216.91 237.95 222.13 236.37 222.13 236.37 216.95 237.95 216.91"/>
				<polygon class="cls-13" points="210.41 215.56 210.41 217.13 239.47 217.13 239.47 215.53 210.41 215.56"/>
				<g id="prateleira">
					<path class="cls-13" d="M179.32,193.23l10.9-10.51v1.2l-10.9,10.5S179.35,193.25,179.32,193.23Z"/>
					<path class="cls-13" d="M179.42,201.84l10.8-10.31v1.2L179.42,203S179.45,201.86,179.42,201.84Z"/>
					<path class="cls-13" d="M179.48,210.59l10.74-10.25v1.2l-10.73,10.23S179.51,210.62,179.48,210.59Z"/>
					<path class="cls-13" d="M179.54,219.35l10.68-10.2v1.2l-10.68,10.19S179.56,219.38,179.54,219.35Z"/>
				</g>
			</g>
			<g id="lado">
				<polyline class="cls-12" points="343.47 238.14 364.39 217.43 364.28 154.29 343.47 175.06"/>
			</g>
			<g id="cima">
				<polygon class="cls-14" points="301.85 133.19 343.47 175.06 364.28 154.29 322.59 112.1 301.85 133.19"/>
			</g>
			<g id="frente">
				<polyline class="cls-15" points="343.44 238.14 343.44 175.06 301.82 133.19 260.27 175.06 260.74 237.97"/>
			</g>
			<g id="parede">
				<polygon class="cls-1" points="336.96 208.78 336.96 176.94 302.05 141.64 291.29 152.37 291.29 208.78 336.96 208.78 336.96 208.78"/>
				
			</g>
			    <rect id="janela-2" x="295.96" y="175.09" width="33.17" height="9.23" />
		
			<polygon id="piso2-2" data-name="piso2" class="cls-17" points="291.29 208.78 336.96 208.78 336.96 232.03 266.7 231.99 291.29 208.78"/>
			<g id="lado-2" data-name="lado">
				<g id="dentro">
					<polygon class="cls-18" points="266.7 231.99 291.29 208.78 291.29 152.37 266.7 176.97 266.7 231.99 266.7 231.99"/>
				</g>
				<path class="cls-18" d="M330.27,186.65h2.31l3.06,4.66h-8.45S330.44,186.48,330.27,186.65Z"/>
				<rect class="cls-18" x="318.68" y="214.35" width="9.91" height="1.18"/>
				<rect class="cls-18" x="318.64" y="211.86" width="9.91" height="1.18"/>
			</g>
			<g id="frente2">
				<path class="cls-1" d="M272.25,176.56l10.9-10.4.05,6.35-10.64,10.15S272.28,176.59,272.25,176.56Z"/>
				<path class="cls-1" d="M272.25,187.3l10.9-10.4v39.46l-10.64,10.15S272.28,187.33,272.25,187.3Z"/>
			</g>
			<g id="piso-2" data-name="piso">
				<path class="cls-17" d="M275.09,197.86l2.79-2.64v1.2l-2.79,2.63S275.12,197.89,275.09,197.86Z"/>
				<path class="cls-17" d="M279.25,202.75l2.79-2.64v1.2l-2.79,2.63S279.28,202.78,279.25,202.75Z"/>
				<path class="cls-17" d="M275.26,196.37l2.79-2.64v1.2l-2.79,2.63S275.29,196.39,275.26,196.37Z"/>
				<path class="cls-17" d="M279.32,201.38l1.9-1.82v1.2l-1.9,1.81S279.34,201.4,279.32,201.38Z"/>
				<path class="cls-17" d="M279.77,199.56l2.15-2v1.2l-2.15,2S279.8,199.59,279.77,199.56Z"/>
				<polygon class="cls-17" points="272.25 187.3 273.1 186.45 273.1 192.41 272.27 193.24 272.25 187.3"/>
				<polygon class="cls-17" points="273.18 188.06 274.02 187.21 274.02 191.49 273.19 192.32 273.18 188.06"/>
				<polygon class="cls-17" points="274.12 187.11 274.97 186.26 274.97 190.54 274.14 191.37 274.12 187.11"/>
				<polygon class="cls-17" points="274.18 212.51 275.03 211.66 275.03 216.71 274.19 217.54 274.18 212.51"/>
				<polygon class="cls-17" points="273.14 212.2 273.99 211.35 273.99 217.74 273.16 218.57 273.14 212.2"/>
				<polygon class="cls-17" points="281.22 181.43 282.07 180.58 282.07 183.67 281.24 184.5 281.22 181.43"/>
				<polygon class="cls-17" points="282.17 179.3 283.01 178.45 283.01 182.72 282.18 183.56 282.17 179.3"/>
				<polygon class="cls-17" points="273.18 196.66 274.02 195.81 274.02 200.09 273.19 200.92 273.18 196.66"/>
				<polygon class="cls-17" points="274.12 195.83 274.97 194.98 274.97 199.25 274.14 200.09 274.12 195.83"/>
				<polygon class="cls-17" points="278.28 200.6 279.13 199.75 279.13 204.03 278.3 204.86 278.28 200.6"/>
				<polygon class="cls-17" points="278.28 191.81 279.13 190.97 279.13 195.24 278.3 196.07 278.28 191.81"/>
				<polygon class="cls-17" points="282.17 188.14 283.01 187.29 283.01 191.57 282.18 192.4 282.17 188.14"/>
				<polygon class="cls-17" points="282.17 205.71 283.01 204.86 283.01 209.14 282.18 209.97 282.17 205.71"/>
				<polygon class="cls-17" points="282.17 196.92 283.01 196.07 283.01 200.35 282.18 201.18 282.17 196.92"/>
				<polygon class="cls-17" points="298.19 199.68 298.19 194.33 298.92 193.54 325.72 193.54 326.44 194.3 326.44 199.65 325.7 199.65 324.93 200.41 324.93 202.71 299.7 202.71 299.7 200.42 298.94 199.66 298.19 199.68"/>
			</g>
			<g id="plantas-2" data-name="plantas">
				<polygon class="cls-12" points="304.49 213.21 304.49 213.21 305.43 213.21 305.79 213.21 306.53 212.48 306.53 211.05 305.8 210.27 305.06 209.54 304.33 210.27 303.59 211.05 303.59 212.49 304.49 213.21 304.49 213.21"/>
				<polygon class="cls-12" points="306.27 213.21 306.27 213.21 307.2 213.21 307.57 213.21 308.31 212.48 308.31 211.05 307.58 210.27 306.83 209.54 306.11 210.27 305.36 211.05 305.36 212.49 306.27 213.21 306.27 213.21"/>
				<polygon class="cls-12" points="305.43 213.21 305.43 213.21 306.36 213.21 306.73 213.21 307.46 212.48 307.46 211.05 306.74 210.27 305.99 209.54 305.26 210.27 304.52 211.05 304.52 212.49 305.43 213.21 305.43 213.21"/>
			</g>
			<g id="frente-2" data-name="frente">
				<rect class="cls-1" x="317.41" y="213.08" width="9.91" height="1.18"/>
				<polygon class="cls-1" points="304.48 213.18 305.08 215.53 307.25 215.53 307.58 213.17 304.48 213.18"/>
			</g>
			<g id="escuro-2" data-name="escuro">
				<polyline class="cls-19" points="296.68 205.06 296.68 206.57 297.38 207.33 327.27 207.33 328.02 206.58 328.02 205 328.02 205 328.02 201.16 328.02 201.16 328.02 200.43 327.24 199.66 325.7 199.66 324.94 200.41 324.94 203.49 299.73 203.49 299.73 200.47 298.94 199.65 297.38 199.65 296.64 200.44 296.64 201.96"/>
				<polygon class="cls-19" points="325.74 207.29 325.74 209.6 324.94 209.6 324.94 207.31 325.74 207.29"/>
				<polygon class="cls-19" points="306.33 216.91 306.33 222.13 304.75 222.13 304.75 216.95 306.33 216.91"/>
				<polygon class="cls-19" points="330.88 216.91 330.88 222.13 329.3 222.13 329.3 216.95 330.88 216.91"/>
				<polygon class="cls-19" points="303.33 215.56 303.33 217.13 332.4 217.13 332.4 215.53 303.33 215.56"/>
				<path class="cls-19" d="M272.25,193.23l10.9-10.51v1.2l-10.9,10.5S272.28,193.25,272.25,193.23Z"/>
				<path class="cls-19" d="M272.35,201.84l10.8-10.31v1.2L272.35,203S272.38,201.86,272.35,201.84Z"/>
				<path class="cls-19" d="M272.41,210.59l10.74-10.25v1.2l-10.73,10.23S272.44,210.62,272.41,210.59Z"/>
				<path class="cls-19" d="M272.47,219.35l10.68-10.2v1.2l-10.68,10.19S272.49,219.38,272.47,219.35Z"/>
				<polygon class="cls-19" points="299.73 207.3 299.73 209.61 298.93 209.61 298.93 207.32 299.73 207.3"/>
				<rect class="cls-19" x="331.05" y="191.31" width="0.71" height="18.3"/>
				<path class="cls-19" d="M276.3,176.4l5.56-5,.05,1.34-5.52,5S276.32,176.43,276.3,176.4Z"/>
				<path class="cls-19" d="M273.49,178.91l.78-.78.05,1.35-.73.77S273.52,178.94,273.49,178.91Z"/>
				<path class="cls-19" d="M274.56,177.84l.78-.78.05,1.35-.74.77S274.59,177.87,274.56,177.84Z"/>
			</g>
			<g id="estrago">
				<polyline class="cls-20" points="202.99 186.67 202.99 171.97 202.99 165.83 206.68 165.83 202.56 161.72 207.26 157.01"/>
				<polyline class="cls-20" points="230.71 192.18 226.6 188.57 221.93 189.85 217.45 186.67"/>
				<polyline class="cls-20" points="199.86 153.07 200.78 148.61 206 152.37 207.26 140.82 211.36 143.58 212.62 143.58 222.46 152.37"/>
				<polyline class="cls-20" points="205.63 192.98 202.28 192.98 204.14 198.61 201.79 200.99 201.79 206.3 202.94 209.39"/>
				<polyline class="cls-20" points="245.03 176.9 246.69 180.25 244.19 184.1 246.69 190.41 245.44 196.22 245.44 201.71"/>
				<polyline class="cls-20" points="236.39 185.75 236.38 171.38 226.79 165.25 222.65 169.7 216.8 158.83"/>
			</g>
			<polygon id="plantaPO" class="cls-21" points="106.31 204.27 84.14 182.1 84.14 146.56 107.88 122.81 131.66 146.59 131.66 183.28 110.05 204.27 106.31 204.27"/>
			<g id="arvore">
				<polygon class="cls-22" points="435.06 228.5 435.06 238.14 439.51 238.14 439.51 228.24 435.06 228.5"/>
				<polyline class="cls-22" points="432.57 154.63 427.3 157.96 424.59 160.46 423.65 159.57 429.6 150.45 427.3 149.62 421.21 159.57 418.37 160.46 410.93 159.57 414.58 154.46 419.18 149.62 420.94 145.62 430 144.65 435.68 138.78 433.92 136.77 429.06 142.78 420.54 143.28 425.81 137.78 430.54 133.44 428.78 131.27 425.47 135.36 420.54 138.28 417.15 146.28 412.69 152.96 411.61 141.44 416.88 122.93 414.58 122.93 410.8 138.28 409.65 124.03 411.2 118.42 408.5 117.42 407.35 123.59 408.77 142.78 408.23 145.45 405.39 139.61 403.63 128.93 402.01 128.93 402.01 140.28 406.34 148.79 406.74 157.28 401.33 154.63 395.92 144.65 395.92 129.43 394.03 130.6 394.03 142.78 384.56 134.94 383.62 137.44 393.76 144.65 396.19 150.79 388.89 152.79 383.62 149.29 383.62 152.62 389.2 155.4 397.14 153.12 400.39 156.46 405.66 160.63 406.61 164.3 405.39 201.84 410.8 201.84 409.18 175.48 409.72 163.47 417.86 162.53 423.83 163.63 426.89 162.41 430.41 164.47 430.41 164.47 431.35 162.97 431.35 162.97 428.24 160.46 432.44 157.28"/>
				<polygon class="cls-22" points="106.31 233.19 106.31 198.75 96.56 189.32 97.97 186.96 106.92 194.9 106.41 184.48 90.92 177.9 91.93 174.8 100.78 178.65 95.45 173.44 97.16 171.95 105.01 180.51 108.22 181.13 105.31 165.5 92.53 154.83 93.74 150.98 103.3 160.53 99.57 151.72 102.09 150.98 106.72 163.26 104.7 147.38 106.61 147.38 109.93 175.67 112.05 170.96 111.34 151.23 114.66 150.73 114.16 169.84 124.01 158.55 125.32 162.39 119.49 167.85 125.32 168.72 124.82 170.83 118.68 169.47 116.27 170.96 121.8 173.19 120.8 175.67 114.06 173.81 110.76 182.95 110.74 190.28 114.16 186.47 119.69 179.64 121.5 182.62 109.83 196.14 110.74 233.19 106.31 233.19"/>
			</g>
	 <g id="plantaV">
     <polygon
      points="83.64 144.18 102.95 122.82 113.63 122.94 131.43 143.78 131.43 187.19 110.55 203.93 105.9 203.97 83.64 186.88 83.64 144.18"
     />
     <polygon
      points="399.76 106.86 414.45 106.86 437.32 129.42 442.14 144.56 437.22 159.83 419.02 178.37 393.86 178.37 377.52 159.54 372.07 144.33 377.55 129 399.76 106.86"
     />
    </g>
			<g id="plantas">
            				<polygon class="cls-12" points="436.35 153.58 430.81 160.74 425.2 179.38 423.4 197.54 425.17 216.41 435.06 228.8 439.51 228.54 449.34 216.42 451.34 197.64 449.41 179.49 441.85 160.75 436.35 153.58"/>
				<polygon class="cls-3" points="304.49 213.21 304.49 213.21 305.43 213.21 305.79 213.21 306.53 212.48 306.53 211.05 305.8 210.27 305.06 209.54 304.33 210.27 303.59 211.05 303.59 212.49 304.49 213.21 304.49 213.21"/>
				<polygon class="cls-3" points="306.27 213.21 306.27 213.21 307.2 213.21 307.57 213.21 308.31 212.48 308.31 211.05 307.58 210.27 306.83 209.54 306.11 210.27 305.36 211.05 305.36 212.49 306.27 213.21 306.27 213.21"/>
				<polygon class="cls-3" points="305.43 213.21 305.43 213.21 306.36 213.21 306.73 213.21 307.46 212.48 307.46 211.05 306.74 210.27 305.99 209.54 305.26 210.27 304.52 211.05 304.52 212.49 305.43 213.21 305.43 213.21"/>
			</g>
			<g id="plantas-3" data-name="plantas">
				<polygon class="cls-21" points="436.35 153.58 430.81 160.74 425.2 179.38 423.4 197.54 425.17 216.41 435.06 228.8 439.51 228.54 449.34 216.42 451.34 197.64 449.41 179.49 441.85 160.75 436.35 153.58"/>
			</g>
		</g>
</svg>