<svg class="img_svg"
	xmlns="http://www.w3.org/2000/svg" viewBox="0 0 554.47 265.86">
	

		<g id="v45">
			
			<rect id="chao" class="cls-2" y="184.29" width="554.47" height="81.57"/>
			<g id="nlado">
				<polyline class="cls-3" points="250.67 236.4 271.23 216.15 271.13 153.06 250.32 173.83"/>
			</g>
			<g id="lado">
				<polyline class="cls-4" points="343.47 236.2 364.39 215.49 364.28 152.35 343.47 173.13"/>
			</g>
			<g id="ncima">
				<polygon class="cls-5" points="208.96 131.96 250.58 173.83 271.39 153.06 229.7 110.87 208.96 131.96"/>
			</g>
			<g id="nfrente">
				<polyline class="cls-6" points="250.67 236.4 250.67 173.83 209.05 131.96 167.67 173.69 167.67 236.22"/>
			</g>
			<g id="cima">
				<polygon class="cls-7" points="301.85 131.25 343.47 173.13 364.28 152.35 322.59 110.16 301.85 131.25"/>
			</g>
			<g id="njanela">
				<rect class="cls-8" x="219.28" y="173.62" width="20.61" height="20.61"/>
				<rect class="cls-8" x="177.45" y="194.58" width="20.61" height="41.62"/>
			</g>
			<g id="frente">
				<polyline class="cls-9" points="343.47 236.2 343.47 173.13 301.85 131.25 260.3 173.13 260.78 236.03"/>
			</g>
			<g id="janela">
				<rect class="cls-10" x="313.38" y="173.22" width="20.61" height="20.61"/>
				<rect class="cls-10" x="271.56" y="194.4" width="20.61" height="41.62"/>
			</g>
			<polygon id="plantaPO" class="cls-10" points="106.31 204.27 84.14 182.1 84.14 146.56 107.88 122.81 131.66 146.59 131.66 183.28 110.05 204.27 106.31 204.27"/>
			<g id="arvore">
				<polygon class="cls-11" points="435.06 228.5 435.06 238.14 439.51 238.14 439.51 228.24 435.06 228.5"/>
				<polyline class="cls-11" points="432.57 154.63 427.3 157.96 424.59 160.46 423.65 159.57 429.6 150.45 427.3 149.62 421.21 159.57 418.37 160.46 410.93 159.57 414.58 154.46 419.18 149.62 420.94 145.62 430 144.65 435.68 138.78 433.92 136.77 429.06 142.78 420.54 143.28 425.81 137.78 430.54 133.44 428.78 131.27 425.47 135.36 420.54 138.28 417.15 146.28 412.69 152.96 411.61 141.44 416.88 122.93 414.58 122.93 410.8 138.28 409.65 124.03 411.2 118.42 408.5 117.42 407.35 123.59 408.77 142.78 408.23 145.45 405.39 139.61 403.63 128.93 402.01 128.93 402.01 140.28 406.34 148.79 406.74 157.28 401.33 154.63 395.92 144.65 395.92 129.43 394.03 130.6 394.03 142.78 384.56 134.94 383.62 137.44 393.76 144.65 396.19 150.79 388.89 152.79 383.62 149.29 383.62 152.62 389.2 155.4 397.14 153.12 400.39 156.46 405.66 160.63 406.61 164.3 405.39 201.84 410.8 201.84 409.18 175.48 409.72 163.47 417.86 162.53 423.83 163.63 426.89 162.41 430.41 164.47 430.41 164.47 431.35 162.97 431.35 162.97 428.24 160.46 432.44 157.28"/>
				<polygon class="cls-11" points="106.31 233.19 106.31 198.75 96.56 189.32 97.97 186.96 106.92 194.9 106.41 184.48 90.92 177.9 91.93 174.8 100.78 178.65 95.45 173.44 97.16 171.95 105.01 180.51 108.22 181.13 105.31 165.5 92.53 154.83 93.74 150.98 103.3 160.53 99.57 151.72 102.09 150.98 106.72 163.26 104.7 147.38 106.61 147.38 109.93 175.67 112.05 170.96 111.34 151.23 114.66 150.73 114.16 169.84 124.01 158.55 125.32 162.39 119.49 167.85 125.32 168.72 124.82 170.83 118.68 169.47 116.27 170.96 121.8 173.19 120.8 175.67 114.06 173.81 110.76 182.95 110.74 190.28 114.16 186.47 119.69 179.64 121.5 182.62 109.83 196.14 110.74 233.19 106.31 233.19"/>
			</g>
			 <g id="plantaV">
     <polygon
      points="83.64 144.18 102.95 122.82 113.63 122.94 131.43 143.78 131.43 187.19 110.55 203.93 105.9 203.97 83.64 186.88 83.64 144.18"
     />
     <polygon
      points="399.76 106.86 414.45 106.86 437.32 129.42 442.14 144.56 437.22 159.83 419.02 178.37 393.86 178.37 377.52 159.54 372.07 144.33 377.55 129 399.76 106.86"
     />
    </g>
			<g id="plantas">
            				<polygon class="cls-12" points="436.35 153.58 430.81 160.74 425.2 179.38 423.4 197.54 425.17 216.41 435.06 228.8 439.51 228.54 449.34 216.42 451.34 197.64 449.41 179.49 441.85 160.75 436.35 153.58"/>
				<polygon class="cls-3" points="304.49 213.21 304.49 213.21 305.43 213.21 305.79 213.21 306.53 212.48 306.53 211.05 305.8 210.27 305.06 209.54 304.33 210.27 303.59 211.05 303.59 212.49 304.49 213.21 304.49 213.21"/>
				<polygon class="cls-3" points="306.27 213.21 306.27 213.21 307.2 213.21 307.57 213.21 308.31 212.48 308.31 211.05 307.58 210.27 306.83 209.54 306.11 210.27 305.36 211.05 305.36 212.49 306.27 213.21 306.27 213.21"/>
				<polygon class="cls-3" points="305.43 213.21 305.43 213.21 306.36 213.21 306.73 213.21 307.46 212.48 307.46 211.05 306.74 210.27 305.99 209.54 305.26 210.27 304.52 211.05 304.52 212.49 305.43 213.21 305.43 213.21"/>
			</g>
		</g>
</svg>