<svg class="img_svg"
	xmlns="http://www.w3.org/2000/svg" viewBox="0 0 554.47 265.86">

		<g id="v47">
			
			<rect id="chao" class="cls-2" y="184.29" width="554.47" height="81.57"/>
<g id="nlado">
		<polyline class="st0" points="250.5,238.1 271.7,216.6 271.7,154.7 250.5,175.1 		"/>
	</g>
	<g id="lado">
		<polyline class="st0" points="343.4,238.1 364.4,217.4 364.4,150.1 343.4,171 		"/>
	</g>
	<g id="nfrente">
		<polyline class="st0" points="250.5,238.1 250.5,175.1 167.3,175 167.3,174.2 167.8,238 		"/>
	</g>
	<g id="njanela">
		<rect x="219.8" y="174.1" class="st0" width="20.6" height="20.6"/>
		<rect x="177.9" y="195.1" class="st0" width="20.6" height="42.7"/>
	</g>
	<g id="frente">
		<polyline class="st0" points="343.4,238.2 343.4,175 260.3,175 260.3,175 260.7,238 		"/>
	</g>
	<g id="janela">
		<rect x="313.9" y="174.1" class="st0" width="20.6" height="20.6"/>
		<rect x="272.1" y="195.3" class="st0" width="20.6" height="42.7"/>
	</g>

<g id="piso">
		<polygon class="st0" points="271.8,155.7 271.8,92.6 250.7,113.4 250.7,176.1 		"/>
		<polygon class="st0" points="364.4,155.4 364.4,129.2 343.5,149.8 343.4,176 		"/>
	</g>
	<g id="escuro">
		<polygon class="st0" points="167.7,113.4 250.7,113.4 271.8,92.6 187.6,93.6 		"/>
		<polygon class="st0" points="260.3,149.8 343.5,149.8 364.4,129.2 280.1,129.9 		"/>
	</g>
  <g id="lado-2">
		<polygon class="st0" points="167.7,176.1 167.7,113.4 250.7,113.4 250.7,176.1 		"/>
		<polygon class="st0" points="260.3,176.1 260.3,149.8 343.5,149.8 343.4,176 		"/>
	</g>
	<g id="tabela">
		<g id="textC">
			<path class="st0" d="M118.8,74.4c0.3,0,0.6-0.1,0.9-0.2c0.2-0.1,0.4-0.3,0.6-0.5c0.2-0.2,0.3-0.4,0.3-0.7
				c0.1-0.3,0.1-0.5,0.1-0.8v-0.1h1v0.1c0,0.4-0.1,0.8-0.2,1.2c-0.1,0.4-0.3,0.7-0.6,1c-0.3,0.3-0.6,0.5-0.9,0.6
				c-0.4,0.2-0.8,0.2-1.3,0.2c-0.8,0-1.6-0.3-2.2-0.9c-0.6-0.7-0.8-1.6-0.8-2.6v-1.9c-0.1-0.9,0.2-1.8,0.8-2.5
				c0.6-0.6,1.4-0.9,2.2-0.9c0.4,0,0.9,0.1,1.3,0.2c0.4,0.1,0.7,0.4,0.9,0.6c0.3,0.3,0.5,0.6,0.6,1c0.1,0.4,0.2,0.8,0.2,1.2v0.1h-1
				v-0.1c0-0.3-0.1-0.5-0.1-0.8c-0.1-0.2-0.2-0.5-0.3-0.7c-0.2-0.2-0.4-0.4-0.6-0.5c-0.3-0.1-0.6-0.2-0.9-0.2
				c-0.6,0-1.1,0.2-1.5,0.7c-0.4,0.6-0.5,1.2-0.5,1.9v1.7c0,0.7,0.1,1.3,0.5,1.9C117.6,74.2,118.2,74.5,118.8,74.4z"/>
			<path class="st0" d="M127.7,69.3h0.9v6h-0.9v-1.1h-0.1c-0.2,0.4-0.4,0.7-0.8,0.9c-0.4,0.2-0.8,0.4-1.2,0.3
				c-0.3,0-0.6-0.1-0.9-0.2c-0.3-0.1-0.5-0.3-0.7-0.5c-0.2-0.2-0.4-0.5-0.5-0.8c-0.1-0.4-0.2-0.7-0.2-1.1v-3.5h0.9v3.4
				c0,0.5,0.1,1,0.4,1.4c0.3,0.3,0.7,0.5,1.2,0.4c0.5,0,1-0.2,1.3-0.6c0.3-0.4,0.5-1,0.5-1.6L127.7,69.3z"/>
			<path class="st0" d="M132,70.8c0,0.3,0.1,0.5,0.4,0.7c0.4,0.2,0.9,0.3,1.3,0.3c0.6,0,1.1,0.2,1.6,0.5c0.4,0.3,0.6,0.7,0.5,1.2
				v0.1c0,0.3,0,0.5-0.2,0.8c-0.1,0.2-0.3,0.4-0.5,0.6c-0.2,0.2-0.5,0.3-0.7,0.4c-0.3,0.1-0.7,0.1-1,0.1c-0.4,0-0.8-0.1-1.2-0.2
				c-0.3-0.1-0.6-0.3-0.8-0.5c-0.2-0.2-0.4-0.4-0.5-0.7c-0.1-0.2-0.2-0.5-0.2-0.8l0.9-0.2c0,0.4,0.2,0.8,0.5,1.1
				c0.3,0.3,0.8,0.4,1.2,0.4c0.4,0,0.7-0.1,1.1-0.3c0.3-0.2,0.4-0.4,0.4-0.7c0-0.3-0.1-0.6-0.4-0.7c-0.4-0.2-0.8-0.3-1.3-0.3
				c-0.6,0-1.1-0.2-1.6-0.5c-0.4-0.3-0.6-0.7-0.6-1.2v-0.1c0-0.3,0.1-0.5,0.2-0.7c0.1-0.2,0.3-0.4,0.5-0.5c0.2-0.1,0.4-0.3,0.7-0.3
				c0.3-0.1,0.5-0.1,0.8-0.1c0.3,0,0.7,0,1,0.2c0.3,0.1,0.5,0.2,0.8,0.4c0.2,0.2,0.4,0.4,0.5,0.6c0.1,0.2,0.2,0.4,0.2,0.7l-0.9,0.2
				c0-0.4-0.2-0.7-0.5-0.9c-0.3-0.2-0.6-0.3-1-0.3c-0.2,0-0.3,0-0.5,0c-0.1,0-0.3,0.1-0.4,0.2c-0.1,0.1-0.2,0.2-0.3,0.3
				C132,70.5,132,70.6,132,70.8z"/>
			<path class="st0" d="M137.3,69.3h1.9v-2.4h0.9v2.4h2.3v0.9h-2.3V74c0,0.2,0.1,0.4,0.3,0.4h1.7v0.9h-2c-0.5,0-0.9-0.4-0.9-0.9
				c0,0,0-0.1,0-0.1v-4.2h-1.9L137.3,69.3z"/>
			<path class="st0" d="M149.9,72.3c0,0.4-0.1,0.9-0.3,1.3c-0.1,0.4-0.4,0.7-0.6,1c-0.3,0.3-0.6,0.5-1,0.6c-0.7,0.3-1.5,0.3-2.3,0
				c-0.4-0.1-0.7-0.3-0.9-0.6c-0.3-0.3-0.5-0.6-0.6-1c-0.2-0.4-0.3-0.9-0.3-1.3v-0.2c0-0.4,0.1-0.9,0.3-1.3c0.1-0.4,0.4-0.7,0.7-1
				c0.3-0.3,0.6-0.5,0.9-0.6c0.7-0.3,1.5-0.3,2.3,0c0.4,0.1,0.7,0.3,0.9,0.6c0.3,0.3,0.5,0.6,0.7,1c0.2,0.4,0.3,0.9,0.3,1.3
				L149.9,72.3z M146.9,74.5c0.3,0,0.5,0,0.8-0.2c0.2-0.1,0.5-0.3,0.6-0.4c0.2-0.2,0.3-0.4,0.4-0.7c0.1-0.3,0.2-0.6,0.2-0.9v-0.2
				c0-0.3-0.1-0.6-0.2-0.9c-0.1-0.3-0.2-0.5-0.4-0.7c-0.2-0.2-0.4-0.3-0.6-0.4c-0.2-0.1-0.5-0.2-0.8-0.2c-0.3,0-0.5,0.1-0.8,0.2
				c-0.2,0.1-0.5,0.3-0.6,0.4c-0.2,0.2-0.3,0.4-0.4,0.7c-0.1,0.3-0.2,0.6-0.2,0.9v0.2c0,0.3,0,0.6,0.2,0.9c0.2,0.5,0.6,0.9,1.1,1.1
				C146.3,74.4,146.6,74.5,146.9,74.5L146.9,74.5z"/>
		</g>
		<line class="st0" x1="148.6" y1="81.5" x2="148.6" y2="236.8"/>
	</g>
	<line
      id="linha1"
      class="cls-1"
      x1="149.45"
      y1="149.3"
      x2="156.12"
      y2="149.3"
     />
     <line
      id="linha2"
      class="cls-1"
      x1="148.36"
      y1="112.9"
      x2="156.12"
      y2="112.9"
     />
	<polygon id="plantaPO" class="st0" points="106.2,204.4 84,182.2 84,146.7 107.8,122.9 131.5,146.7 131.5,183.4 109.9,204.4 	"/>
	<g id="arvore">
		<polygon class="st0" points="435.1,228.5 435.1,238.1 439.5,238.1 439.5,228.2 		"/>
		<polyline class="st0" points="432.6,154.6 427.3,157.9 424.6,160.4 423.6,159.5 429.6,150.4 427.3,149.6 421.2,159.5 418.4,160.4 
			410.9,159.5 414.6,154.4 419.2,149.6 420.9,145.6 430,144.6 435.7,138.7 433.9,136.7 429.1,142.7 420.5,143.2 425.8,137.7 
			430.5,133.4 428.8,131.2 425.5,135.3 420.5,138.2 417.1,146.2 412.7,152.9 411.6,141.4 416.9,122.9 414.6,122.9 410.8,138.2 
			409.6,124 411.2,118.4 408.5,117.4 407.4,123.6 408.8,142.7 408.2,145.4 405.4,139.6 403.6,128.9 402,128.9 402,140.2 
			406.3,148.8 406.7,157.2 401.3,154.6 395.9,144.6 395.9,129.4 394,130.6 394,142.7 384.6,134.9 383.6,137.4 393.8,144.6 
			396.2,150.8 388.9,152.8 383.6,149.3 383.6,152.6 389.2,155.4 397.1,153.1 400.4,156.4 405.7,160.6 406.6,164.3 405.4,201.8 
			410.8,201.8 409.2,175.4 409.7,163.4 417.9,162.5 423.8,163.6 426.9,162.4 430.4,164.4 430.4,164.4 431.4,162.9 431.4,162.9 
			428.2,160.4 432.4,157.2 		"/>
		<polygon class="st0" points="106.2,233.3 106.2,198.9 96.4,189.4 97.9,187.1 106.8,195 106.3,184.6 90.8,178 91.8,174.9 
			100.7,178.8 95.3,173.6 97,172.1 104.9,180.6 108.1,181.3 105.2,165.6 92.4,155 93.6,151.1 103.2,160.7 99.5,151.8 102,151.1 
			106.6,163.4 104.6,147.5 106.5,147.5 109.8,175.8 111.9,171.1 111.2,151.4 114.5,150.9 114,170 123.9,158.7 125.2,162.5 
			119.4,168 125.2,168.8 124.7,171 118.6,169.6 116.2,171.1 121.7,173.3 120.7,175.8 113.9,173.9 110.6,183.1 110.6,190.4 
			114,186.6 119.6,179.8 121.4,182.7 109.7,196.3 110.6,233.3 		"/>
	</g>
	<g id="plantaV">
		<polygon class="st0" points="83.5,144.3 102.8,122.9 113.5,123.1 131.3,143.9 131.3,187.3 110.4,204.1 105.8,204.1 83.5,187 		"/>
		<polygon class="st0" points="399.8,106.8 414.5,106.8 437.3,129.4 442.1,144.5 437.2,159.8 419,178.3 393.9,178.3 377.5,159.5 
			372.1,144.3 377.5,129 		"/>
	</g>
	<g id="plantas">
		<polygon class="st0" points="436.4,153.5 430.8,160.7 425.2,179.3 423.4,197.5 425.2,216.4 435.1,228.8 439.5,228.5 449.3,216.4 
			451.3,197.6 449.4,179.5 441.9,160.7 		"/>
	</g>
		</g>
	
</svg>