<svg class="img_svg"
	xmlns="http://www.w3.org/2000/svg" viewBox="0 0 554.47 265.86">

		<g id="v48">
			
			<rect id="chao" class="cls-2" y="184.29" width="554.47" height="81.57"/>
<polygon id="plantaPO" class="st0" points="106.3,204.3 84.1,182.1 84.1,146.6 107.9,122.8 131.7,146.6 131.7,183.3 110.1,204.3 	
		"/>
	<g id="arvore">
		<polygon class="st0" points="435.1,228.5 435.1,238.1 439.5,238.1 439.5,228.2 		"/>
		<polyline class="st0" points="432.6,154.6 427.3,158 424.6,160.5 423.6,159.6 429.6,150.4 427.3,149.6 421.2,159.6 418.4,160.5 
			410.9,159.6 414.6,154.5 419.2,149.6 420.9,145.6 430,144.6 435.7,138.8 433.9,136.8 429.1,142.8 420.5,143.3 425.8,137.8 
			430.5,133.4 428.8,131.3 425.5,135.4 420.5,138.3 417.1,146.3 412.7,153 411.6,141.4 416.9,122.9 414.6,122.9 410.8,138.3 
			409.6,124 411.2,118.4 408.5,117.4 407.4,123.6 408.8,142.8 408.2,145.4 405.4,139.6 403.6,128.9 402,128.9 402,140.3 
			406.3,148.8 406.7,157.3 401.3,154.6 395.9,144.6 395.9,129.4 394,130.6 394,142.8 384.6,134.9 383.6,137.4 393.8,144.6 
			396.2,150.8 388.9,152.8 383.6,149.3 383.6,152.6 389.2,155.4 397.1,153.1 400.4,156.5 405.7,160.6 406.6,164.3 405.4,201.8 
			410.8,201.8 409.2,175.5 409.7,163.5 417.9,162.5 423.8,163.6 426.9,162.4 430.4,164.5 430.4,164.5 431.4,163 431.4,163 
			428.2,160.5 432.4,157.3 		"/>
		<polygon class="st0" points="106.3,233.2 106.3,198.8 96.6,189.3 98,187 106.9,194.9 106.4,184.5 90.9,177.9 91.9,174.8 
			100.8,178.6 95.4,173.4 97.2,171.9 105,180.5 108.2,181.1 105.3,165.5 92.5,154.8 93.7,151 103.3,160.5 99.6,151.7 102.1,151 
			106.7,163.3 104.7,147.4 106.6,147.4 109.9,175.7 112.1,171 111.3,151.2 114.7,150.7 114.2,169.8 124,158.6 125.3,162.4 
			119.5,167.9 125.3,168.7 124.8,170.8 118.7,169.5 116.3,171 121.8,173.2 120.8,175.7 114.1,173.8 110.8,182.9 110.7,190.3 
			114.2,186.5 119.7,179.6 121.5,182.6 109.8,196.1 110.7,233.2 		"/>
	</g>
	<g id="plantaV">
		<polygon class="st0" points="83.6,144.2 102.9,122.8 113.6,122.9 131.4,143.8 131.4,187.2 110.6,203.9 105.9,204 83.6,186.9 		"/>
		<polygon class="st0" points="399.8,106.9 414.5,106.9 437.3,129.4 442.1,144.6 437.2,159.8 419,178.4 393.9,178.4 377.5,159.5 
			372.1,144.3 377.5,129 		"/>
	</g>
	<g id="plantas">
		<polygon class="st0" points="436.4,153.6 430.8,160.7 425.2,179.4 423.4,197.5 425.2,216.4 435.1,228.8 439.5,228.5 449.3,216.4 
			451.3,197.6 449.4,179.5 441.9,160.8 		"/>
		<polygon class="st0" points="304.5,215.1 304.5,215.1 305.4,215.1 305.8,215.1 306.5,214.4 306.5,213 305.8,212.2 305.1,211.5 
			304.3,212.2 303.6,213 303.6,214.4 304.5,215.1 		"/>
		<polygon class="st0" points="306.3,215.1 306.3,215.1 307.2,215.1 307.6,215.1 308.3,214.4 308.3,213 307.6,212.2 306.8,211.5 
			306.1,212.2 305.4,213 305.4,214.4 306.3,215.1 		"/>
		<polygon class="st0" points="305.4,215.1 305.4,215.1 306.4,215.1 306.7,215.1 307.5,214.4 307.5,213 306.7,212.2 306,211.5 
			305.3,212.2 304.5,213 304.5,214.4 305.4,215.1 		"/>
	</g>
	<g id="nlado">
		<polyline class="st0" points="250.7,238.3 271.2,218.1 271.1,155 250.3,175.8 		"/>
		<polygon class="st0" points="120.9,239 113.7,244.8 112.2,255 125.3,250.6 125.2,246.3 		"/>
		<polygon class="st0" points="131.1,226 148.5,228.9 129.6,230.3 116.7,227.4 		"/>
		<polygon class="st0" points="155.7,239 148.5,243.4 147,250.6 152.8,252.1 155.7,247.7 		"/>
	</g>
	<g id="lado">
		<polyline class="st0" points="343.5,238.1 364.4,217.4 364.3,154.3 343.5,175.1 		"/>
		<polygon class="st0" points="393.1,239 400.2,244.8 401.8,255 388.6,250.6 388.7,246.3 		"/>
		<polygon class="st0" points="382.8,226 365.4,228.9 384.3,230.3 397.3,227.4 		"/>
		<polygon class="st0" points="358.2,239 365.5,243.4 367,250.6 361.1,252.1 358.3,247.7 		"/>
	</g>
	<g id="ncima">
		<polygon class="st0" points="209,133.9 250.6,175.8 271.4,155 229.7,112.8 		"/>
	</g>
	<g id="nfrente">
		<polyline class="st0" points="250.7,238.3 250.7,175.8 209.1,133.9 167.7,173.7 167.7,238.2 		"/>
		<polygon class="st0" points="116.7,228.5 110.8,231.8 96.3,234.7 94.9,249.2 103.5,253.6 112.2,255 113.7,244.8 120.9,239 
			125.2,246.3 125.3,250.6 147,250.6 148.5,243.4 155.7,239 151.5,231.8 148.5,228.9 129.6,230.3 		"/>
	</g>
	<g id="cima">
		<polygon class="st0" points="301.9,133.2 343.5,175.1 364.3,154.3 322.6,112.1 		"/>
	</g>
	<g id="njanela">
		<rect x="219.3" y="175.6" class="st0" width="20.6" height="20.6"/>
		<rect x="177.5" y="196.5" class="st0" width="20.6" height="41.6"/>
		<polygon class="st0" points="129.6,230.3 132.5,234.7 151.5,231.8 148.5,228.9 		"/>
		<polygon class="st0" points="96.3,234.7 105,239 103.5,253.6 94.9,249.2 		"/>
		<polygon class="st0" points="129.6,230.3 116.7,227.4 110.8,231.8 125.3,234.8 		"/>
	</g>
	<g id="frente">
		<polyline class="st0" points="343.5,238.1 343.5,175.1 301.9,133.2 260.3,175.1 260.8,238 		"/>
		<polygon class="st0" points="397.2,228.5 403.1,231.8 417.6,234.7 419,249.2 410.4,253.6 401.8,255 400.2,244.8 393.1,239 
			388.7,246.3 388.6,250.6 367,250.6 365.5,243.4 358.2,239 362.5,231.8 365.4,228.9 384.3,230.3 		"/>
	</g>
	<g id="janela">
		<rect x="313.4" y="175.2" class="st0" width="20.6" height="20.6"/>
		<rect x="271.6" y="196.3" class="st0" width="20.6" height="41.6"/>
		<polygon class="st0" points="384.3,230.3 381.4,234.7 362.5,231.8 365.4,228.9 		"/>
		<polygon class="st0" points="417.6,234.7 408.9,239 410.4,253.6 419,249.2 		"/>
		<polygon class="st0" points="384.3,230.3 397.3,227.4 403.1,231.8 388.7,234.8 		"/>
	</g>
		</g>
</svg>